<svg width="18" height="18" viewBox="0 0 18 18" fill="none" xmlns="http://www.w3.org/2000/svg">
<path d="M9.62508 6.49996C9.62508 6.15478 9.34526 5.87496 9.00008 5.87496C8.6549 5.87496 8.37508 6.15478 8.37508 6.49996L8.37508 8.37498H6.50008C6.1549 8.37498 5.87508 8.6548 5.87508 8.99998C5.87508 9.34516 6.1549 9.62498 6.50008 9.62498H8.37508V11.5C8.37508 11.8451 8.6549 12.125 9.00008 12.125C9.34526 12.125 9.62508 11.8451 9.62508 11.5L9.62508 9.62498H11.5001C11.8453 9.62498 12.1251 9.34516 12.1251 8.99998C12.1251 8.6548 11.8453 8.37498 11.5001 8.37498H9.62508V6.49996Z" fill="white"/>
<path fill-rule="evenodd" clip-rule="evenodd" d="M9.0479 0.0416261H8.95227C7.02861 0.0416158 5.52107 0.0416076 4.34484 0.199749C3.14089 0.361615 2.19087 0.699399 1.4452 1.44507C0.699521 2.19075 0.361737 3.14077 0.199871 4.34471C0.0417297 5.52095 0.0417378 7.02848 0.0417482 8.95213V9.04777C0.0417378 10.9714 0.0417297 12.479 0.199871 13.6552C0.361737 14.8592 0.699521 15.8092 1.4452 16.5548C2.19087 17.3005 3.14089 17.6383 4.34484 17.8002C5.52108 17.9583 7.02861 17.9583 8.95227 17.9583H9.04789C10.9716 17.9583 12.4791 17.9583 13.6553 17.8002C14.8593 17.6383 15.8093 17.3005 16.555 16.5548C17.3006 15.8092 17.6384 14.8592 17.8003 13.6552C17.9584 12.479 17.9584 10.9714 17.9584 9.04777V8.95215C17.9584 7.02849 17.9584 5.52095 17.8003 4.34471C17.6384 3.14077 17.3006 2.19075 16.555 1.44507C15.8093 0.699399 14.8593 0.361615 13.6553 0.199749C12.4791 0.0416076 10.9716 0.0416158 9.0479 0.0416261ZM2.32908 2.32896C2.80379 1.85424 3.44606 1.58183 4.5114 1.4386C5.59471 1.29295 7.01823 1.29163 9.00008 1.29163C10.9819 1.29163 12.4055 1.29295 13.4888 1.4386C14.5541 1.58183 15.1964 1.85424 15.6711 2.32896C16.1458 2.80367 16.4182 3.44594 16.5614 4.51127C16.7071 5.59459 16.7084 7.01811 16.7084 8.99996C16.7084 10.9818 16.7071 12.4053 16.5614 13.4886C16.4182 14.554 16.1458 15.1962 15.6711 15.671C15.1964 16.1457 14.5541 16.4181 13.4888 16.5613C12.4055 16.707 10.9819 16.7083 9.00008 16.7083C7.01823 16.7083 5.59471 16.707 4.5114 16.5613C3.44606 16.4181 2.80379 16.1457 2.32908 15.671C1.85437 15.1962 1.58195 14.554 1.43872 13.4886C1.29308 12.4053 1.29175 10.9818 1.29175 8.99996C1.29175 7.01811 1.29308 5.59459 1.43872 4.51127C1.58195 3.44594 1.85437 2.80367 2.32908 2.32896Z" fill="white"/>
</svg>
