<?xml version="1.0" encoding="UTF-8"?>
<svg xmlns="http://www.w3.org/2000/svg" xmlns:xlink="http://www.w3.org/1999/xlink" width="450pt" height="150pt" viewBox="0 0 450 150" version="1.1">
<g id="surface1">
<path style=" stroke:none;fill-rule:nonzero;fill:rgb(0.799561%,1.199341%,1.199341%);fill-opacity:1;" d="M 139.871094 62.328125 C 146.941406 75.753906 124.277344 102.882813 124.277344 102.882813 L 122.917969 103.394531 C 107.566406 108.9375 79.804688 105.277344 79.847656 105.261719 L 78.105469 108.851563 C 73.886719 127.132813 56.113281 138.566406 41.5 141.457031 C 41.5 141.457031 11.441406 145.441406 3.410156 126.636719 C -6.761719 102.773438 14.238281 74.28125 26.375 62.160156 L 30.277344 59.679688 C 35.007813 58.71875 33.027344 67.445313 29.253906 74.464844 C 24.570313 83.199219 15.847656 99.496094 20.675781 107.640625 C 20.675781 107.640625 37.429688 118.863281 62.476563 107.214844 L 63.84375 105.496094 C 63.84375 105.496094 58.960938 87.742188 57.65625 83.363281 L 57.320313 81.597656 C 57.320313 81.597656 60.6875 76.59375 61.734375 74.519531 C 63.546875 71.039063 71.941406 59.304688 71.941406 59.304688 C 72.503906 60.777344 76.171875 68.777344 76.542969 70.214844 C 77.773438 75.082031 79.152344 77.707031 81.292969 77.757813 C 84.167969 77.886719 86.675781 74.28125 89.15625 71.84375 C 99.878906 61.183594 112.078125 49.050781 129.355469 52.398438 L 130.152344 52.519531 L 130.777344 52.9375 L 131.9375 53.757813 C 134.730469 55.535156 137.773438 58.320313 139.871094 62.328125 M 131.199219 79.097656 C 130.152344 71.679688 120.9375 68.804688 120.9375 68.804688 C 103.769531 66.804688 92.820313 84.011719 92.820313 84.011719 C 100.136719 86.507813 108.128906 87.601563 115.539063 86.9375 C 119.136719 86.644531 126.980469 86.242188 126.980469 86.242188 C 128.578125 85.789063 129.972656 84.679688 130.746094 83.199219 C 131.441406 81.761719 131.199219 79.097656 131.199219 79.097656 "/>
<path style=" stroke:none;fill-rule:nonzero;fill:rgb(0.799561%,1.199341%,1.199341%);fill-opacity:1;" d="M 139.871094 62.328125 L 139.253906 62.660156 C 140.140625 64.347656 140.53125 66.292969 140.53125 68.414063 C 140.550781 75.214844 136.382813 83.789063 132.15625 90.578125 C 127.953125 97.386719 123.738281 102.40625 123.738281 102.417969 L 124.277344 102.882813 L 124.03125 102.203125 L 122.675781 102.730469 L 122.917969 103.394531 L 122.6875 102.730469 C 116.21875 105.0625 107.359375 105.75 99.398438 105.75 C 94.140625 105.75 89.269531 105.457031 85.714844 105.15625 C 83.933594 105 82.492188 104.859375 81.492188 104.746094 L 80.34375 104.605469 L 80.042969 104.566406 L 79.980469 104.558594 L 79.964844 104.621094 L 79.980469 104.558594 L 79.964844 104.621094 L 79.980469 104.558594 L 79.867188 105.171875 L 80.015625 104.566406 L 79.980469 104.558594 L 79.867188 105.171875 L 80.015625 104.566406 L 79.847656 105.25 L 80.09375 104.585938 L 80.015625 104.566406 L 79.847656 105.25 L 80.09375 104.585938 L 79.847656 105.25 L 80.214844 104.652344 L 80.09375 104.585938 L 79.847656 105.25 L 80.214844 104.652344 L 79.847656 105.261719 L 80.546875 105.261719 L 80.214844 104.652344 L 79.847656 105.261719 L 80.546875 105.261719 L 79.847656 105.261719 L 79.847656 105.972656 L 80.546875 105.261719 L 79.847656 105.261719 L 79.847656 105.972656 L 79.847656 105.261719 L 79.210938 104.941406 L 77.480469 108.539063 L 77.441406 108.617188 L 77.421875 108.691406 C 73.316406 126.597656 55.773438 137.925781 41.367188 140.757813 L 41.5 141.457031 L 41.421875 140.746094 C 41.410156 140.746094 38.796875 141.101563 34.886719 141.101563 C 25.617188 141.117188 9.425781 139.082031 4.054688 126.347656 C 2.214844 122.03125 1.410156 117.554688 1.40625 113.042969 C 1.375 93.160156 17.039063 72.457031 26.859375 62.660156 L 26.375 62.160156 L 26.746094 62.757813 L 30.648438 60.273438 L 30.277344 59.679688 L 30.414063 60.371094 L 30.9375 60.3125 L 31.957031 60.835938 L 32.34375 62.691406 C 32.359375 65.449219 30.804688 70.105469 28.636719 74.117188 C 24.921875 81.085938 18.582031 92.796875 18.558594 101.71875 C 18.558594 104.027344 18.996094 106.1875 20.066406 108.003906 L 20.15625 108.140625 L 20.285156 108.226563 C 20.359375 108.277344 27.75 113.214844 40.050781 113.214844 C 46.429688 113.214844 54.121094 111.875 62.773438 107.859375 L 62.914063 107.785156 L 64.398438 105.953125 L 64.617188 105.667969 L 64.523438 105.308594 C 64.523438 105.308594 59.640625 87.5625 58.328125 83.152344 L 57.65625 83.363281 L 58.351563 83.222656 L 58.015625 81.464844 L 57.320313 81.597656 L 57.898438 81.996094 C 57.90625 81.980469 61.257813 77.015625 62.363281 74.855469 L 61.734375 74.519531 L 62.351563 74.855469 C 63.21875 73.191406 65.777344 69.371094 68.101563 66.019531 C 70.414063 62.652344 72.503906 59.726563 72.511719 59.726563 L 71.941406 59.304688 L 71.289063 59.5625 C 71.859375 61.070313 75.554688 69.136719 75.867188 70.390625 C 76.492188 72.863281 77.144531 74.773438 77.972656 76.15625 C 78.789063 77.53125 79.894531 78.441406 81.277344 78.472656 L 81.292969 77.757813 L 81.269531 78.472656 L 81.4375 78.484375 C 84.855469 78.378906 87.238281 74.644531 89.640625 72.347656 L 89.652344 72.347656 C 99.136719 62.90625 109.664063 52.519531 123.570313 52.539063 C 125.398438 52.539063 127.277344 52.71875 129.222656 53.101563 L 129.230469 53.101563 L 129.890625 53.195313 L 130.371094 53.535156 L 131.542969 54.34375 L 131.554688 54.351563 L 131.5625 54.359375 C 134.273438 56.085938 137.222656 58.785156 139.253906 62.660156 L 139.871094 62.328125 L 140.496094 62 C 138.316406 57.847656 135.195313 54.984375 132.3125 53.15625 L 131.9375 53.757813 L 132.335938 53.175781 L 131.167969 52.359375 L 131.167969 52.347656 L 130.535156 51.925781 L 130.410156 51.835938 L 129.464844 51.683594 L 129.355469 52.398438 L 129.488281 51.695313 C 127.453125 51.292969 125.480469 51.121094 123.570313 51.121094 C 108.902344 51.136719 98.136719 61.933594 88.660156 71.335938 L 88.667969 71.335938 C 86.195313 73.839844 83.652344 77.152344 81.4375 77.058594 L 81.324219 77.054688 L 81.316406 77.054688 C 80.546875 77.023438 79.894531 76.59375 79.171875 75.421875 C 78.472656 74.269531 77.828125 72.429688 77.226563 70.035156 C 76.796875 68.414063 73.136719 60.492188 72.597656 59.054688 L 72.128906 57.816406 L 71.371094 58.890625 C 71.363281 58.910156 62.984375 70.585938 61.113281 74.1875 L 61.113281 74.199219 C 60.109375 76.175781 56.742188 81.191406 56.742188 81.191406 L 56.570313 81.441406 L 56.960938 83.492188 L 56.976563 83.535156 L 56.984375 83.5625 C 58.285156 87.933594 63.15625 105.667969 63.164063 105.699219 L 63.84375 105.496094 L 63.296875 105.050781 L 61.929688 106.757813 L 62.476563 107.214844 L 62.183594 106.558594 C 53.722656 110.503906 46.234375 111.792969 40.050781 111.792969 C 34.089844 111.792969 29.332031 110.597656 26.054688 109.40625 C 22.789063 108.210938 21.066406 107.035156 21.0625 107.046875 L 20.675781 107.640625 L 21.277344 107.269531 C 20.371094 105.730469 19.96875 103.859375 19.96875 101.71875 C 19.933594 93.433594 26.148438 81.714844 29.871094 74.804688 C 32.109375 70.613281 33.734375 65.914063 33.753906 62.691406 C 33.746094 61.675781 33.597656 60.777344 33.144531 60.058594 C 32.699219 59.328125 31.875 58.875 30.9375 58.890625 L 30.136719 58.976563 L 30.011719 59 L 26 61.550781 L 25.933594 61.59375 L 25.878906 61.648438 C 15.921875 71.617188 0.0390625 92.417969 0 113.042969 C 0 117.726563 0.832031 122.402344 2.761719 126.917969 C 8.679688 140.617188 25.503906 142.515625 34.886719 142.519531 C 38.882813 142.519531 41.578125 142.171875 41.597656 142.160156 L 41.644531 142.160156 C 56.460938 139.214844 74.457031 127.6875 78.789063 109.019531 L 78.105469 108.851563 L 78.742188 109.160156 L 80.472656 105.574219 L 80.972656 104.539063 L 79.847656 104.539063 L 79.144531 105.261719 L 79.472656 105.855469 L 79.691406 105.953125 C 80.027344 106.019531 88.847656 107.164063 99.398438 107.171875 C 107.441406 107.171875 116.398438 106.5 123.152344 104.066406 L 123.160156 104.066406 L 124.527344 103.542969 L 124.695313 103.480469 L 124.820313 103.339844 C 124.828125 103.261719 141.871094 83.070313 141.945313 68.414063 C 141.945313 66.113281 141.515625 63.933594 140.484375 62 L 140.496094 62 Z M 131.199219 79.097656 L 131.890625 78.996094 C 130.664063 70.980469 121.179688 68.183594 121.140625 68.125 L 121.074219 68.105469 L 121.007813 68.09375 C 120.046875 67.992188 119.089844 67.9375 118.15625 67.9375 C 102.101563 67.980469 92.292969 83.582031 92.230469 83.628906 L 91.746094 84.394531 L 92.597656 84.679688 C 98.578125 86.730469 104.984375 87.851563 111.1875 87.851563 C 112.671875 87.851563 114.144531 87.777344 115.589844 87.644531 C 119.175781 87.363281 127 86.957031 127.007813 86.957031 L 127.089844 86.957031 L 127.167969 86.9375 C 128.953125 86.421875 130.496094 85.191406 131.363281 83.523438 L 131.371094 83.515625 L 131.371094 83.511719 C 131.871094 82.453125 131.9375 81.128906 131.9375 80.171875 L 131.902344 79.027344 L 131.902344 79.015625 L 131.890625 78.996094 L 131.199219 79.097656 L 130.496094 79.164063 L 130.535156 80.171875 L 130.113281 82.878906 L 130.746094 83.199219 L 130.121094 82.855469 C 129.445313 84.160156 128.203125 85.167969 126.785156 85.5625 L 126.980469 86.242188 L 126.941406 85.535156 C 126.941406 85.535156 119.109375 85.9375 115.484375 86.226563 L 115.476563 86.238281 C 114.066406 86.359375 112.636719 86.417969 111.1875 86.417969 C 105.152344 86.417969 98.890625 85.335938 93.058594 83.335938 L 92.820313 84.011719 L 93.421875 84.394531 C 93.421875 84.394531 94 83.476563 95.140625 82.054688 C 98.566406 77.800781 106.851563 69.335938 118.15625 69.355469 C 119.039063 69.355469 119.9375 69.410156 120.851563 69.515625 L 120.9375 68.804688 L 120.730469 69.484375 C 120.730469 69.484375 122.9375 70.179688 125.285156 71.761719 C 127.632813 73.355469 130.023438 75.789063 130.503906 79.203125 L 131.199219 79.097656 L 130.496094 79.164063 "/>
<path style=" stroke:none;fill-rule:nonzero;fill:rgb(98.799133%,98.799133%,98.799133%);fill-opacity:1;" d="M 143.917969 61.640625 C 150.980469 75.027344 128.019531 102.773438 128.019531 102.773438 L 126.664063 103.28125 C 110.929688 109.949219 83.792969 105.914063 83.792969 105.914063 L 82.0625 109.484375 C 76.613281 127.132813 60.066406 140.164063 45.230469 141.707031 C 45.230469 141.707031 14.441406 145.441406 6.742188 126.492188 C -3.015625 102.472656 17.957031 74.84375 30.144531 62.039063 L 33.816406 58.792969 C 40.089844 55.726563 36.78125 67.308594 33.019531 74.328125 C 28.335938 83.085938 19.605469 99.363281 24.453125 107.550781 C 24.453125 107.550781 41.246094 118.734375 66.207031 107.101563 L 67.597656 105.351563 C 67.597656 105.351563 62.695313 87.636719 61.363281 83.199219 L 61.085938 81.464844 C 61.085938 81.464844 64.449219 76.511719 65.492188 74.425781 C 67.335938 70.890625 75.667969 59.144531 75.667969 59.144531 C 76.238281 60.628906 79.941406 68.660156 80.292969 70.121094 C 81.546875 74.941406 82.878906 77.140625 85.035156 77.195313 C 87.929688 77.328125 90.574219 74.28125 92.882813 71.722656 C 102.652344 60.878906 119.453125 47.1875 133.226563 52.152344 C 140.152344 54.644531 141.792969 57.636719 143.917969 61.640625 M 126.289063 78.609375 C 125.617188 73.742188 119.585938 71.894531 119.585938 71.894531 C 108.410156 70.546875 100.027344 82.113281 100.027344 82.113281 C 104.75 83.71875 111.238281 84.113281 116.085938 83.71875 C 118.398438 83.511719 123.515625 83.246094 123.515625 83.246094 C 124.585938 82.917969 125.480469 82.1875 125.984375 81.246094 C 126.449219 80.3125 126.289063 78.609375 126.289063 78.609375 "/>
<path style=" stroke:none;fill-rule:nonzero;fill:rgb(0.799561%,1.199341%,1.199341%);fill-opacity:1;" d="M 143.917969 61.640625 L 143.296875 61.96875 C 144.175781 63.632813 144.5625 65.546875 144.5625 67.660156 C 144.578125 74.511719 140.339844 83.246094 136.046875 90.183594 C 131.773438 97.152344 127.488281 102.300781 127.488281 102.324219 L 128.019531 102.773438 L 127.789063 102.101563 L 126.421875 102.601563 L 126.410156 102.617188 L 126.394531 102.625 C 119.441406 105.578125 110.050781 106.421875 101.882813 106.421875 C 91.984375 106.421875 83.90625 105.199219 83.886719 105.199219 L 83.378906 105.128906 L 81.433594 109.175781 L 81.40625 109.226563 L 81.390625 109.277344 C 76.050781 126.636719 59.664063 139.515625 45.164063 140.996094 L 45.15625 140.996094 L 45.148438 141.003906 C 45.148438 141.003906 42.730469 141.292969 39.066406 141.292969 C 29.71875 141.316406 12.632813 139.308594 7.398438 126.21875 C 5.683594 121.996094 4.9375 117.664063 4.9375 113.308594 C 4.898438 93.402344 20.6875 72.96875 30.640625 62.53125 L 30.144531 62.039063 L 30.597656 62.566406 L 34.273438 59.324219 L 33.816406 58.792969 L 34.113281 59.429688 L 35.59375 58.992188 L 36.324219 59.390625 L 36.632813 61.015625 C 36.648438 64.109375 34.605469 69.914063 32.402344 73.992188 C 28.6875 80.976563 22.355469 92.65625 22.332031 101.597656 C 22.332031 103.921875 22.769531 106.085938 23.855469 107.914063 L 23.9375 108.054688 L 24.070313 108.148438 C 24.144531 108.199219 31.523438 113.09375 43.789063 113.09375 C 50.167969 113.09375 57.867188 111.773438 66.5 107.742188 L 66.652344 107.675781 L 68.140625 105.800781 L 68.363281 105.515625 L 68.269531 105.164063 C 68.269531 105.160156 63.378906 87.449219 62.042969 82.984375 L 61.363281 83.199219 L 62.0625 83.078125 L 61.777344 81.355469 L 61.085938 81.464844 L 61.667969 81.871094 C 61.675781 81.855469 65.019531 76.9375 66.117188 74.746094 L 65.492188 74.425781 L 66.109375 74.757813 C 67.886719 71.335938 76.230469 59.570313 76.238281 59.5625 L 75.667969 59.144531 L 75.015625 59.398438 C 75.597656 60.910156 79.328125 69.027344 79.601563 70.285156 L 79.609375 70.292969 L 79.609375 70.3125 C 80.253906 72.75 80.90625 74.558594 81.742188 75.839844 C 82.558594 77.117188 83.691406 77.886719 85.023438 77.90625 L 85.035156 77.195313 L 85.003906 77.90625 L 85.230469 77.90625 C 88.566406 77.835938 91.125 74.675781 93.402344 72.207031 L 93.402344 72.199219 L 93.402344 72.207031 C 101.675781 62.988281 115.140625 51.773438 127.054688 51.808594 C 129.089844 51.820313 131.0625 52.132813 132.988281 52.820313 C 139.769531 55.304688 141.136719 57.96875 143.296875 61.976563 L 143.296875 61.96875 L 143.917969 61.640625 L 144.535156 61.296875 C 142.4375 57.300781 140.527344 53.976563 133.457031 51.476563 C 131.378906 50.730469 129.226563 50.386719 127.054688 50.386719 C 114.296875 50.433594 100.785156 61.929688 92.367188 71.246094 L 92.367188 71.238281 C 90.117188 73.78125 87.539063 76.542969 85.230469 76.480469 L 85.074219 76.480469 L 85.0625 76.472656 L 85.054688 76.472656 C 84.230469 76.445313 83.613281 76.09375 82.914063 75.050781 C 82.226563 74.003906 81.585938 72.3125 80.96875 69.945313 L 80.292969 70.121094 L 80.976563 69.960938 C 80.574219 68.28125 76.878906 60.339844 76.324219 58.882813 L 75.855469 57.660156 L 75.105469 58.726563 C 75.089844 58.75 66.777344 70.441406 64.875 74.082031 L 64.863281 74.097656 C 63.867188 76.09375 60.515625 81.058594 60.507813 81.070313 L 60.347656 81.304688 L 60.671875 83.304688 L 60.6875 83.355469 L 60.695313 83.40625 C 62.019531 87.820313 66.917969 105.527344 66.917969 105.542969 L 67.597656 105.351563 L 67.046875 104.910156 L 65.660156 106.652344 L 66.207031 107.101563 L 65.910156 106.457031 C 57.457031 110.390625 49.980469 111.675781 43.789063 111.675781 C 37.84375 111.675781 33.097656 110.484375 29.832031 109.296875 C 26.570313 108.113281 24.847656 106.945313 24.835938 106.957031 L 24.453125 107.550781 L 25.0625 107.183594 C 24.144531 105.644531 23.730469 103.746094 23.730469 101.597656 C 23.710938 93.296875 29.917969 81.597656 33.640625 74.675781 C 35.910156 70.394531 38.011719 64.636719 38.03125 61.015625 L 37.53125 58.664063 L 35.59375 57.574219 L 33.507813 58.152344 L 33.425781 58.183594 L 29.679688 61.5 L 29.652344 61.515625 L 29.636719 61.542969 C 19.601563 72.113281 3.5625 92.65625 3.53125 113.308594 C 3.523438 117.828125 4.308594 122.359375 6.09375 126.769531 C 11.898438 140.863281 29.613281 142.699219 39.066406 142.71875 C 42.804688 142.71875 45.296875 142.421875 45.316406 142.421875 L 45.230469 141.707031 L 45.304688 142.421875 C 60.46875 140.828125 77.171875 127.640625 82.734375 109.703125 L 82.0625 109.484375 L 82.695313 109.800781 L 84.414063 106.226563 L 83.792969 105.914063 L 83.691406 106.613281 C 83.710938 106.613281 91.875 107.839844 101.882813 107.839844 C 110.152344 107.828125 119.660156 107.015625 126.933594 103.929688 L 126.664063 103.28125 L 126.910156 103.953125 L 128.265625 103.4375 L 128.441406 103.382813 L 128.566406 103.230469 C 128.574219 103.15625 145.902344 82.417969 145.96875 67.660156 C 145.96875 65.375 145.546875 63.214844 144.539063 61.296875 L 144.535156 61.296875 Z M 126.289063 78.609375 L 126.984375 78.507813 C 126.140625 73.054688 119.816406 71.265625 119.789063 71.210938 L 119.722656 71.1875 L 119.667969 71.183594 L 117.765625 71.0625 C 107.03125 71.128906 99.519531 81.65625 99.460938 81.683594 L 98.890625 82.46875 L 99.808594 82.785156 C 103.527344 84.054688 108.214844 84.570313 112.433594 84.578125 C 113.726563 84.578125 114.980469 84.519531 116.140625 84.421875 L 116.148438 84.421875 C 118.433594 84.21875 123.539063 83.96875 123.546875 83.960938 L 123.636719 83.960938 L 123.71875 83.933594 C 124.960938 83.546875 126 82.699219 126.601563 81.589844 L 126.609375 81.585938 L 126.609375 81.574219 L 127.023438 79.296875 L 126.992188 78.535156 L 126.992188 78.519531 L 126.984375 78.507813 L 126.289063 78.609375 L 125.59375 78.671875 L 125.617188 79.296875 L 125.351563 80.925781 L 125.984375 81.246094 L 125.363281 80.90625 C 124.960938 81.675781 124.203125 82.289063 123.308594 82.578125 L 123.515625 83.246094 L 123.484375 82.539063 C 123.476563 82.539063 118.371094 82.792969 116.015625 83.003906 L 116.03125 83.003906 C 114.90625 83.097656 113.691406 83.148438 112.433594 83.148438 C 108.339844 83.148438 103.746094 82.625 100.246094 81.441406 L 100.027344 82.113281 L 100.589844 82.535156 C 100.589844 82.535156 101.03125 81.925781 101.882813 80.976563 C 104.410156 78.121094 110.445313 72.472656 117.765625 72.492188 L 119.496094 72.59375 L 119.585938 71.894531 L 119.378906 72.578125 C 119.378906 72.578125 120.789063 73.011719 122.300781 74.011719 C 123.800781 75.03125 125.300781 76.5625 125.601563 78.699219 L 126.289063 78.609375 L 125.59375 78.671875 "/>
<path style=" stroke:none;fill-rule:nonzero;fill:rgb(0.799561%,1.199341%,1.199341%);fill-opacity:1;" d="M 308.511719 78.726563 L 309.226563 78.726563 L 309.1875 78.53125 C 309.1875 78.394531 309.144531 78.214844 309.070313 78.003906 L 174.308594 78.003906 C 171.636719 78.003906 167.679688 73.601563 167.570313 70.855469 C 167.402344 66.808594 166.824219 51.878906 166.785156 43.136719 C 166.761719 35.035156 166.738281 26.660156 166.261719 17.417969 C 166.164063 15.429688 166.234375 14.703125 165.03125 11.199219 C 164.046875 8.355469 162.445313 5.507813 159.046875 5.78125 L 146.585938 24.5625 C 151.546875 46.347656 150.058594 70.332031 152.433594 97.769531 C 154.464844 102.585938 159.804688 106.21875 164.851563 107.066406 L 315.285156 107.128906 L 316.808594 107.128906 L 318.042969 106.234375 L 318.070313 106.226563 L 318.070313 106.214844 C 322.960938 102.367188 325.699219 96.578125 328.070313 91.519531 L 328.0625 91.527344 C 329.066406 89.386719 330.0625 87.324219 331.058594 85.671875 L 331.074219 85.667969 L 331.625 84.71875 L 331.714844 84.554688 L 331.714844 83.105469 C 331.714844 75.84375 330.324219 69.039063 328.820313 63.867188 C 327.277344 58.667969 325.714844 55.238281 325.101563 54.378906 L 325.085938 54.371094 L 325.085938 54.359375 C 323.34375 52.253906 321.300781 46.726563 315.875 46.671875 L 314.597656 46.765625 L 312.457031 47.105469 L 312.074219 47.164063 L 311.105469 49.53125 L 304.011719 66.644531 L 303.472656 67.933594 L 303.378906 68.160156 L 303.800781 69.683594 L 303.800781 69.691406 C 304.371094 71.609375 305.488281 73.328125 306.539063 74.964844 L 306.539063 74.972656 L 306.554688 74.980469 L 307.828125 77.027344 L 308.492188 78.53125 L 308.492188 78.582031 "/>
<path style=" stroke:none;fill-rule:nonzero;fill:rgb(0.799561%,1.199341%,1.199341%);fill-opacity:1;" d="M 436.597656 7.738281 C 438.457031 4.136719 440.855469 2.375 440.855469 2.375 C 442.386719 11.785156 443.382813 30.59375 443.886719 39.644531 C 446.40625 85.867188 445.285156 96.4375 445.285156 96.4375 C 439.105469 113.125 427.53125 126.113281 427.53125 126.113281 L 426.902344 114.707031 C 428.210938 97.855469 425.433594 32.332031 425.433594 32.332031 C 425.433594 32.332031 432.0625 16.527344 436.597656 7.738281 "/>
<path style=" stroke:none;fill-rule:nonzero;fill:rgb(0.799561%,1.199341%,1.199341%);fill-opacity:1;" d="M 436.597656 7.738281 L 437.214844 8.070313 C 438.113281 6.335938 439.136719 5.050781 439.941406 4.199219 L 441.273438 2.949219 L 440.855469 2.375 L 440.160156 2.488281 C 441.679688 11.824219 442.699219 30.640625 443.175781 39.683594 C 444.515625 64.183594 444.835938 78.660156 444.835938 86.839844 C 444.835938 94.085938 444.582031 96.347656 444.601563 96.359375 L 445.285156 96.4375 L 444.636719 96.1875 C 441.566406 104.449219 437.152344 111.824219 433.515625 117.128906 C 429.871094 122.421875 427 125.617188 427 125.636719 L 427.53125 126.113281 L 428.222656 126.078125 L 427.605469 114.660156 L 426.902344 114.707031 L 427.585938 114.765625 C 427.863281 111.503906 427.957031 106.5 427.957031 100.519531 C 427.957031 75.179688 426.136719 32.300781 426.136719 32.300781 L 425.433594 32.332031 L 426.078125 32.605469 C 426.09375 32.570313 432.71875 16.808594 437.214844 8.070313 L 437.214844 8.082031 L 437.214844 8.070313 L 436.597656 7.738281 L 435.96875 7.410156 C 431.425781 16.257813 424.789063 32.035156 424.789063 32.042969 L 424.722656 32.191406 L 424.738281 32.359375 C 424.738281 32.382813 425.175781 43.074219 425.636719 56.953125 C 426.101563 70.832031 426.542969 87.882813 426.542969 100.519531 C 426.542969 106.480469 426.4375 111.46875 426.199219 114.652344 L 426.191406 114.699219 L 426.820313 126.148438 L 426.917969 127.859375 L 428.042969 126.582031 C 428.074219 126.546875 439.703125 113.523438 445.945313 96.679688 L 445.976563 96.59375 L 445.988281 96.511719 C 445.988281 96.472656 446.242188 94.121094 446.242188 86.839844 C 446.242188 78.617188 445.910156 64.132813 444.582031 39.609375 C 444.085938 30.546875 443.101563 11.75 441.546875 2.261719 L 441.367188 1.113281 L 440.433594 1.792969 C 440.382813 1.84375 437.917969 3.675781 435.972656 7.410156 L 435.96875 7.410156 "/>
<path style=" stroke:none;fill-rule:nonzero;fill:rgb(0.799561%,1.199341%,1.199341%);fill-opacity:1;" d="M 99.664063 46.621094 L 79.152344 32.660156 L 94.617188 11.722656 L 114.441406 27.179688 Z M 99.664063 46.621094 "/>
<path style=" stroke:none;fill-rule:nonzero;fill:rgb(0.799561%,1.199341%,1.199341%);fill-opacity:1;" d="M 99.664063 46.621094 L 100.0625 46.03125 L 80.15625 32.492188 L 94.757813 12.726563 L 113.460938 27.3125 L 99.121094 46.1875 L 99.664063 46.621094 L 100.0625 46.03125 L 99.664063 46.621094 L 100.230469 47.058594 L 115.433594 27.054688 L 94.488281 10.714844 L 78.144531 32.835938 L 99.832031 47.585938 L 100.230469 47.058594 "/>
<path style=" stroke:none;fill-rule:nonzero;fill:rgb(0.799561%,1.199341%,1.199341%);fill-opacity:1;" d="M 238.074219 125.34375 L 251.519531 116.09375 L 269.714844 132.96875 L 251.339844 149.023438 L 239.445313 138.3125 L 225.578125 149.085938 L 206.6875 133.363281 L 226.128906 115.796875 "/>
<path style=" stroke:none;fill-rule:nonzero;fill:rgb(0.799561%,1.199341%,1.199341%);fill-opacity:1;" d="M 238.074219 125.34375 L 238.46875 125.929688 L 251.449219 117.007813 L 268.660156 132.949219 L 251.339844 148.082031 L 239.480469 137.382813 L 225.589844 148.179688 L 207.765625 133.34375 L 226.160156 116.726563 L 238.046875 126.21875 L 238.46875 125.929688 L 238.074219 125.34375 L 238.503906 124.785156 L 226.109375 114.871094 L 205.609375 133.386719 L 225.558594 150 L 239.425781 139.230469 L 251.332031 149.972656 L 270.78125 132.976563 L 251.578125 115.191406 L 237.683594 124.757813 L 238.074219 125.34375 L 238.503906 124.785156 "/>
<path style=" stroke:none;fill-rule:nonzero;fill:rgb(0.799561%,1.199341%,1.199341%);fill-opacity:1;" d="M 395.867188 10.789063 C 398.144531 14.238281 406.085938 15.097656 406.085938 15.097656 L 409.589844 15.867188 L 409.097656 19.460938 C 407.101563 31.511719 404.054688 36.792969 403.980469 37.042969 C 403.980469 37.042969 405.121094 48.183594 405.863281 54.53125 C 408.070313 72.371094 410.214844 89.984375 397.648438 105.765625 L 392.882813 110.058594 C 380.144531 111.25 369.945313 109.917969 358.191406 108.746094 C 358.046875 108.746094 344.261719 144.050781 323.90625 147.101563 C 319.789063 147.738281 288.835938 141.855469 281.550781 132.476563 C 281.550781 132.476563 332.753906 120.640625 345.859375 99.917969 L 338.515625 86.410156 L 350.28125 59.503906 L 352.421875 58.417969 C 353.75 60.941406 355.597656 68.808594 356.054688 70.21875 C 358.964844 79.699219 363.996094 81.589844 363.996094 81.589844 C 372.441406 83.789063 381.398438 83.617188 390.855469 83.617188 C 390.855469 83.617188 387.777344 63.332031 386.667969 51.824219 L 385.328125 38.351563 C 385.328125 38.351563 377.046875 32.289063 380.519531 19.867188 C 380.519531 19.867188 382.289063 15.6875 382.886719 14.011719 C 385.117188 7.578125 387.222656 3.261719 390.984375 3.394531 C 394.566406 3.546875 395.8125 10.632813 395.867188 10.789063 "/>
<path style=" stroke:none;fill-rule:nonzero;fill:rgb(0.799561%,1.199341%,1.199341%);fill-opacity:1;" d="M 395.867188 10.789063 L 395.296875 11.1875 C 398.011719 15.078125 405.957031 15.742188 406.007813 15.808594 L 406.085938 15.097656 L 405.9375 15.800781 L 408.804688 16.421875 L 408.402344 19.363281 L 409.097656 19.460938 L 408.402344 19.347656 C 407.414063 25.324219 406.164063 29.613281 405.15625 32.429688 C 404.648438 33.835938 404.210938 34.882813 403.882813 35.582031 L 403.507813 36.398438 L 403.308594 36.851563 L 403.265625 36.976563 L 403.289063 37.117188 C 403.289063 37.117188 404.417969 48.257813 405.167969 54.621094 C 406.007813 61.457031 406.847656 68.238281 406.847656 74.863281 C 406.828125 85.515625 404.71875 95.738281 397.097656 105.316406 L 397.648438 105.765625 L 397.183594 105.234375 L 392.417969 109.53125 L 392.882813 110.058594 L 392.8125 109.347656 C 389.3125 109.675781 385.996094 109.8125 382.792969 109.8125 C 374.441406 109.8125 366.769531 108.882813 358.257813 108.03125 L 358.191406 108.03125 L 357.664063 108.257813 L 357.480469 108.5625 C 356.492188 110.902344 342.789063 143.683594 323.804688 146.394531 L 323.113281 146.4375 C 317.066406 146.515625 288.539063 140.566406 282.109375 132.042969 L 281.550781 132.476563 L 281.710938 133.179688 C 281.769531 133.097656 332.9375 121.460938 346.441406 100.296875 L 346.679688 99.945313 L 339.296875 86.363281 L 350.816406 60.027344 L 352.738281 59.054688 L 352.421875 58.417969 L 351.796875 58.75 C 353.039063 61.089844 354.917969 68.976563 355.382813 70.4375 L 355.382813 70.429688 C 358.347656 80.113281 363.597656 82.21875 363.765625 82.269531 L 363.796875 82.277344 L 363.835938 82.28125 C 371.273438 84.222656 379.058594 84.339844 387.160156 84.339844 C 388.394531 84.339844 389.617188 84.332031 390.855469 84.332031 L 391.691406 84.332031 L 391.558594 83.519531 C 391.558594 83.480469 388.46875 63.222656 387.367188 51.753906 L 385.996094 37.960938 L 385.746094 37.78125 L 384.9375 37.058594 C 383.425781 35.574219 380.375 31.835938 380.375 25.753906 C 380.375 24.050781 380.605469 22.152344 381.191406 20.066406 L 380.519531 19.867188 L 381.171875 20.152344 C 381.171875 20.140625 382.929688 15.984375 383.550781 14.246094 C 384.628906 11.097656 385.707031 8.480469 386.875 6.71875 C 388.085938 4.945313 389.285156 4.105469 390.804688 4.097656 L 390.949219 4.105469 L 390.941406 4.105469 C 392.230469 4.105469 393.375 5.597656 394.105469 7.363281 L 394.910156 9.773438 L 395.101563 10.589844 L 395.230469 11.070313 L 395.253906 11.128906 L 395.296875 11.1875 L 395.867188 10.789063 L 396.515625 10.5 L 396.070313 10.699219 L 396.539063 10.582031 L 396.515625 10.5 L 396.070313 10.699219 L 396.539063 10.582031 C 396.480469 10.335938 396.117188 8.457031 395.316406 6.628906 C 394.515625 4.828125 393.242188 2.8125 391.007813 2.675781 L 390.804688 2.675781 C 388.679688 2.667969 387.015625 3.960938 385.726563 5.921875 C 384.398438 7.886719 383.335938 10.589844 382.222656 13.773438 C 381.652344 15.402344 379.882813 19.582031 379.882813 19.582031 L 379.863281 19.628906 L 379.839844 19.679688 C 379.222656 21.886719 378.96875 23.914063 378.96875 25.753906 C 378.972656 34.558594 384.839844 38.882813 384.921875 38.929688 L 385.328125 38.351563 L 384.628906 38.429688 L 385.964844 51.898438 C 387.078125 63.429688 390.179688 83.726563 390.179688 83.734375 L 390.855469 83.617188 L 390.855469 82.910156 L 387.160156 82.910156 C 379.058594 82.921875 371.40625 82.78125 364.183594 80.914063 L 363.996094 81.589844 L 364.261719 80.925781 L 363.542969 80.550781 C 362.132813 79.644531 358.867188 76.960938 356.722656 70.003906 L 356.710938 70.003906 C 356.28125 68.640625 354.453125 60.796875 353.039063 58.078125 L 352.71875 57.46875 L 349.949219 58.863281 L 349.730469 58.980469 L 337.722656 86.445313 L 345.238281 100.253906 L 345.859375 99.917969 L 345.277344 99.527344 C 338.917969 109.613281 322.929688 117.800781 308.546875 123.296875 C 294.152344 128.839844 281.425781 131.773438 281.394531 131.785156 L 280.316406 132.035156 L 281.003906 132.921875 C 288.402344 142.238281 316.539063 147.78125 323.113281 147.859375 L 324.007813 147.800781 C 334.558594 146.1875 343.144531 136.429688 349.214844 127.167969 C 352.238281 122.535156 354.628906 117.992188 356.265625 114.621094 C 357.085938 112.929688 357.71875 111.527344 358.136719 110.554688 L 358.636719 109.421875 L 358.796875 109.101563 L 358.375 108.867188 L 358.777344 109.140625 L 358.796875 109.101563 L 358.375 108.867188 L 358.777344 109.140625 L 358.207031 108.761719 L 358.699219 109.226563 L 358.777344 109.140625 L 358.207031 108.761719 L 358.699219 109.226563 L 358.191406 108.746094 L 358.191406 109.453125 L 358.699219 109.226563 L 358.191406 108.746094 L 358.191406 109.453125 L 358.191406 108.746094 L 358.125 109.4375 C 366.613281 110.296875 374.3125 111.230469 382.792969 111.238281 C 386.039063 111.238281 389.394531 111.101563 392.945313 110.769531 L 393.164063 110.742188 L 398.109375 106.292969 L 398.144531 106.257813 L 398.1875 106.210938 C 406.058594 96.332031 408.257813 85.695313 408.246094 74.863281 C 408.246094 68.113281 407.410156 61.277344 406.5625 54.445313 C 405.828125 48.117188 404.675781 36.984375 404.675781 36.96875 L 403.980469 37.042969 L 404.65625 37.234375 L 404.585938 37.214844 L 404.65625 37.253906 L 404.65625 37.234375 L 404.585938 37.214844 L 404.65625 37.253906 C 405.058594 36.421875 407.90625 30.9375 409.785156 19.582031 L 409.785156 19.570313 L 410.285156 15.960938 L 410.375 15.308594 L 406.234375 14.40625 L 406.199219 14.398438 L 406.164063 14.398438 C 406.164063 14.398438 404.234375 14.179688 402.023438 13.558594 C 399.8125 12.9375 397.386719 11.839844 396.453125 10.390625 L 395.867188 10.789063 L 396.515625 10.5 "/>
<path style=" stroke:none;fill-rule:nonzero;fill:rgb(98.799133%,98.799133%,98.799133%);fill-opacity:1;" d="M 399.660156 10.632813 C 401.914063 14.121094 409.835938 14.996094 409.835938 14.996094 L 413.371094 15.757813 L 412.871094 19.320313 C 410.878906 31.417969 407.816406 36.652344 407.710938 36.953125 C 407.710938 36.953125 408.90625 48.066406 409.667969 54.433594 C 411.839844 72.261719 413.9375 89.84375 401.386719 105.65625 L 396.617188 109.949219 C 383.886719 111.125 373.703125 109.757813 361.9375 108.640625 C 361.765625 108.605469 347.976563 143.296875 327.640625 146.328125 C 323.511719 146.933594 293.34375 144.054688 286.070313 134.632813 C 286.070313 134.632813 334.4375 124.847656 349.652344 99.769531 L 342.25 86.300781 L 354.027344 59.371094 L 356.160156 58.289063 C 357.523438 60.800781 359.402344 68.726563 359.816406 70.117188 C 362.703125 79.613281 367.800781 81.476563 367.800781 81.476563 C 376.199219 83.628906 385.148438 83.457031 394.628906 83.457031 C 394.628906 83.457031 391.503906 63.191406 390.40625 51.703125 L 389.089844 38.269531 C 389.089844 38.269531 380.796875 32.164063 384.28125 19.699219 C 384.28125 19.699219 386.0625 15.558594 386.667969 13.894531 C 388.910156 7.445313 390.964844 3.152344 394.734375 3.285156 C 398.300781 3.421875 399.5625 10.507813 399.660156 10.632813 "/>
<path style=" stroke:none;fill-rule:nonzero;fill:rgb(0.799561%,1.199341%,1.199341%);fill-opacity:1;" d="M 399.660156 10.632813 L 399.066406 11.019531 C 401.769531 14.972656 409.699219 15.632813 409.765625 15.703125 L 409.835938 14.996094 L 409.6875 15.691406 L 412.578125 16.316406 L 412.175781 19.230469 L 412.871094 19.320313 L 412.175781 19.214844 C 411.175781 25.210938 409.9375 29.507813 408.921875 32.320313 C 408.421875 33.722656 407.964844 34.765625 407.640625 35.476563 L 407.039063 36.714844 L 406.992188 36.867188 L 407.015625 37.027344 C 407.015625 37.027344 408.199219 48.136719 408.96875 54.515625 C 409.785156 61.316406 410.605469 68.046875 410.605469 74.625 C 410.597656 85.3125 408.476563 95.574219 400.847656 105.199219 L 401.386719 105.65625 L 400.925781 105.109375 L 396.152344 109.421875 L 396.617188 109.949219 L 396.558594 109.25 C 393.128906 109.5625 389.867188 109.699219 386.722656 109.699219 C 378.292969 109.699219 370.597656 108.757813 361.988281 107.941406 L 361.9375 108.640625 L 362.113281 107.949219 L 361.9375 107.933594 L 361.371094 108.226563 L 361.0625 108.828125 C 359.214844 113.046875 345.804688 143.019531 327.53125 145.632813 L 326.089844 145.699219 C 318.777344 145.765625 292.789063 142.394531 286.625 134.199219 L 286.070313 134.632813 L 286.210938 135.335938 C 286.265625 135.277344 334.699219 125.636719 350.246094 100.148438 L 350.464844 99.792969 L 343.023438 86.257813 L 354.558594 59.894531 L 356.492188 58.929688 L 356.160156 58.289063 L 355.546875 58.632813 C 356.816406 60.9375 358.710938 68.894531 359.140625 70.324219 L 359.152344 70.34375 L 359.140625 70.335938 C 362.085938 80.050781 367.398438 82.105469 367.574219 82.136719 L 367.605469 82.15625 L 367.625 82.15625 C 375.015625 84.054688 382.765625 84.175781 390.855469 84.175781 C 392.097656 84.175781 393.367188 84.167969 394.628906 84.167969 L 395.449219 84.167969 L 395.316406 83.355469 C 395.316406 83.308594 392.210938 63.089844 391.109375 51.636719 L 389.746094 37.882813 L 389.5 37.691406 L 388.695313 36.96875 C 387.179688 35.484375 384.136719 31.730469 384.136719 25.632813 C 384.136719 23.917969 384.378906 22.003906 384.960938 19.902344 L 384.28125 19.699219 L 384.9375 19.984375 C 384.9375 19.976563 386.714844 15.851563 387.339844 14.140625 L 387.339844 14.128906 C 388.433594 10.972656 389.476563 8.359375 390.65625 6.601563 C 391.835938 4.839844 393.027344 4 394.566406 3.992188 L 394.714844 3.992188 C 395.976563 3.992188 397.109375 5.484375 397.835938 7.246094 L 398.664063 9.644531 L 398.882813 10.460938 L 398.957031 10.714844 L 398.976563 10.832031 L 399.140625 11.105469 L 399.660156 10.632813 L 399.066406 11.019531 L 399.660156 10.632813 L 400.183594 10.160156 L 399.726563 10.574219 L 400.320313 10.378906 L 400.183594 10.160156 L 399.726563 10.574219 L 400.320313 10.378906 C 400.253906 10.234375 399.871094 8.304688 399.066406 6.5 C 398.242188 4.703125 397.003906 2.707031 394.773438 2.574219 L 394.566406 2.574219 C 392.4375 2.5625 390.765625 3.851563 389.480469 5.804688 C 388.171875 7.769531 387.113281 10.460938 386 13.652344 L 386.667969 13.894531 L 386.015625 13.644531 C 385.4375 15.269531 383.640625 19.40625 383.640625 19.421875 L 383.628906 19.464844 L 383.605469 19.507813 C 382.988281 21.738281 382.730469 23.78125 382.730469 25.632813 C 382.730469 34.449219 388.597656 38.792969 388.679688 38.847656 L 389.089844 38.269531 L 388.386719 38.335938 L 389.710938 51.777344 C 390.808594 63.296875 393.933594 83.5625 393.933594 83.570313 L 394.628906 83.457031 L 394.628906 82.742188 L 390.855469 82.742188 C 382.777344 82.753906 375.140625 82.628906 367.976563 80.777344 L 367.800781 81.476563 L 368.042969 80.800781 L 367.328125 80.425781 C 365.902344 79.542969 362.609375 76.886719 360.492188 69.910156 C 360.074219 68.546875 358.226563 60.65625 356.785156 57.949219 L 356.472656 57.34375 L 353.707031 58.738281 L 353.476563 58.847656 L 341.464844 86.339844 L 349.027344 100.117188 L 349.652344 99.769531 L 349.054688 99.40625 C 341.613281 111.695313 325.832031 120.394531 311.898438 125.953125 C 304.933594 128.726563 298.445313 130.726563 293.683594 132.027344 C 288.933594 133.335938 285.949219 133.925781 285.929688 133.941406 L 284.8125 134.171875 L 285.523438 135.078125 C 292.691406 144.132813 318.460938 147.050781 326.089844 147.117188 L 327.734375 147.042969 C 338.277344 145.441406 346.847656 135.835938 352.914063 126.75 C 355.9375 122.195313 358.339844 117.742188 359.988281 114.425781 C 360.808594 112.773438 361.445313 111.394531 361.875 110.441406 L 362.378906 109.332031 L 362.511719 109.054688 L 362.523438 109.027344 L 362.0625 108.765625 L 362.492188 109.078125 L 362.523438 109.027344 L 362.0625 108.765625 L 362.492188 109.078125 L 361.9375 108.660156 L 361.9375 109.351563 L 362.492188 109.078125 L 361.9375 108.660156 L 361.9375 109.351563 L 361.9375 108.648438 L 361.765625 109.332031 L 361.9375 109.351563 L 361.9375 108.648438 L 361.765625 109.332031 L 361.820313 109.351563 L 361.867188 109.351563 C 370.433594 110.167969 378.1875 111.117188 386.722656 111.117188 C 389.90625 111.117188 393.207031 110.980469 396.671875 110.660156 L 396.910156 110.640625 L 401.859375 106.1875 L 401.902344 106.148438 L 401.941406 106.101563 C 409.828125 96.164063 412.019531 85.492188 412.007813 74.625 C 412.007813 67.933594 411.175781 61.144531 410.355469 54.34375 C 409.605469 47.976563 408.402344 36.894531 408.402344 36.878906 L 407.710938 36.953125 L 408.367188 37.191406 L 408.136719 37.101563 L 408.367188 37.21875 L 408.367188 37.191406 L 408.136719 37.101563 L 408.367188 37.21875 C 408.628906 36.652344 411.636719 31.214844 413.574219 19.445313 L 413.574219 19.4375 L 414.054688 15.867188 L 414.160156 15.207031 L 409.992188 14.300781 L 409.960938 14.289063 L 409.914063 14.289063 C 409.914063 14.289063 407.984375 14.074219 405.792969 13.433594 C 403.574219 12.820313 401.15625 11.703125 400.253906 10.242188 L 400.222656 10.195313 L 400.183594 10.160156 "/>
<path style=" stroke:none;fill-rule:nonzero;fill:rgb(98.799133%,98.799133%,98.799133%);fill-opacity:1;" d="M 169.246094 16.289063 C 169.8125 25.96875 169.835938 34.621094 169.835938 43 C 169.878906 51.925781 170.472656 67.277344 170.617188 70.972656 C 170.738281 74.066406 174.960938 78.640625 178.058594 78.640625 L 313.007813 78.640625 L 312.96875 78.386719 C 312.96875 77.621094 311.617188 75.5625 310.867188 74.460938 C 309.835938 72.8125 308.765625 71.132813 308.285156 69.363281 L 307.882813 68.035156 L 308.390625 66.804688 L 315.527344 49.675781 L 316.328125 47.667969 L 318.453125 47.324219 C 324.167969 46.460938 326.289063 52.175781 328.246094 54.707031 C 329.289063 56 334.820313 68.714844 334.796875 83.097656 L 334.796875 84.21875 L 334.261719 85.175781 C 333.160156 86.894531 332.191406 88.929688 331.171875 91.105469 C 328.8125 96.117188 326.105469 101.808594 321.394531 105.5 L 320.359375 106.320313 L 319.054688 106.320313 L 169.34375 106.253906 L 168.992188 106.253906 L 168.707031 106.191406 C 163.933594 105.398438 159.765625 102.488281 157.265625 98.257813 L 156.863281 97.570313 L 156.757813 96.746094 C 155.539063 86.765625 155.195313 76.308594 154.886719 66.199219 C 154.269531 45.78125 151.070313 24.628906 151.070313 24.628906 L 163.199219 6.34375 C 168.089844 5.824219 169.246094 16.289063 169.246094 16.289063 "/>
<path style=" stroke:none;fill-rule:nonzero;fill:rgb(0.799561%,1.199341%,1.199341%);fill-opacity:1;" d="M 169.246094 16.289063 L 168.546875 16.328125 C 169.105469 25.988281 169.140625 34.621094 169.140625 43 C 169.394531 52.601563 169.695313 62.613281 169.960938 71.941406 C 171.34375 75.273438 173.722656 77.96875 177.070313 79.351563 L 313.792969 79.351563 L 313.667969 78.3125 L 312.96875 78.386719 L 313.683594 78.386719 L 312.808594 76.195313 L 311.453125 74.054688 L 310.867188 74.460938 L 311.464844 74.070313 C 310.429688 72.429688 309.410156 70.804688 308.945313 69.175781 L 308.945313 69.160156 L 308.628906 68.082031 L 309.039063 67.078125 L 316.167969 49.949219 L 316.835938 48.308594 L 318.550781 48.027344 L 318.550781 48.035156 L 319.585938 47.949219 C 323.882813 47.894531 325.761719 52.566406 327.695313 55.148438 L 327.695313 55.15625 C 328.058594 55.574219 329.769531 59.125 331.222656 64.160156 C 332.722656 69.230469 334.09375 75.910156 334.09375 82.980469 L 334.09375 84.023438 L 333.644531 84.824219 L 334.261719 85.175781 L 333.65625 84.785156 C 332.523438 86.566406 331.546875 88.613281 330.535156 90.796875 C 328.191406 95.820313 325.5 101.390625 320.957031 104.9375 L 320.113281 105.601563 L 319.054688 105.601563 L 169.34375 105.542969 L 169.058594 105.542969 L 168.835938 105.496094 L 168.828125 105.496094 C 164.261719 104.738281 160.265625 101.949219 157.871094 97.894531 L 157.542969 97.332031 L 157.453125 96.664063 C 156.242188 86.722656 155.898438 76.289063 155.589844 66.175781 C 154.972656 45.703125 151.765625 24.535156 151.765625 24.515625 L 151.070313 24.628906 L 151.648438 25.027344 L 163.78125 6.742188 L 163.199219 6.34375 L 163.28125 7.058594 L 163.558594 7.039063 C 165.265625 6.976563 166.640625 9.085938 167.460938 11.542969 C 168.273438 13.941406 168.546875 16.367188 168.546875 16.367188 L 169.246094 16.289063 L 168.546875 16.328125 L 169.246094 16.289063 L 169.949219 16.214844 C 169.941406 16.183594 169.671875 13.652344 168.789063 11.074219 C 167.914063 8.554688 166.445313 5.691406 163.558594 5.617188 L 163.132813 5.640625 L 162.800781 5.671875 L 150.332031 24.460938 C 151.109375 28.847656 151.558594 33.425781 152.050781 37.839844 C 152.925781 45.667969 153.882813 56.035156 154.183594 66.226563 C 154.496094 76.339844 154.839844 86.8125 156.058594 96.84375 L 156.167969 97.664063 L 156.1875 97.808594 L 156.667969 98.625 L 156.667969 98.613281 L 156.667969 98.625 C 159.269531 103.03125 163.613281 106.070313 168.59375 106.898438 L 168.707031 106.191406 L 168.585938 106.898438 L 168.871094 106.957031 L 168.933594 106.964844 L 169.34375 106.964844 L 319.054688 107.027344 L 320.609375 107.027344 L 321.8125 106.066406 L 321.832031 106.054688 L 321.8125 106.066406 C 326.707031 102.222656 329.449219 96.421875 331.796875 91.417969 L 331.808594 91.417969 C 332.832031 89.226563 333.78125 87.230469 334.84375 85.5625 L 334.863281 85.539063 L 335.402344 84.558594 L 335.503906 84.402344 L 335.503906 82.980469 C 335.503906 75.722656 334.097656 68.917969 332.578125 63.75 C 331.03125 58.550781 329.460938 55.132813 328.796875 54.253906 L 328.246094 54.707031 L 328.8125 54.265625 C 327.085938 52.128906 325.039063 46.585938 319.585938 46.527344 L 318.339844 46.621094 L 316.214844 46.964844 L 315.820313 47.027344 L 314.871094 49.394531 L 307.742188 66.527344 L 307.230469 67.757813 L 307.140625 68 L 307.605469 69.574219 L 308.285156 69.363281 L 307.597656 69.546875 C 308.144531 71.472656 309.242188 73.199219 310.285156 74.839844 L 310.285156 74.847656 L 310.292969 74.867188 L 311.601563 76.910156 L 312.269531 78.386719 L 312.269531 78.429688 L 312.304688 78.726563 L 313.007813 78.640625 L 313.007813 77.929688 L 177.703125 77.929688 C 177.1875 77.921875 177.121094 77.863281 176.933594 77.75 C 174.335938 76.515625 172.570313 74.226563 171.355469 71.671875 C 171.050781 62.113281 170.585938 52.558594 170.535156 42.992188 L 170.535156 43 C 170.535156 34.621094 170.511719 25.949219 169.949219 16.257813 L 169.949219 16.214844 "/>
<path style=" stroke:none;fill-rule:nonzero;fill:rgb(98.799133%,98.799133%,98.799133%);fill-opacity:1;" d="M 440.355469 7.589844 C 442.214844 4.007813 444.636719 2.300781 444.636719 2.300781 C 446.121094 11.722656 447.140625 30.5 447.628906 39.476563 C 450.152344 85.761719 449.054688 96.347656 449.054688 96.347656 C 442.863281 113.023438 431.3125 125.964844 431.3125 125.964844 L 430.691406 114.609375 C 431.964844 97.738281 429.144531 32.214844 429.144531 32.214844 C 429.144531 32.183594 435.820313 16.347656 440.355469 7.589844 "/>
<path style=" stroke:none;fill-rule:nonzero;fill:rgb(0.799561%,1.199341%,1.199341%);fill-opacity:1;" d="M 440.355469 7.589844 L 440.988281 7.917969 C 441.875 6.203125 442.898438 4.933594 443.691406 4.097656 L 445.039063 2.886719 L 444.636719 2.300781 L 443.941406 2.410156 C 445.417969 11.761719 446.433594 30.546875 446.9375 39.519531 C 448.269531 64.414063 448.605469 78.972656 448.605469 87.09375 C 448.605469 94.074219 448.359375 96.265625 448.371094 96.273438 L 449.054688 96.347656 L 448.40625 96.09375 C 445.328125 104.359375 440.925781 111.714844 437.292969 117.007813 C 433.644531 122.296875 430.796875 125.476563 430.796875 125.488281 L 431.3125 125.964844 L 432.015625 125.921875 L 431.40625 114.566406 L 430.691406 114.609375 L 431.40625 114.652344 C 431.636719 111.535156 431.738281 106.796875 431.738281 101.132813 C 431.738281 75.90625 429.859375 32.183594 429.859375 32.183594 L 429.144531 32.214844 L 429.859375 32.214844 L 429.144531 32.214844 L 429.820313 32.445313 L 429.859375 32.214844 L 429.144531 32.214844 L 429.820313 32.445313 C 429.820313 32.402344 436.488281 16.570313 440.976563 7.917969 L 440.988281 7.898438 L 440.988281 7.917969 L 440.355469 7.589844 L 439.730469 7.257813 C 437.453125 11.660156 434.652344 17.816406 432.402344 22.882813 C 431.289063 25.417969 430.3125 27.671875 429.613281 29.304688 L 428.796875 31.230469 L 428.578125 31.75 L 428.511719 31.890625 L 428.496094 31.929688 L 428.488281 31.957031 L 428.484375 31.972656 L 428.449219 32.214844 L 428.449219 32.246094 C 428.449219 32.273438 428.914063 43.171875 429.378906 57.25 C 429.859375 71.320313 430.3125 88.550781 430.3125 101.132813 C 430.3125 106.785156 430.222656 111.496094 430.003906 114.546875 L 429.992188 114.597656 L 430.621094 126.007813 L 430.691406 127.703125 L 431.828125 126.445313 C 431.863281 126.40625 443.445313 113.429688 449.734375 96.59375 L 449.75 96.511719 L 449.769531 96.414063 C 449.769531 96.371094 450 94.101563 450 87.09375 C 450 78.9375 449.699219 64.355469 448.332031 39.4375 C 447.835938 30.449219 446.828125 11.679688 445.328125 2.183594 L 445.144531 1.066406 L 444.230469 1.714844 C 444.164063 1.753906 441.667969 3.53125 439.730469 7.257813 L 439.730469 7.285156 L 439.730469 7.257813 "/>
<path style=" stroke:none;fill-rule:nonzero;fill:rgb(98.799133%,98.799133%,98.799133%);fill-opacity:1;" d="M 103.425781 46.476563 L 82.886719 32.554688 L 98.367188 11.574219 L 118.21875 27.054688 Z M 103.425781 46.476563 "/>
<path style=" stroke:none;fill-rule:nonzero;fill:rgb(0.799561%,1.199341%,1.199341%);fill-opacity:1;" d="M 103.425781 46.476563 L 103.820313 45.890625 L 83.886719 32.378906 L 98.507813 12.578125 L 117.238281 27.1875 L 102.875 46.042969 L 103.425781 46.476563 L 103.820313 45.890625 L 103.425781 46.476563 L 103.992188 46.914063 L 119.210938 26.933594 L 98.238281 10.570313 L 81.875 32.730469 L 103.589844 47.4375 L 103.992188 46.914063 "/>
<path style=" stroke:none;fill-rule:nonzero;fill:rgb(98.799133%,98.799133%,98.799133%);fill-opacity:1;" d="M 241.839844 125.21875 L 255.269531 115.984375 L 273.5 132.859375 L 255.101563 148.929688 L 243.210938 138.1875 L 229.359375 148.960938 L 210.429688 133.25 L 229.878906 115.675781 "/>
<path style=" stroke:none;fill-rule:nonzero;fill:rgb(0.799561%,1.199341%,1.199341%);fill-opacity:1;" d="M 241.839844 125.21875 L 242.242188 125.804688 L 255.207031 116.890625 L 272.441406 132.84375 L 255.121094 147.980469 L 243.25 137.261719 L 229.359375 148.046875 L 211.507813 133.230469 L 229.917969 116.605469 L 241.820313 126.09375 L 242.242188 125.804688 L 241.839844 125.21875 L 242.277344 124.65625 L 229.851563 114.75 L 209.351563 133.285156 L 229.34375 149.863281 L 243.183594 139.109375 L 255.101563 149.878906 L 274.5625 132.878906 L 255.328125 115.078125 L 241.453125 124.628906 L 241.839844 125.21875 L 242.277344 124.65625 "/>
<path style=" stroke:none;fill-rule:nonzero;fill:rgb(0.799561%,1.199341%,1.199341%);fill-opacity:1;" d="M 165.402344 16.527344 C 166.632813 37.914063 165.28125 54.800781 167.039063 73.183594 C 168.605469 77.175781 171.886719 80.949219 175.796875 82.46875 L 313.007813 82.523438 C 321.59375 79.304688 313.152344 72.605469 311.964844 68.304688 L 319.054688 51.183594 C 322.960938 50.558594 324.308594 56.066406 326.105469 58.824219 C 329.433594 66.160156 330.949219 75.179688 330.949219 83.085938 C 327.339844 89.070313 324.921875 97.839844 319.054688 102.457031 L 169.34375 102.390625 C 165.71875 101.738281 162.550781 99.621094 160.574219 96.273438 C 157.730469 73.042969 159.792969 47.839844 155.164063 25.363281 C 156.554688 23.15625 162.210938 14.398438 163.878906 11.023438 C 165.28125 12.074219 165.71875 14.335938 165.402344 16.527344 "/>
<path style=" stroke:none;fill-rule:nonzero;fill:rgb(0.799561%,1.199341%,1.199341%);fill-opacity:1;" d="M 396.070313 12.230469 C 398.957031 16.941406 404.222656 17.75 409.082031 18.816406 C 408.265625 24.453125 406.632813 29.96875 404.222656 35.304688 C 404.371094 58.964844 414.613281 84.191406 397.738281 103.429688 L 395.476563 105.554688 C 382.207031 106.792969 372.558594 105.707031 359.765625 104.515625 C 357.058594 110.230469 340.851563 142.65625 326.5625 141.898438 C 315.289063 140.660156 303.519531 140.386719 293.546875 135.78125 C 293.546875 135.78125 329.515625 132.78125 353.238281 101.730469 C 354.007813 96.402344 348.347656 91.589844 346.484375 86.550781 C 347.96875 83.511719 353.664063 70.152344 354.773438 66.644531 C 357.769531 73.183594 358.71875 82.054688 366.816406 85.246094 C 375.714844 87.570313 385.664063 87.570313 395.476563 87.570313 C 396.527344 87.058594 397.4375 86.1875 398.164063 85.246094 C 395.613281 68.601563 394.566406 53.339844 392.753906 36.382813 C 388.382813 32.878906 385.964844 26.875 387.9375 20.933594 C 390.183594 17.75 394.242188 -1.976563 396.070313 12.230469 "/>
<path style=" stroke:none;fill-rule:nonzero;fill:rgb(0.799561%,1.199341%,1.199341%);fill-opacity:1;" d="M 442.21875 12.230469 C 443.261719 39.730469 446.738281 67.855469 445.394531 95.171875 C 443.261719 102.21875 433.796875 116.8125 433.796875 116.8125 C 435.792969 90.683594 433.488281 61.09375 433.03125 33 C 434.660156 29.28125 439.597656 17.839844 442.21875 12.230469 "/>
<path style=" stroke:none;fill-rule:nonzero;fill:rgb(0.799561%,1.199341%,1.199341%);fill-opacity:1;" d="M 139.945313 63.242188 C 144.011719 77.921875 131.871094 88.214844 125.347656 99.621094 C 113.105469 104.1875 96.828125 102.390625 83.542969 101.3125 C 79.949219 101.3125 79.339844 105.417969 78.105469 107.871094 C 74.503906 123.414063 59.265625 134.605469 44.515625 137.507813 C 31.671875 138.378906 17.953125 137.625 10.292969 125.449219 C 3.03125 106.925781 15.230469 87.28125 23.878906 74.84375 C 27.03125 71.355469 28.265625 66.949219 33.0625 64.300781 C 35.171875 66.308594 12.539063 95.03125 21.15625 109.5625 C 33.652344 120.371094 54.476563 117.011719 67.90625 110.609375 C 69.082031 109.371094 70.59375 108.765625 71.644531 107.242188 C 70.59375 98.546875 66.671875 91.039063 65.183594 82.519531 L 74.949219 66.644531 C 76.902344 71.816406 77.214844 79.75 84.171875 81.441406 L 88.363281 81.441406 C 100.589844 70.585938 113.414063 52.425781 132.417969 56.066406 C 135.089844 57.894531 138.867188 59.894531 139.945313 63.242188 M 131.199219 79.097656 C 130.148438 71.675781 120.9375 68.804688 120.9375 68.804688 C 103.769531 66.804688 92.820313 84.011719 92.820313 84.011719 C 100.136719 86.507813 108.128906 87.597656 115.539063 86.9375 C 119.136719 86.644531 126.980469 86.242188 126.980469 86.242188 C 128.578125 85.789063 129.972656 84.679688 130.746094 83.199219 C 131.441406 81.761719 131.199219 79.097656 131.199219 79.097656 "/>
<path style=" stroke:none;fill-rule:nonzero;fill:rgb(0.799561%,1.199341%,1.199341%);fill-opacity:1;" d="M 99.214844 17.125 L 88.363281 31.890625 L 102.5625 41.246094 L 112.808594 27.742188 Z M 99.214844 17.125 "/>
<path style=" stroke:none;fill-rule:nonzero;fill:rgb(0.799561%,1.199341%,1.199341%);fill-opacity:1;" d="M 230.023438 120.941406 L 240.949219 130.46875 L 254.898438 120.941406 L 268.496094 133.527344 L 255.296875 143.835938 L 243.964844 133.527344 L 229.484375 144.046875 L 216.097656 133.253906 "/>
<path style=" stroke:none;fill-rule:nonzero;fill:rgb(0%,65.098572%,31.399536%);fill-opacity:1;" d="M 241.875 0.9375 C 242.414063 1.535156 241.648438 2.796875 242.554688 3.171875 L 243.511719 3.496094 L 243.074219 4.984375 L 243.175781 5.621094 L 244.121094 5.402344 L 244.964844 5.074219 C 246.40625 4.910156 248.121094 4.910156 249.203125 5.78125 L 249.789063 6.21875 L 249.566406 6.410156 C 248.871094 6.539063 248.015625 5.507813 247.703125 6.503906 L 247.648438 7.226563 L 247.539063 7.261719 L 246.117188 6.726563 L 245.496094 6.699219 L 244.160156 7.183594 L 243.539063 7.59375 L 243.074219 8.597656 L 243.175781 9.308594 L 245.496094 8.734375 C 246.671875 8.734375 247.648438 8.660156 248.765625 8.796875 L 250.84375 9.214844 L 252.347656 10.027344 L 254.59375 11.789063 L 256.054688 13.460938 L 256.730469 14.550781 L 257.007813 14.964844 L 256.847656 15.050781 L 256.125 14.566406 C 255.296875 13.398438 254.191406 12.671875 253.113281 11.867188 L 252.597656 11.9375 L 252.6875 12.570313 L 252.855469 14.414063 L 252.496094 14.550781 L 251.644531 13.0625 C 251.140625 12.273438 250.199219 11.789063 249.273438 11.394531 L 248.683594 11.019531 L 248.507813 11.9375 L 248.871094 13.109375 L 248.78125 13.484375 L 250.011719 14.125 L 251.449219 14.703125 L 252.597656 15.527344 L 253.425781 16.085938 L 255.214844 17.996094 L 255.941406 19.238281 L 256.101563 20.207031 L 256.203125 20.335938 L 256.203125 22.945313 L 256.011719 23.8125 L 255.941406 24.957031 L 255.589844 26.03125 L 255.359375 26.191406 L 255.214844 26.003906 L 255.121094 22.167969 L 255.011719 21.820313 L 254.191406 19.15625 L 253.785156 20.367188 L 253.222656 21.480469 L 252.496094 22.539063 L 252.273438 22.824219 L 252.035156 22.609375 L 252.210938 21.648438 C 252.125 20.484375 252.273438 19.089844 251.644531 18.121094 L 251.28125 17.5 L 250.789063 17.753906 L 250.753906 18.105469 L 250.679688 18.40625 C 250.84375 19.328125 250.113281 19.933594 250.199219 20.796875 L 249.640625 21.050781 C 249.710938 19.679688 249.511719 18.339844 249.03125 17.257813 L 248.683594 16.351563 L 248.121094 15.925781 L 247.960938 17.859375 L 247.703125 17.996094 L 247 16.84375 L 246.324219 15.527344 L 245.601563 14.550781 L 244.90625 14.0625 L 243.722656 13.605469 L 243.511719 13.953125 L 243.8125 14.273438 C 244.5625 15.269531 245.347656 16.296875 246.234375 17.257813 L 246.445313 17.582031 L 246.949219 18.234375 L 247.648438 19.410156 L 248.34375 20.566406 L 248.78125 21.960938 L 249.203125 23.136719 L 249.203125 25.441406 L 248.582031 27.484375 L 247.664063 29.914063 L 247.128906 30.722656 L 247.363281 28.589844 L 247.464844 28.523438 C 247.464844 27.484375 247.648438 26.441406 247.648438 25.507813 L 247.859375 25.222656 L 247.921875 24.890625 L 247.664063 24.835938 L 247.539063 25.0625 L 247.390625 25.367188 L 246.632813 26.535156 L 246.234375 27.105469 L 245.859375 27.269531 L 245.90625 26.121094 L 246.132813 25.367188 L 246.445313 24.105469 L 246.582031 22.71875 L 246.234375 22.898438 L 246.0625 23.480469 L 245.429688 24.414063 L 245.234375 24.285156 C 245.234375 23.136719 246.0625 22.1875 245.695313 20.890625 L 245.496094 20.207031 L 245.5625 19.941406 L 245.3125 19.933594 L 245.109375 20.1875 L 244.964844 20.367188 L 244.835938 20.695313 L 244.3125 21.621094 L 244.085938 21.328125 L 244.015625 21.003906 L 243.949219 19.238281 L 242.9375 18.171875 L 241.671875 19.769531 L 241.574219 20.1875 L 241.671875 21.90625 L 242.1875 23.933594 L 241.785156 25.585938 L 242.007813 27.484375 L 242.65625 29.117188 L 242.1875 30.585938 L 241.671875 32.058594 L 241.910156 33.203125 L 242.65625 34.910156 L 243.046875 36.390625 L 242.65625 37.042969 L 242.324219 38.703125 L 242.109375 39.144531 L 242.371094 40.085938 L 243.074219 41.386719 L 243.511719 43.144531 L 243.265625 44.265625 L 243.136719 44.335938 L 243.046875 45.605469 L 242.742188 46.160156 L 242.742188 48.226563 L 243.453125 48.363281 L 243.613281 49.683594 L 244.964844 49.894531 L 244.78125 50.457031 L 244.5625 52.105469 L 244.351563 52.710938 L 244.3125 54.097656 L 243.96875 54.648438 C 244.085938 55.707031 243.574219 56.410156 243.613281 57.460938 L 241.328125 58.492188 C 240.285156 59.195313 239.371094 58.21875 238.328125 58.164063 L 237.507813 57.632813 C 237.273438 56.703125 237.144531 55.613281 237.007813 54.648438 L 236.878906 54.53125 C 236.816406 53.203125 236.472656 52.105469 236.242188 50.855469 L 236.242188 49.835938 L 237.703125 49.347656 L 237.664063 48.316406 L 238 48.226563 L 238.402344 48.226563 L 238.644531 47.703125 C 238.582031 46.851563 238.164063 46.09375 238.066406 45.1875 L 237.820313 44.265625 L 237.507813 43.214844 L 237.414063 42.3125 L 238.066406 41.34375 L 238.582031 40.417969 L 238.804688 38.9375 L 238.15625 36.558594 C 237.746094 35.527344 238.402344 34.824219 238.65625 34.078125 L 239.425781 32.445313 L 238.988281 31.046875 C 238.644531 30.335938 238 29.023438 238.730469 28.101563 L 239.425781 27.050781 C 239.660156 26.003906 238.804688 25.367188 239.046875 24.285156 L 238.953125 23.8125 L 239.425781 22.109375 L 239.292969 19.8125 L 238.644531 18.691406 L 238.242188 18.285156 L 237.144531 19.210938 L 237.007813 20.484375 L 236.921875 21.328125 L 236.648438 21.535156 L 235.957031 20.367188 L 235.769531 20.085938 L 235.441406 20.40625 L 235.378906 22.84375 L 235.800781 24.3125 L 235.570313 24.457031 L 235.078125 23.734375 L 234.566406 22.898438 L 234.421875 22.898438 C 234.289063 23.933594 234.890625 24.589844 234.890625 25.703125 L 235.242188 26.882813 L 234.890625 27.050781 L 234.09375 26.03125 L 233.78125 25.605469 L 233.488281 25.316406 L 233.359375 25.015625 L 233.179688 25.222656 L 233.234375 25.46875 L 233.359375 25.855469 C 233.546875 27.484375 233.710938 29.148438 233.996094 30.632813 L 233.816406 30.75 L 233.488281 30.398438 L 233.113281 29.421875 L 232.777344 28.6875 L 232.28125 26.929688 L 231.949219 25.855469 L 231.890625 25.46875 L 231.890625 22.824219 L 232.71875 20.777344 L 233.273438 19.5 L 234.09375 18.40625 L 234.476563 17.84375 C 235.132813 16.894531 235.882813 16.035156 236.609375 15.101563 L 237.414063 14.125 L 237.664063 13.894531 L 237.273438 13.628906 L 235.933594 14.125 C 235.167969 14.757813 234.566406 15.527344 234.289063 16.546875 L 233.816406 17.480469 L 233.234375 17.996094 L 233.066406 15.960938 L 232.679688 15.960938 L 231.949219 17.191406 L 231.871094 17.546875 L 231.460938 19.074219 L 231.398438 19.429688 L 231.398438 19.96875 L 231.300781 21.242188 L 230.621094 19.867188 L 230.457031 18.785156 L 230.398438 18.40625 L 229.722656 17.433594 L 229.050781 19.15625 L 228.917969 21.714844 L 228.644531 22.898438 L 228.382813 22.683594 L 227.632813 21.480469 L 227.148438 20.132813 L 226.980469 19.238281 C 225.890625 19.429688 226.617188 20.945313 225.988281 21.621094 L 225.8125 25.441406 L 225.410156 25.441406 L 225.011719 24.039063 L 224.785156 22.1875 L 224.84375 20.085938 L 225.503906 18.769531 C 225.738281 17.84375 226.65625 17.433594 226.96875 16.570313 L 228.578125 15.492188 L 229.578125 14.703125 L 231.125 14.0625 L 232.28125 13.269531 L 232.1875 12.570313 L 232.519531 11.019531 L 230.527344 12.035156 C 229.617188 12.570313 228.953125 13.460938 228.644531 14.414063 L 228.289063 14.566406 L 228.316406 12.332031 L 228.414063 11.9375 L 227.785156 11.867188 L 226.070313 13.183594 L 224.5 14.996094 L 224.039063 15.101563 L 224.683594 13.917969 C 225.359375 13.109375 225.890625 12.140625 226.894531 11.449219 L 229.085938 9.640625 L 230.070313 9.242188 L 232.558594 8.734375 L 235.078125 8.734375 L 235.570313 8.796875 L 237.820313 9.242188 L 237.984375 8.796875 L 237.273438 7.503906 L 235.664063 6.699219 L 235.078125 6.699219 L 233.351563 7.414063 L 232.96875 6.140625 L 231.460938 6.410156 L 231.261719 6.175781 L 232.117188 5.535156 C 233.710938 4.664063 236.355469 4.785156 237.871094 5.699219 L 238.066406 5.535156 L 237.746094 4.738281 L 237.664063 3.394531 L 238.902344 2.894531 L 239.046875 1.019531 L 239.628906 0.5625 L 239.773438 0.5625 L 240.800781 0 "/>
<path style=" stroke:none;fill-rule:nonzero;fill:rgb(0%,71.398926%,94.499207%);fill-opacity:1;" d="M 231.984375 54.964844 C 232.578125 55.609375 233.101563 56.3125 233.910156 56.660156 L 234.796875 57.382813 L 236.976563 58.425781 L 238.402344 59.238281 L 239.941406 59.675781 L 241.578125 59.386719 L 243.9375 58.339844 L 245.109375 57.824219 L 246.449219 56.945313 L 247.191406 56.566406 L 248.019531 55.699219 L 248.582031 55.285156 L 249.019531 54.644531 L 249.859375 53.796875 L 250.800781 52.480469 L 252.027344 50.542969 C 252.597656 49.808594 253.386719 49.117188 254.371094 48.984375 L 255.359375 48.546875 C 256.273438 48.316406 257.066406 47.941406 257.96875 47.785156 C 258.863281 47.34375 259.890625 47.050781 260.820313 46.734375 L 262.121094 45.960938 L 262.859375 45.597656 C 263.871094 44.628906 265.355469 43.835938 266.144531 42.699219 L 266.394531 42.683594 C 267.234375 41.417969 268.003906 40.234375 269.191406 39.476563 L 269.839844 39.371094 C 270.816406 39.925781 270.246094 41.417969 270.351563 42.421875 L 270.035156 43.335938 C 269.585938 44.414063 270.488281 44.71875 270.351563 45.722656 C 270.351563 46.742188 270.035156 47.808594 270.304688 48.773438 L 270.246094 49.410156 C 270.304688 50.328125 269.941406 50.933594 269.644531 51.617188 C 269.355469 52.597656 269.917969 54.054688 269.085938 54.734375 L 268.128906 56.351563 L 267.519531 56.984375 L 265.667969 58.691406 C 264.746094 59.472656 263.632813 60.140625 262.703125 60.964844 L 261.761719 61.535156 L 260.90625 61.996094 L 259.773438 62.824219 L 258.53125 63.460938 L 256.714844 64.328125 L 255.359375 65.050781 L 253.386719 65.648438 L 252.109375 66.054688 L 251.671875 66.054688 C 250.746094 66.101563 249.589844 66.054688 248.691406 66.054688 C 247.191406 65.730469 245.660156 65.648438 244.203125 65.324219 L 244.121094 65.234375 L 241.785156 64.898438 C 240.796875 64.945313 239.773438 64.78125 238.894531 65.011719 L 236.480469 65.324219 C 235.3125 65.691406 234.054688 65.691406 232.882813 65.949219 L 232.351563 66.054688 L 228.992188 66.054688 L 228.683594 65.980469 L 228.445313 65.980469 C 227.460938 65.648438 226.507813 65.53125 225.539063 65.152344 L 223.363281 64.140625 L 221.914063 63.285156 L 220.34375 62.394531 C 219.402344 61.742188 218.546875 61.253906 217.628906 60.601563 L 216.414063 59.675781 L 215.054688 58.691406 L 213.3125 57.144531 L 212.894531 56.730469 L 211.902344 55.320313 L 211.308594 54.054688 C 210.988281 53.011719 211.507813 51.601563 210.640625 50.804688 C 210.3125 49.613281 210.539063 48.316406 210.539063 47.050781 L 210.429688 47.023438 L 210.640625 44.414063 L 210.3125 42.054688 L 210.292969 40.023438 L 211.324219 39.273438 C 213.144531 41.433594 215.125 43.464844 217.539063 45.144531 C 220.367188 47.109375 223.632813 48.054688 226.871094 49.128906 C 229.308594 49.925781 230.3125 53.160156 231.984375 54.964844 "/>
<path style=" stroke:none;fill-rule:nonzero;fill:rgb(97.299194%,98.799133%,100%);fill-opacity:1;" d="M 268.234375 43 L 268.128906 43.746094 L 267.828125 44.507813 L 267.519531 45.316406 L 266.0625 47.128906 C 265.171875 48.265625 264.058594 49.046875 263.0625 49.890625 L 261.171875 50.972656 L 260.777344 51.238281 L 261.425781 52.355469 L 262.824219 51.757813 C 263.765625 51.074219 264.828125 50.507813 265.632813 49.609375 L 265.703125 49.609375 L 267.867188 47.253906 L 268.234375 47.292969 L 267.65625 48.683594 L 267.3125 49.046875 L 266.796875 49.683594 L 265.023438 51.496094 L 263.226563 52.78125 L 263.0625 52.820313 L 262.628906 53.207031 L 261.242188 53.941406 L 260.027344 54.808594 L 260.585938 55.902344 L 262.230469 54.980469 L 263.34375 54.488281 L 265.964844 52.707031 L 266.632813 52.28125 L 267.027344 51.757813 L 267.3125 51.757813 L 267.375 51.867188 L 266.238281 53.691406 L 265.246094 54.429688 L 264.515625 55.144531 L 264.359375 55.167969 L 263.710938 55.703125 L 262.871094 56.101563 L 262.542969 56.367188 L 260.714844 57.375 L 258.457031 58.34375 L 258.566406 58.972656 L 259.066406 59.671875 L 260.53125 58.972656 L 261.65625 58.34375 L 264.183594 57.113281 L 264.746094 56.886719 L 264.917969 57.046875 L 264.222656 57.898438 L 262.390625 59.238281 L 261.980469 59.546875 L 260.652344 60.34375 L 259.066406 61.339844 L 258.097656 61.996094 L 256.769531 62.625 L 255.449219 63.445313 L 253.425781 64.25 L 251.476563 64.574219 L 248.488281 64.574219 L 246.855469 64.328125 L 244.964844 63.96875 C 243.902344 63.832031 242.863281 63.832031 241.878906 63.554688 L 238.539063 63.554688 L 237.820313 63.792969 C 236.285156 63.664063 235.039063 64.488281 233.441406 64.367188 C 231.953125 64.78125 229.988281 65.011719 228.527344 64.367188 C 227.460938 64.367188 226.621094 63.792969 225.667969 63.554688 L 225.191406 63.191406 L 224.335938 62.847656 L 223.949219 62.582031 L 222.503906 61.90625 L 220.691406 60.65625 L 219.660156 60.109375 L 218.4375 59.199219 L 217.394531 58.34375 L 216.664063 57.898438 L 215.972656 57.046875 L 216.039063 56.886719 L 216.992188 57.375 L 218.4375 58.164063 L 220.519531 59.113281 L 221.769531 59.617188 L 222.4375 58.570313 L 221.171875 57.824219 L 219.765625 57.003906 L 218.800781 56.5625 L 217.300781 55.703125 L 215.820313 54.652344 L 214.160156 53.019531 L 213.386719 52.355469 L 213.300781 51.757813 L 213.480469 51.59375 L 214.867188 52.78125 L 215.601563 53.246094 L 216.570313 54.054688 L 217.980469 54.652344 L 218.921875 55.3125 L 219.851563 55.703125 L 220.359375 55.902344 L 220.828125 55.167969 L 220.828125 54.726563 C 219.511719 53.984375 218.304688 53.246094 217.046875 52.390625 L 216.375 51.917969 C 215.398438 51.238281 214.449219 50.183594 213.675781 49.226563 L 213.386719 48.960938 L 212.8125 47.808594 L 212.84375 47.660156 L 214.132813 48.621094 C 214.945313 49.804688 216.261719 50.410156 217.265625 51.371094 L 218.5625 51.917969 L 219.402344 52.390625 L 220.042969 51.496094 L 219.511719 50.914063 C 217.628906 49.835938 216.039063 48.8125 214.652344 47.015625 L 213.246094 45.183594 L 212.589844 43.597656 L 212.882813 43.304688 C 215.796875 45.585938 218.554688 47.816406 221.984375 49.121094 C 223.839844 49.832031 226.378906 50.683594 227.445313 51.503906 C 228.648438 52.761719 229.582031 54.296875 230.621094 55.703125 L 232.171875 57.300781 L 232.667969 57.632813 L 233.78125 58.320313 L 235.367188 59.253906 L 237.820313 60.507813 C 238.578125 60.941406 239.480469 61.191406 240.460938 61.074219 C 241.910156 61.425781 242.863281 60.34375 244.015625 60.109375 L 244.78125 59.671875 L 245.734375 59.199219 L 247.316406 58.222656 L 248.234375 57.632813 C 249.09375 56.769531 250.152344 55.925781 250.671875 54.90625 L 251.132813 54.394531 L 251.550781 53.640625 L 252.4375 52.515625 L 254.179688 50.808594 C 255.070313 50.257813 256.34375 50.070313 257.257813 49.578125 L 259.433594 48.925781 L 260.777344 48.355469 L 262.347656 47.660156 L 263.25 47.015625 L 263.921875 46.621094 L 264.628906 45.96875 L 265.667969 45.316406 C 266.339844 44.507813 267.433594 43.976563 267.828125 43 "/>
</g>
</svg>
