<?xml version="1.0" encoding="utf-8"?>
<!-- Generator: Adobe Illustrator 22.0.1, SVG Export Plug-In . SVG Version: 6.00 Build 0)  -->
<svg version="1.1" id="Layer_1" xmlns="http://www.w3.org/2000/svg" xmlns:xlink="http://www.w3.org/1999/xlink" x="0px" y="0px"
	 viewBox="0 0 1000 1000" style="enable-background:new 0 0 1000 1000;" xml:space="preserve">
<style type="text/css">
	.st0{fill-rule:evenodd;clip-rule:evenodd;fill:url(#SVGID_1_);}
	.st1{fill-rule:evenodd;clip-rule:evenodd;fill:#3F89C0;}
	.st2{fill:#3F89C0;}
	.st3{fill-rule:evenodd;clip-rule:evenodd;fill:#BCBEC0;}
	.st4{fill-rule:evenodd;clip-rule:evenodd;fill:#FFFFFF;}
	.st5{fill-rule:evenodd;clip-rule:evenodd;fill:#231F20;}
</style>
<g>
	<radialGradient id="SVGID_1_" cx="481.301" cy="471.0018" r="161.7163" gradientUnits="userSpaceOnUse">
		<stop  offset="0" style="stop-color:#6ECFF6"/>
		<stop  offset="1" style="stop-color:#4699D3"/>
	</radialGradient>
	<path class="st0" d="M420,555c2.5,15,10.7,21,16.8,34.8c5.4,12,2.5,29.9,15.7,29.9c12.4,0,16.1-11.7,27.7-15.6
		c40-13.6,57.6-33.7,89.3-61.4c16.8-14.8,29.4-20.3,43.3-38c7.7-10,5.7-19,12.6-29.3c11.3-16.8,29.6-22.6,29.6-42.9
		c0-6.7-7.1-8.6-13.2-11.2c-8.3-3.7-12.9-8.1-22-8.1c-5,0-7.7,3.1-12.8,3.1c-1.9,0-3-0.5-4.9-0.6c1.7-3.4,4.4-5,4.4-8.7
		c0-2.2-3.9-1.4-5-3.1c-2.2-3.3-1.6-8.7-5.7-8.7c-6.9,0-8.7,6.7-12.4,12.5c-1.7,2.8-5.7,3.4-5.7,6.9c0,4.2,3.8,5.6,5.7,9.4
		c-1.9,1.4-3.2,3.1-5.7,3.1c-5,0-6.3-6.2-11.3-6.2c-9.9,0-14.3,8.1-24.2,8.1c-13.4,0-3.6-26.8-16.7-29.9c-2.8,3.4-3.3,6.5-3.6,11
		l-2.5,0.6c-8.7-9.2-6.1-19.3-15.6-27.1c-20.8-17.1-37.5-24.9-64.4-24.9c-5,0-7.7,0.6-12.8,0.6c-7.2,0-11.2-4.8-15.3-10.6l-1.4-2.6
		c-5.5-9.2-13.5-11.5-23.8-14.8c-10.9-3.6-16.8-8.7-28.3-8.7c-14.6,0-22.2,12.9-26.5,26.7c-4.6,14.5-23.8,16.1-23.8,31.3
		c0,10.8,7.7,15,12.6,24.6l3,3.2c7.6,13.1,8.8,22.1,16.2,35.4c6.3,11.2,15.1,14.3,21.4,25.6c18.1,32.1,32.8,47.1,53.4,77.8L420,555"
		/>
	<path class="st1" d="M361.2,670.7l-5-11.2l-3.9,11.2H361.2 M380.2,684.7h-18.7v-3.3l0.6-0.2c0.8-0.2,1.4-0.5,1.6-0.7
		c0.3-0.3,0.4-0.7,0.4-1.3c0-0.4,0-0.7-0.1-0.9l-0.2-0.9l-0.2-0.7l-0.5-1.2l-2.9-0.1c-1.1,0-3,0-5.7,0.1c-2.6,0.1-4,0.1-4.1,0.1
		l-0.2,1c-0.1,0.5-0.1,0.9-0.1,1.2c0,1.9,1.2,3.1,3.6,3.6c0.2,0,0.3,0.1,0.4,0.1c0,0,0.1,0.1,0.2,0.1v3.4l-6.4-0.1l-7.6,0.1v-3.3
		c0.6,0,1.2-0.1,1.8-0.3c0.6-0.2,1.1-0.6,1.5-1.1c0.4-0.5,0.8-1.3,1.2-2.4l1.4-3.7l6.8-18.7l0.2-0.5c0.1-0.2,0.1-0.5,0.2-0.7
		c0-0.3,0.1-0.5,0.1-0.7c0-1.9-1.2-3-3.7-3.3c-0.1,0-0.4-0.1-0.7-0.1c-0.3,0-0.6,0.1-1,0.2v-4.4c1.1-0.2,13.7,0,13.7,0l14.5,31.7
		l0.7,1.4c0.5,1.2,1.4,2.1,2.8,2.5l0.4,0.1V684.7z"/>
	<rect x="401.4" y="668.6" class="st2" width="14" height="7.9"/>
	<path class="st1" d="M433.5,649.3l-0.2,0.1l-0.5,0.2c-1.1,0.4-1.7,1.2-1.7,2.3v24.5c0,3.7-1.1,7.2-3.3,10.7
		c-2.3,3.7-5.9,6.5-10.7,8.3l-3.1,0.9c0,0,4.4-6.5,5-8.1c0.7-1.6,1.1-3.9,1.1-7l0.1-1.9v-27.4c0-1-0.5-1.8-1.5-2.3l-0.3-0.2
		l-0.2-0.1l-0.3-0.1l-0.3-0.1l-0.2-0.1h-0.2v-3.4h17.1v3.4C434,649.2,433.8,649.3,433.5,649.3"/>
	<path class="st1" d="M453.8,670.7l-5-11.2l-3.9,11.2H453.8 M472.9,684.7l-4.3-0.2c-2.3,0-5.3,0-8.9,0.1c-3.6,0.1-5.4,0.1-5.4,0.1
		v-3.3l0.6-0.2c0.8-0.2,1.4-0.5,1.6-0.7s0.4-0.7,0.4-1.3c0-0.4,0-0.7-0.1-0.9l-0.2-0.9l-0.2-0.7l-0.6-1.2l-2.9-0.1
		c-1.1,0-3,0-5.7,0.1c-2.6,0.1-4,0.1-4.1,0.1l-0.2,1c-0.1,0.5-0.1,0.9-0.1,1.2c0,1.9,1.2,3.1,3.6,3.6c0.2,0,0.3,0.1,0.4,0.1
		c0,0,0.1,0.1,0.2,0.1v3.4l-6.4-0.1l-7.6,0.1v-3.3c0.6,0,1.2-0.1,1.8-0.3c0.6-0.2,1.1-0.6,1.5-1.1c0.4-0.5,0.8-1.3,1.2-2.4l1.4-3.7
		l6.8-18.7l0.2-0.5c0.1-0.2,0.1-0.5,0.2-0.7c0-0.3,0.1-0.5,0.1-0.7c0-1.9-1.2-3-3.7-3.3c-0.1,0-0.4-0.1-0.7-0.1
		c-0.3,0-0.6,0.1-1,0.2v-4.4c1.1-0.2,13.7,0,13.7,0l14.5,31.7l0.7,1.4c0.5,1.2,1.4,2.1,2.8,2.5l0.4,0.1V684.7z"/>
	<path class="st1" d="M512.4,668.9l-0.7,4.2l-0.7,4.2l-0.6,4.1l-0.7,4.2l-1.5-0.2l-2.1-0.3c-1.1-0.1-2-0.2-3-0.3c-0.9,0-1.4,0-1.6,0
		h-25v-1.8l20.5-32l-8,0.1h-2.6c-0.4,0-0.8,0-1.1,0.1c-0.3,0.1-0.9,0.3-1.8,0.7c-1.5,0.6-2.4,1.6-3,3l-0.1,0.3l-0.1,0.2l-3-0.4
		l0.4-2.3l0.4-2.4l0.4-2.5l0.4-2.5c4,0,7.6,0.1,11,0.2c3.4,0.1,7.3,0.2,11.8,0.4c4.5,0.1,7.6,0.2,9.4,0.2v0.8l-21.2,33.2h7.4
		l1.3-0.1c2.3-0.3,4-1,5.3-2.1c1.3-1.1,2.6-3.1,4.1-6l0.7-1.5l0.3-0.7l0.3-0.9H512.4"/>
	<path class="st1" d="M531.8,649l-0.2,0.1l-0.3,0.1l-0.4,0.1l-0.7,0.3c-1.1,0.4-1.7,1.2-1.7,2.3v26.7c0,1.2,0.6,1.9,1.7,2.3l0.6,0.2
		l0.4,0.2l0.3,0.1l0.3,0.1v3.4h-17.3v-3.4l0.2-0.1l0.3-0.1l0.4-0.1l0.6-0.3c1.1-0.4,1.7-1.2,1.7-2.3v-26.8c0-1.1-0.5-1.9-1.6-2.3
		l-0.3-0.2l-0.3-0.1l-0.4-0.1l-0.6-0.1v-3.4h17.3V649"/>
	<path class="st1" d="M560.3,657.9c0-1-0.2-1.9-0.5-2.9c-0.8-2.2-2-3.7-3.8-4.7c-0.4-0.2-0.7-0.3-1.1-0.5c-0.7-0.3-1.4-0.4-2.2-0.4
		h-1.5l-0.8,0.1h-0.5v12.9c0.1,0.6,0.5,1.1,1.3,1.4l0.7,0.2l0.3,0.1l1,0.2c0.3,0,0.5,0.1,0.7,0.1h0.4c1.8,0,3.3-0.6,4.4-1.8
		C559.7,661.5,560.3,659.9,560.3,657.9 M574.1,684.6l-6.6,0.2l-1.9-0.1c-2.7,0-4.8-0.5-6.4-1.6c-1.5-1.1-2.9-2.8-4.1-5.3l-1.2-2.6
		l-0.3-0.7l-0.6-1.4l-0.8-1.9l-0.2-0.4l-0.6-1.1c-0.3-0.6-0.5-0.9-0.7-1.2c-0.2-0.2-0.5-0.5-0.8-0.8l-0.1,10.9
		c0,1.1,0.5,1.9,1.4,2.3l0.2,0.1l0.4,0.2l0.4,0.1l0.3,0.1c0.4,0.1,0.8,0.1,1.4,0.1v3.4c-1.4-0.1-16.8-0.1-18.2,0v-3.4h0.2l0.2-0.1
		l0.3-0.1l0.3-0.1l0.5-0.2c1-0.5,1.5-1.3,1.5-2.4v-26.7c0-1.1-0.5-1.8-1.5-2.3l-0.3-0.2l-0.1-0.1l-0.3-0.1l-0.3-0.1l-0.6-0.1v-3.4
		l2.6,0.1c2.2,0,3.9,0,5.2-0.1c1.3,0,2.5-0.1,3.6-0.1l3.4-0.4c1.5-0.1,2.6-0.2,3.4-0.3c0.8,0,1.6-0.1,2.5-0.1h0.6
		c4.1,0,7.3,0.8,9.7,2.5c2.2,1.5,3.5,3.8,4.1,6.8c0.1,0.3,0.1,0.7,0.2,1.3c0.1,0.6,0.1,1.2,0.1,1.8c0,2.5-0.7,4.5-2,6.1
		c-1.3,1.6-3.3,2.9-6.2,4l-0.9,0.3C563.4,674.8,567.4,680.4,574.1,684.6"/>
	<path class="st1" d="M596.3,670.7l-5-11.2l-3.9,11.2H596.3 M615.3,684.7h-18.7v-3.3l0.6-0.2c0.8-0.2,1.4-0.5,1.6-0.7
		c0.3-0.3,0.4-0.7,0.4-1.3c0-0.4,0-0.7-0.1-0.9l-0.2-0.9l-0.2-0.7l-0.5-1.2l-2.9-0.1c-1.1,0-3,0-5.7,0.1c-2.6,0.1-4,0.1-4.1,0.1
		l-0.2,1c-0.1,0.5-0.1,0.9-0.1,1.2c0,1.9,1.2,3.1,3.6,3.6c0.2,0,0.3,0.1,0.4,0.1c0,0,0.1,0.1,0.2,0.1v3.4h-14v-3.3
		c0.6,0,1.2-0.1,1.8-0.3c0.6-0.2,1.1-0.6,1.5-1.1c0.4-0.5,0.8-1.3,1.2-2.4l1.4-3.7l6.8-18.7l0.2-0.5c0.1-0.2,0.1-0.5,0.2-0.7
		c0-0.3,0.1-0.5,0.1-0.7c0-1.9-1.2-3-3.7-3.3c-0.1,0-0.4-0.1-0.7-0.1c-0.3,0-0.6,0.1-1,0.2v-4.4c1.1-0.2,13.7,0,13.7,0l14.5,31.7
		l0.7,1.4c0.5,1.2,1.4,2.1,2.8,2.5l0.4,0.1V684.7z"/>
	<path class="st1" d="M659.7,684.7h-18v-3.4l0.9-0.1l0.4-0.1l0.3-0.1l0.2-0.1l0.4-0.2c1.1-0.4,1.6-1.2,1.6-2.3v-10
		c-4.5,2.5-8.9,2.4-13.2-0.1v10.2c0,1.1,0.5,1.9,1.6,2.3l0.4,0.2l0.2,0.1l0.4,0.1l0.3,0.1l0.9,0.1v3.4h-18v-3.4h0.2l0.2-0.1l0.3-0.1
		l0.3-0.1l0.6-0.2c1-0.5,1.5-1.3,1.5-2.4v-26.7c0-1.1-0.5-1.8-1.5-2.3l-0.4-0.2l-0.2,0l-0.3-0.1l-0.3-0.1l-0.2-0.1l-0.2-3.4h18.1
		v3.4l-0.9,0.1l-0.4,0.1l-0.3,0.1l-0.2,0.1l-0.4,0.2c-1.1,0.5-1.7,1.2-1.7,2.3V663c0.7,0,1.9,0,3.5,0.1c1.7,0.1,2.6,0.1,2.7,0.1
		c0.8,0,2.1,0,4-0.1c1.9-0.1,2.9-0.1,3-0.1v-11.1c0-1.1-0.6-1.8-1.8-2.3l-0.4-0.2l-0.2-0.1l-0.4-0.1l-0.3-0.1l-0.9-0.1v-3.4
		c3,0.3,17.5,0,18,0v3.4l-0.3,0.1l-0.4,0.1l-0.3,0.1l-0.2,0l-0.4,0.2c-1.1,0.5-1.6,1.2-1.6,2.3v26.7c0,1.1,0.5,1.9,1.6,2.3l0.3,0.2
		l0.2,0.1l0.3,0.1l0.3,0.1l0.2,0.1h0.2V684.7"/>
	<path class="st1" d="M396.6,657.2l0,27.7c0,4.7,4.2,10.9,4.2,10.9c-5.7,0-15.1-3.1-15.1-10.8v-25.1l-7.7-8.6
		c13.1-3.9,11.2-12.9,11.2-12.9s7.6,10.5,9.3,13.2C400.3,654.2,396.6,657.2,396.6,657.2"/>
	<polygon class="st1" points="424.1,629.3 418.2,636.3 425.2,643.5 432.5,636.3 	"/>
	<polygon class="st1" points="521.4,629.3 515.4,636.3 522.4,643.5 529.7,636.3 	"/>
	<g>
		<path class="st3" d="M893.8,330.1l-26.3,44l7.1,236.2c0,0,26.3-19.2,25.7-50.7C899.7,528,893.8,330.1,893.8,330.1"/>
	</g>
	<path class="st3" d="M731.5,317.6c0,0-5.2,25.6,32.1,36.7l-21.8,33.9c0,0,16,73.6-7.3,88.4c0,0,48.6,22.7,123.5,28.8l-23.7,33.9
		c0,0-33.5-11-96.3,6c-62.8,17-220.3,57.1-289.4-0.3c0,0-34.7,114.6-132.5,44.3c0,0,66.1,15.5,117.4-59.8c0,0-8.5-11.5-19.8-24.1
		l12.2-37.9c25.3,36.6,73.3,94.6,284.8,47.8l-73.7-23.2l20.8-31.1c0,0,61.5,0,63.4,1.1c2,1-8-90.6-8-90.6s-13.3-8.8-8.4-16.3
		C709.8,347.6,731.5,317.6,731.5,317.6"/>
	<path class="st3" d="M310.1,417l-16,34l10.3,17.3c0,0-39.1,32.7-65.2-11.5L231,489c0,0,8.3,20.2,21.6,29c0,0-24.3,71.9-129.1,66.3
		c0,0,42.8,26.4,80.3,25.2c37.5-1.2,70.5-75.9,67.8-87.4c0,0,66.6-10.3,55.3-78.1L310.1,417"/>
	<polygon class="st3" points="179.2,388.7 205.6,414.9 180.2,439.2 153.7,416.8 133.1,440.3 104.7,414.1 129.2,389.8 153.8,412 	"/>
	<polygon class="st3" points="394.8,392.4 373.3,417.7 398.7,443.9 425.2,417.7 	"/>
	<path class="st3" d="M142,464.3c0,0,62.3-4.9,51.8,64.6c-18.7,51.1-70.7,44.7-79.2,20.5c-6.4-18.2,13.6-67.3,20.5-73.9L142,464.3
		 M132.4,516.5c0,0,12.1-31.2,35.5,4.5C148.8,530,136.9,528.6,132.4,516.5"/>
	<polygon class="st3" points="758.9,558.8 737.4,584.2 762.9,610.3 789.3,584.2 	"/>
	<polygon class="st3" points="364.4,515.9 390.9,542.2 365.5,566.5 338.9,544.1 318.3,567.5 290,541.4 314.4,517 339,539.3 	"/>
	<path class="st3" d="M686,316l-136.8,45.4c0,0,30.6,14.4,127.6-29.5l29.8-22.7L686,316"/>
	<path class="st4" d="M890.9,326.5l-26.3,44l7.1,236.2c0,0,26.3-19.2,25.7-50.7C896.8,524.4,890.9,326.5,890.9,326.5"/>
	<path class="st4" d="M728.7,313.9c0,0-5.2,25.6,32.1,36.7l-21.8,33.9c0,0,16,73.6-7.3,88.4c0,0,48.6,22.7,123.5,28.8l-23.7,33.9
		c0,0-33.5-11-96.2,6c-62.8,17-220.3,57.1-289.4-0.3c0,0-34.7,114.6-132.5,44.4c0,0,66.1,15.5,117.4-59.8c0,0-8.5-11.5-19.8-24.1
		l12.2-37.9c25.3,36.6,73.3,94.6,284.8,47.8l-73.7-23.2l20.8-31.1c0,0,61.5,0,63.4,1.1c2,1-8-90.6-8-90.6s-13.3-8.7-8.4-16.3
		C707,344,728.7,313.9,728.7,313.9"/>
	<path class="st4" d="M307.2,413.4l-16,34l10.3,17.3c0,0-39.1,32.7-65.2-11.5l-8.2,32.2c0,0,8.3,20.1,21.6,29
		c0,0-24.3,71.9-129.1,66.3c0,0,42.8,26.4,80.3,25.2c37.5-1.2,70.5-75.9,67.8-87.4c0,0,66.5-10.3,55.2-78.1L307.2,413.4"/>
	<polygon class="st4" points="176.3,385 202.7,411.2 177.3,435.5 150.8,413.2 130.2,436.6 101.8,410.4 126.3,386.1 150.9,408.4 	"/>
	<polygon class="st4" points="391.9,388.7 370.4,414.1 395.9,440.2 422.3,414 	"/>
	<path class="st4" d="M139.1,460.6c0,0,62.9-3.6,51.8,64.6c-23.9,56.3-71.6,42.2-79.2,20.5c-6.4-18.2,13.6-67.3,20.5-73.9
		L139.1,460.6 M129.5,512.8c0,0,12.1-31.2,35.5,4.5C145.9,526.4,134.1,524.9,129.5,512.8"/>
	<polygon class="st4" points="756.1,555.2 734.5,580.5 760,606.7 786.4,580.5 	"/>
	<polygon class="st4" points="361.6,512.3 388,538.5 362.6,562.8 336.1,540.4 315.4,563.9 287.1,537.7 311.6,513.4 336.2,535.6 	"/>
	<path class="st4" d="M683.1,312.4l-136.8,45.4c0,0,30.6,14.4,127.6-29.5l29.8-22.7L683.1,312.4"/>
	<path class="st5" d="M888.8,324.7l-26.3,44l7.1,236.2c0,0,26.3-19.2,25.7-50.7C894.6,522.5,888.8,324.7,888.8,324.7"/>
	<path class="st5" d="M726.5,312.1c0,0-5.2,25.6,32.1,36.7l-21.8,33.9c0,0,16,73.6-7.3,88.4c0,0,48.6,22.7,123.5,28.8l-23.7,33.9
		c0,0-33.5-11-96.2,6c-62.8,17-220.3,57.1-289.4-0.3c0,0-34.7,114.6-132.5,44.4c0,0,66.1,15.5,117.4-59.8c0,0-8.5-11.5-19.8-24.1
		L421,462c25.3,36.6,73.3,94.6,284.8,47.8l-73.7-23.2l20.8-31.1c46.7,1.2,60.7,0.9,63.4,1.1c2.2,0.2-8-90.6-8-90.6
		s-13.3-8.8-8.4-16.3C704.8,342.1,726.5,312.1,726.5,312.1"/>
	<path class="st5" d="M305.1,411.5l-16,34l10.3,17.3c0,0-39.1,32.7-65.2-11.5l-8.2,32.2c0,0,8.3,20.2,21.6,29
		c0,0-24.3,71.9-129.1,66.3c0,0,42.8,26.4,80.3,25.2c37.5-1.2,70.5-75.9,67.8-87.4c0,0,66.5-10.3,55.2-78.1L305.1,411.5"/>
	<polygon class="st5" points="174.2,383.2 200.6,409.4 175.2,433.7 148.7,411.3 128,434.8 99.7,408.6 124.2,384.3 148.8,406.5 	"/>
	<polygon class="st5" points="389.8,386.9 368.2,412.3 393.7,438.4 420.1,412.2 	"/>
	<path class="st5" d="M137,458.8c0,0,58-11.4,51.8,64.6c-25.2,60.1-72.4,39.7-79.2,20.5c-6.4-18.2,15.6-69.2,22.5-78.1L137,458.8
		 M127.4,511c0,0,12.1-31.2,35.5,4.5C143.8,524.6,131.9,523.1,127.4,511"/>
	<polygon class="st5" points="753.9,553.3 732.4,578.7 757.9,604.8 784.3,578.7 	"/>
	<polygon class="st5" points="359.4,510.4 385.9,536.7 360.4,561 333.9,538.6 313.3,562 285,535.9 309.4,511.5 334,533.8 	"/>
	<path class="st5" d="M681,310.6l-136.8,45.4c0,0,30.6,14.4,127.6-29.5l29.8-22.7L681,310.6"/>
</g>
</svg>
