<svg xmlns="http://www.w3.org/2000/svg" xmlns:xlink="http://www.w3.org/1999/xlink" viewBox="0 0 122.7 94"><defs><style>.cls-1{fill:#044a75;}.cls-2{fill:url(#linear-gradient);}.cls-3{fill:#fff;}</style><linearGradient id="linear-gradient" x1="47.29" y1="-15.94" x2="-4.49" y2="77.46" gradientUnits="userSpaceOnUse"><stop offset="0.28" stop-color="#00a69c"/><stop offset="0.4" stop-color="#02969b"/><stop offset="0.8" stop-color="#0a639a"/><stop offset="1" stop-color="#0d4f99"/></linearGradient></defs><g id="Layer_2" data-name="Layer 2"><g id="Layer_1-2" data-name="Layer 1"><path class="cls-1" d="M15.13,63.23c-1.47.84-2.88,1.69-4.22,2.49C7.09,68,3.67,70.07.68,71A.55.55,0,0,1,0,70.41V58.93a40.19,40.19,0,0,1,15.13,4.3"/><path class="cls-2" d="M0,1.9V55.73a45.72,45.72,0,0,1,18.51,5.64c2.72,1.42,5.24,2.94,7.59,4.35C29.92,68,33.34,70.08,36.33,71a.55.55,0,0,0,.68-.54V58.94a37.15,37.15,0,0,0-10.82,2.43l-3.53-2,.08,0,1.44-.6.25-.1,1.38-.53.41-.14c.35-.13.72-.24,1.09-.36l.88-.28c1.07-.33,2.17-.61,3.29-.84.5-.12,1-.22,1.51-.29a35,35,0,0,1,4-.47V21.39a11.31,11.31,0,0,0-7.14-10.56L2.56.13A1.86,1.86,0,0,0,1.88,0,1.89,1.89,0,0,0,0,1.9"/><path class="cls-1" d="M57.32,68.43l2.33-.68v3.38H54.94a7.85,7.85,0,0,1-2.08-.27A5,5,0,0,1,51.09,70a4,4,0,0,1-1.23-1.56,5.46,5.46,0,0,1-.45-2.3,8,8,0,0,1,.28-1.92A9.53,9.53,0,0,1,50.51,62l2.46.9c-.14.35-.25.66-.34.93s-.15.53-.21.77-.09.48-.12.71a5.69,5.69,0,0,0,0,.72,3,3,0,0,0,.25,1.33,2.29,2.29,0,0,0,.65.83,2.34,2.34,0,0,0,.91.44,4.44,4.44,0,0,0,1,.12H57V60.3h2.79v6.15l-2-.33h9.11a1.33,1.33,0,0,0,1-.35,2.5,2.5,0,0,0,.32-1.54V58.87H71v6a3.61,3.61,0,0,1-.88,2.62,3.27,3.27,0,0,1-2.47.92Zm5.26-1.55V60.3h2.77v6.82"/><path class="cls-1" d="M86,66.12c.19,0,1.47.1,1.57.29a2.19,2.19,0,0,1,.15,1,3.26,3.26,0,0,1-.07.8c0,.18-1.26.27-1.38.27h-.88a.79.79,0,0,1-.69-.25,1.63,1.63,0,0,1-.18-.91,2,2,0,0,1,.15-.84c.1-.21-.23-.31,0-.31Z"/><path class="cls-1" d="M96,66.12a.48.48,0,0,1,.44.29,2.19,2.19,0,0,1,.15,1,3.26,3.26,0,0,1-.07.8c0,.18-.13.27-.25.27h-10a.65.65,0,0,1-.62-.25,1.54,1.54,0,0,1-.19-.91,1.82,1.82,0,0,1,.16-.84c.1-.21.18-.31.38-.31Z"/><path class="cls-1" d="M99,55.75a1.4,1.4,0,0,1,1.46-1.46,1.36,1.36,0,0,1,1,.4,1.62,1.62,0,0,1,0,2.13,1.36,1.36,0,0,1-1,.41,1.39,1.39,0,0,1-1.05-.42A1.48,1.48,0,0,1,99,55.75"/><path class="cls-1" d="M109.81,72.94a2.2,2.2,0,0,1-.29-1,2.06,2.06,0,0,1,.6-1.55,2.32,2.32,0,0,1,1.66-.57,3.82,3.82,0,0,1,.57,0A4.49,4.49,0,0,1,113,70l-.26,1.14a2.69,2.69,0,0,0-.92-.15,1.2,1.2,0,0,0-.83.26.9.9,0,0,0-.29.71.88.88,0,0,0,.31.73,1.37,1.37,0,0,0,.91.26h1.24v1.17H109V72.94Z"/><rect class="cls-1" x="119.92" y="54.28" width="2.79" height="14.14"/><path class="cls-1" d="M64.66,43.67a.46.46,0,0,1,.43.28,2.08,2.08,0,0,1,.15.95,4,4,0,0,1-.06.81c-.05.17-.14.26-.26.26h-.84a.82.82,0,0,1-.69-.24,1.66,1.66,0,0,1-.18-.91,1.91,1.91,0,0,1,.15-.84.48.48,0,0,1,.46-.31Z"/><path class="cls-1" d="M67.67,43.67a.46.46,0,0,1,.43.28,2.05,2.05,0,0,1,.16.95,3.89,3.89,0,0,1-.07.81c0,.17-.14.26-.26.26h-3a.82.82,0,0,1-.69-.24,1.66,1.66,0,0,1-.18-.91A1.91,1.91,0,0,1,64.2,44a.48.48,0,0,1,.46-.31Z"/><path class="cls-1" d="M70.68,43.67a.46.46,0,0,1,.43.28,2.05,2.05,0,0,1,.16.95,3.89,3.89,0,0,1-.07.81c0,.17-.14.26-.26.26h-3a.82.82,0,0,1-.69-.24,1.66,1.66,0,0,1-.18-.91,1.91,1.91,0,0,1,.15-.84.48.48,0,0,1,.46-.31Z"/><path class="cls-1" d="M77.53,43.67A.47.47,0,0,1,78,44a2.22,2.22,0,0,1,.15.95,3.3,3.3,0,0,1-.07.81c0,.17-.13.26-.25.26H70.94a.82.82,0,0,1-.69-.24,1.66,1.66,0,0,1-.18-.91,1.91,1.91,0,0,1,.15-.84.48.48,0,0,1,.46-.31Z"/><path class="cls-1" d="M80.54,43.67a36.79,36.79,0,0,1,4.63.28,2.22,2.22,0,0,1,.15.95,3.3,3.3,0,0,1-.07.81c0,.17-.13.26-.25.26H77.8a.86.86,0,0,1-.7-.24,1.66,1.66,0,0,1-.18-.91,1.91,1.91,0,0,1,.15-.84.5.5,0,0,1,.46-.31Z"/><path class="cls-1" d="M85.41,43.67a.46.46,0,0,1,.43.28,2.05,2.05,0,0,1,.16.95,3.89,3.89,0,0,1-.07.81c-.05.17-.14.26-.26.26H85a46.62,46.62,0,0,1-4.88-.24,1.56,1.56,0,0,1-.19-.91,1.77,1.77,0,0,1,.16-.84.48.48,0,0,1,.45-.31Z"/><path class="cls-1" d="M87.24,43.67a.48.48,0,0,1,.44.28,2.22,2.22,0,0,1,.15.95,3.89,3.89,0,0,1-.07.81c-.05.17-.14.26-.26.26h-3a.82.82,0,0,1-.69-.24,1.66,1.66,0,0,1-.18-.91,1.91,1.91,0,0,1,.15-.84.49.49,0,0,1,.46-.31Z"/><path class="cls-1" d="M90.25,43.67a.48.48,0,0,1,.44.28,2.22,2.22,0,0,1,.15.95,3.89,3.89,0,0,1-.07.81c0,.17-.14.26-.26.26h-3a.82.82,0,0,1-.69-.24,1.66,1.66,0,0,1-.18-.91,1.91,1.91,0,0,1,.15-.84.48.48,0,0,1,.46-.31Z"/><path class="cls-1" d="M90.25,43.67a3.89,3.89,0,0,0,1-.12,1.32,1.32,0,0,0,.64-.35,1.15,1.15,0,0,0,.3-.58,4.16,4.16,0,0,0,.08-.85v-5h2.77v4.92a1.81,1.81,0,0,0,.61,1.43,2.42,2.42,0,0,0,1.67.55.47.47,0,0,1,.44.26,1.88,1.88,0,0,1,.15.87,8.31,8.31,0,0,1,0,1c0,.15-.09.22-.19.22a5.51,5.51,0,0,1-.86-.07,4.49,4.49,0,0,1-.91-.23,3.86,3.86,0,0,1-.81-.41,2.41,2.41,0,0,1-.65-.62,2.75,2.75,0,0,1-1.4,1,7.73,7.73,0,0,1-2.49.33,1.08,1.08,0,0,1-.77-.27,1.06,1.06,0,0,1-.28-.82,1.78,1.78,0,0,1,.18-.9.56.56,0,0,1,.51-.31m2.09-10.38a1.42,1.42,0,0,1,.42-1,1.46,1.46,0,0,1,1-.41,1.36,1.36,0,0,1,1,.41,1.6,1.6,0,0,1,0,2.12,1.32,1.32,0,0,1-1,.41,1.4,1.4,0,0,1-1.06-.42,1.46,1.46,0,0,1-.41-1.06"/><path class="cls-1" d="M102.71,43.67a.47.47,0,0,1,.44.28,2.22,2.22,0,0,1,.15.95,3.3,3.3,0,0,1-.07.81c0,.17-.13.26-.25.26H97.63a.82.82,0,0,1-.69-.24,1.66,1.66,0,0,1-.18-.91,1.91,1.91,0,0,1,.15-.84.48.48,0,0,1,.46-.31Z"/><path class="cls-1" d="M112.19,46h-9.11a1.21,1.21,0,0,1-.76-.24,1.06,1.06,0,0,1-.3-.85,2.48,2.48,0,0,1,.14-.82.55.55,0,0,1,.55-.39h6.63V41c0-.82-.58-2.7-3.57-2.7a10.41,10.41,0,0,0-3,.6l-.59-2.1a11.57,11.57,0,0,1,4.24-.84c2.34,0,5.78,1.43,5.78,5.17Z"/><rect class="cls-1" x="74.28" y="54.29" width="2.77" height="9.36"/><path class="cls-1" d="M82.81,64.39c0,3-2.3,4-4.58,4H73.59l-.52-2.31h4.27c2.91,0,2.7-1.72,2.7-2.52V54.29h2.77Z"/><rect class="cls-1" x="108.84" y="54.29" width="2.77" height="9.36"/><path class="cls-1" d="M117.38,64.39c0,3-2.31,4-4.59,4h-4.63l-.53-2.31h4.27c2.91,0,2.71-1.72,2.71-2.52V54.29h2.77Z"/><path class="cls-1" d="M111.8,44.51V41.72h.39c0,1.25,1.37,2,2.66,2a.37.37,0,0,1,.36.22,2.58,2.58,0,0,1,.11.93c0,.26,0,.47,0,.62s0,.25,0,.32l0,.15s0,.06,0,.06a4.55,4.55,0,0,1-.71,0,4.29,4.29,0,0,1-.81-.19,3.47,3.47,0,0,1-.81-.42,2.55,2.55,0,0,1-.7-.69Z"/><path class="cls-1" d="M117.86,43.67a.47.47,0,0,1,.44.28,2.22,2.22,0,0,1,.15.95,3.3,3.3,0,0,1-.07.81c0,.17-.13.26-.25.26h-3a.82.82,0,0,1-.69-.24,1.56,1.56,0,0,1-.19-.91,1.77,1.77,0,0,1,.16-.84.48.48,0,0,1,.45-.31Z"/><path class="cls-1" d="M117.86,43.67a3.89,3.89,0,0,0,1-.12,1.28,1.28,0,0,0,.64-.35,1.25,1.25,0,0,0,.31-.58,4.16,4.16,0,0,0,.08-.85V31.83h2.76V42.27a5.27,5.27,0,0,1-.22,1.63,2.66,2.66,0,0,1-.74,1.16,3.4,3.4,0,0,1-1.37.69,8.63,8.63,0,0,1-2.14.22,1,1,0,0,1-.78-.28,1.06,1.06,0,0,1-.28-.81,1.67,1.67,0,0,1,.19-.9.55.55,0,0,1,.5-.31"/><path class="cls-1" d="M105.21,49.06a1.4,1.4,0,0,1,1.47-1.46,1.36,1.36,0,0,1,1,.41,1.43,1.43,0,0,1,.4,1.05,1.45,1.45,0,0,1-.4,1.07,1.32,1.32,0,0,1-1,.41,1.39,1.39,0,0,1-1.06-.41,1.46,1.46,0,0,1-.41-1.07"/><path class="cls-1" d="M52.19,33.29a1.39,1.39,0,0,1,1.46-1.46,1.39,1.39,0,0,1,1,.41,1.6,1.6,0,0,1,0,2.12,1.36,1.36,0,0,1-1,.41,1.41,1.41,0,0,1-1.06-.41,1.45,1.45,0,0,1-.4-1.07"/><path class="cls-1" d="M55.79,33.29a1.45,1.45,0,0,1,.4-1,1.46,1.46,0,0,1,1.06-.41,1.39,1.39,0,0,1,1,.41,1.6,1.6,0,0,1,0,2.12,1.36,1.36,0,0,1-1,.41,1.42,1.42,0,0,1-1.06-.41,1.45,1.45,0,0,1-.4-1.07"/><path class="cls-1" d="M49.43,41.17c0-3.74,3.44-5.17,5.78-5.17a10.9,10.9,0,0,1,4.35,1l-1.49,2.46c-.41-.14-1.24-1.07-2.49-1.07-3,0-3.3,1.88-3.3,2.7v2.63h3.51V46H49.43Z"/><path class="cls-1" d="M60.7,43.67h6.74V46H59.93a3.16,3.16,0,0,1-3.14-3.17V37h2.77v5.56a1.15,1.15,0,0,0,1.14,1.16"/><path class="cls-1" d="M95,64c0-3.73,3.44-5.17,5.79-5.17a10.73,10.73,0,0,1,4.34,1l-1.48,2.46c-.41-.14-1.24-1.07-2.49-1.07-3,0-3.31,1.88-3.31,2.7v2.2h6.49a.54.54,0,0,1,.55.39,2.3,2.3,0,0,1,.14.83,1,1,0,0,1-.3.84,1.11,1.11,0,0,1-.75.25H95Z"/><rect class="cls-1" x="102.33" y="59.83" width="2.77" height="8.6"/><path class="cls-1" d="M82.81,64.27c0,1.85,1.43,1.85,2.28,1.85a.48.48,0,0,1,.45.27,2,2,0,0,1,.14.86c0,.48,0,1.18,0,1.18H85c-3.16,0-3.6-2.08-3.61-2.56Z"/><path class="cls-1" d="M0,85.45H2.78a3.45,3.45,0,0,1,.81.1,1.72,1.72,0,0,1,.64.3,1.5,1.5,0,0,1,.43.53,1.79,1.79,0,0,1,.15.77,1.59,1.59,0,0,1-.31,1,1.7,1.7,0,0,1-.76.52v0a2.09,2.09,0,0,1,.48.19,1.52,1.52,0,0,1,.39.32,1.22,1.22,0,0,1,.27.46,1.74,1.74,0,0,1,.1.63,1.92,1.92,0,0,1-.13.72,1.49,1.49,0,0,1-.39.6,1.85,1.85,0,0,1-.67.41,2.76,2.76,0,0,1-1,.15H0Zm1.36,2.74h.95a1.49,1.49,0,0,0,.84-.2.73.73,0,0,0,.29-.65,1,1,0,0,0-.08-.4.69.69,0,0,0-.24-.24,1.13,1.13,0,0,0-.34-.11,2.56,2.56,0,0,0-.39,0h-1Zm0,2.88H2.46a3.3,3.3,0,0,0,.47,0,1.09,1.09,0,0,0,.37-.14.64.64,0,0,0,.24-.27,1.12,1.12,0,0,0,.08-.44.78.78,0,0,0-.37-.71,1.59,1.59,0,0,0-.42-.14,3,3,0,0,0-.54,0H1.37Z"/><path class="cls-1" d="M9.61,88.92a.75.75,0,0,0-.27-.61,1.32,1.32,0,0,0-.82-.21,4.13,4.13,0,0,0-.58.05,4.14,4.14,0,0,0-.68.19l-.24-1a4.07,4.07,0,0,1,.77-.2,4.28,4.28,0,0,1,.83-.09,2.65,2.65,0,0,1,1.77.5,1.74,1.74,0,0,1,.54,1.4V91c0,.18,0,.38,0,.59a3.69,3.69,0,0,0,.06.54H9.83c0-.09,0-.19-.06-.31s0-.22,0-.3h0a1.38,1.38,0,0,1-.55.52,1.86,1.86,0,0,1-.87.2,2.8,2.8,0,0,1-.64-.08,1.66,1.66,0,0,1-.57-.27,1.24,1.24,0,0,1-.41-.47,1.87,1.87,0,0,1-.15-.72,1.5,1.5,0,0,1,.24-.88,1.52,1.52,0,0,1,.67-.51,3.48,3.48,0,0,1,1-.25,9.16,9.16,0,0,1,1.18,0Zm-.18,1a4.26,4.26,0,0,0-.63,0,1.89,1.89,0,0,0-.52.12.77.77,0,0,0-.35.25.58.58,0,0,0-.13.4.69.69,0,0,0,.19.5.76.76,0,0,0,.53.18,1.07,1.07,0,0,0,.49-.1A.92.92,0,0,0,9.36,91a1.3,1.3,0,0,0,.19-.37,1.35,1.35,0,0,0,.06-.41v-.35Z"/><path class="cls-1" d="M14.24,87.2v.67h0a1.35,1.35,0,0,1,.6-.58,2.07,2.07,0,0,1,.89-.2,2,2,0,0,1,.75.13,1.54,1.54,0,0,1,.57.36,1.58,1.58,0,0,1,.36.58,2,2,0,0,1,.13.74v3.27H16.24V89.39a3.16,3.16,0,0,0,0-.55,1.17,1.17,0,0,0-.15-.41.63.63,0,0,0-.27-.24,1,1,0,0,0-.45-.09,1,1,0,0,0-.38.07.89.89,0,0,0-.34.23,1.48,1.48,0,0,0-.25.43,2.08,2.08,0,0,0-.09.65v2.69H13v-5Z"/><polygon class="cls-1" points="24.1 87.2 22.29 89.42 24.21 92.17 22.62 92.17 20.9 89.56 20.88 89.56 20.88 92.17 19.57 92.17 19.57 85.26 20.88 85.26 20.88 89.35 20.9 89.35 22.53 87.2 24.1 87.2"/><path class="cls-1" d="M28.52,88.13l-.19,0h-.2a1.12,1.12,0,0,0-.45.08,1,1,0,0,0-.38.28A1.38,1.38,0,0,0,27,89a2.88,2.88,0,0,0-.09.78v2.4H25.63v-5h1.29v.65h0a1.28,1.28,0,0,1,1.28-.76h.36Z"/><path class="cls-1" d="M33.33,92.17V91.5h0a1.35,1.35,0,0,1-.6.58,2,2,0,0,1-.88.2,2.06,2.06,0,0,1-.76-.13,1.6,1.6,0,0,1-.93-.93,2,2,0,0,1-.13-.75V87.2h1.32V90a2.79,2.79,0,0,0,0,.53,1.17,1.17,0,0,0,.15.41.64.64,0,0,0,.28.26,1,1,0,0,0,.45.09,1,1,0,0,0,.38-.07A1,1,0,0,0,33,91a1.1,1.1,0,0,0,.24-.43,1.74,1.74,0,0,0,.1-.65V87.2h1.32v5Z"/><path class="cls-1" d="M38,94H36.67V87.2H38v.64h0a1.84,1.84,0,0,1,.68-.57,2,2,0,0,1,1.71,0,1.85,1.85,0,0,1,.65.56,2.41,2.41,0,0,1,.4.82,3.63,3.63,0,0,1,.13,1,3.31,3.31,0,0,1-.14,1,2.39,2.39,0,0,1-.41.83,1.76,1.76,0,0,1-.66.55,2.11,2.11,0,0,1-1.68,0,1.4,1.4,0,0,1-.65-.51h0Zm2.24-4.32a3,3,0,0,0-.06-.62,1.47,1.47,0,0,0-.2-.51,1,1,0,0,0-.34-.33,1,1,0,0,0-.5-.12,1.06,1.06,0,0,0-.51.11,1,1,0,0,0-.39.33,1.34,1.34,0,0,0-.24.51,2.29,2.29,0,0,0,0,1.27,1.5,1.5,0,0,0,.23.51,1.13,1.13,0,0,0,.39.33,1.11,1.11,0,0,0,.52.12,1,1,0,0,0,.5-.12.92.92,0,0,0,.34-.34,1.47,1.47,0,0,0,.2-.51,3.06,3.06,0,0,0,.06-.63"/><path class="cls-1" d="M42.72,87.2h.75V85.89h1.32V87.2h1v1h-1v2.22a2.29,2.29,0,0,0,0,.41.48.48,0,0,0,.08.24.32.32,0,0,0,.17.1,1,1,0,0,0,.28,0h.22l.22,0v1l-.41,0h-.45a2.56,2.56,0,0,1-.75-.09,1,1,0,0,1-.44-.27,1,1,0,0,1-.21-.45,2.93,2.93,0,0,1-.06-.63V88.21h-.75Z"/><path class="cls-1" d="M50.64,88.25a2.22,2.22,0,0,0-.39-.12l-.4,0a1.52,1.52,0,0,0-.62.12,1.27,1.27,0,0,0-.44.34,1.53,1.53,0,0,0-.26.51,1.83,1.83,0,0,0-.1.62,2.06,2.06,0,0,0,.09.62,1.42,1.42,0,0,0,.27.5,1,1,0,0,0,.45.34,1.56,1.56,0,0,0,.64.12l.4,0a1.14,1.14,0,0,0,.4-.11l.2,1a2.5,2.5,0,0,1-.54.13,3.64,3.64,0,0,1-.57,0,3.16,3.16,0,0,1-1.16-.2,2.26,2.26,0,0,1-.82-.54,2.21,2.21,0,0,1-.5-.82,2.86,2.86,0,0,1-.18-1,3.2,3.2,0,0,1,.18-1,2.55,2.55,0,0,1,.52-.82,2.3,2.3,0,0,1,.83-.54,3.06,3.06,0,0,1,1.12-.2,3.34,3.34,0,0,1,1.11.16Z"/><polygon class="cls-1" points="54.52 90.53 54.54 90.53 55.72 87.2 57.1 87.2 54.45 94 53.05 94 53.85 92.05 51.91 87.2 53.34 87.2 54.52 90.53"/><path class="cls-1" d="M66.19,86.68a3.54,3.54,0,0,0-.58-.17,2.54,2.54,0,0,0-.61-.07,2.09,2.09,0,0,0-.93.2,1.81,1.81,0,0,0-.67.51,2.19,2.19,0,0,0-.39.76,3.12,3.12,0,0,0-.14.93,2.84,2.84,0,0,0,.14.88,2.24,2.24,0,0,0,.39.75,1.92,1.92,0,0,0,.67.52,2.22,2.22,0,0,0,.92.19,3,3,0,0,0,.68-.07,2.7,2.7,0,0,0,.57-.18L66.47,92a3.47,3.47,0,0,1-.77.22,6.13,6.13,0,0,1-.87.07A3.47,3.47,0,0,1,63.47,92a2.83,2.83,0,0,1-1-.71,3.12,3.12,0,0,1-.67-1.09,3.86,3.86,0,0,1-.23-1.39,4.15,4.15,0,0,1,.22-1.4,3.34,3.34,0,0,1,.66-1.11,2.89,2.89,0,0,1,1.07-.72,3.73,3.73,0,0,1,1.41-.26,4.61,4.61,0,0,1,.84.07,3.79,3.79,0,0,1,.72.19Z"/><path class="cls-1" d="M72.79,89.68a3.12,3.12,0,0,1-.18,1.09,2.2,2.2,0,0,1-1.29,1.33,2.82,2.82,0,0,1-1,.18,2.87,2.87,0,0,1-1-.18,2.18,2.18,0,0,1-.78-.52,2.26,2.26,0,0,1-.5-.82,3,3,0,0,1-.18-1.08A3.12,3.12,0,0,1,68,88.59a2.22,2.22,0,0,1,.5-.81,2.29,2.29,0,0,1,.78-.51,3.09,3.09,0,0,1,2.08,0,2.29,2.29,0,0,1,.78.51,2.22,2.22,0,0,1,.5.81,3.12,3.12,0,0,1,.18,1.09m-1.32,0a2.63,2.63,0,0,0-.08-.65,1.42,1.42,0,0,0-.21-.5,1.14,1.14,0,0,0-.37-.32,1.21,1.21,0,0,0-.52-.11,1,1,0,0,0-.88.42,2.39,2.39,0,0,0,0,2.32,1.13,1.13,0,0,0,1.77,0,2.05,2.05,0,0,0,.29-1.16"/><path class="cls-1" d="M75.9,87.2v.68h0a1.31,1.31,0,0,1,.56-.58,1.76,1.76,0,0,1,.85-.21,1.86,1.86,0,0,1,.89.2,1.26,1.26,0,0,1,.55.61h0a1.49,1.49,0,0,1,.65-.62,2,2,0,0,1,.87-.19,2.43,2.43,0,0,1,.83.14,1.53,1.53,0,0,1,.54.35,1.63,1.63,0,0,1,.34.57,2.47,2.47,0,0,1,.11.75v3.27H80.81V89.39a4.39,4.39,0,0,0,0-.54,1.23,1.23,0,0,0-.11-.41.57.57,0,0,0-.26-.25A.89.89,0,0,0,80,88.1a1.26,1.26,0,0,0-.33.05.87.87,0,0,0-.31.18,1,1,0,0,0-.21.33,1.25,1.25,0,0,0-.08.5v3H77.73v-2.8a4.22,4.22,0,0,0,0-.53,1.11,1.11,0,0,0-.12-.4.51.51,0,0,0-.25-.25,1,1,0,0,0-.8,0,.79.79,0,0,0-.31.24,1.38,1.38,0,0,0-.22.42,2.28,2.28,0,0,0-.07.63v2.71H74.61v-5Z"/><path class="cls-1" d="M85.43,87.2v.68h0A1.39,1.39,0,0,1,86,87.3a1.73,1.73,0,0,1,.85-.21,1.86,1.86,0,0,1,.89.2,1.19,1.19,0,0,1,.54.61h0a1.57,1.57,0,0,1,.66-.62,2,2,0,0,1,.87-.19,2.37,2.37,0,0,1,.82.14,1.38,1.38,0,0,1,.88.92,2.19,2.19,0,0,1,.12.75v3.27H90.34V89.39a4.39,4.39,0,0,0,0-.54,1.23,1.23,0,0,0-.12-.41.51.51,0,0,0-.25-.25.91.91,0,0,0-.43-.09,1.4,1.4,0,0,0-.34.05.92.92,0,0,0-.3.18.78.78,0,0,0-.21.33,1.24,1.24,0,0,0-.09.5v3H87.25v-2.8a4.35,4.35,0,0,0,0-.53,1.11,1.11,0,0,0-.12-.4.55.55,0,0,0-.25-.25,1,1,0,0,0-.44-.09.89.89,0,0,0-.36.07.73.73,0,0,0-.31.24,1.19,1.19,0,0,0-.22.42,2.25,2.25,0,0,0-.08.63v2.71H84.14v-5Z"/><path class="cls-1" d="M95,86.44H93.66V85.29H95Zm0,5.73H93.66v-5H95Z"/><path class="cls-1" d="M100,88.36a3.73,3.73,0,0,0-.71-.21,3.48,3.48,0,0,0-.63-.05,1,1,0,0,0-.46.09.34.34,0,0,0-.19.31.43.43,0,0,0,.19.35,3,3,0,0,0,.72.3,4.66,4.66,0,0,1,.7.27,2.14,2.14,0,0,1,.51.33,1.34,1.34,0,0,1,.32.44,1.46,1.46,0,0,1,.11.58,1.31,1.31,0,0,1-.18.71,1.51,1.51,0,0,1-.47.47,2.16,2.16,0,0,1-.66.25,3.55,3.55,0,0,1-.73.08,4.58,4.58,0,0,1-1-.1,4.15,4.15,0,0,1-.88-.25l.26-1a4.3,4.3,0,0,0,1.57.36,1.31,1.31,0,0,0,.58-.1.34.34,0,0,0,.21-.34.44.44,0,0,0-.23-.36,3.49,3.49,0,0,0-.8-.33,2.85,2.85,0,0,1-1.15-.62,1.18,1.18,0,0,1-.36-.89,1.47,1.47,0,0,1,.17-.69,1.25,1.25,0,0,1,.43-.48,1.84,1.84,0,0,1,.62-.28,2.72,2.72,0,0,1,.69-.09,6.05,6.05,0,0,1,.82.07,4.56,4.56,0,0,1,.79.21Z"/><path class="cls-1" d="M105.23,88.36a3.73,3.73,0,0,0-.71-.21,3.48,3.48,0,0,0-.63-.05,1,1,0,0,0-.46.09.34.34,0,0,0-.19.31.42.42,0,0,0,.2.35,2.67,2.67,0,0,0,.71.3,5.12,5.12,0,0,1,.7.27,2.14,2.14,0,0,1,.51.33,1.34,1.34,0,0,1,.32.44,1.46,1.46,0,0,1,.11.58,1.31,1.31,0,0,1-.18.71,1.51,1.51,0,0,1-.47.47,2.16,2.16,0,0,1-.66.25,3.53,3.53,0,0,1-.72.08,4.61,4.61,0,0,1-1-.1,4.15,4.15,0,0,1-.88-.25l.26-1a4.3,4.3,0,0,0,1.57.36,1.29,1.29,0,0,0,.58-.1.34.34,0,0,0,.21-.34.44.44,0,0,0-.23-.36,3.42,3.42,0,0,0-.81-.33,2.87,2.87,0,0,1-1.14-.62,1.18,1.18,0,0,1-.36-.89,1.47,1.47,0,0,1,.17-.69,1.25,1.25,0,0,1,.43-.48,1.84,1.84,0,0,1,.62-.28,2.72,2.72,0,0,1,.69-.09,6.05,6.05,0,0,1,.82.07,4.56,4.56,0,0,1,.79.21Z"/><path class="cls-1" d="M108.85,86.44h-1.32V85.29h1.32Zm0,5.73h-1.32v-5h1.32Z"/><path class="cls-1" d="M115.67,89.68a3.12,3.12,0,0,1-.18,1.09,2.2,2.2,0,0,1-1.29,1.33,2.82,2.82,0,0,1-1,.18,2.87,2.87,0,0,1-1-.18,2.18,2.18,0,0,1-.78-.52,2.26,2.26,0,0,1-.5-.82,3,3,0,0,1-.18-1.08,3.12,3.12,0,0,1,.18-1.09,2.22,2.22,0,0,1,.5-.81,2.29,2.29,0,0,1,.78-.51,3.09,3.09,0,0,1,2.08,0,2.29,2.29,0,0,1,.78.51,2.22,2.22,0,0,1,.5.81,3.12,3.12,0,0,1,.18,1.09m-1.32,0a2.63,2.63,0,0,0-.08-.65,1.42,1.42,0,0,0-.21-.5,1.14,1.14,0,0,0-.37-.32,1.21,1.21,0,0,0-.52-.11,1,1,0,0,0-.88.42,2.39,2.39,0,0,0,0,2.32,1.13,1.13,0,0,0,1.77,0,2.05,2.05,0,0,0,.29-1.16"/><path class="cls-1" d="M118.78,87.2v.67h0a1.25,1.25,0,0,1,.6-.58,2,2,0,0,1,.88-.2,2,2,0,0,1,.75.13,1.5,1.5,0,0,1,.58.36,1.89,1.89,0,0,1,.36.58,2.17,2.17,0,0,1,.12.74v3.27h-1.32V89.39a3.16,3.16,0,0,0,0-.55,1,1,0,0,0-.14-.41.66.66,0,0,0-.28-.24,1,1,0,0,0-.45-.09.94.94,0,0,0-.37.07.89.89,0,0,0-.34.23,1.14,1.14,0,0,0-.25.43,2.08,2.08,0,0,0-.09.65v2.69h-1.32v-5Z"/><path class="cls-3" d="M11.37,20.54h0a2.91,2.91,0,0,1,4.39-.3,32.13,32.13,0,0,1,2.81,3.21,31.94,31.94,0,0,1,2.79-3.2,2.9,2.9,0,0,1,4.39.3A29.83,29.83,0,0,0,20.63,26a29.28,29.28,0,0,1,7.53-1.54,3,3,0,0,1,3.14,3.12h0a28.52,28.52,0,0,0-8.92,1.2,29.18,29.18,0,0,1,6.81,3.35,3,3,0,0,1,.64,4.4h0a28.94,28.94,0,0,0-8.33-4.68A30.27,30.27,0,0,1,26.08,38a3,3,0,0,1-1.41,4.22h0a29.61,29.61,0,0,0-4.51-7.14V58.43c-1.09-.52-2.16-1-3.17-1.34V35a29.33,29.33,0,0,0-4.62,7.28h0A3,3,0,0,1,10.94,38a29.46,29.46,0,0,1,4.59-6.16,28.94,28.94,0,0,0-8.35,4.68h0a3,3,0,0,1,.64-4.4,29.27,29.27,0,0,1,6.82-3.35,28.59,28.59,0,0,0-8.92-1.2h0a3,3,0,0,1,3.14-3.12,29,29,0,0,1,7.68,1.6,29.88,29.88,0,0,0-5.17-5.52"/></g></g></svg>