<?xml version="1.0" encoding="utf-8"?>
<!-- Generator: Adobe Illustrator 16.0.0, SVG Export Plug-In . SVG Version: 6.00 Build 0)  -->
<!DOCTYPE svg PUBLIC "-//W3C//DTD SVG 1.1//EN" "http://www.w3.org/Graphics/SVG/1.1/DTD/svg11.dtd">
<svg version="1.1" id="Layer_1" xmlns="http://www.w3.org/2000/svg" xmlns:xlink="http://www.w3.org/1999/xlink" x="0px" y="0px"
	 width="207px" height="76px" viewBox="125 0 207 76" enable-background="new 125 0 207 76" xml:space="preserve">
<g id="_x37_uoDrF.tif">
	<g>
		<path fill="#037C5A" d="M295.5,0c0.1,0.2,0.2,0.4,0.3,0.6c0.5,0.8,1.101,1.6,1.8,2.1c0.801,0.6,1.801,0.9,2.801,1
			c0.699,0.1,1.399,0.1,2.199,0.2c2.801,0.3,5.5,1,8,2.5c2.2,1.3,3.9,3,5.102,5.2c0.1,0.2,0.3,0.3,0.5,0.4
			c1.699,0.4,3.398,0.8,5.1,1.5c1.9,0.7,3.7,1.7,5.301,3.1c2.101,1.7,3.5,3.9,4.5,6.4c0.301,0.8,0.601,1.7,0.801,2.5
			c0,0.1,0.1,0.3,0.1,0.4c0,1.2,0,2.4,0,3.7c0,6.3,0,12.5,0,18.8c0,3.398,0,6.898,0,10.3c0,3.3,0,6.6,0,9.899c0,2.301,0,4.699,0,7
			c0,0.101,0,0.101,0,0.199c0,0.2-0.1,0.2-0.2,0.2c-0.6,0-1.3,0-1.899,0c-3.601,0-7.101,0-10.699,0c-2.5,0-5,0-7.5,0
			c-3.7,0-7.5,0-11.2,0s-7.399,0-11.101,0c-2.5,0-5,0-7.5,0c-3.7,0-7.5,0-11.2,0c-3.699,0-7.399,0-11.101,0c-0.399,0-0.3,0-0.3-0.3
			c0-16.4,0-32.801,0-49.2c0-1.4,0.3-2.7,0.899-3.9c0.801-1.8,2-3.3,3.4-4.6c2.399-2.3,5.301-4,8.399-5
			c0.899-0.3,1.899-0.6,2.899-0.8c0.199,0,0.399-0.1,0.5-0.3c1.699-3,4.199-5.1,7.3-6.3c1.5-0.6,3-1,4.5-1.2
			c1.101-0.2,2.301-0.3,3.399-0.4c0.601-0.1,1.101-0.3,1.7-0.6c1.101-0.6,2-1.4,2.7-2.5C295.2,0.6,295.4,0.3,295.5,0z"/>
		<path fill="#FFFFFF" d="M330.7,56.4c0,0.898,0,1.8,0,2.699c0,2.199,0,4.399,0,6.699c0,0.102,0,0.2,0,0.2
			c0,0.101,0,0.101-0.101,0.101s-0.199,0-0.301,0c-2,0-4.1,0-6.1,0h-0.1c-0.1,0-0.199,0-0.199-0.199c0-0.301,0-0.602,0-0.9
			c0-0.8,0-1.5,0-2.3c0-0.2,0-0.2-0.199-0.2c-2,0-4,0-6.102,0c-1.1,0-2.3,0-3.398,0c-0.2,0-0.301,0-0.301-0.3c0-1,0-2,0-2.9
			c0-0.1,0-0.1,0-0.2c0-0.1,0-0.1-0.101-0.1c-0.2,0-0.399,0-0.6,0c-2.4,0-4.8,0-7.101,0c-4.5,0-9.101,0-13.601,0
			c-2.399,0-4.8,0-7.2,0c-2.3,0-4.699,0-7,0c-0.199,0-0.5,0-0.699,0c-0.101,0-0.199,0.1-0.199,0.2c0,0.5,0,0.899,0,1.399
			c0,0.601,0,1.199,0,1.801c0,0.199,0,0.199-0.201,0.199c-2.399,0-4.699,0-7.1-0.101c-0.801,0-1.601,0-2.4,0
			c-0.299,0-0.299,0-0.299,0.3c0,1,0,2,0,3.102c0,0.1,0,0.1,0,0.199c0,0.101,0,0.101-0.102,0.101c-0.199,0-0.5,0-0.699,0
			c-1.801,0-3.699,0-5.5,0c-0.199,0-0.199,0-0.199-0.2c0-0.1,0-0.2,0-0.2c0-12.8,0-25.7,0-38.5c0-1.9,0.5-3.6,1.398-5.2
			c1-1.7,2.3-3.2,3.898-4.4c2.802-2.3,6-3.7,9.5-4.5c0.302-0.1,0.5-0.2,0.701-0.5c1.601-2.8,4-4.8,7-5.9c1.5-0.6,3.101-1,4.601-1.2
			c1-0.2,2-0.3,3-0.4c0.6-0.1,1.1-0.3,1.6-0.6c1.101-0.6,1.9-1.4,2.601-2.4C295.3,2.1,295.3,2,295.4,1.9c0.1-0.1,0.1-0.2,0.199-0.3
			c0.101,0.1,0.101,0.2,0.199,0.3c0.301,0.6,0.7,1.2,1.301,1.7C297.9,4.4,298.9,4.8,300,5c0.5,0.1,1.1,0.1,1.6,0.2
			C304.4,5.4,307.2,6,309.7,7.4c2.3,1.2,4.1,3,5.399,5.3c0.101,0.2,0.199,0.3,0.399,0.3c2.101,0.4,4.2,1,6.2,1.9
			c2.1,1,4,2.3,5.6,4.1c1.4,1.6,2.4,3.5,3.102,5.5c0,0.1,0.1,0.2,0.1,0.3c0.3,0.7,0.4,1.5,0.4,2.3c0,0,0,0,0,0.1
			c0,5.9,0,11.8,0,17.8c0,3.3,0,6.6,0,9.9c0,0.1,0,0.199,0,0.398H330.8c-0.2-0.398-0.3-0.8-0.399-1.199
			c-0.899-3.5-1.801-6.899-2.699-10.399c-0.801-3.2-1.7-6.4-2.5-9.6C324.9,33,324.6,32,324.4,30.9c-0.101-0.4-0.101-0.4-0.5-0.4
			c-1,0-0.801,0-1-0.8c-0.101-0.4-0.101-0.4-0.5-0.5c-0.199,0-0.5,0-0.699,0c-0.2,0-0.4-0.1-0.4-0.4c0,0,0,0,0-0.1
			c-0.1-0.6-0.1-0.6-0.699-0.6c-0.101,0-0.199,0-0.301,0c-0.3,0-0.398-0.1-0.5-0.4c0-0.1,0-0.1-0.1-0.2c0-0.3-0.2-0.4-0.5-0.4
			c-2.301-0.3-4.5-0.9-6.5-1.9c-0.9-0.5-1.801-1-2.7-1.6c-0.2-0.2-0.399-0.3-0.7-0.5c-0.398-0.3-0.699-0.7-1.101-0.9
			c-0.899-0.5-2-0.7-3-0.8s-2.101,0-3.101,0.2c-1.699,0.4-3.199,1.2-4.6,2.2c-0.301,0.2-0.7,0.5-1,0.8c-0.2,0.2-0.301,0.2-0.5,0
			c-1.301-1.2-2.9-2-4.5-2.7c-1.1-0.4-2.301-0.6-3.6-0.6c-1.102,0-2.201,0.2-3.201,0.6c-0.6,0.3-1.199,0.6-1.6,1.2l-0.101,0.1
			c-1.399,1-2.899,1.7-4.5,2.3c-1.7,0.6-3.399,0.9-5.101,1.1c-0.301,0-0.399,0.1-0.399,0.4c-0.101,0.7,0,0.8-0.899,0.9
			c-0.4,0-0.601,0.2-0.699,0.6c-0.102,0.4-0.201,0.4-0.5,0.5c-0.201,0-0.4,0.1-0.602,0.1s-0.3,0.1-0.3,0.3
			c-0.101,0.2-0.101,0.5-0.2,0.7c-0.102,0.2-0.199,0.3-0.398,0.3c-0.201,0-0.4,0-0.5,0c-0.301,0-0.4,0.1-0.5,0.4
			c-0.801,3-1.701,6.1-2.5,9.101c-0.701,2.699-1.5,5.301-2.201,8c-0.699,2.399-1.299,4.801-2,7.199c-0.1,0.2-0.1,0.5-0.1,0.7
			c0,0.601,0.5,1,1,1.101c0.1,0,0.199,0,0.301,0c2.898,0,5.799,0.101,8.799,0c3.301-0.101,6.601,0,10-0.101
			c3.301-0.1,6.5,0,9.801-0.1c0.6,0,1.3-0.101,1.9-0.101c0.299,0,0.5,0.101,0.699,0.301c0.399,0.5,0.801,0.8,1.399,1
			c1,0.3,2.198,0,2.8-0.801c0.2-0.301,0.5-0.399,0.801-0.399c1.801,0,3.6,0.1,5.399,0.1c1.101,0,2.3,0,3.399,0
			c1.199,0.101,2.299,0,3.5,0.101c1.101,0.101,2.299,0,3.399,0.101c1.2,0.101,2.399,0,3.601,0.101c1.101,0.101,2.199,0,3.299,0.101
			c1.201,0.1,2.4,0,3.602,0.1c1.102,0.101,2.2,0,3.301,0c0.301,0,0.6,0.101,1,0.101c0.5,0,0.899-0.199,1.1-0.601
			C330.5,56.6,330.5,56.5,330.7,56.4C330.6,56.4,330.7,56.4,330.7,56.4z"/>
		<path fill="#1D1D1B" d="M330.6,56.4c-0.1,0.398-0.398,0.699-0.699,0.8c-0.101,0.1-0.301,0.1-0.399,0.1c-2,0-4-0.1-6-0.1
			c-1.7,0-3.399-0.101-5.101-0.101c-2.301,0-4.601-0.101-6.899-0.101s-4.601-0.101-6.899-0.101c-2.101,0-4.101-0.101-6.199-0.101
			c-0.2,0-0.301,0-0.4,0.2c-0.6,0.8-1.3,1.2-2.3,1.2c-0.899,0-1.601-0.5-2.101-1.2c-0.199-0.2-0.301-0.3-0.601-0.3
			c-3.3,0-6.7,0-10,0.1c-2.8,0-5.7,0-8.5,0.101c-3.7,0-7.5,0-11.2,0.101c-0.3,0-0.6,0-0.8,0c-0.899,0-1.399-0.601-1.3-1.5
			c0.1-0.5,0.199-0.899,0.398-1.3c2.102-7.5,4.2-15.102,6.301-22.6c0.101-0.3,0.199-0.6,0.301-0.9c0-0.2,0.1-0.2,0.3-0.2
			c0.3,0,0.5,0,0.8-0.1c0.2,0,0.2-0.1,0.301-0.2c0.101-0.3,0.199-0.6,0.199-0.9c0-0.1,0.102-0.2,0.2-0.2c0.3,0,0.601-0.1,1-0.1
			c0.101,0,0.2-0.1,0.2-0.2c0-0.2,0.1-0.4,0.1-0.6c0-0.2,0.102-0.2,0.301-0.2c0.301,0,0.601-0.1,0.899-0.1c0.101,0,0.2,0,0.2-0.2
			c0-0.2,0.1-0.5,0.1-0.7c0-0.3,0-0.3,0.301-0.3c2.5-0.3,4.899-0.9,7.101-1.9c0.899-0.4,1.7-0.9,2.5-1.4c0,0,0.1,0,0.1-0.1
			c0.101,0.1,0.3,0,0.4,0.1c0.7,1.5,1.3,3,2,4.6c1.5,3.5,3,7,4.5,10.5c0.899,2.2,1.899,4.399,2.8,6.5c0,0.101,0.1,0.2,0,0.3
			c-0.1,0.102-0.2,0.102-0.3,0c-0.2-0.3-0.3-0.6-0.5-1c-2.101-4.898-4.2-9.9-6.3-14.8c-0.801-1.8-1.602-3.6-2.301-5.5
			c0-0.1-0.101-0.1-0.101-0.2c-0.399,0.9-0.8,1.8-1.3,2.7c-0.602,1.3-1.2,2.6-1.801,3.8c-0.699,1.6-1.399,3.2-2.199,4.7
			c-0.7,1.5-1.4,3-2.102,4.5c-0.8,1.8-1.6,3.5-2.398,5.3c0,0.102-0.102,0.2-0.2,0.301c-0.101,0-0.2,0-0.3,0
			c-0.102-0.101,0-0.199,0.1-0.301c1.4-3.1,2.9-6.3,4.301-9.4c1.301-2.9,2.699-5.8,4-8.7c0.399-0.8,0.699-1.7,1.101-2.5
			c0-0.1,0.101-0.2,0.101-0.3c-0.4,0.2-0.701,0.4-1.101,0.6c-1.601,0.9-3.3,1.5-5,1.9c-0.899,0.2-1.899,0.4-2.899,0.5
			c-0.201,0-0.301,0.1-0.301,0.3c-0.3,1.8-0.9,3.5-1.3,5.3c-0.899,3.4-1.899,6.8-2.8,10.3c-0.801,2.9-1.602,5.9-2.4,8.801
			c-0.3,1-0.6,2-0.8,3c-0.101,0.301,0,0.301,0.2,0.399c0.9,0.2,1.9,0.3,2.9,0.399c0.6,0,1.198,0.101,1.698,0
			c1.601-0.101,3.302-0.199,4.899-0.601c0.199,0,0.5-0.2,0.699-0.2c2.301-0.898,4.701-1.699,7.201-2.1c3.899-0.6,7.6-0.1,11.1,1.8
			c0.4,0.2,0.801,0.4,1.199,0.7c0.201,0.1,0.201,0.1,0.201-0.1c0-0.102,0-0.2,0-0.2c0-8.3,0-16.5,0-24.8c0-0.1,0-0.1,0-0.2
			c0-0.2,0-0.4,0-0.6c0-0.7,0-1.3,0-2c0.1-0.3,0.199-0.3,0.399-0.1c0.101,0.2,0,0.4,0,0.6c0,9,0,18,0,27.1
			c0,0.1-0.101,0.3,0.101,0.399c0.199,0,0.299-0.101,0.399-0.199c2.101-1.2,4.399-1.9,6.8-2.301c0.801-0.101,1.7-0.199,2.6-0.199
			c2,0,3.9,0.3,5.801,0.898c1.301,0.4,2.601,0.9,3.9,1.4c1.699,0.6,3.5,1.1,5.299,1.199C322.9,56,324.6,55.8,326.4,55.3
			c0.199-0.1,0.3-0.2,0.199-0.399C325.301,50,324,45.1,322.7,40.2c-1-3.7-2-7.5-3-11.2c-0.101-0.4-0.2-0.8-0.3-1.2
			c-0.101-0.6-0.2-0.6-0.7-0.7c-1.7-0.3-3.399-0.7-5.101-1.4c-1.3-0.5-2.601-1.2-3.699-2.1l-0.101-0.1l0,0l0,0l0.101,0.1
			c1.3,2.9,2.5,5.8,3.8,8.8c1.399,3.3,2.8,6.6,4.2,9.8c0.3,0.8,0.699,1.6,1,2.399C319,44.7,319.1,44.9,319,45c-0.1,0-0.1,0-0.199,0
			c-0.101-0.1-0.101-0.2-0.201-0.3c-0.898-2.101-1.898-4.3-2.799-6.4c-1.4-3.3-2.801-6.6-4.301-9.9c-0.6-1.5-1.3-3-1.9-4.4
			c0-0.1-0.1-0.2-0.1-0.3c-0.199,0.5-0.5,1-0.699,1.4c-0.601,1.3-1.201,2.6-1.801,4c-0.699,1.5-1.4,3-2.1,4.5
			c-0.601,1.3-1.2,2.6-1.801,3.9s-1.199,2.6-1.8,3.8c-0.5,1.101-1,2.2-1.5,3.3c0,0.102-0.101,0.2-0.101,0.301
			c-0.102,0.101-0.2,0.101-0.301,0.101c-0.1-0.101,0-0.2,0-0.399c0.5-1.101,1-2.199,1.5-3.301c0.801-1.8,1.601-3.6,2.4-5.3
			c0.699-1.5,1.398-3,2.1-4.5c0.699-1.5,1.4-3.1,2.101-4.6c0.5-1,0.899-2,1.399-3.1c0.101-0.2,0.199-0.4,0.301-0.6
			c0-0.1-0.102-0.3,0-0.4c0.199,0,0.3,0.1,0.398,0.2c2.201,1.7,4.602,2.8,7.301,3.4c0.801,0.2,1.5,0.3,2.301,0.4
			c0.199,0,0.3,0.1,0.398,0.3c0,0.2,0.102,0.3,0.102,0.5c0,0.2,0.101,0.2,0.3,0.2c0.3,0,0.601,0,0.899,0.1
			c0.199,0,0.199,0,0.301,0.3c0,0.2,0.1,0.4,0.1,0.5c0,0.1,0.102,0.2,0.2,0.2c0.3,0,0.7,0,1,0c0.2,0,0.2,0.1,0.3,0.2
			c0.102,0.3,0.102,0.6,0.2,0.8c0,0.1,0.101,0.2,0.2,0.2c0.3,0,0.5,0,0.8,0s0.3,0,0.3,0.2c0.5,1.9,1,3.8,1.5,5.7
			c1.602,6,3.102,12,4.7,18c0.101,0.3,0.2,0.7,0.3,1c0,0.101,0,0.101,0,0.2c0.102,0.3,0.102,0.6,0,0.898
			C330.7,56.3,330.7,56.4,330.6,56.4z"/>
		<path fill="#FFFFFF" d="M284.2,65.3c0.2,0.101,0.2,0.2,0.3,0.3c0.8,1.2,1.3,2.5,1.4,3.9c0.1,0.6,0.1,1.2,0.199,1.8
			c0.101,0.7,0.5,1.101,1.199,1.101c0.2,0,0.4,0,0.602-0.101c0.898-0.2,1.6-0.5,2.398-1c-0.398-0.6-0.898-0.7-1.699-0.5
			c0-0.399,0.199-0.8,0.5-1s0.699-0.3,1-0.3c1-0.1,1.899,0,2.899,0.3c0.399,0.101,0.399,0.3,0.3,0.601
			c-0.1,0.199-0.199,0.301-0.398,0.399c-0.301,0.101-0.602,0.3-1,0.5c-0.2,0.101-0.2,0.101-0.102,0.3
			c0.102,0.2,0.301,0.301,0.5,0.301C292.9,72.1,293.4,72,294,71.8c0.4-0.2,0.5-0.5,0.5-0.899c-0.3-2-0.5-4.101-0.8-6.101
			c-0.101-0.899-0.2-1.899-0.4-2.8c0-0.4,0-0.6,0.3-1c0.301,0.7,0.602,1.3,1,2c-0.1,0-0.3,0-0.398,0c-0.102,0-0.2,0-0.2,0.2
			c0.101,0.399,0.101,0.899,0.2,1.3c0.1,0.9,0.199,1.8,0.3,2.7c0.101,0.8,0.2,1.5,0.3,2.3c0.102,0.7,0.102,1.4-0.1,2.1
			c-0.2,0.7-0.602,1.2-1.4,1.4c-0.5,0.1-1,0-1.5-0.2c-0.3-0.2-0.6-0.399-0.8-0.7c-0.101-0.1-0.2-0.1-0.3-0.1
			c-0.602,0.4-1.2,0.7-1.9,0.9c-0.5,0.199-1,0.3-1.5,0.3c-0.3,0-0.5-0.101-0.8-0.2s-0.399-0.3-0.5-0.6
			c-0.101-0.301-0.2-0.602-0.2-0.9c0-0.2,0-0.4-0.1-0.6H285.6c-0.699,1.3-1.8,2.1-3,2.8c-0.1,0.1-0.3,0.1-0.398,0.2
			c-0.4,0.199-0.9,0.199-1.301,0.1c-0.5-0.1-0.699-0.4-0.801-0.8c-0.1-0.3-0.1-0.601,0-0.9c0-0.1,0-0.2,0-0.399
			c-0.1,0.101-0.3,0.199-0.398,0.301c-0.7,0.5-1.4,0.898-2.2,1.199c-0.7,0.301-1.5,0.399-2.2,0.399c-1.699-0.1-2.398-1.3-2.398-2.5
			c0-0.8,0.199-1.5,0.6-2.1c0.1-0.101,0.2-0.3,0.301-0.4c0,0.2-0.101,0.3-0.101,0.4c-0.2,0.5-0.399,1.1-0.399,1.7
			c0,0.898,0.399,1.5,1.299,1.8c0.9,0.3,1.701,0.2,2.602,0c0.6-0.2,1.199-0.5,1.8-0.8c0.8-0.5,1.399-1,2.101-1.602
			c0.101-0.1,0.199-0.199,0.199-0.398c0-0.801-0.1-1.7-0.199-2.5C281,66.6,281,65.9,280.9,65.1c-0.102-0.898-0.2-1.8-0.301-2.6
			c-0.101-0.5-0.101-1.1-0.199-1.6c0-0.102,0-0.2,0-0.301c0.1-0.101,0.199-0.199,0.3-0.199c0.1,0,0.1,0.1,0.2,0.199
			c0.199,0.601,0.398,1.101,0.6,1.699V62.4c-0.1,0-0.2-0.2-0.4-0.2c0,0.1,0,0.2,0,0.2C281.2,64,281.4,65.6,281.5,67.1
			c0,0.602,0.1,1.2,0.1,1.801c0,0.399-0.1,0.899-0.199,1.301c-0.199,0.5-0.399,1-0.899,1.3c-0.101,0.101-0.2,0.2-0.2,0.3
			c0,0.2,0,0.5,0.102,0.7c0.1,0.3,0.3,0.5,0.699,0.5s0.801,0,1.199-0.2c0.9-0.398,1.7-1,2.5-1.699c0.301-0.301,0.5-0.601,0.7-0.899
			c0.101-0.101,0.101-0.3,0.101-0.4c-0.199-1.3-0.601-2.5-1.101-3.7c-0.101-0.1-0.101-0.199-0.101-0.398
			C284.2,66,284.2,65.7,284.2,65.3z"/>
		<path fill="#FFFFFF" d="M304,73.9c1.1-0.5,2.2-1,3.3-1.5c1.4-0.7,2.8-1.5,4.2-2.301c0.3-0.199,0.6-0.399,0.9-0.601
			c0.3-0.2,0.5-0.5,0.5-0.899c0-0.199,0-0.301-0.102-0.5c-0.398-0.601-0.8-1.199-1.1-1.899c-0.102-0.3-0.2-0.5-0.102-0.8
			c0-0.102,0-0.2,0.102-0.301c0.3,0.199,0.5,0.5,0.8,0.699c0.101,0.102,0,0.2,0,0.301c-0.101,0.101-0.101,0.199,0,0.301
			c0.2,0.3,0.399,0.6,0.601,0.8c0.199,0.3,0.301,0.7,0.301,1.1c0,0.3-0.102,0.601-0.102,0.9c-0.1,0.399-0.3,0.8-0.699,1
			c-0.199,0.1-0.399,0.3-0.601,0.399c-0.101,0.101-0.101,0.101-0.2,0.199c-0.102,0.4-0.102,0.801,0,1.2
			c0.102,0.601,0.5,0.899,1.102,1c0.5,0,0.898,0,1.299-0.2C315.4,72.2,316.5,71.4,317.4,70.4c0.1-0.102,0.1-0.2,0.199-0.301
			c0.101-0.101,0.101-0.301,0-0.399c-0.101-0.101-0.199-0.101-0.301-0.101c-0.398,0.101-0.8,0.101-1.199,0.101
			c-0.601-0.101-1-0.5-0.699-1.2c0-0.1,0.1-0.2,0.1-0.3c0.4-0.8,1.2-0.9,1.8-0.3C317.699,68.3,317.9,68.8,318,69.3
			c0,0.101,0,0.2,0.1,0.3c0.102,0.4,0,0.801-0.3,1.2c-0.8,1-1.7,1.9-2.899,2.5c-0.601,0.3-1.101,0.5-1.801,0.5c-1,0-1.5-0.5-1.6-1.5
			c0-0.399,0-0.7,0-1.1c0-0.101,0-0.2,0-0.3c-0.1,0-0.2,0.1-0.3,0.1c-0.9,0.6-1.9,1.2-2.9,1.7c-0.5,0.3-1,0.5-1.6,0.6
			C305.7,73.7,304.8,73.8,304,73.9C304,74,304,74,304,73.9z"/>
		<path fill="#FFFFFF" d="M299.4,70c0,0.3-0.102,0.6-0.102,0.9c0,0.398,0,0.8,0.102,1.199c0.199,0.601,0.6,0.899,1.3,1
			c0.6,0,1.1-0.101,1.6-0.399c0.8-0.4,1.5-0.9,2.2-1.5c0.2-0.2,0.4-0.3,0.5-0.5c0.1-0.101,0.2-0.2,0.3-0.3
			c0.2-0.301,0.3-0.602,0.101-1c-0.199-0.4-0.399-0.9-0.601-1.301c-0.1-0.301-0.2-0.5-0.2-0.801c0-0.1,0-0.3,0-0.398
			c0.2,0.1,0.301,0.3,0.5,0.398c0.2,0.102,0.301,0.301,0.5,0.4v0.1C305.5,67.9,305.4,67.9,305.4,68s0.1,0.2,0.199,0.3
			c0.5,0.9,0.399,1.9,0,2.8c0,0.102-0.101,0.102-0.101,0.102c-0.7,0.699-1.5,1.398-2.399,2c-0.5,0.3-1,0.6-1.601,0.699
			c-0.3,0.101-0.601,0.101-0.899,0c-0.5-0.101-0.801-0.399-1.101-0.801c-0.3-0.5-0.3-1-0.3-1.5C299,71.1,299.1,70.5,299.4,70
			L299.4,70z"/>
		<path fill="#FFFFFF" d="M296.7,72.2c0-0.8-0.101-1.5-0.101-2.3c-0.101-1.102-0.199-2.301-0.301-3.4c-0.1-1.2-0.199-2.3-0.398-3.5
			c0-0.4-0.102-0.8-0.2-1.1c0-0.2,0-0.5,0.1-0.7c0-0.101,0.101-0.2,0.2-0.2s0.1,0.1,0.2,0.2c0.3,0.6,0.6,1.1,0.7,1.8
			c0,0,0,0.1,0,0.2c-0.2-0.101-0.301-0.2-0.5-0.2c0,0.2,0,0.5,0.1,0.7c0.1,1.2,0.3,2.5,0.4,3.7C297,68.2,297.1,69,297.1,69.8
			c0.102,0.8,0,1.5-0.299,2.2C296.8,72,296.8,72.1,296.7,72.2z"/>
		<path fill="#FFFFFF" d="M308.8,62.5c-0.2-0.1-0.3-0.2-0.5-0.3c0,0.1,0,0.1,0,0.2c0.101,1.199,0.3,2.398,0.4,3.6
			c0.1,1,0.2,1.9,0.3,2.9c0.1,0.699,0,1.5-0.3,2.1c0,0.1-0.101,0.1-0.101,0.2c0,0,0,0-0.101,0c0-0.4-0.101-0.7-0.101-1.101
			c-0.101-1.199-0.199-2.399-0.301-3.5c-0.199-1.601-0.3-3.301-0.6-4.899c0-0.3-0.1-0.601,0-0.9c0-0.1,0-0.2,0.1-0.2
			c0.102-0.1,0.301-0.1,0.301,0C308.3,61.1,308.6,61.7,308.8,62.5z"/>
		<path fill="#FFFFFF" d="M302.3,65.7c0,0.2-0.1,0.3-0.1,0.5c-0.101,0.3-0.2,0.6-0.4,0.899c-0.2,0.199-0.399,0.5-0.5,0.699
			c0,0,0,0.102,0.101,0.102c0.5,0.3,0.699,0.8,0.699,1.398c0,0.2,0,0.4-0.1,0.602c-0.1,0.3-0.2,0.6-0.5,0.8
			c-0.2,0.2-0.5,0.3-0.8,0.399c-0.4,0.101-0.7,0-0.8-0.399c0-0.101,0-0.101,0-0.2c0-0.8,0.1-1.5,0.6-2.2c0.1-0.1,0.1-0.2,0-0.3
			c-0.3-0.3-0.5-0.6-0.8-1c-0.101-0.2-0.2-0.3-0.2-0.5c0-0.1,0-0.3,0-0.5c0.4,0.2,0.7,0.4,1.1,0.6C300.4,66.9,300.4,66.9,300.7,67.2
			c0.1,0.1,0.1,0.1,0.3,0.2c0.4-0.602,0.9-1.2,1.3-1.801C302.3,65.5,302.3,65.6,302.3,65.7z"/>
		<path fill="#FFFFFF" d="M287,67.4c0-0.301,0.2-0.602,0.5-0.7c0.7-0.4,1.3-0.8,2-1.2c1-0.6,1.9-1.1,2.9-1.7c0,0,0.1,0,0.1-0.1
			c0.1,0,0.2-0.101,0.2,0c0.1,0.1,0.1,0.2,0,0.3c-0.101,0.1-0.2,0.1-0.2,0.2c-1.6,0.899-3.3,1.8-4.9,2.8c-0.1,0-0.199,0.1-0.199,0.1
			C287.3,67.2,287.3,67.3,287.3,67.4c0,0.1,0.101,0.1,0.2,0.1s0.2,0.1,0.3,0.2c0,0.1,0.101,0.1,0,0.2c0,0.1-0.1,0.1-0.2,0.1
			C287.1,68.1,287,67.8,287,67.4z"/>
		<path fill="#FFFFFF" d="M283.6,63.4c0.4-0.301,0.9-0.602,1.301-1c-0.5-0.102-1,0-1.399,0.1c-0.101,0-0.2,0.1-0.3,0
			c-0.102-0.1,0-0.2,0-0.3c0-0.2,0.199-0.4,0.3-0.5c0.5-0.4,1.101-0.5,1.7-0.3c0.199,0.1,0.199,0.1,0.199,0.3
			c-0.101,1-0.601,1.5-1.601,1.6C283.6,63.4,283.6,63.5,283.6,63.4z"/>
		<path fill="#FFFFFF" d="M297.6,64.1c0.801-0.5,1.602-1,2.301-1.6c0.199-0.2,0.399-0.3,0.5-0.5c0-0.1-0.101-0.1-0.199-0.2
			c-0.2-0.2-0.301-0.3-0.2-0.5c0-0.1,0-0.2,0-0.2c-0.101-0.1-0.101-0.199,0-0.3c0-0.2,0.101-0.2,0.3-0.2
			c0.5,0.102,0.9,0.4,1.102,0.9c0.1,0.2,0.1,0.4-0.102,0.5c-0.1,0.2-0.3,0.2-0.5,0.1c-0.199-0.1-0.199,0-0.3,0.102
			C299.7,63.1,298.7,63.7,297.6,64.1C297.6,64.2,297.6,64.2,297.6,64.1z"/>
		<path fill="#FFFFFF" d="M288.7,62.5c0-0.4,0-0.7,0.1-1.1c0-0.102,0-0.301,0.101-0.4c0.101-0.2,0.199-0.3,0.399-0.3
			s0.3,0.1,0.4,0.3c0,0.1,0,0.1-0.101,0.2c-0.101,0-0.199,0-0.301,0c-0.1,0-0.199,0-0.199,0.2C289,61.6,289,61.8,289,62
			c0,0.4,0.1,0.7,0,1.1c0,0.102,0,0.2-0.1,0.2c-0.102,0-0.2-0.1-0.2-0.2c-0.101-0.1-0.2-0.3-0.2-0.398c-0.1-0.102-0.1-0.301-0.2-0.4
			c-0.1-0.1-0.2-0.199-0.3-0.199c-0.2,0-0.3-0.101-0.5-0.199c-0.2-0.102-0.3-0.4-0.3-0.5c0.1-0.102,0.3-0.2,0.5-0.102
			c0.2,0,0.3,0.102,0.3,0.301c0.2,0.301,0.3,0.5,0.5,0.801C288.6,62.4,288.6,62.5,288.7,62.5z"/>
		<path fill="#FFFFFF" d="M305,62.8c-0.2,0-0.3-0.1-0.3-0.3c-0.101-0.2-0.2-0.4-0.3-0.6c-0.102-0.2-0.102-0.2-0.301-0.2
			s-0.301,0-0.5-0.101S303.299,61.4,303.4,61.2c0-0.101,0.199-0.3,0.398-0.3c0.2,0,0.301,0.1,0.4,0.199
			c0.199,0.199,0.398,0.5,0.5,0.699c0,0.102,0.1,0.102,0.199,0.2c0-0.399,0.101-0.7,0.101-1.101c0-0.199,0-0.301,0.101-0.399
			c0.101-0.2,0.399-0.2,0.601-0.101c0.1,0.101,0.1,0.199,0,0.301c-0.101,0-0.101,0-0.2,0.1c-0.2,0-0.2,0-0.3,0.301
			C305.1,61.6,305.1,62.2,305,62.8z"/>
		<path fill="#FFFFFF" d="M314.4,65.9c-0.102,0-0.2,0-0.2-0.102c0-0.1,0-0.1,0.1-0.1c0.101,0,0.101-0.102,0.2-0.102
			c1-0.6,2-1.1,2.9-1.699c0.1,0,0.1-0.101,0.199-0.101c0.101,0,0.199,0,0.199,0.101s0,0.199,0,0.199s-0.1,0.102-0.199,0.102
			c-1,0.5-1.899,1-2.899,1.6C314.6,65.9,314.5,65.9,314.4,65.9z"/>
		<path fill="#FFFFFF" d="M306.5,64.6c0,0.102-0.1,0.102-0.2,0.2c-0.399,0.2-0.7,0.4-1.1,0.7c-0.601,0.4-1.2,0.7-1.9,1.1
			c-0.1,0.102-0.2,0.102-0.3,0.102s-0.1,0-0.2-0.102c0-0.1,0-0.1,0.101-0.1l0.101-0.1c1-0.602,2-1.2,3-1.9
			c0.101,0,0.101-0.1,0.2-0.1C306.4,64.4,306.5,64.5,306.5,64.6z"/>
		<path fill="#FFFFFF" d="M309.8,61.6c-0.1,0-0.2,0-0.2-0.1s0-0.1,0.102-0.1c0,0,0.1,0,0.1-0.102c1-0.398,1.9-0.699,2.9-1.1
			c0.1,0,0.1,0,0.199-0.102c0.101,0,0.199,0,0.199,0.102c0,0.1,0,0.199-0.1,0.199s-0.1,0-0.2,0.101c-1,0.3-1.899,0.7-2.899,1
			C309.9,61.5,309.9,61.6,309.8,61.6z"/>
		<path fill="#FFFFFF" d="M312,63.1c-0.2,0.2-0.3,0.4-0.5,0.602c-0.1,0.1-0.1,0.1-0.2,0c-0.2-0.2-0.5-0.4-0.7-0.602
			c-0.1-0.1-0.1-0.1,0-0.199C310.7,62.8,310.9,62.6,311,62.5s0.1-0.1,0.2,0C311.4,62.7,311.7,62.9,312,63.1z"/>
		<path fill="#FFFFFF" d="M299.6,63.5c0.301,0.2,0.602,0.3,0.9,0.5c0.1,0,0.1,0.1,0,0.2l0,0c-0.1,0.2-0.2,0.399-0.3,0.6
			c-0.2,0-0.4-0.2-0.601-0.3c-0.399-0.2-0.399-0.1-0.199-0.6C299.4,63.8,299.5,63.7,299.6,63.5z"/>
		<path fill="#FFFFFF" d="M300.9,63.2c0.3,0.2,0.6,0.3,0.8,0.5c0.1,0.1,0.1,0.1,0.1,0.2c-0.1,0.199-0.2,0.3-0.2,0.5
			c0,0.1-0.1,0.1-0.199,0.1c-0.199-0.1-0.5-0.3-0.699-0.4c-0.102,0-0.102-0.1-0.102-0.199C300.8,63.6,300.8,63.4,300.9,63.2z"/>
		<path fill="#FFFFFF" d="M277.2,65.7c0,0.2,0,0.5,0,0.7c0,0.1,0,0.199,0,0.3c0,0.6,0.2,0.6,0.7,0.399h0.1
			c0,0.301-0.1,0.5-0.2,0.699c-0.2,0.2-0.399,0.2-0.6,0C276.999,67.6,277,67.3,277,67C276.9,66.6,277,66.1,277.2,65.7
			C277.1,65.7,277.2,65.7,277.2,65.7z"/>
		<path fill="#FFFFFF" d="M291.4,74.1c-0.2,0.2-0.5,0.4-0.9,0.4c-0.3,0-0.5-0.2-0.3-0.5c0-0.1,0.1-0.2,0.1-0.3
			c-0.1-0.101-0.3-0.101-0.3-0.2s0-0.1,0-0.2c0-0.2,0.1-0.2,0.4-0.2c0,0.102,0,0.301,0.1,0.4s0.1,0.2,0,0.3c0,0.101-0.1,0.2-0.2,0.2
			c-0.1,0.2-0.1,0.3,0.101,0.3c0.199,0,0.301,0,0.5-0.1C291.2,74,291.3,74,291.4,74.1C291.4,74,291.4,74,291.4,74.1z"/>
		<path fill="#FFFFFF" d="M276.2,69.7c0.1,0.3,0.1,0.6,0.1,0.899c-0.1,0-0.2-0.101-0.2-0.199C276,70.3,276,70.2,275.9,70.1
			c-0.102-0.3-0.301-0.5-0.602-0.5c-0.1,0-0.3-0.1-0.3-0.199c-0.101-0.199-0.101-0.301,0.101-0.301c0.199-0.1,0.301,0,0.5,0.102
			c0.199,0.199,0.399,0.5,0.5,0.699C276.2,70,276.2,69.8,276.2,69.8C276.1,69.8,276,69.7,276.2,69.7z"/>
		<path fill="#FFFFFF" d="M291.5,61c0,0.1,0,0.3,0,0.4c0,0.398,0.1,0.5,0.4,0.398h0.1c0,0.2-0.1,0.4-0.3,0.5
			c-0.2,0.102-0.4-0.1-0.5-0.3c0-0.101,0-0.3,0-0.399c0-0.199,0.1-0.399,0.2-0.699C291.6,60.9,291.5,61,291.5,61z"/>
		<path fill="#FFFFFF" d="M286.7,64.1c0,0.102-0.101,0.301-0.101,0.4c-0.101,0.3,0,0.4,0.301,0.4h0.1c0,0,0,0,0,0.1
			c-0.1,0.3-0.3,0.4-0.5,0.3c-0.2-0.1-0.3-0.3-0.2-0.5C286.3,64.5,286.4,64.2,286.7,64.1C286.6,64,286.7,64,286.7,64.1z"/>
		<path fill="#FFFFFF" d="M290.2,66.7c0,0.2,0,0.399,0,0.6c0,0.4,0.1,0.4,0.5,0.3c0,0,0,0,0.1,0c0,0.102,0,0.2,0,0.2
			c-0.1,0.2-0.2,0.3-0.399,0.3c-0.101,0-0.301-0.199-0.301-0.3c0-0.2,0-0.399,0-0.6C290.1,66.999,290.1,66.8,290.2,66.7
			C290.2,66.6,290.2,66.6,290.2,66.7z"/>
		<path fill="#FFFFFF" d="M295.2,72.6c0,0.2-0.101,0.301-0.101,0.5c-0.101,0.301,0,0.301,0.301,0.301h0.1l0,0
			c-0.1,0.301-0.3,0.399-0.5,0.301c-0.2-0.102-0.2-0.301-0.2-0.5c0.101-0.301,0.2-0.5,0.4-0.801C295.2,72.5,295.2,72.6,295.2,72.6z"
			/>
		<path fill="#FFFFFF" d="M283,69c0,0.1-0.1,0.2-0.1,0.3c-0.102,0.3-0.102,0.3,0.199,0.4h0.101c0,0,0,0,0,0.1
			c-0.2,0.2-0.4,0.3-0.5,0.2c-0.2-0.1-0.2-0.3-0.101-0.6C282.7,69.2,282.8,69,283,69C283,68.8,283,68.9,283,69z"/>
		<path fill="#FFFFFF" d="M284.8,73.4c0,0.1-0.1,0.1-0.1,0.199c-0.101,0.199,0,0.301,0.2,0.399h0.1l0,0c-0.1,0.2-0.4,0.3-0.5,0.2
			c-0.2-0.102-0.2-0.301-0.1-0.602c0.1-0.199,0.199-0.3,0.3-0.398c0,0,0.1,0,0.1-0.102l0,0c0.101,0,0.101,0,0.101,0.102
			C284.9,73.3,284.9,73.3,284.8,73.4L284.8,73.4z"/>
		<path fill="#FFFFFF" d="M314,70.2c0,0.1,0,0.2,0,0.3c0,0.2,0,0.3,0.3,0.3c0,0,0.101,0,0.2,0c0,0,0,0.101-0.1,0.101
			C314.3,71.1,314.1,71.2,314,71.1c-0.1-0.1-0.2-0.3-0.2-0.398C313.8,70.5,313.9,70.3,314,70.2L314,70.2z"/>
		<path fill="#FFFFFF" d="M278.8,73.5L278.8,73.5c-0.1,0.4-0.1,0.4,0.2,0.5c0,0.1-0.1,0.1-0.1,0.2c-0.2,0.1-0.301,0-0.301-0.2
			c0-0.1,0-0.2,0.101-0.3C278.6,73.6,278.6,73.5,278.8,73.5C278.8,73.4,278.8,73.4,278.8,73.5z"/>
		<path fill="#FFFFFF" d="M276.2,69L276.2,69c-0.101,0.2,0,0.3,0,0.4c0,0.1,0,0.1-0.101,0.1c0-0.2,0-0.4,0-0.7
			c0.101,0,0-0.1,0.101-0.2l0,0c0,0,0,0,0.1-0.1l0,0c0.101,0,0.2,0,0.3,0l0,0c0,0,0,0,0.102,0.1l0,0c0,0,0,0.102,0.1,0.102l0,0v0.1
			l0,0C276.5,69,276.3,68.9,276.2,69z"/>
		<path fill="#FFFFFF" d="M282.8,65.4c-0.1,0.199,0,0.199,0.2,0.3c-0.1,0.1-0.2,0.2-0.3,0.1c-0.101-0.1-0.101-0.2-0.101-0.3
			S282.7,65.4,282.8,65.4C282.8,65.3,282.8,65.3,282.8,65.4z"/>
		<path fill="#FFFFFF" d="M276.1,69.6c0.102-0.1,0-0.199,0.102-0.3c0-0.1,0-0.2,0.1-0.3c0,0.2,0,0.4,0,0.7c-0.1,0.1,0,0.2-0.1,0.3
			c0,0.1-0.102,0.1-0.102,0C276.1,69.8,276,69.7,276.1,69.6z"/>
		<path fill="#FFFFFF" d="M309.7,73.1c0,0.102,0,0.102,0,0.2c0,0,0.1,0,0.1,0.101c0,0,0,0.101-0.1,0.101
			c-0.101,0-0.101,0-0.101-0.101S309.6,73.2,309.7,73.1C309.7,73,309.7,73.1,309.7,73.1z"/>
		<path fill="#FFFFFF" d="M310.3,67.6c0,0,0.101,0,0.101,0.102c0,0,0,0.1-0.101,0.1c-0.1,0-0.1,0-0.1-0.1
			C310.2,67.6,310.2,67.6,310.3,67.6C310.2,67.5,310.3,67.6,310.3,67.6z"/>
		<path fill="#FFFFFF" d="M297.6,64.1C297.6,64.1,297.6,64.2,297.6,64.1c0,0.102-0.1,0.2-0.199,0.2c-0.101,0-0.101,0-0.101-0.1
			C297.4,64.2,297.5,64.1,297.6,64.1z"/>
		<path fill="#FFFFFF" d="M283,69C283,69,283,68.9,283,69c-0.1-0.2,0-0.2,0.1-0.3v0.1C283.1,68.8,283,68.9,283,69z"/>
		<path fill="#FFFFFF" d="M291.5,61c0-0.1,0-0.1-0.1-0.2c0-0.1,0-0.1,0.1-0.1C291.6,60.8,291.6,60.9,291.5,61z"/>
		<path fill="#FFFFFF" d="M276.2,69c0.1-0.1,0.3,0,0.399-0.1C276.5,69,276.3,68.9,276.2,69z"/>
		<path fill="#FFFFFF" d="M310.3,67.6C310.3,67.6,310.2,67.6,310.3,67.6c-0.1-0.1-0.1-0.199,0-0.3C310.3,67.4,310.3,67.5,310.3,67.6
			z"/>
		<path fill="#FFFFFF" d="M304,73.9C304,74,304,74,304,73.9c0,0.1-0.1,0.1-0.2,0.1C303.8,74,303.9,73.9,304,73.9z"/>
		<path fill="#FFFFFF" d="M284.9,73.3C284.8,73.3,284.8,73.2,284.9,73.3c0-0.1,0-0.2,0.1-0.2s0.1,0,0.1,0.102
			C285,73.2,284.9,73.2,284.9,73.3z"/>
		<path fill="#FFFFFF" d="M282.8,65.4C282.8,65.3,282.8,65.3,282.8,65.4c0-0.2,0-0.2,0.101-0.301l0,0
			C282.9,65.2,282.9,65.3,282.8,65.4z"/>
		<path fill="#FFFFFF" d="M285,73.1L285,73.1c0-0.1,0-0.199,0.1-0.199C285.1,73,285,73.1,285,73.1z"/>
		<path fill="#FFFFFF" d="M299.4,70L299.4,70c-0.102-0.1,0-0.2,0-0.2C299.5,69.9,299.5,70,299.4,70z"/>
		<path fill="#FFFFFF" d="M278.8,73.5C278.8,73.4,278.7,73.4,278.8,73.5c0-0.1,0-0.2,0.101-0.2C278.9,73.3,278.8,73.4,278.8,73.5z"
			/>
		<path fill="#FFFFFF" d="M302.3,65.7c0,0,0-0.101-0.1-0.101c0,0,0-0.101,0.1-0.101C302.3,65.5,302.3,65.5,302.3,65.7
			C302.3,65.6,302.3,65.6,302.3,65.7z"/>
		<path fill="#FFFFFF" d="M283.6,63.4c0,0.1,0.102,0,0.102,0.1L283.6,63.4C283.6,63.5,283.5,63.5,283.6,63.4
			C283.5,63.4,283.5,63.4,283.6,63.4z"/>
		<path fill="#FFFFFF" d="M286.7,64.1C286.6,64,286.6,64,286.7,64.1c0-0.1,0-0.199,0-0.199S286.7,64,286.7,64.1z"/>
		<path fill="#FFFFFF" d="M314,70.2C314,70.2,314,70.1,314,70.2c-0.1-0.101-0.1-0.2,0-0.2S314.1,70,314,70.2
			C314,70.1,314,70.2,314,70.2z"/>
		<path fill="#FFFFFF" d="M314,70L314,70c-0.1-0.1,0-0.2,0-0.2C314.1,69.9,314.1,70,314,70z"/>
		<path fill="#FFFFFF" d="M309.7,73.1L309.7,73.1c0-0.1,0-0.199,0-0.1C309.8,73,309.8,73.1,309.7,73.1z"/>
		<path fill="#FFFFFF" d="M295.2,72.6v-0.1c0,0,0,0,0-0.1l0,0C295.3,72.5,295.3,72.6,295.2,72.6z"/>
		<path fill="#FFFFFF" d="M276.5,68.7c-0.1,0-0.2,0-0.3,0C276.3,68.6,276.4,68.6,276.5,68.7z"/>
		<path fill="#FFFFFF" d="M297.3,64.2C297.4,64.3,297.4,64.3,297.3,64.2c0,0.1,0,0.1-0.1,0.1c-0.101,0-0.101,0-0.101-0.1
			C297.3,64.3,297.3,64.3,297.3,64.2z"/>
		<path fill="#FFFFFF" d="M291.4,74.1C291.4,74,291.4,74,291.4,74.1C291.4,74,291.4,74,291.4,74.1C291.4,73.9,291.5,73.9,291.4,74.1
			C291.5,74,291.5,74,291.4,74.1z"/>
		<path fill="#FFFFFF" d="M297.2,64.3C297.2,64.3,297.3,64.3,297.2,64.3c0,0.101-0.101,0.101-0.101,0.101l0,0L297.2,64.3z"/>
		<path fill="#99AE9D" d="M330.7,55.4c0-0.102,0-0.102,0-0.2l0,0C330.7,55.3,330.7,55.3,330.7,55.4z"/>
		<path fill="#FFFFFF" d="M277.2,65.7C277.1,65.7,277.1,65.7,277.2,65.7c-0.101-0.101-0.101-0.101,0-0.101V65.7z"/>
		<path fill="#FFFFFF" d="M276.1,68.7c0,0.1,0,0.1-0.1,0.2C276,68.8,276,68.8,276.1,68.7z"/>
		<path fill="#FFFFFF" d="M290.2,66.7L290.2,66.7C290.2,66.6,290.2,66.6,290.2,66.7C290.2,66.6,290.2,66.6,290.2,66.7z"/>
		<path fill="#FFFFFF" d="M276.6,68.9V68.8C276.7,68.8,276.6,68.9,276.6,68.9z"/>
		<path fill="#96BCAB" d="M330.6,56.4V56.3C330.7,56.3,330.7,56.4,330.6,56.4L330.6,56.4L330.6,56.4z"/>
		<path fill="#FFFFFF" d="M283.1,68.7L283.1,68.7C283.1,68.6,283.1,68.6,283.1,68.7C283.2,68.7,283.1,68.7,283.1,68.7z"/>
		<path fill="#FFFFFF" d="M297.1,64.4L297.1,64.4L297.1,64.4L297.1,64.4L297.1,64.4z"/>
		<path fill="#FFFFFF" d="M282.9,65.1L282.9,65.1C283,65.1,283,65.1,282.9,65.1L282.9,65.1z"/>
		<path fill="#FFFFFF" d="M276.6,68.8C276.6,68.8,276.5,68.8,276.6,68.8C276.6,68.7,276.6,68.8,276.6,68.8z"/>
		<path fill="#DADF21" d="M284.8,73.4L284.8,73.4C284.9,73.4,284.8,73.4,284.8,73.4z"/>
		<path fill="#FFFFFF" d="M276.2,68.7C276.1,68.7,276.1,68.7,276.2,68.7C276.1,68.7,276.1,68.7,276.2,68.7z"/>
		<path fill="#FFFFFF" d="M276.5,68.7L276.5,68.7L276.5,68.7z"/>
		<path fill="#DADF21" d="M284.8,73.2C284.8,73.3,284.8,73.3,284.8,73.2C284.7,73.2,284.8,73.2,284.8,73.2z"/>
		<path fill="#037C5A" d="M295,17.1c0-1.5-0.1-3.1-0.1-4.6c0-0.3,0-0.6,0-0.9c0-0.1,0-0.2,0-0.3c-0.2,0.2-0.301,0.4-0.4,0.7
			s-0.1,0.5-0.2,0.8c0,0.1-0.1,0.2-0.1,0.3c-0.101,0.2-0.2,0.2-0.4,0.1c-0.2-0.1-0.3-0.3-0.3-0.5c-0.1-0.3-0.1-0.6-0.1-0.9
			c0-0.1,0-0.3-0.102-0.4c-0.1,0.2-0.1,0.5-0.199,0.7c-0.101,0.2-0.101,0.4-0.301,0.6c-0.1,0.2-0.199,0.2-0.398,0
			c-0.301-0.3-0.301-0.6-0.4-0.9c0-0.2,0-0.3,0-0.5c0-0.1,0-0.2,0-0.2c0-0.1,0,0-0.1,0c-0.102,0.1-0.2,0.3-0.301,0.4
			c-0.199,0.1-0.301,0.1-0.399-0.1c-0.101-0.2-0.101-0.4-0.101-0.5c0-0.2,0-0.5,0-0.8c-0.101,0.1-0.199,0.2-0.301,0.3
			c-0.1,0.1-0.3,0.2-0.398,0.2c-0.2-0.1-0.2-0.3-0.2-0.4c0-0.4,0.1-0.7,0.3-1c0.1-0.1,0.1-0.2,0.2-0.3c-0.101,0-0.2,0-0.2,0
			c-0.3,0-0.3-0.1-0.3-0.4c0-0.1,0.1-0.3,0.2-0.4c0.1-0.2,0.3-0.4,0.5-0.6c0.1-0.1,0.1-0.1,0.1-0.3c-0.1-0.2,0-0.4,0.2-0.6
			c0.2-0.2,0.5-0.3,0.7-0.4c0.199-0.1,0.398-0.1,0.5-0.2c-0.4-0.4-0.301-0.4,0.1-0.6c0.7-0.4,1.4-0.4,2.1-0.1
			c0.301,0.1,0.5,0.2,0.801,0.4c0.199,0.1,0.301,0.1,0.399,0c0.601-0.4,1.2-0.6,2-0.6c0.2,0,0.5,0,0.7,0.1c0.2,0.1,0.4,0.3,0.4,0.5
			c0,0.1,0.1,0.1,0.199,0.2c0.399,0,0.801,0.2,1.2,0.4c0.399,0.2,0.5,0.5,0.101,0.9c0.5,0.2,0.6,0.6,0.699,1.1
			c-0.199-0.1-0.399-0.2-0.601-0.1c0,0.1,0.101,0.2,0.2,0.2c0.199,0.3,0.398,0.6,0.5,0.9c0.102,0.2,0.102,0.5,0,0.7
			c-0.398,0-0.5-0.4-0.801-0.4c-0.1,0.1,0,0.2,0,0.2c0.101,0.4,0.101,0.9-0.1,1.3c-0.101,0.2-0.101,0.2-0.301,0
			c-0.1-0.1-0.199-0.2-0.199-0.3c-0.101-0.1-0.101-0.3-0.301-0.4c0,0.2,0.1,0.5,0.1,0.7c0.102,0.4,0,0.8-0.199,1.2
			c-0.1,0.2-0.301,0.2-0.399,0.1s-0.198-0.2-0.198-0.4c-0.102-0.2-0.102-0.4-0.201-0.5c0-0.1-0.101-0.2-0.199-0.3
			c0,0.4,0.1,0.7,0,1.1c0,0.2-0.1,0.5-0.301,0.7c-0.101,0.2-0.199,0.2-0.299,0c-0.201-0.1-0.302-0.3-0.302-0.4
			c-0.101-0.2-0.198-0.5-0.3-0.7c-0.102-0.2-0.102-0.4-0.301-0.5c0,0.7,0,1.3,0,1.9c0,0.6,0,1.3,0.101,1.9c0,0.6,0,1.3,0.101,1.9
			c0.101,0.2,0.101,0.4,0.201,0.5c-0.102,0-0.201,0.1-0.201,0.2c0,1.1,0.101,2.3,0.101,3.4c0,0.1,0,0.2,0.2,0.2
			c0.199,0,0.4,0,0.5,0.2c0.1,0.1,0.1,0.1,0.199,0c0.301,0,0.399,0,0.5,0.3c0,0.1,0.101,0.2,0.201,0.2c0.198,0,0.198,0.2,0.1,0.4
			c0,0.1-0.1,0.2-0.2,0.2l-0.101,0.1c-0.5,0.4-1.101,0.5-1.699,0.5c-0.7-0.1-1.301,0-2,0c-0.2,0-0.4,0-0.6-0.2
			c-0.102-0.1-0.302-0.2-0.4-0.3c-0.1-0.1-0.2-0.1-0.2-0.2c-0.101-0.2,0-0.4,0.2-0.4c0.1,0,0.199-0.1,0.199-0.2s0.101-0.2,0.301-0.2
			c0.199,0,0.4,0,0.5-0.2c0.1-0.1,0.199-0.1,0.3-0.1c0.2,0,0.2,0,0.2-0.2c0-0.4,0-0.8,0-1.2c0-0.6,0-1.3-0.1-1.9
			c0-0.2,0-0.3-0.201-0.3C294.9,17.5,294.8,17.3,295,17.1z"/>
		<path fill="#037C5A" d="M283,23.2c-0.1,0-0.1,0-0.2,0c-0.1,0-0.1,0-0.1-0.1c0.2-0.5,0.6-0.8,1.1-1c0.7-0.4,1.4-0.6,2.2-0.7
			c1.7-0.3,3.3-0.2,5,0.3c1.8,0.6,3.4,1.5,4.8,2.8l0.101,0.1c0.101,0.1,0.101,0.1,0.199,0c0.102-0.1,0.2-0.2,0.301-0.3
			c1.5-1.3,3.199-2.2,5.101-2.7c2-0.6,3.899-0.5,5.8,0.2c0.102,0,0.2,0.1,0.301,0.1c0.601,0.2,1.101,0.5,1.5,1
			c0,0.1,0.199,0.3,0.101,0.4c-0.2,0.1-0.3,0-0.5-0.1c-1.2-0.4-2.5-0.6-3.7-0.5c-1.5,0.1-3,0.5-4.4,1.2c-1.1,0.5-2.1,1.1-3,1.8
			c-0.3,0.2-0.3,0.2-0.1,0.5c0.3,0.4,0.7,0.8,1,1.2c0.1-0.2,0.1-0.3,0.2-0.5c0.2-0.3,0.5-0.4,0.8-0.2c0.6,0.3,0.7,0.9,0.3,1.4
			c-0.1,0.1-0.2,0.2-0.3,0.2c-0.3,0.2-0.3,0.5,0,0.7c0.1,0.1,0.2,0,0.3,0c0.2-0.1,0.5-0.2,0.7-0.1c0.5,0.1,0.9,0.5,0.9,1.1
			c0,0.2,0,0.3,0,0.5c0,0.6-0.602,1-1.2,0.9c-0.5-0.1-0.9-0.3-1.2-0.6c-0.4-0.4-0.9-0.9-1.2-1.4c-0.101-0.1-0.101-0.2-0.2-0.2
			c-0.1,0.1-0.3,0.1-0.3,0.3c0,0.4-0.101,0.7-0.399,0.8c-0.301,0.1-0.7-0.1-0.899-0.5c-0.101-0.5-0.101-0.7,0.399-1
			c0.101-0.1,0.3-0.2,0.399-0.3c0.2-0.2,0.3-0.2,0-0.4c-0.3-0.3-0.5-0.6-0.8-0.9l-0.1-0.1c-0.201-0.1-0.201-0.1-0.301,0.1
			c-0.101,0.3-0.301,0.4-0.5,0.6c-0.101,0.1-0.199,0.2-0.301,0.3c-0.199,0.2-0.199,0.2,0,0.4c0.2,0.1,0.4,0.3,0.602,0.4
			c0.1,0.1,0.1,0.2,0.199,0.3c0,0.2,0,0.4,0,0.6c-0.101,0.3-0.5,0.5-0.801,0.5c-0.3,0-0.5-0.2-0.5-0.5c0-0.1,0-0.2,0-0.3
			c0-0.2-0.1-0.3-0.3-0.3c-0.101,0-0.2,0.1-0.3,0.2c-0.301,0.5-0.7,0.9-1.2,1.3c-0.3,0.3-0.7,0.5-1.101,0.6
			c-0.699,0.2-1.199-0.3-1.301-1c0-0.3,0-0.5,0.102-0.8c0.199-0.6,0.8-0.9,1.398-0.7c0.102,0,0.102,0,0.2,0.1c0.2,0.1,0.3,0,0.4-0.2
			c0.1-0.2,0.1-0.3-0.101-0.4c-0.699-0.5-0.699-1.2,0-1.6c0.399-0.2,0.601-0.1,0.899,0.2c0.101,0.1,0.101,0.3,0.2,0.5
			c0.398-0.5,0.8-0.9,1.1-1.4c0.102-0.1,0.102-0.2,0-0.3c-0.1-0.1-0.199-0.1-0.3-0.2c-1.601-1.2-3.399-2.1-5.399-2.5
			c-1.899-0.4-3.699-0.4-5.5,0.2C283.2,23.2,283.1,23.2,283,23.2z"/>
		<path fill="#1D1D1B" d="M284.9,17.7c0.1,0.2,0.3,0.2,0.5,0.2c0.398,0,0.6-0.2,0.898-0.4c0.102-0.1,0.102-0.2,0.2-0.3
			c0.399,0.7,1,0.4,1.3-0.2c0.102,0,0.102,0,0.102,0.1c0.199,0.2,0.398,0.2,0.6,0c0.1-0.1,0.1-0.2,0.2-0.3
			c0.1,0.1,0.2,0.2,0.399,0.3c0.301,0.1,0.5,0,0.5-0.3c0-0.1,0-0.2,0-0.3c-0.199-0.7-0.301-1.4-0.5-2.1c0-0.1-0.101-0.3,0-0.4
			c0-0.1,0.101-0.1,0.199-0.1c0.102,0,0.102,0.1,0.102,0.1c0.1,0.3,0.3,0.6,0.398,0.8c0.102,0.1,0.102,0.2-0.1,0.2
			c-0.102,0-0.102,0.1-0.102,0.2c0.2,0.5,0.2,1.1,0.2,1.6c0,0.1,0,0.2,0,0.3c-0.1,0.4-0.5,0.6-0.899,0.4
			c-0.101-0.1-0.199,0-0.301,0.1c-0.3,0.4-0.5,0.4-0.898,0.1c-0.102,0.1-0.2,0.2-0.301,0.3c-0.301,0.3-0.601,0.3-0.899,0l-0.101-0.1
			c-0.101,0.1-0.101,0.1-0.199,0.2c-0.4,0.4-0.9,0.4-1.4,0.1c-0.1,0-0.1-0.1-0.199-0.1c-0.101-0.1-0.199-0.1-0.301,0
			c-0.199,0.2-0.398,0.4-0.699,0.5c-0.101,0-0.101,0.1-0.101,0.2c-0.101,0.9-0.7,1.4-1.399,1.8c-0.101,0-0.199,0.1-0.301,0.1
			c-0.5,0.1-0.8-0.1-0.898-0.6c0-0.1,0-0.1,0-0.2c-0.102,0-0.102,0.1-0.2,0.2c-0.2,0.3-0.5,0.5-0.8,0.7c-0.5,0.3-0.9,0.1-1.102-0.5
			c0.102,0,0.102,0,0.102,0c0.5,0.2,0.898,0.1,1.199-0.3s0.7-0.8,1.101-1.2c0.101-0.1,0.2-0.2,0.2-0.3c0.1-0.3,0-0.4-0.2-0.4
			c-0.399-0.1-0.8-0.2-1.2-0.3c-0.2-0.1-0.4-0.2-0.6-0.4c-0.102-0.1-0.2-0.2-0.102-0.4c0.102-0.1,0.2-0.1,0.4-0.1
			c0.199,0,0.3,0.1,0.398,0.3c0.102,0.2,0.301,0.3,0.5,0.3c0.2,0,0.4,0.1,0.602,0.1c0.398,0.1,0.6,0.3,0.6,0.7
			c0,0.3-0.1,0.6-0.3,0.9c-0.101,0.1-0.2,0.2-0.2,0.2c-0.1,0.1-0.199,0.3-0.1,0.5c0,0.2,0.1,0.3,0.3,0.3c0.399,0.1,0.7,0,1-0.2
			s0.601-0.5,0.8-0.9c-0.199,0-0.398,0.1-0.6,0.1c-0.301,0-0.5-0.2-0.5-0.5c0-0.3,0.1-0.5,0.398-0.6c0.2-0.1,0.4,0,0.602,0.1
			c0.199,0.1,0.398,0.1,0.6,0.1c0.102,0,0.2-0.1,0.2-0.1c0.101-0.1,0.2-0.2,0.101-0.3c0-0.1-0.199-0.1-0.301-0.1
			c-0.199,0-0.3,0-0.5,0c-0.199,0-0.3-0.1-0.199-0.3c0-0.2,0.101-0.3,0.301-0.4c0.5-0.4,1.1-0.5,1.8-0.3c0.2,0,0.399,0.1,0.399,0.3
			c0,0.2-0.101,0.3-0.301,0.5C285.2,17.5,285,17.6,284.9,17.7z"/>
		<path fill="#1D1D1B" d="M310.9,17.4c0.1-0.1,0.199-0.2,0.3-0.3c0.1-0.1,0.1-0.2-0.101-0.2c-0.801,0-1.601,0-2.399,0.4
			c-0.101,0.1-0.3,0.1-0.4,0.3c0.601,0.5,1,1.1,1.2,1.8c0.1,0.2,0.2,0.4,0.4,0.6c0.1,0.1,0.199,0.2,0.3,0.2c0.3,0.1,0.6-0.1,0.7-0.4
			c0-0.5,0-1,0.1-1.5c0-0.2,0-0.4,0.3-0.5c0,0.3,0,0.5,0,0.7c0,0.6,0,1.2,0,1.8c0,0.4,0.2,0.6,0.601,0.5
			c0.199,0,0.301-0.1,0.399-0.3c0.101-0.4,0.601-0.7,1.101-0.8c0-0.2,0-0.4,0-0.6c0-0.4,0-0.7,0-1.1v-0.1c0-0.1,0-0.3,0.101-0.3
			s0.2,0.1,0.2,0.2c0.1,0.2,0.199,0.5,0.199,0.8c-0.301,0.1-0.301,0.1-0.301,0.3c0,0.2,0,0.5,0,0.7c0.102,0.1,0.2,0,0.301,0
			c0.199,0,0.399,0.1,0.5,0.3c0.199,0.3,0.101,0.6-0.199,0.7c-0.301,0.2-0.602,0.1-0.801-0.2c-0.101-0.1,0-0.2-0.199-0.3
			c-0.102,0-0.301,0-0.4,0c-0.199,0.1-0.3,0.2-0.398,0.4c0.1,0.1,0.199,0,0.3,0c0.399,0,0.5,0.2,0.601,0.6c0,0.3-0.201,0.6-0.5,0.7
			c-0.301,0.1-0.601-0.1-0.701-0.4c-0.1-0.1-0.1-0.2-0.299-0.2h-0.101c-0.601,0-0.8-0.1-0.899-0.7c-0.101,0-0.201,0.1-0.301,0.1
			c-0.5,0.2-0.9,0.1-1.199-0.4c-0.101-0.2-0.201-0.4-0.301-0.6c0-0.1,0-0.2-0.1-0.2c0,0.1-0.102,0.2-0.102,0.2
			c-0.1,0.2-0.3,0.4-0.5,0.5c-0.398,0.2-0.8,0.1-1-0.3c-0.1-0.1-0.1-0.3-0.199-0.4c0-0.2-0.101-0.2-0.301-0.3
			c-0.1,0-0.199,0.1-0.3,0.2c-0.101,0.1-0.2,0.3-0.2,0.4c-0.1,0.2-0.199,0.3-0.398,0.4c-0.301,0.1-0.602,0-0.7-0.3
			c-0.101-0.3-0.101-0.6-0.101-0.9c0.101,0.1,0.101,0.2,0.101,0.2c0,0.2,0.101,0.3,0.2,0.4c0.199,0.3,0.398,0.3,0.699,0.1
			c0.101-0.1,0.101-0.1,0.199-0.2c0.102-0.2,0.301-0.4,0.5-0.6c0.102-0.1,0.2-0.2,0.301-0.2c0.199,0,0.399,0,0.399,0.2
			c0,0.1,0.101,0.3,0.101,0.4c0,0.2,0.199,0.3,0.399,0.3s0.399,0,0.5-0.1s0.101-0.2,0.2-0.3c0-0.2,0-0.4-0.102-0.6
			c-0.1-0.3-0.3-0.5-0.5-0.7c-0.199-0.3-0.199-0.5,0.102-0.8c0.1-0.1,0.3-0.2,0.5-0.3c0.8-0.3,1.699-0.5,2.5-0.4h0.1
			c0.301,0,0.301,0.2,0.2,0.5c0,0.1-0.101,0.1-0.2,0.2C311.3,17.3,311.1,17.4,310.9,17.4C310.9,17.5,310.9,17.4,310.9,17.4z"/>
		<path fill="#1D1D1B" d="M300.1,17.8c-0.1,0.2-0.1,0.4-0.199,0.6c0,0.1,0,0.2,0,0.2c0,0.2,0.101,0.3,0.301,0.2
			c0.199,0,0.398-0.1,0.5-0.3c0.5-0.5,1-0.9,1.699-1.1c-0.101-0.2-0.101-0.2-0.601-0.2c0-0.2,0.101-0.4,0.3-0.5
			c0.602-0.4,1.5-0.4,2.102,0.2c0.1,0.1,0.1,0.2,0,0.3c-0.102,0.1-0.2,0.2-0.301,0.2c-0.199,0.1-0.399,0.2-0.601,0.2
			c0.3,0.3,0.8,0.3,1.101,0.2c0.199-0.1,0.301-0.3,0.301-0.6c0-0.4-0.102-0.9-0.102-1.3c0-0.2,0-0.4,0-0.6c0-0.2,0-0.4,0.2-0.6
			c0.2,0.3,0.3,0.7,0.5,1c-0.399,0.1-0.3,0.4-0.3,0.6c0,0.4,0,0.7,0,1.1c0,0.1,0,0.2-0.1,0.3c-0.2,0.4-0.602,0.6-1,0.6
			c-0.4,0.1-0.7-0.1-0.9-0.4c-0.2-0.2-0.2-0.2-0.4-0.2c-0.699,0.2-1.398,0.6-1.898,1.1c-0.2,0.2-0.5,0.3-0.801,0.3
			s-0.399-0.1-0.399-0.4C299.6,18.4,299.8,18,300.1,17.8C300.1,17.7,300.2,17.7,300.1,17.8z"/>
		<path fill="#1E1E1C" d="M295,17.1c0,0.1,0,0.3,0,0.4s-0.1,0.2-0.2,0.2c-0.399,0-0.8-0.1-1.2-0.3c-0.199-0.1-0.398-0.2-0.5-0.4
			c-0.1-0.1-0.199-0.2-0.3-0.3c-0.2-0.2-0.3-0.2-0.5,0c-0.1,0.1-0.2,0.2-0.3,0.4c-0.1,0.2-0.1,0.3-0.2,0.5c-0.1,0.4-0.3,0.5-0.7,0.5
			c-0.3,0-0.5-0.2-0.6-0.5c0-0.1,0-0.1,0-0.2c0-0.2-0.1-0.4,0.1-0.6c0.102,0.2,0.2,0.5,0.301,0.7c0.199,0.3,0.5,0.2,0.699-0.1
			c0.102-0.2,0.2-0.4,0.301-0.6c0.101-0.3,0.301-0.5,0.5-0.7c0.301-0.3,0.5-0.3,0.699,0.1c0.301,0.4,0.7,0.7,1.2,0.8
			C294.4,17.1,294.7,17.1,295,17.1z"/>
		<path fill="#1E1E1C" d="M297,17.6c-0.1,0-0.2,0-0.2-0.1s0-0.3,0-0.4c0.8-0.1,1.601-0.4,2.4-0.7c0.1,0,0.1-0.1,0.2-0.2
			c0-0.1,0.1-0.1,0.199-0.1c0.101,0,0.101,0.1,0.101,0.2c0.1,0.3,0.3,0.4,0.5,0.4s0.3-0.1,0.3-0.3c0-0.1,0-0.2,0-0.2
			c0-0.1,0.1-0.2,0.2-0.2c0.1,0,0.2,0.1,0.2,0.2c0,0.1,0,0.2,0,0.3c-0.102,0.4-0.301,0.6-0.7,0.7c-0.3,0.1-0.601,0-0.7-0.3
			c0,0,0-0.1-0.1-0.1C298.7,17.1,297.9,17.5,297,17.6z"/>
		<path fill="#1F1E1C" d="M276.3,19.8c0.2,0.1,0.3,0.2,0.4,0.3c0.1,0.1,0.3,0.2,0.5,0.2s0.3-0.1,0.3-0.3c0-0.1,0-0.3,0-0.4
			c0-0.2,0-0.5,0.1-0.7c0.102-0.3,0.301-0.4,0.602-0.2c0.3,0.2,0.6,0.2,0.8,0c0.2-0.1,0.2-0.2,0.101-0.4c-0.101-0.1-0.101-0.3,0-0.4
			c0.101,0,0.199,0,0.199,0.1c0.2,0.2,0.301,0.7,0.2,0.9c-0.101,0.3-0.3,0.4-0.601,0.4s-0.5,0-0.699-0.1c-0.2-0.1-0.301-0.1-0.4,0.2
			c-0.1,0.2-0.1,0.5,0,0.7c0,0.3,0,0.5-0.199,0.7c-0.301,0.2-0.5,0.1-0.801-0.1C276.5,20.5,276.4,20.3,276.3,19.8z"/>
		<path fill="#22221F" d="M306.4,15.1c0.1,0.2,0.1,0.3,0.1,0.5c0.1,0.2,0.1,0.4,0.2,0.6c0.1,0.2,0.1,0.3-0.2,0.3h-0.1
			c0,0.7,0,1.3,0,1.9c0,0.3-0.2,0.5-0.301,0.7c0-0.1,0-0.2,0-0.3c0-1,0-2.1,0-3.1C306,15.5,306.1,15.3,306.4,15.1z"/>
		<path fill="#1E1E1C" d="M315.6,22.7c0-0.2,0-0.3,0-0.5c-0.1-1.1-0.1-2.1-0.199-3.2c0-0.3,0.101-0.5,0.301-0.7
			c0.1,0.4,0.3,0.7,0.398,1.1l0,0c-0.3,0-0.3,0-0.199,0.3c0,0.6,0.101,1.2,0.101,1.8c0,0.3-0.101,0.7-0.2,1
			C315.7,22.6,315.7,22.6,315.6,22.7C315.7,22.7,315.7,22.7,315.6,22.7z"/>
		<path fill="#201F1D" d="M291.3,16.9c-0.1-0.3-0.1-0.6-0.2-0.8c-0.1-0.6-0.3-1.1-0.5-1.7c-0.1-0.3-0.1-0.5-0.1-0.9
			c0.2,0.2,0.4,0.4,0.5,0.6v0.1c-0.1,0.2,0,0.3,0.1,0.5c0.102,0.4,0.2,0.7,0.301,1.1C291.4,16.2,291.4,16.6,291.3,16.9z"/>
		<path fill="#242220" d="M282.9,16c-0.2-0.2-0.301-0.4-0.2-0.7c0-0.1,0.1-0.2,0.2-0.2c0.1,0,0.199,0.1,0.199,0.2
			c0.101,0.1,0,0.3,0.101,0.4c0.1,0.1,0.1,0.2,0.1,0.3h-0.1C283,15.9,283,16,282.9,16c-0.102,0.3-0.301,0.5-0.4,0.7
			c-0.1,0.1-0.2,0.2-0.4,0.2C282.5,16.7,282.7,16.4,282.9,16z"/>
		<path fill="#23211F" d="M298.1,18.3C298.2,18.3,298.2,18.3,298.1,18.3c0.4-0.3,0.4-0.3,0.602,0.1c-0.102,0.1-0.2,0.2-0.301,0.3
			C298.2,18.6,298.2,18.4,298.1,18.3c-0.1,0.1-0.199,0.3-0.3,0.3c-0.1-0.1-0.2-0.2-0.3-0.3c0,0,0,0,0-0.1c0.1-0.1,0.2-0.3,0.3-0.3
			C298,18.1,298,18.3,298.1,18.3z"/>
		<path fill="#272523" d="M287.7,15.2c0.1,0.2,0.1,0.3,0,0.5c-0.101,0.2-0.101,0.3-0.4,0.3c-0.1,0-0.1,0-0.2,0.1
			c-0.1,0.1-0.199,0.2-0.398,0.1c-0.102,0-0.2-0.2-0.2-0.4v-0.1c0,0,0-0.1,0.101-0.1s0,0.1,0,0.1c0,0.1,0,0.2,0.101,0.2
			s0.101-0.1,0.2-0.1c0.1-0.1,0.1-0.2,0.1-0.3c0.1,0,0.1,0.1,0.1,0.2c0.102,0.1,0.102,0.1,0.201,0C287.6,15.4,287.6,15.3,287.7,15.2
			z"/>
		<path fill="#23211F" d="M307.1,18c-0.1,0-0.1-0.1-0.199-0.1c-0.101-0.1-0.199-0.2-0.101-0.3c0.101-0.1,0-0.2-0.1-0.3
			c-0.101-0.1-0.101-0.2,0-0.3l0.1-0.1h0.101c0.101,0,0.199,0.2,0.301,0.3c0.1,0.1,0,0.1,0,0.2c-0.102,0.1-0.102,0.2,0,0.2
			c0.1,0.1,0.1,0.2,0,0.3C307.2,17.9,307.2,18,307.1,18z"/>
		<path fill="#242422" d="M276.5,18.1c0.1-0.1,0.1-0.3,0.2-0.4h0.1c0.101,0,0.2,0.1,0.3,0.1c0.102,0,0.102-0.1,0.2-0.2
			c0-0.1,0.101-0.1,0.2,0c0.1,0,0.1,0.1,0.2,0.1c0.1,0,0.1,0.1,0.1,0.2s-0.1,0.2-0.1,0.2c-0.101,0-0.2-0.1-0.4-0.1
			c-0.1,0.1-0.1,0.2-0.2,0.3C276.7,18.3,276.6,18.2,276.5,18.1z"/>
		<path fill="#242422" d="M292,14.9c-0.1-0.1-0.2-0.2-0.3-0.2c0,0,0,0,0-0.1c0.3-0.3,0.2-0.4,0.6,0l0,0
			C292.2,14.7,292.1,14.8,292,14.9c0.1,0.1,0.2,0.2,0.3,0.2c0,0,0,0,0,0.1c-0.1,0.1-0.1,0.1-0.2,0.2l-0.1,0.1
			C291.7,15.3,291.7,15.3,292,14.9z"/>
		<path fill="#252523" d="M301,14.3c-0.1,0.1-0.2,0.3-0.2,0.4c0,0.1,0.101,0.1,0.2,0.1c0.1,0.1,0.1,0.3,0,0.3
			c-0.1,0.1-0.3,0.1-0.4,0c-0.1-0.1-0.1-0.2-0.1-0.3C300.5,14.6,300.7,14.4,301,14.3L301,14.3z"/>
		<path fill="#262422" d="M286.4,19.4c0.398-0.4,0.8-0.7,1.398-0.6C287.4,19.1,286.9,19.3,286.4,19.4
			C286.4,19.5,286.4,19.4,286.4,19.4L286.4,19.4z"/>
		<path fill="#2A2624" d="M307.9,16.3c0.5-0.2,1-0.3,1.6-0.4C309.2,16.2,308.5,16.4,307.9,16.3z"/>
		<path fill="#242422" d="M312.1,18.9c0.102-0.1,0.2-0.1,0.301-0.2c0-0.1-0.101,0-0.101,0c-0.2,0-0.3-0.1-0.1-0.3
			c0.1-0.1,0.3-0.2,0.5-0.2c0.1,0,0.1,0.1,0.1,0.1c0,0.1,0,0.3-0.1,0.4C312.5,18.8,312.4,18.9,312.1,18.9
			C312.1,19,312.1,18.9,312.1,18.9z"/>
		<path fill="#2A2726" d="M303,14.7c-0.4,0.3-0.9,0.5-1.4,0.6c-0.1,0-0.199,0.1-0.3,0c0-0.1,0.101-0.1,0.2-0.2
			C302.1,14.9,302.5,14.7,303,14.7C303,14.6,303,14.6,303,14.7L303,14.7z"/>
		<path fill="#282623" d="M303.8,15.5c-0.399,0.3-0.899,0.4-1.3,0.6h-0.1c-0.102,0-0.2,0-0.2-0.1s0.1-0.1,0.1-0.1
			c0.5-0.2,0.9-0.4,1.4-0.5C303.7,15.4,303.8,15.4,303.8,15.5z"/>
		<path fill="#252220" d="M300.6,17.7c0.102,0.1,0.2,0.2,0.301,0.3c-0.101,0.1-0.199,0.2-0.399,0.4c-0.101-0.1-0.2-0.2-0.3-0.4
			C300.3,17.9,300.4,17.8,300.6,17.7z"/>
		<path fill="#373635" d="M278.7,16.9c0,0.1,0,0.3,0,0.4c0,0.1-0.101,0.2-0.2,0.1c-0.1,0-0.1,0-0.2,0.1c-0.1,0.1-0.1,0.1-0.2,0.1
			c-0.1,0-0.1-0.1-0.1-0.2s0-0.1,0-0.2c0.2,0.2,0.2,0.2,0.3-0.1c0.101,0,0.101,0.2,0.2,0.1C278.6,17.1,278.6,16.9,278.7,16.9z"/>
		<path fill="#272725" d="M278,21.3C278,21.3,277.9,21.3,278,21.3c-0.1,0.2-0.2,0.3-0.2,0.4c-0.5-0.1-0.5-0.2-0.2-0.6
			C277.7,21.1,277.8,21.3,278,21.3L278,21.3z"/>
		<path fill="#2B2926" d="M314.5,21.1c0,0.1-0.1,0.2-0.1,0.3s-0.102,0.2,0.1,0.3c0.1,0,0.1,0.1,0,0.2c0,0.1-0.1,0.1-0.2,0.1
			c-0.1,0-0.2,0-0.2-0.1s0-0.2,0-0.3C314.2,21.4,314.3,21.2,314.5,21.1L314.5,21.1z"/>
		<path fill="#262522" d="M278,21.3C278,21.3,278,21.2,278,21.3c-0.1-0.2,0-0.3,0.1-0.4c0.102,0,0.301,0.1,0.4,0.2v0.1
			C278.3,21.5,278.3,21.5,278,21.3z"/>
		<path fill="#353432" d="M302.8,18.4C302.8,18.4,302.8,18.5,302.8,18.4c0,0.5,0,0.5,0.3,0.4v0.1c-0.1,0.2-0.199,0.2-0.3,0.2
			c-0.1,0-0.2-0.2-0.2-0.4C302.6,18.6,302.6,18.5,302.8,18.4C302.7,18.5,302.7,18.4,302.8,18.4C302.7,18.4,302.7,18.4,302.8,18.4
			C302.8,18.3,302.8,18.3,302.8,18.4L302.8,18.4z"/>
		<path fill="#32302E" d="M284.4,19.4c0.1,0.1,0.1,0.1,0.3,0.1c0,0,0,0,0,0.1c-0.101,0.2-0.2,0.3-0.3,0.2c-0.102,0-0.2-0.2-0.2-0.4
			c0-0.1,0-0.2,0.1-0.3C284.5,19.2,284.4,19.3,284.4,19.4z"/>
		<path fill="#292927" d="M285.1,15.4c0,0,0.102,0.1,0.2,0.1c0.101,0,0.101,0,0.101,0.1c-0.101,0.1-0.199,0.2-0.301,0.2
			c-0.1-0.1-0.199-0.2-0.199-0.3s0-0.2,0.101-0.3C285.2,15.1,285,15.3,285.1,15.4z"/>
		<path fill="#443C3A" d="M280.9,16.4C280.9,16.5,281,16.5,280.9,16.4c0.199,0,0.199,0.1,0.199,0.2c-0.101,0.1-0.199,0.1-0.301,0
			C280.9,16.5,280.8,16.5,280.9,16.4z"/>
		<path fill="#AFA4A4" d="M290.5,16.9c-0.1,0.1-0.1,0.2-0.1,0.3c0,0.1,0,0.2,0,0.3c-0.102-0.2,0-0.5-0.102-0.7
			C290.5,16.8,290.5,16.8,290.5,16.9z"/>
		<path fill="#534D4C" d="M284.4,19.4c-0.102-0.1,0-0.2-0.102-0.3c0-0.1,0.102-0.1,0.102-0.2c0.1,0,0.1,0.1,0.1,0.1
			C284.5,19.1,284.4,19.3,284.4,19.4z"/>
		<path fill="#524D4B" d="M285.1,15.4c-0.1,0-0.1-0.1-0.1-0.2c0-0.1,0-0.1,0-0.2s0-0.1,0.1-0.2C285.1,15,285.1,15.2,285.1,15.4z"/>
		<path fill="#635F5D" d="M280.9,16.4C280.9,16.4,280.9,16.5,280.9,16.4c-0.2,0-0.2-0.1-0.102-0.3C280.9,16.3,280.9,16.4,280.9,16.4
			z"/>
		<path fill="#A7D9C1" d="M291.9,10.9c0-0.1,0-0.1,0.1-0.1c0,0.1,0,0.3,0,0.4C291.9,11.1,292,11,291.9,10.9z"/>
		<path fill="#94807F" d="M303.8,15.5c0-0.1-0.1,0-0.1-0.1c0,0,0.1,0,0.1-0.1h0.101C303.9,15.4,303.8,15.5,303.8,15.5z"/>
		<path fill="#6A6362" d="M312.1,18.9C312.2,18.9,312.2,18.9,312.1,18.9c0,0.1-0.1,0.1-0.199,0.1C312,18.9,312.1,18.9,312.1,18.9z"
			/>
		<path fill="#BBB0AE" d="M284.5,19c0,0,0-0.1-0.1-0.1c0-0.1,0-0.1,0.1-0.1V19L284.5,19z"/>
		<path fill="#A6A09F" d="M302.8,18.4L302.8,18.4C302.8,18.3,302.8,18.3,302.8,18.4c-0.1-0.2-0.1-0.2,0-0.2V18.4L302.8,18.4z"/>
		<path fill="#867C7B" d="M300.1,17.8C300.1,17.7,300.1,17.7,300.1,17.8C300.1,17.7,300.1,17.6,300.1,17.8
			C300.2,17.7,300.2,17.7,300.1,17.8z"/>
		<path fill="#746362" d="M285.4,15.5c0-0.1-0.102-0.1-0.102-0.1S285.4,15.3,285.4,15.5L285.4,15.5z"/>
		<path fill="#4D4745" d="M310.9,17.4L310.9,17.4C310.9,17.5,310.9,17.5,310.9,17.4L310.9,17.4C310.8,17.5,310.8,17.4,310.9,17.4z"
			/>
		<path fill="#958F8E" d="M301,14.2C301,14.1,301.1,14.1,301,14.2C301.1,14.2,301.1,14.2,301,14.2L301,14.2z"/>
		<path fill="#BBB0AF" d="M303,14.7C303,14.6,303,14.6,303,14.7C303,14.6,303.1,14.5,303,14.7C303.1,14.6,303.1,14.7,303,14.7z"/>
		<path fill="#85706F" d="M314.5,21.1L314.5,21.1C314.5,21.1,314.5,21,314.5,21.1C314.6,21,314.6,21.1,314.5,21.1z"/>
		<path fill="#4F4441" d="M301,14.2L301,14.2c0,0.1,0,0.1,0,0.1S301,14.3,301,14.2L301,14.2z"/>
		<path fill="#403836" d="M302.7,18.4v0.1V18.4z"/>
		<path fill="#5A6B6B" d="M286.4,19.4L286.4,19.4C286.4,19.5,286.4,19.5,286.4,19.4C286.3,19.5,286.4,19.4,286.4,19.4z"/>
		<path fill="#687474" d="M310.8,17.5L310.8,17.5C310.8,17.6,310.8,17.6,310.8,17.5C310.7,17.5,310.7,17.5,310.8,17.5z"/>
		<path fill="#403836" d="M302.7,18.3C302.8,18.3,302.8,18.3,302.7,18.3L302.7,18.3L302.7,18.3L302.7,18.3z"/>
		<path fill="#F1C250" d="M296.2,29.7c0.1,0.2,0.3,0.4,0.6,0.4c0.4,0.1,0.7-0.1,0.7-0.6c0-0.1,0-0.1,0-0.2c0-0.1,0-0.2,0.1-0.2
			c0.4-0.3,0.4-0.3,0.602,0.1c0.3,0.5,0.699,1,1.199,1.4c0.301,0.3,0.699,0.5,1.101,0.6c0.601,0.1,1-0.2,1.101-0.8
			c0-0.2,0-0.4,0-0.6c-0.101-0.7-0.699-1-1.299-0.9C300.2,28.9,300.1,29,300,29c-0.199,0.1-0.199,0.1-0.4-0.1c0,0-0.1-0.1-0.1-0.2
			c-0.199-0.3-0.199-0.3,0.1-0.5c0.102-0.1,0.201-0.1,0.301-0.2c0.199-0.2,0.301-0.5,0.199-0.8c-0.1-0.3-0.299-0.5-0.699-0.6
			c-0.199,0-0.399,0.1-0.5,0.3c-0.1,0.2-0.199,0.4-0.301,0.6c-0.5-0.6-0.898-1.1-1.398-1.6c0-0.1,0.102-0.1,0.102-0.1
			c1.6-1.2,3.398-2.2,5.398-2.7c1.102-0.3,2.3-0.4,3.5-0.4c1,0.1,2,0.3,3,0.6c-0.398,0.8-0.801,1.7-1.102,2.5
			c-2.898,6.3-5.799,12.7-8.699,19c0,0.101,0,0.101-0.1,0.2c-0.101,0.1-0.101,0.2,0,0.4c0.199,0.6,0.6,1.1,1,1.6
			c1.199,1.4,2.799,2.3,4.5,3c1.199,0.5,2.5,0.7,3.799,0.8c1.801,0.2,3.5-0.1,5.102-0.8c1.3-0.6,2.5-1.4,3.602-2.4
			c0.6-0.6,1.198-1.3,1.6-2.1c0.1-0.2,0.1-0.3,0-0.4c-0.2-0.5-0.4-1-0.6-1.5c-2.802-6.5-5.602-13-8.4-19.5c-0.1-0.1-0.1-0.2-0.1-0.4
			c0-0.1,0-0.1,0.1-0.1c0.4,0.3,0.8,0.6,1.199,0.8c1.801,1.1,3.801,1.9,5.899,2.3c0.7,0.1,1.302,0.3,2,0.4
			c0.2,0,0.302,0.1,0.302,0.3c0.5,2.1,1.1,4.1,1.6,6.2c1.9,7.1,3.8,14.2,5.699,21.4v0.1c0.101,0.102,0,0.2-0.101,0.2
			c-0.5,0.101-1,0.3-1.5,0.4c-1.198,0.2-2.399,0.3-3.601,0.3c-1.5-0.1-3-0.4-4.399-0.8c-1.3-0.4-2.601-0.9-4-1.4
			c-1.3-0.399-2.5-0.8-3.899-1c-1.299-0.2-2.699-0.3-4.101-0.2c-3.101,0.102-6,1-8.8,2.602c0,0-0.102,0-0.102,0.1
			c-0.1,0-0.1,0-0.1-0.1c0-0.102,0-0.2,0-0.301c0-8.301,0-16.601,0-24.899C296.1,29.9,296,29.7,296.2,29.7z"/>
		<path fill="#F1C250" d="M283,23.2c0.6-0.2,1.2-0.4,1.8-0.5c2.4-0.4,4.7,0.1,6.8,1.2c1,0.5,2,1.1,2.9,1.8c0.1,0,0.1,0.1,0.2,0.2
			c-0.5,0.5-0.9,1.1-1.4,1.7c-0.1-0.2-0.1-0.4-0.2-0.5c-0.199-0.4-0.5-0.5-0.898-0.2c-0.5,0.3-0.5,0.9-0.102,1.3
			c0.102,0.1,0.2,0.2,0.4,0.3c0.1,0,0.1,0.1,0.1,0.2c-0.1,0.2-0.1,0.3-0.3,0.5c-0.1,0.1-0.1,0.1-0.2,0c-0.1-0.1-0.3-0.1-0.398-0.2
			c-0.5-0.1-1.102,0.2-1.2,0.7c-0.101,0.3-0.101,0.6,0,0.8c0.101,0.5,0.5,0.8,1.101,0.8c0.5-0.1,0.801-0.3,1.199-0.6
			c0.5-0.4,0.9-0.9,1.2-1.4c0-0.1,0.101-0.1,0.101-0.2L294.2,29c0.1,0.1,0.2,0.1,0.3,0.2c0.1,0.1,0.1,0.2,0.1,0.3
			c0,0.2,0,0.5,0.2,0.6s0.5,0.1,0.7,0s0.3-0.2,0.4-0.3c0,0.1,0,0.2,0,0.4c0,7.4,0,14.7,0,22.1c0,0.9,0,1.8,0,2.7c0,0.1,0,0.2,0,0.3
			c-0.2,0-0.2-0.1-0.4-0.2c-1.7-1-3.4-1.8-5.3-2.3c-1.7-0.399-3.4-0.5-5.101-0.399c-2.699,0.199-5.301,0.899-7.801,1.801
			c-0.3,0.1-0.6,0.199-0.8,0.3c-0.7,0.3-1.399,0.5-2.101,0.601c-1.601,0.301-3.301,0.399-4.899,0.301c-1.2,0-2.5-0.2-3.7-0.4
			c-0.3-0.1-0.3,0-0.199-0.4c1.301-4.6,2.5-9.1,3.801-13.699c1.199-4.199,2.3-8.5,3.5-12.699c0.1-0.4,0.1-0.8,0.199-1.1
			c0-0.3,0.101-0.3,0.301-0.3c2.3-0.3,4.398-0.8,6.5-1.7c0.898-0.4,1.699-0.8,2.5-1.3c0.1-0.1,0.199-0.1,0.3-0.2
			c0,0.1,0,0.2-0.101,0.3c-1.101,2.3-2.101,4.6-3.199,7c-2.102,4.7-4.301,9.3-6.4,14c0,0.101,0,0.101-0.1,0.199
			c-0.102,0.102,0,0.301,0,0.4c0.3,0.7,0.699,1.3,1.199,1.8c1.101,1.2,2.5,2,4.101,2.601c1.3,0.5,2.7,0.801,4.1,0.899
			c2.101,0.2,4-0.2,5.8-1.2C289.5,48.9,290.7,47.9,291.7,46.7c0.3-0.4,0.6-0.8,0.8-1.3c0.1-0.102,0.1-0.2,0.2-0.301
			c-0.101,0-0.2,0-0.2-0.101c-0.3-0.8-0.6-1.5-0.9-2.3C288.9,36.3,286.2,30,283.4,23.6C283.2,23.5,283.1,23.4,283,23.2z"/>
		<path fill="#F1C250" d="M273,45c0.2-0.6,0.6-1.2,0.8-1.9c3-6.5,5.9-12.898,8.9-19.398c0-0.1,0.1-0.2,0.1-0.3
			c0.101,0.1,0.101,0.2,0.101,0.3c3,7.1,6,14.1,9,21.199c0,0,0,0.101,0.101,0.101c-0.101,0.2-0.2,0.2-0.399,0.101
			c-4.399-0.101-8.801,0-13.199-0.101c-1.7,0-3.4,0-5.102,0C273.3,45.1,273.1,45.1,273,45z"/>
		<path fill="#F1C250" d="M299.6,45c0.602-1.4,1.301-2.7,1.9-4.1c2.1-4.602,4.3-9.3,6.4-13.9c0.5-1,0.898-2,1.398-3.1
			c0-0.1,0-0.2,0.2-0.2c0.101,0.2,0.101,0.3,0.2,0.5c3,7,6,13.9,9,20.899V45.2c-0.102,0.2-0.2,0.1-0.301,0.1
			c-4.5-0.1-8.899,0-13.399-0.1c-1.601,0-3.2,0-4.899,0C299.9,45.1,299.7,45.2,299.6,45z"/>
		<path fill="#F1C250" d="M269.3,30.5c-0.2,0.7-0.399,1.4-0.6,2c-2.101,7.6-4.2,15.2-6.3,22.8V55.4c0,0.199,0,0.3,0.199,0.398
			c0.301,0.102,0.699,0.2,1,0.2c0.601,0,1.301,0,1.899-0.101c0.101,0,0.2,0,0.2-0.101c0-0.2,0.1-0.1,0.199-0.1
			c0.5,0,1.101,0,1.601-0.101c0.101,0,0.2,0,0.2-0.101s0.1,0,0.199,0c1,0.101,1.899,0.101,2.899,0.101
			c1.601,0,3.101-0.199,4.601-0.5c0.199,0,0.301-0.101,0.399-0.101c1.8-0.7,3.5-1.3,5.4-1.8c1.8-0.4,3.5-0.7,5.399-0.602
			c3.101,0.102,5.899,0.9,8.601,2.602c0.2,0.1,0.399,0.199,0.6,0.398c0.2,0.102,0.3,0.102,0.4,0c1-0.6,2.1-1.1,3.2-1.6
			c1.6-0.6,3.199-1,4.898-1.1c1.4-0.102,2.9-0.102,4.301,0.1c1.699,0.199,3.399,0.699,5,1.3c1.301,0.5,2.601,0.899,3.899,1.3
			c1.8,0.5,3.601,0.7,5.399,0.602c0.5,0,0.899-0.102,1.399-0.2c0.101,0,0.2-0.101,0.2,0.101c0,0.101,0.1,0.101,0.199,0.101
			c0.5,0,0.9,0.1,1.4,0c0.1,0,0.199-0.101,0.199,0.2c0,0.1,0.102,0.1,0.102,0.1c1,0,1.898,0.1,2.898-0.1h0.102
			c0.299-0.102,0.299-0.2,0.299-0.5c-0.399-1.4-0.699-2.801-1.1-4.102c-1.4-5.3-2.801-10.6-4.199-15.9c-0.4-1.7-0.9-3.3-1.301-5
			c0-0.1-0.101-0.2,0-0.3c0.301,0,0.5,0,0.801,0c0.1,0,0.1,0.1,0.1,0.2c0.1,0.5,0.3,1,0.4,1.5c1.398,5.3,2.699,10.602,4.1,15.9
			c0.5,2.1,1.1,4.199,1.6,6.3c0.102,0.399,0.301,0.8,0.301,1.2c0,0.3,0,0.5,0,0.8c-0.101,0.3-0.199,0.5-0.5,0.7
			c-0.199,0.1-0.301,0.199-0.5,0.1c-1.5,0-3.101-0.1-4.601-0.1c-2,0-3.899-0.102-5.899-0.102c-2.301,0-4.699-0.1-7-0.1
			c-1.101,0-2.301,0-3.399-0.1c-2.3,0-4.7-0.102-7-0.102c-1.101,0-2.2,0-3.3-0.1c-0.2,0-0.301,0-0.4,0.199
			c-0.398,0.601-0.898,1-1.6,1.101c-0.801,0.2-1.4-0.101-2-0.5c-0.2-0.2-0.5-0.399-0.602-0.7c-0.1-0.199-0.3-0.199-0.5-0.199
			c-1.3,0-2.6,0-3.898,0c-1.4,0-2.7,0-4.102,0c-1.5,0-3,0-4.398,0c-3,0-5.9,0-8.9,0.1c-3.199,0-6.3,0-9.5,0.101
			c-0.199,0-0.3,0-0.5-0.101c-0.5-0.199-0.699-0.6-0.6-1.1c0.1-0.601,0.3-1.199,0.5-1.801c2.1-7.6,4.199-15.199,6.3-22.9
			c0-0.1,0-0.1,0-0.2c0-0.1,0.101-0.2,0.2-0.2C268.7,30.5,269,30.5,269.3,30.5z"/>
		<path fill="#037C5A" d="M299.6,45c0.102,0.1,0.2,0,0.301,0c1.301,0,2.699,0,4,0c4.101,0,8.199,0,12.301,0.1
			c0.699,0,1.398,0,2.199,0c0.101,0,0.199,0,0.301,0c0.1,0,0.199,0,0.3,0s0.2,0,0.3,0.102c0,0.1-0.1,0.199-0.1,0.3
			c-0.4,0.899-1,1.601-1.7,2.2c-1.601,1.5-3.399,2.5-5.5,3c-1.2,0.3-2.3,0.3-3.5,0.199c-1.399-0.101-2.7-0.399-4-1
			c-1.3-0.5-2.5-1.199-3.5-2.101c-0.7-0.7-1.3-1.399-1.7-2.3c0-0.1,0-0.1-0.102-0.2c-0.1-0.2-0.1-0.2,0.201-0.2
			C299.4,45,299.5,45,299.6,45z"/>
		<path fill="#037C5A" d="M273,45c0.6,0,1.2,0,1.9,0c0.8,0,1.5,0,2.3,0c4.2,0,8.3,0,12.5,0.1c0.7,0,1.399,0,2.2,0
			c0.1,0,0.199,0,0.3,0c0.1,0,0.2,0,0.3,0c0.1,0.102,0.2,0,0.3,0.102c0,0.1-0.1,0.199-0.1,0.3c-0.5,1-1.2,1.8-2.101,2.601
			c-1.5,1.301-3.199,2.199-5.199,2.601c-1.102,0.3-2.301,0.3-3.5,0.2C280.6,50.8,279.3,50.5,278.1,50c-1.5-0.6-2.898-1.4-4-2.5
			c-0.6-0.6-1-1.2-1.3-2c0-0.1-0.1-0.1-0.1-0.2c-0.101-0.2,0-0.2,0.2-0.2C272.8,45,272.9,45,273,45z"/>
		<path fill="#F1C250" d="M326.9,56.2C327.3,56.1,327.6,56,328,55.9c0.3-0.102,0.3-0.2,0.2-0.5c-1.4-5.2-2.8-10.5-4.2-15.7
			c-0.9-3.4-1.8-6.8-2.7-10.1c0-0.1,0-0.2-0.1-0.3c0.3,0,0.7,0,1,0.1c0.1,0,0.1,0,0.1,0.1l0,0c0.101,0.5,0.2,1,0.4,1.4
			c1.5,5.8,3.1,11.7,4.6,17.5c0.601,2.5,1.3,4.898,1.9,7.398V55.9c0,0.199,0,0.199-0.2,0.199c-0.3,0.101-0.7,0.101-1,0.101
			C327.8,56.3,327.3,56.3,326.9,56.2C326.8,56.2,326.8,56.2,326.9,56.2C326.8,56.2,326.9,56.2,326.9,56.2z"/>
		<path fill="#F1C250" d="M264.9,55.8c-0.7,0.101-1.4,0.101-2.102-0.1c-0.3-0.101-0.3-0.101-0.199-0.3
			c0.899-3.4,1.899-6.801,2.801-10.2c1.398-4.9,2.699-9.8,4.1-14.6c0.1-0.4,0.2-0.8,0.3-1.1c0-0.1,0.101-0.2,0.2-0.2
			c0.3,0,0.6,0,0.9-0.1c0,0.1-0.102,0.2-0.102,0.3c-2.199,7.8-4.3,15.6-6.5,23.5c-0.199,0.7-0.398,1.4-0.6,2.1
			c-0.102,0.301,0,0.4,0.3,0.5C264.4,55.6,264.7,55.7,264.9,55.8C264.9,55.7,265,55.7,264.9,55.8L264.9,55.8z"/>
		<path fill="#F1C250" d="M266.5,55.5c-0.7,0-1.4,0-2.1-0.2c-0.102,0-0.2,0-0.2-0.1c-0.101,0-0.2-0.101-0.101-0.3
			c0.199-0.5,0.301-1.102,0.5-1.7c2.101-7.5,4.101-15,6.199-22.5c0.2-0.8,0.4-1.7,0.602-2.5c0.1-0.3,0.1-0.3,0.398-0.3
			c0.2,0,0.5-0.1,0.801,0c-0.101,0.3-0.199,0.6-0.301,0.9c-2.398,8.6-4.699,17.101-7.1,25.7v0.1c-0.102,0.2,0,0.301,0.199,0.4
			c0.5,0.1,0.899,0.2,1.399,0.3C266.7,55.6,266.6,55.5,266.5,55.5z"/>
		<path fill="#F1C250" d="M324.8,56c0.601-0.2,1.2-0.3,1.9-0.5c0.1,0,0.2-0.1,0.3-0.2c0-0.1,0-0.2,0-0.2c-0.3-1.199-0.6-2.3-0.9-3.5
			c-1.5-5.6-3-11.1-4.5-16.7c-0.6-2.1-1.199-4.3-1.699-6.4c0-0.1,0-0.1,0-0.2c0.301,0,0.601,0,0.899,0.1
			c0.101,0,0.101,0.1,0.101,0.2s0,0.3,0.101,0.4c0,0.2,0,0.3,0.2,0.5c0.1,0,0.1,0.1,0.1,0.2c1.102,4.1,2.2,8.2,3.2,12.3
			c1.2,4.5,2.399,8.9,3.5,13.4c0.101,0.398,0.101,0.398-0.3,0.5c-0.801,0.3-1.5,0.3-2.301,0.3C325.1,56,325,56,324.8,56L324.8,56
			L324.8,56z"/>
		<path fill="#F1C250" d="M296.2,29.7L296.2,29.7C296.1,29.9,296.1,30,296.1,30c0,8.3,0,16.5,0,24.8c0,0.101,0,0.2,0,0.2
			c0,0.1,0,0.1,0.102,0.1c0,0-0.102,0.102-0.102,0c0-0.1,0-0.199,0-0.3c0-6.7,0-13.5,0-20.2c0-2.5,0-4.9,0-7.4c0-0.1,0-0.2,0-0.4
			c0.5,0.4,0.801,0.8,1.2,1.3c-0.3,0.2-0.6,0.4-0.899,0.7c-0.199,0.1-0.199,0.2-0.301,0.4C296.1,29.4,296.2,29.6,296.2,29.7z"/>
		<path fill="#F1C250" d="M295.8,29.1c-0.3-0.3-0.7-0.6-1.1-0.9c0.399-0.4,0.7-0.8,1.1-1.2C295.8,27.8,295.8,28.4,295.8,29.1z"/>
		<path fill="#B6832C" d="M266.5,55.5c0.1-0.1,0.2,0,0.2-0.1c0.1,0,0.2,0,0.3,0.1C266.9,55.5,266.7,55.6,266.5,55.5z"/>
		<path fill="#C9B22D" d="M264.9,55.8C264.9,55.8,264.9,55.7,264.9,55.8c0.1-0.1,0.1-0.1,0.199,0C265.1,55.8,265,55.8,264.9,55.8z"
			/>
		<path fill="#BD9F2F" d="M326.9,56.2L326.9,56.2c-0.102,0.1-0.102,0.1-0.2,0C326.7,56.2,326.8,56.2,326.9,56.2z"/>
		<path fill="#A8842E" d="M324.8,56C324.8,56,324.9,56,324.8,56c0,0.1-0.1,0.1-0.1,0S324.8,55.9,324.8,56z"/>
		<path fill="#877B30" d="M309.6,23.5L309.6,23.5C309.7,23.4,309.7,23.5,309.6,23.5C309.7,23.6,309.7,23.6,309.6,23.5z"/>
		<path fill="#D0A22B" d="M309.6,23.5C309.7,23.5,309.7,23.5,309.6,23.5c0.102,0,0.102,0,0.2,0H309.6
			C309.6,23.6,309.6,23.6,309.6,23.5z"/>
		<path fill="#037C5A" d="M291.8,70.6c-0.1,0.301-0.3,0.5-0.6,0.5S290.7,71,290.6,70.7c-0.1-0.101-0.1-0.2,0.102-0.2
			C291.1,70.4,291.5,70.5,291.8,70.6z"/>
		<path fill="#037C5A" d="M316.8,68.8c-0.3,0.101-0.6,0.2-0.899,0.101c-0.101,0-0.199,0-0.199-0.101c0-0.1,0.1-0.2,0.199-0.2
			C316.1,68.3,316.6,68.4,316.8,68.8z"/>
		<path fill="#037C5A" d="M300.5,70.1c-0.4,0-0.4-0.1-0.4-0.398c0-0.4,0.2-0.801,0.602-1.102c0.199-0.199,0.3-0.199,0.5,0
			c0.199,0.2,0.398,0.4,0.5,0.7c0,0.101,0,0.2,0,0.3c-0.102,0.2-0.2,0.301-0.4,0.301C301,70,300.7,70.1,300.5,70.1z"/>
		<path fill="#037C5A" d="M300.4,61.6c-0.102,0-0.2-0.1-0.2-0.199c0-0.199,0.1-0.301,0.2-0.301c0.1,0,0.199,0.102,0.199,0.301
			C300.7,61.5,300.5,61.6,300.4,61.6z"/>
		<path fill="#037C5A" d="M300.9,61.5c0.1,0,0.199,0.1,0.1,0.1c0,0.102-0.1,0.102-0.2,0.102c-0.1,0-0.1,0-0.1-0.102
			C300.8,61.5,300.8,61.4,300.9,61.5z"/>
		<path fill="#E8F1F1" d="M284.5,17.3c-0.1,0-0.2,0-0.1-0.1c0-0.1,0.1-0.1,0.199-0.1c0.101,0,0.199,0,0.101,0.1
			C284.7,17.3,284.6,17.3,284.5,17.3z"/>
		<path fill="#DDEAE9" d="M282.7,18.6C282.7,18.7,282.6,18.7,282.7,18.6c-0.2,0.1-0.2,0.1-0.2,0s0.1-0.1,0.2-0.1
			C282.7,18.5,282.7,18.5,282.7,18.6z"/>
		<path fill="#E0E8E8" d="M314.2,20c0,0.1-0.101,0.1-0.101,0.1c-0.101,0-0.199,0-0.199-0.1s0-0.1,0.1-0.1
			C314.2,19.9,314.2,19.9,314.2,20z"/>
		<path fill="#D4DFDF" d="M313.1,21.1c0,0.1-0.1,0.1-0.1,0.1c-0.1,0-0.2,0-0.2-0.1S312.9,21,312.9,21C313,21,313.1,21,313.1,21.1z"
			/>
		<path fill="#CED4D4" d="M282.9,15.5c0.1,0,0.199,0.1,0.199,0.2c0,0,0,0.1-0.101,0C282.9,15.7,282.9,15.6,282.9,15.5L282.9,15.5z"
			/>
	</g>
</g>
<g>
	<path fill="#037C5A" d="M198.2,48.2c-0.101,0.8-0.2,1.7-0.3,2.5c-0.102,1,0,2.1,0.3,3.1c0.5,1.7,1.6,2.5,3.3,2.5
		c1.5,0,2.8-0.3,4.1-1c2.102-1.1,3.9-2.5,5.7-4c0.5-0.399,1-0.899,1.5-1.3c0.3-0.2,0.5-0.5,0.7-0.8c0.6-0.8,0.7-1.7,0.2-2.601
		c-0.601-1.101-1.101-2.301-1.7-3.399c-0.4-0.7-0.6-1.4-0.4-2.2c0.102-0.3,0.102-0.7,0.102-1.1c0.6,0.3,0.898,0.699,1.3,1.1
		s0.8,0.7,1.2,1.1c0,0.102-0.102,0.2-0.102,0.2c-0.199,0.2-0.6,0.3-0.6,0.601s0.3,0.5,0.4,0.801c1.398,2.5,1.199,5,0,7.5
		c-0.102,0.1-0.2,0.3-0.301,0.398c-1.899,1.9-3.899,3.801-6.301,5.2c-1.3,0.8-2.699,1.5-4.3,1.8c-0.8,0.2-1.7,0.2-2.5,0
		c-1.3-0.199-2.2-1-2.8-2.1c-0.7-1.2-0.9-2.6-0.801-3.9c0.101-1.6,0.399-3.1,1-4.5C198.2,48,198.3,48,198.2,48.2z"/>
	<path fill="#037C5A" d="M191.1,53.8c-0.1-2.1-0.199-4.1-0.398-6.1c-0.2-3-0.5-6-0.7-9c-0.3-3.1-0.601-6.1-1-9.1
		c-0.101-1-0.2-2-0.399-3c-0.101-0.6,0-1.2,0.199-1.8c0.102-0.3,0.301-0.5,0.602-0.5c0.3,0,0.398,0.2,0.5,0.4c0.8,1.5,1.5,3,1.8,4.6
		c0,0.1,0,0.3,0.101,0.5c-0.5-0.2-0.801-0.6-1.4-0.6c-0.1,0.6,0.101,1.2,0.101,1.8c0.3,3.3,0.7,6.6,1,9.8
		c0.2,2.101,0.5,4.2,0.601,6.4c0.199,2,0,4-0.699,5.899C191.4,53.3,191.4,53.6,191.1,53.8z"/>
	<path fill="#037C5A" d="M222.9,28.2c-0.5-0.3-0.801-0.7-1.301-0.7c-0.101,0.1-0.101,0.3-0.101,0.4c0.3,3.1,0.7,6.2,1,9.4
		c0.3,2.601,0.601,5.101,0.8,7.7c0.2,1.9,0,3.8-0.699,5.7c-0.101,0.2-0.199,0.399-0.301,0.6c0,0-0.1,0-0.199,0.101
		c-0.101-1-0.101-1.899-0.199-2.899c-0.102-3.101-0.4-6.2-0.7-9.3c-0.4-4.3-0.9-8.7-1.5-13c-0.101-0.8-0.4-1.6-0.101-2.5
		c0.101-0.2,0.101-0.4,0.301-0.6c0.3-0.3,0.699-0.3,0.898,0C221.7,24.7,222.5,26.3,222.9,28.2z"/>
	<path fill="#037C5A" d="M165.4,41.3c0-0.899,0.4-1.5,1.2-1.899c1.801-1,3.5-2,5.301-3c2.5-1.5,5-2.9,7.601-4.4
		c0.101-0.1,0.2-0.1,0.3-0.2c0.2-0.1,0.4-0.2,0.602,0.1c0.199,0.2,0.199,0.5,0,0.7c-0.2,0.2-0.4,0.3-0.602,0.4
		c-4.3,2.4-8.6,4.9-12.898,7.3c-0.2,0.102-0.4,0.2-0.602,0.4c-0.3,0.199-0.4,0.398-0.3,0.699c0,0.301,0.3,0.301,0.5,0.399
		c0.3,0.101,0.5,0.2,0.7,0.4c0.1,0.2,0.1,0.399,0,0.6c-0.102,0.2-0.301,0.2-0.5,0.2C165.8,42.9,165.4,42.4,165.4,41.3z"/>
	<path fill="#037C5A" d="M156.4,30.5c1.1-0.8,2.3-1.5,3.3-2.6c-1.3-0.2-2.5-0.1-3.7,0.3c-0.2,0.1-0.5,0.3-0.7,0.1
		c-0.2-0.2-0.1-0.5,0-0.8c0.1-0.5,0.4-1,0.8-1.3c1.3-0.9,2.8-1.2,4.4-0.7c0.6,0.2,0.6,0.3,0.6,0.9c-0.3,2.6-1.6,3.8-4.3,4.3
		C156.5,30.7,156.4,30.8,156.4,30.5z"/>
	<path fill="#037C5A" d="M169.9,28.4c0.1-0.9,0.1-1.9,0.199-2.8c0-0.4,0.101-0.7,0.199-1.1c0.2-0.5,0.5-0.7,1-0.7
		c0.4,0,0.9,0.3,1,0.7c0.102,0.3,0,0.4-0.3,0.5s-0.601,0.1-0.8,0c-0.4-0.1-0.5,0.1-0.602,0.4c-0.1,0.5-0.1,1.1-0.1,1.6
		c0,1,0.199,2,0,3c0,0.2,0.1,0.5-0.2,0.6s-0.5-0.2-0.601-0.5c-0.199-0.4-0.399-0.8-0.6-1.2c-0.199-0.4-0.4-0.7-0.601-1.1
		c-0.2-0.3-0.399-0.5-0.8-0.6c-0.4-0.1-0.9-0.2-1.2-0.4c-0.6-0.3-0.9-0.9-0.7-1.3c0.2-0.4,0.801-0.5,1.4-0.4
		c0.398,0.1,0.699,0.4,0.898,0.7c0.5,0.7,0.9,1.4,1.4,2.1C169.6,28.1,169.6,28.3,169.9,28.4z"/>
	<path fill="#037C5A" d="M212.9,29c-0.5-0.1-0.7-0.4-0.9-0.7c-0.3-0.5-0.6-1-0.8-1.5c-0.2-0.4-0.4-0.6-0.9-0.6
		c-0.399,0-0.899,0-1.3-0.2c-0.5-0.2-0.7-0.6-0.7-1c0.101-0.4,0.601-0.7,1.101-0.7c0.399,0,0.801,0.3,1.101,0.5
		c0.601,0.5,1,1.2,1.399,1.9c0.101,0.2,0.101,0.4,0.399,0.5c0.101-1,0.2-1.9,0.2-2.9c0-0.4,0.1-0.8,0.3-1.2
		c0.4-0.5,1.101-0.6,1.601-0.2c0.301,0.3,0.301,0.5-0.101,0.7c-0.2,0.1-0.399,0.1-0.6,0.2c-0.4,0.1-0.4,0.1-0.4,0.8
		C213.2,26,213.2,27.5,212.9,29z"/>
	<path fill="#037C5A" d="M237.8,37.4c-0.2,0-0.399,0-0.5-0.3c0-0.2,0.101-0.3,0.2-0.4c0.1-0.1,0.3-0.2,0.4-0.2
		c2.6-1.5,5.199-2.9,7.699-4.4c0.199-0.1,0.399-0.2,0.601-0.3c0.2-0.1,0.399,0,0.5,0.2c0.1,0.2,0.1,0.4-0.101,0.6
		c-0.101,0.1-0.301,0.2-0.399,0.2c-2.601,1.4-5.101,2.8-7.7,4.2C238.3,37.2,238,37.3,237.8,37.4z"/>
	<path fill="#037C5A" d="M216.9,33.8c0,0.3-0.2,0.4-0.4,0.5c-1,0.6-2,1.2-2.9,1.8c-1.6,1-3.3,2-4.898,3
		c-0.301,0.2-0.5,0.301-0.801,0.4c-0.199,0-0.301,0-0.399-0.2s0-0.3,0.2-0.399c0.1-0.101,0.3-0.199,0.398-0.301
		c2.602-1.6,5.2-3.3,7.9-4.898c0.2-0.1,0.4-0.3,0.6-0.3C216.7,33.3,216.9,33.5,216.9,33.8z"/>
	<path fill="#037C5A" d="M225.6,25.8c-0.3,0-0.5,0-0.6-0.3c0-0.2,0.1-0.3,0.3-0.4c0.101,0,0.2-0.1,0.4-0.1c2.6-0.9,5.1-1.9,7.7-2.8
		c0.1-0.1,0.3-0.1,0.398-0.1c0.2,0,0.4,0,0.5,0.2c0.102,0.2,0.102,0.5-0.199,0.6c-0.101,0.1-0.301,0.1-0.399,0.2
		c-2.5,0.9-5.101,1.7-7.601,2.6C226,25.8,225.8,25.9,225.6,25.8z"/>
	<path fill="#037C5A" d="M231.3,29.8c-0.399,0.6-0.899,1.1-1.399,1.6c-0.199,0.2-0.399,0.1-0.5,0c-0.601-0.5-1.199-1-1.899-1.5
		c-0.2-0.2-0.2-0.3,0-0.5c0.399-0.4,0.7-0.8,1.101-1.1c0.199-0.2,0.301-0.2,0.5,0C229.8,28.7,230.6,29.2,231.3,29.8z"/>
	<path fill="#037C5A" d="M198.6,31c0.801,0.4,1.5,0.8,2.301,1.3c0.199,0.1,0.199,0.3,0.101,0.4c0,0,0,0,0,0.1
		c-0.3,0.5-0.399,1.1-0.8,1.6c-0.602-0.1-1.102-0.5-1.602-0.7c-1.1-0.6-1-0.3-0.5-1.5C198.2,31.8,198.4,31.4,198.6,31z"/>
	<path fill="#037C5A" d="M202.2,30c0.8,0.4,1.5,0.8,2.2,1.2c0.3,0.1,0.3,0.3,0.199,0.6c-0.199,0.4-0.399,0.9-0.601,1.3
		c-0.101,0.3-0.2,0.4-0.5,0.2c-0.601-0.3-1.2-0.7-1.899-1c-0.301-0.1-0.301-0.3-0.199-0.5C201.7,31.2,202,30.7,202.2,30z"/>
	<path fill="#037C5A" d="M139.5,36.8c0,0.6,0,1.3,0,1.9c0,0.3,0,0.5,0,0.8c0.1,1.5,0.5,1.7,1.8,1c0.1,0,0.1,0,0.3-0.1
		c0,0.699-0.2,1.199-0.6,1.699c-0.5,0.601-1,0.601-1.5,0s-0.6-1.301-0.6-2C138.9,38.9,139.1,37.8,139.5,36.8
		C139.4,36.7,139.5,36.7,139.5,36.8z"/>
	<path fill="#037C5A" d="M177.1,58.8c-0.6,0.601-1.398,1-2.3,0.9c-0.899-0.101-1.2-0.601-0.899-1.4c0.101-0.2,0.199-0.399,0.399-0.7
		c-0.3-0.199-0.7-0.3-0.8-0.6c0-0.1,0-0.3,0-0.5c0.1-0.4,0.4-0.6,1.1-0.6c0,0.398-0.1,0.699,0.301,1
		c0.301,0.199,0.199,0.5,0.101,0.699c-0.101,0.199-0.3,0.399-0.399,0.699c-0.301,0.4-0.101,0.7,0.399,0.7c0.399,0,0.8-0.101,1.2-0.2
		c0.199-0.1,0.5-0.1,0.699-0.199S177.2,58.6,177.1,58.8z"/>
	<path fill="#037C5A" d="M136.9,47.2c0.2,0.8,0.3,1.6,0.2,2.399c-0.4,0-0.5-0.199-0.6-0.399c-0.2-0.2-0.3-0.5-0.4-0.7
		c-0.3-0.7-0.7-1.2-1.6-1.2c-0.4,0-0.7-0.2-0.9-0.5c-0.3-0.399-0.1-0.8,0.3-0.899c0.5-0.199,0.9,0,1.2,0.399
		c0.5,0.601,1,1.2,1.4,1.8c0.3,0.102,0.2-0.1,0.2-0.199C136.7,47.6,136.4,47.2,136.9,47.2z"/>
	<path fill="#037C5A" d="M177.3,24.4c0,0.4-0.1,0.7-0.1,1.1c-0.101,1,0.2,1.2,1.2,1c0.1,0,0.199,0,0.3-0.1c0,0.6-0.3,1.1-0.8,1.3
		c-0.602,0.2-1.2-0.2-1.301-0.9c-0.101-0.4,0-0.7,0-1.1c0.101-0.6,0.301-1.2,0.601-1.8C177.5,24,177.3,24.3,177.3,24.4z"/>
	<path fill="#037C5A" d="M164.5,32.4c-0.1,0.4-0.2,0.8-0.3,1.1c-0.2,0.9,0,1.1,0.9,1c0.1,0,0.2,0,0.3,0c0,0.1,0,0.1,0,0.2
		c-0.3,0.7-0.8,1-1.3,0.9c-0.4-0.1-0.7-0.7-0.6-1.4c0.1-0.7,0.4-1.4,0.8-2C164.5,32.2,164.6,32.3,164.5,32.4z"/>
	<path fill="#037C5A" d="M174,39.3c0,0.5,0,1,0,1.5c0,1,0.3,1.2,1.3,0.8c0,0,0.101,0,0.2,0c0.1,0.2,0,0.4-0.1,0.602
		c-0.2,0.5-0.602,0.8-1,0.8c-0.4,0-0.801-0.5-0.9-0.899c-0.1-0.5-0.1-1,0-1.5c0.1-0.399,0.1-0.801,0.3-1.199
		C173.9,39.2,173.9,39.2,174,39.3z"/>
	<path fill="#037C5A" d="M187.1,55c-0.1,0.4-0.3,0.8-0.398,1.3c-0.2,0.7,0,0.9,0.699,0.9c0.101,0,0.301,0,0.399,0c0,0.1,0,0.1,0,0.1
		c-0.3,0.7-0.8,1-1.3,0.8c-0.4-0.199-0.7-0.8-0.5-1.398c0.2-0.801,0.6-1.4,1.1-2C187.2,54.8,187.2,54.9,187.1,55z"/>
	<path fill="#037C5A" d="M154.8,45.3c-0.1,0.3-0.3,0.5-0.4,0.8c-0.3,0.7-0.1,0.9,0.6,1c0.1,0,0.3,0,0.3,0.102c0,0.1,0,0.1,0,0.1
		c-0.5,0.602-1,0.801-1.4,0.5c-0.4-0.199-0.5-0.898-0.2-1.5c0.2-0.5,0.5-0.898,0.9-1.3C154.9,45,154.9,45.1,154.8,45.3z"/>
	<path fill="#037C5A" d="M159.7,57.1c-0.1,0.2-0.2,0.4-0.2,0.602c-0.2,0.6-0.1,0.8,0.6,1c0.1,0,0.2,0,0.4,0c0,0.1,0,0.1,0,0.1
		c-0.4,0.602-1,0.9-1.4,0.602c-0.4-0.2-0.5-0.9-0.3-1.5c0.2-0.4,0.4-0.801,0.8-1.102c0.1,0,0.1-0.1,0.2-0.199l0,0
		c0.2,0,0.2,0,0.2,0.199c0,0.102,0,0.102-0.1,0.102C159.7,56.9,159.7,57,159.7,57.1z"/>
	<path fill="#037C5A" d="M236.6,48.6c0,0.2-0.1,0.5-0.1,0.7c-0.1,0.7,0.1,0.9,0.7,0.8c0.1,0,0.2-0.1,0.399,0
		c0,0.102-0.101,0.2-0.101,0.301c-0.3,0.5-0.7,0.699-1.101,0.601c-0.399-0.101-0.601-0.7-0.5-1.2c0.101-0.6,0.301-1.1,0.601-1.6
		C236.7,48.3,236.6,48.5,236.6,48.6z"/>
	<path fill="#037C5A" d="M143.7,57.2c0,0.1-0.1,0.2-0.1,0.3c-0.3,0.7-0.3,0.8,0.5,1c0,0.3-0.2,0.3-0.4,0.4c-0.5,0.3-0.8,0.1-0.9-0.5
		c0-0.2,0-0.5,0.1-0.7c0.1-0.3,0.3-0.5,0.5-0.8C143.7,57,143.8,57,143.7,57.2z"/>
	<path fill="#037C5A" d="M136.9,45.4v0.1c-0.1,0.3,0,0.7-0.1,1c0,0.2,0.1,0.4-0.2,0.4c-0.1-0.602-0.1-1.102,0-1.7
		c0.1-0.101,0-0.3,0.1-0.5l0,0c0,0,0.1-0.101,0.2-0.101c0,0,0.1-0.101,0.1,0c0.2-0.101,0.5-0.101,0.7,0l0,0
		c0.1,0.101,0.1,0.101,0.2,0.101l0,0c0,0.1,0.1,0.1,0.2,0.2l0,0c0.1,0.1,0.1,0.199,0,0.3l0,0C137.6,45.4,137.2,45.1,136.9,45.4z"/>
	<path fill="#037C5A" d="M154.4,35.9c-0.2,0.5,0.1,0.6,0.5,0.7c-0.2,0.3-0.5,0.5-0.8,0.3c-0.3-0.2-0.3-0.5-0.2-0.8
		c0.1-0.2,0.2-0.3,0.3-0.5C154.3,35.6,154.4,35.7,154.4,35.9z"/>
	<path fill="#037C5A" d="M136.6,46.9c0.2-0.2,0.1-0.5,0.1-0.7s-0.1-0.5,0.1-0.7c0,0.6,0,1.1,0,1.7c-0.2,0.2-0.1,0.5-0.2,0.7
		c-0.1,0.199-0.2,0.199-0.3,0C136.7,47.6,136.4,47.2,136.6,46.9z"/>
	<path fill="#037C5A" d="M225.4,56.3c0,0.101-0.102,0.3,0.1,0.4c0.1,0,0.3,0,0.2,0.2c0,0.1-0.101,0.199-0.2,0.199s-0.3,0-0.3-0.101
		c-0.2-0.3,0-0.5,0.1-0.8C225.4,56.1,225.4,56.1,225.4,56.3z"/>
	<path fill="#037C5A" d="M226.9,41.8c0.1,0.101,0.3,0.101,0.3,0.3c0,0.102-0.101,0.2-0.2,0.2c-0.2,0-0.3-0.1-0.3-0.2
		c0-0.1,0-0.3,0-0.398C226.7,41.6,226.8,41.6,226.9,41.8z"/>
	<path fill="#037C5A" d="M193.4,32.5c0.1,0.1,0.1,0.1,0.199,0.2c-0.199,0.2-0.399,0.2-0.601,0.3s-0.2,0-0.2-0.2
		C192.9,32.8,193.1,32.6,193.4,32.5z"/>
	<path fill="#037C5A" d="M154.8,45.3c0-0.1,0-0.3-0.2-0.3c0.1-0.2,0.3-0.4,0.5-0.5c0.1,0.1,0.1,0.2,0,0.2
		C155.1,45,155,45.2,154.8,45.3z"/>
	<path fill="#037C5A" d="M177.3,24.4c-0.1-0.1,0-0.4-0.2-0.5c0-0.2,0-0.3,0.301-0.4C177.5,23.9,177.5,24.2,177.3,24.4z"/>
	<path fill="#037C5A" d="M136.9,45.4c0.3-0.4,0.7-0.102,1.1-0.2C137.6,45.5,137.2,45.2,136.9,45.4z"/>
	<path fill="#037C5A" d="M226.9,41.8c-0.102-0.1-0.2-0.1-0.301-0.2c0-0.199,0.101-0.398,0.301-0.699
		C226.9,41.3,226.9,41.5,226.9,41.8z"/>
	<path fill="#037C5A" d="M210.2,58.5c0.1,0.1,0.1,0.1,0.2,0.2c-0.2,0.2-0.4,0.2-0.7,0.1C209.8,58.5,210,58.5,210.2,58.5z"/>
	<path fill="#037C5A" d="M159.8,56.8c-0.1-0.1-0.1-0.1-0.2-0.2c0.1-0.1,0.2-0.3,0.3-0.398c0.1,0,0.2,0,0.2,0.199
		C160,56.4,160,56.6,159.8,56.8z"/>
	<path fill="#037C5A" d="M154.4,35.9c-0.1-0.1-0.1-0.1-0.2-0.2c0.1-0.2,0.2-0.4,0.5-0.5l0,0C154.7,35.5,154.5,35.7,154.4,35.9z"/>
	<path fill="#037C5A" d="M160.1,56.3c0-0.1-0.1-0.1-0.2-0.2c0.1-0.199,0.2-0.3,0.4-0.398C160.4,56,160.3,56.1,160.1,56.3z"/>
	<path fill="#037C5A" d="M198.2,48.2C198.1,48.1,198.1,48.1,198,48c0-0.2,0.1-0.3,0.2-0.4C198.4,47.8,198.4,48,198.2,48.2z"/>
	<path fill="#037C5A" d="M143.7,57.2c-0.1-0.101-0.1-0.101-0.2-0.2c0.1-0.2,0.2-0.3,0.4-0.4C144,56.9,143.9,57,143.7,57.2z"/>
	<path fill="#037C5A" d="M205.7,36.6c0-0.1,0-0.2-0.2-0.3c0-0.1,0.1-0.3,0.2-0.2c0.1,0,0.1,0.2,0.1,0.3
		C205.8,36.4,205.7,36.5,205.7,36.6z"/>
	<path fill="#037C5A" d="M156.4,30.5c0.1,0.1,0.2,0.1,0.3,0.2c-0.1,0-0.2,0.1-0.3,0.1s-0.3,0-0.3,0
		C156.1,30.6,156.2,30.6,156.4,30.5z"/>
	<path fill="#037C5A" d="M164.5,32.4c-0.1-0.1-0.1-0.1-0.2-0.2c0.1-0.1,0.1-0.3,0.2-0.4C164.7,32.1,164.7,32.3,164.5,32.4z"/>
	<path fill="#037C5A" d="M236.6,48.6c0-0.1,0-0.3-0.199-0.3c0-0.1,0.101-0.2,0.101-0.3c0.101,0,0.2,0,0.2,0.2
		C236.7,48.3,236.7,48.5,236.6,48.6z"/>
	<path fill="#037C5A" d="M236.7,48.2C236.6,48.1,236.6,48.1,236.5,48c0-0.2,0.1-0.3,0.3-0.4C236.9,47.8,236.9,48,236.7,48.2z"/>
	<path fill="#037C5A" d="M225.4,56.3l-0.102-0.1c0-0.101,0.102-0.3,0.2-0.2C225.6,56,225.5,56.2,225.4,56.3z"/>
	<path fill="#037C5A" d="M187.1,55c0-0.1,0-0.3,0-0.4v-0.1c0.102,0,0.102,0,0.102,0.1C187.3,54.8,187.2,54.9,187.1,55z"/>
	<path fill="#037C5A" d="M137.6,44.6c-0.2,0-0.5,0-0.7,0C137.2,44.4,137.4,44.3,137.6,44.6z"/>
	<path fill="#037C5A" d="M192.7,32.9c0.1,0.1,0.1,0.1,0.2,0.2c-0.102,0.1-0.2,0.1-0.301,0.2c-0.199,0-0.199,0-0.199-0.2
		C192.5,33,192.6,32.9,192.7,32.9z"/>
	<path fill="#037C5A" d="M177.1,58.8c-0.1-0.1-0.1-0.1-0.199-0.2c0,0,0,0,0-0.1c0.101-0.1,0.301-0.2,0.399,0
		C177.4,58.6,177.2,58.7,177.1,58.8z"/>
	<path fill="#037C5A" d="M192.4,33c0.1,0.1,0.1,0.1,0.199,0.2c-0.101,0.1-0.301,0.1-0.5,0.1l0,0C192.2,33.2,192.3,33.1,192.4,33z"/>
	<path fill="#037C5A" d="M139.5,36.8L139.5,36.8c-0.1-0.1-0.1-0.3,0-0.3C139.6,36.4,139.5,36.6,139.5,36.8z"/>
	<path fill="#037C5A" d="M136.7,44.7c0,0.2,0,0.399-0.1,0.5C136.5,45,136.5,44.8,136.7,44.7z"/>
	<path fill="#037C5A" d="M174,39.3h-0.1c0-0.1,0-0.2,0.1-0.2C174,39,174,39.2,174,39.3z"/>
	<path fill="#037C5A" d="M138,45.2c0-0.101,0-0.2,0-0.3C138.1,45,138.1,45.1,138,45.2z"/>
	<path fill="#037C5A" d="M155.1,44.8c0-0.1,0-0.2,0-0.2l0.1-0.1C155.3,44.6,155.2,44.7,155.1,44.8z"/>
	<path fill="#037C5A" d="M192.1,33.3C192.1,33.3,192.1,33.4,192.1,33.3C192,33.4,192,33.4,192.1,33.3L192.1,33.3L192.1,33.3z"/>
	<path fill="#037C5A" d="M154.6,35.2l0.1-0.1C154.8,35.1,154.8,35.2,154.6,35.2L154.6,35.2z"/>
	<path fill="#037C5A" d="M138,44.9c-0.1,0-0.1-0.102-0.2-0.2C137.9,44.7,138,44.8,138,44.9z"/>
	<path fill="#037C5A" d="M159.7,57.1c0-0.1,0.1-0.1,0.1-0.199C159.8,57,159.7,57,159.7,57.1z"/>
	<path fill="#037C5A" d="M136.9,44.6c-0.1,0-0.1,0.102-0.2,0.102C136.7,44.6,136.8,44.6,136.9,44.6z"/>
	<path fill="#037C5A" d="M137.8,44.7c-0.1,0-0.1-0.101-0.2-0.101C137.7,44.6,137.8,44.6,137.8,44.7z"/>
	<path fill="#037C5A" d="M159.6,56.5c0,0.1-0.1,0.1-0.2,0.2C159.5,56.6,159.5,56.6,159.6,56.5z"/>
	<path fill="#037C5A" d="M185.8,46.8c-0.2-2-0.5-4-0.7-6c-0.3-2.4-0.6-4.7-0.898-7.1c-0.102-1.1-0.301-2.3-0.4-3.4
		c-0.1-0.3,0-0.4,0.4-0.4c0.3,0,0.6,0.1,1,0c-0.801-1.7-1.602-3.4-2.5-5.2c-0.801,1.1-0.9,1.7-0.801,2.7
		c0.301,2.5,0.601,4.9,0.899,7.4c0.601,5.4,1.3,10.7,2,16.101c0.2,1.199-0.2,2-1.2,2.5c-1.398,0.699-2.898,0.801-4.398,0.301
		c-0.5-0.2-0.9-0.5-1.2-0.9c-0.399-0.398-0.399-0.5,0.101-0.699c0.801-0.399,1.601-0.801,2.5-1.199
		c0.5-0.301,0.899-0.602,1.101-1.102c0.399-0.8,0.399-1.3-0.7-1.699c-2.4-0.801-4.9-1.101-7.5-0.801c-0.9,0.102-1.9,0.4-2.699,0.9
		c-0.9,0.6-1.4,1.398-1.4,2.6c2.101-0.699,3.5-0.3,4.4,1.2c-1.9,1.101-3.9,2.101-6.201,2.5c-0.5,0.101-1,0.101-1.5,0.101
		c-1.9-0.101-2.9-1.101-3.1-3c-0.1-1.5-0.3-3.101-0.4-4.699c-0.3-3.801-1.6-7.2-3.8-10.3c-0.1-0.2-0.3-0.5-0.7-0.8
		c0,0.9,0,1.6-0.1,1.9c0,0.4,0.1,0.7,0.2,1c1.4,3,2.4,6.3,3,9.6c0.1,0.4,0,0.7-0.2,1.101c-0.5,0.801-1.2,1.601-1.9,2.301
		c-1.9,1.8-4.1,3.199-6.5,4.398c-1.1,0.5-2.2,0.602-3.3,0.5c-0.9-0.1-1.5-0.6-1.8-1.398c-0.2-0.602-0.2-1.2-0.2-1.801
		c0-0.399,0.1-0.601,0.4-0.801c1.1-0.898,1.8-2,2.3-3.398c0.4-1.102,0.5-2.2,0.6-3.4c0.1-1.6-0.1-3.199-0.2-4.8
		c-0.3-4.2-0.7-8.3-1-12.5c0-0.2-0.1-0.4,0-0.6c0.4,0.1,0.6,0.5,1,0.5c0.1-0.2,0-0.3,0-0.4c-0.5-1.5-1.1-2.9-1.6-4.4
		c-0.1-0.2-0.1-0.5-0.4-0.5c-0.3,0-0.7,0.2-0.8,0.5s-0.1,0.6-0.1,0.9c0.1,1.4,0.3,2.8,0.4,4.2c0.2,2.3,0.5,4.7,0.7,7
		c0.2,2,0.3,4,0.5,6c0.2,2.1,0.3,4.3,0.4,6.5c0,0.398-0.1,0.6-0.4,0.898c-1.7,1.5-3.5,3-5.5,4.2c-1.5,0.9-3,1.7-4.7,2.2
		c-2.2,0.7-4.5,0.9-6.8,0.1c-2.3-0.8-3.4-2.3-3.3-4.8c0-1.5,0.5-3,1-4.399c0.1-0.399,0.3-0.699,0.3-1.101
		c-0.5,0.2-0.7,0.601-0.9,0.9c-1,1.7-1.7,3.5-1.6,5.5c0.1,2.899,1.8,6.399,6.3,6.5c2.1,0.1,4-0.3,5.9-1c2-0.8,4-1.9,5.8-3.101
		c0.3-0.199,0.6-0.5,1-0.699c0,0.398-0.1,0.6-0.1,0.898c-0.1,0.801-0.1,1.7,0.1,2.5c0.3,1.2,1,1.9,2.2,2.2c1.2,0.3,2.4,0.3,3.5-0.3
		c0.4-0.2,0.8-0.4,1.2-0.602c3.3-1.699,6.1-4.1,8-7.398c0.1-0.102,0.1-0.102,0.2-0.102c0.1,0.602,0.1,1.102,0.2,1.7
		c0.1,0.9,0.2,1.7,0.6,2.5c0.3,0.7,0.7,1.2,1.4,1.5c0.7,0.3,1.4,0.5,2.1,0.5c1.3,0,2.6-0.3,3.9-0.8c1.8-0.6,3.5-1.5,5.1-2.4
		c0.4-0.1,0.6-0.1,0.8,0.2c0.5,0.8,1.2,1.3,2,1.8c1.2,0.7,2.5,1,3.9,0.602c2-0.5,3.2-1.9,3.7-3.801C185.9,50.6,186,48.7,185.8,46.8z
		 M176.7,50.8c-0.7,0-1.2-0.399-1.601-1c-0.199-0.399-0.199-0.5,0.301-0.6c0.898-0.101,1.8,0.1,2.8,0.399
		C177.9,50.4,177.4,50.8,176.7,50.8z"/>
	<path fill="#037C5A" d="M246.9,47.6c0-0.3,0-0.5-0.102-0.8c-0.3-1.399-0.898-2.7-1.898-3.7c-1.602-1.6-3.7-1.3-4.801,0.7
		c-0.101,0.3-0.199,0.5-0.301,0.8c-0.5,1.9,0.301,3,2,3.2c1,0.2,2.102,0.101,3.102-0.1c0.3-0.101,0.699-0.2,0.898,0.2
		c0.2,0.3,0.2,0.699,0,1c-0.1,0.3-0.3,0.5-0.5,0.699c-2.3,2.699-5.1,4.801-8.398,6.301c-1.2,0.5-2.4,0.699-3.602,0.6
		c-1.5-0.2-2.5-1.1-2.898-2.6c-0.301-1-0.2-2.102,0-3.2c0-0.2,0.199-0.4,0.398-0.601C231.4,49.7,231.9,49.2,232.5,48.9
		c1-0.602,1.5-1.5,1.8-2.602c0.2-0.8,0.4-1.5,0.4-2.3c0-1-0.2-2-0.8-2.8c-0.602-0.7-1-1.5-1.5-2.2c-0.2-0.3-0.301-0.5,0-0.7
		c0.199-0.2,0.398-0.5,0.1-0.8c-0.6-0.6-1.3-1.2-2-1.8c-0.1,0.3-0.1,0.5-0.2,0.7c-0.2,0.7,0,1.3,0.3,2
		c0.801,1.701,1.801,3.3,2.801,4.9c0.301,0.4,0.399,0.801,0.301,1.301c-0.102,1-0.602,1.699-1.4,2.301c-0.8,0.5-1.6,1-2.398,1.5
		c-3.5,2.3-7.2,4.3-11,6.199c-2.801,1.399-5.801,2.601-8.7,3.899c0,0.101,0,0.2,0.2,0.5c2.1-0.399,4.199-0.899,6.398-1.2
		c1.602-0.199,2.9-0.8,4.301-1.5c2.601-1.398,5.199-2.898,7.699-4.6c0.2-0.2,0.4-0.4,0.7-0.4c0.101,0.301,0,0.5,0,0.801
		c-0.101,0.899-0.101,1.899,0,2.801c0.2,2.5,1.601,3.898,4.3,3.898c1.7,0,3.2-0.6,4.7-1.398c3.101-1.602,5.5-4,7.601-6.7
		C246.9,49.8,247.1,48.8,246.9,47.6z M241.7,45.3c-0.2,0-0.601-0.1-0.601-0.399c0-0.301,0.199-0.399,0.399-0.601
		c0.8-0.6,1.899-0.3,2.5,0.7C243.2,45.4,242.5,45.4,241.7,45.3z"/>
	<path fill="#037C5A" d="M205.4,36.5c-1.2,1.6-2.301,3.2-3.5,4.8c-0.301-0.1-0.5-0.3-0.7-0.5c-0.7-0.7-0.7-0.7-0.2-1.6
		c-0.9-0.601-1.8-1.1-2.8-1.7c-0.101,0.4,0,0.8-0.101,1.2c-0.101,0.5,0.101,0.899,0.399,1.3c0.7,0.8,1.399,1.7,2.101,2.5
		c0.301,0.3,0.301,0.5,0,0.8C199.2,45,198.9,46.9,199,49c0,0.2,0.1,0.4,0.1,0.5c0.301,1,1.102,1.4,2.102,1.1
		c0.699-0.199,1.398-0.6,2-1c0.8-0.5,1.3-1.199,1.398-2.1c0.102-0.5,0.2-1.1,0.2-1.6c0-1.5-0.399-2.7-1.7-3.602
		c-0.1,0-0.1-0.1-0.199-0.199c0.5-0.699,0.899-1.301,1.399-1.899c0.5-0.7,0.9-1.5,1.101-2.4c0.101-0.4,0.199-0.8,0.301-1.2
		C205.8,36.5,205.8,36.3,205.4,36.5z M204,46.1c0.1,0.301,0,0.5-0.1,0.7c-0.2,0.4-0.602,0.7-1,0.9c-0.602,0.399-1.301,0.5-1.9,0.6
		c-1,0-1.2-0.2-1.1-1c0.1-1.2,0.6-2.2,1.5-3c0.5-0.399,0.8-0.399,1.3,0C203.3,44.8,203.7,45.5,204,46.1z"/>
	<path fill="#037C5A" d="M203.4,25.6c-0.4-1.5-1.5-2.2-2.9-2.5c-0.4,0-0.7,0.2-0.8,0.6c-0.101,0.3,0,0.5,0.1,0.8
		c0.101,0.2,0.101,0.4,0,0.6c-0.3,0.6-0.2,1,0.4,1.4c0.2,0.1,0.5,0.2,0.6,0.5c-0.5,0.4-0.899,0.8-1.399,1.2c-1.899,1.6-4,3-6,4.3
		c-0.101,0.2,0,0.3,0.301,0.3c2.898-1.2,5.398-2.9,7.398-5.3c0.2-0.2,0.4-0.4,0.801-0.2c0.399,0.1,0.899,0.1,1.301-0.3
		C203.6,26.6,203.6,26.1,203.4,25.6z M200.8,25.9c-0.399,0-0.5-0.1-0.5-0.5s0.3-0.8,0.601-0.7c0.301,0,0.601,0.4,0.601,0.7
		C201.5,25.6,201.2,25.9,200.8,25.9z M202.1,26.2c-0.199,0-0.398-0.1-0.3-0.3c0-0.3,0.2-0.4,0.4-0.4s0.399,0.2,0.399,0.4
		C202.6,26.2,202.3,26.2,202.1,26.2z"/>
</g>
<g>
	<path fill="#C1A73D" d="M128.2,64.9h1.7l2.4,7.3l2.5-7.3h1.7v8.6h-1.2v-5.1c0-0.2,0-0.5,0-0.9s0-0.8,0-1.3l-2.5,7.3h-1.1l-2.4-7.3
		v0.3c0,0.2,0,0.5,0,1s0,0.7,0,1v5.1h-1.1V64.9L128.2,64.9z"/>
	<path fill="#C1A73D" d="M139.4,64.9h1.1V66.1h-1.1V64.9z M139.4,67.3h1.1v6.2h-1.1V67.3z"/>
	<path fill="#C1A73D" d="M143.5,67.2h1V68.1c0.3-0.398,0.6-0.6,0.9-0.8c0.3-0.2,0.7-0.2,1.1-0.2c0.9,0,1.5,0.301,1.8,0.9
		c0.2,0.3,0.3,0.8,0.3,1.5v4h-1.1v-4c0-0.4-0.1-0.7-0.2-0.9c-0.2-0.398-0.5-0.6-1-0.6c-0.2,0-0.5,0-0.6,0.1
		c-0.3,0.102-0.5,0.301-0.8,0.5c-0.2,0.2-0.3,0.4-0.3,0.602s-0.1,0.5-0.1,0.898V73.4h-1.1v-6.2H143.5z"/>
	<path fill="#C1A73D" d="M151.5,64.9h1.1V66.1h-1.1V64.9z M151.5,67.3h1.1v6.2h-1.1V67.3z"/>
	<path fill="#C1A73D" d="M156.2,71.5c0,0.4,0.1,0.6,0.3,0.8c0.3,0.3,0.7,0.5,1.4,0.5c0.4,0,0.7-0.1,1.1-0.3s0.5-0.4,0.5-0.8
		c0-0.3-0.1-0.5-0.4-0.601c-0.2-0.101-0.5-0.199-0.9-0.301l-0.9-0.1c-0.5-0.102-0.9-0.301-1.2-0.4c-0.5-0.3-0.7-0.699-0.7-1.199
		c0-0.601,0.2-1.101,0.7-1.399c0.4-0.4,1-0.601,1.7-0.601c1,0,1.6,0.301,2.1,0.801c0.3,0.398,0.4,0.699,0.4,1.1h-1
		c0-0.2-0.1-0.5-0.3-0.6c-0.3-0.301-0.7-0.4-1.3-0.4c-0.4,0-0.7,0.1-0.9,0.2c-0.2,0.2-0.3,0.399-0.3,0.6c0,0.3,0.1,0.5,0.4,0.7
		c0.2,0.1,0.4,0.2,0.7,0.3l0.7,0.2c0.8,0.2,1.3,0.4,1.6,0.5c0.4,0.3,0.6,0.7,0.6,1.3c0,0.601-0.2,1-0.6,1.4
		c-0.4,0.399-1.1,0.6-2,0.6s-1.6-0.2-2-0.6c-0.4-0.4-0.6-0.9-0.6-1.601L156.2,71.5L156.2,71.5z"/>
	<path fill="#C1A73D" d="M163.2,65.5h1.1v1.8h1v0.9h-1v4.1c0,0.2,0.1,0.4,0.2,0.4s0.2,0.1,0.4,0.1c0.1,0,0.1,0,0.2,0s0.1,0,0.2,0
		v0.8c-0.1,0-0.2,0.102-0.4,0.102c-0.2,0-0.3,0-0.4,0c-0.5,0-0.8-0.102-1-0.4s-0.3-0.6-0.3-1v-4.199h-0.9V67.2h0.8v-1.7H163.2z"/>
	<path fill="#C1A73D" d="M167.7,67.2h1v1.1c0.1-0.2,0.3-0.5,0.6-0.8S170,67,170.4,67h0.1c0,0,0.1,0,0.2,0v1.1
		c-0.101,0-0.101,0-0.2,0s-0.1,0-0.2,0c-0.5,0-0.899,0.2-1.2,0.5c-0.3,0.301-0.398,0.7-0.398,1.2V73.4H167.6L167.7,67.2L167.7,67.2z
		"/>
	<path fill="#C1A73D" d="M177,67.2h1.2c-0.101,0.399-0.5,1.3-1,2.8c-0.4,1.1-0.7,2-1,2.6c-0.601,1.602-1,2.602-1.3,2.9
		c-0.2,0.4-0.7,0.5-1.301,0.5c-0.101,0-0.301,0-0.301,0c-0.1,0-0.199,0-0.3-0.1v-1c0.2,0.1,0.3,0.1,0.399,0.1
		c0.101,0,0.199,0,0.199,0c0.2,0,0.301,0,0.4-0.1c0.1-0.102,0.199-0.102,0.199-0.2c0,0,0.101-0.2,0.201-0.5
		c0.1-0.3,0.199-0.5,0.299-0.601l-2.299-6.5h1.199l1.699,5.101L177,67.2z"/>
	<path fill="#C1A73D" d="M189.7,67.9c0.6,0.5,0.8,1.3,0.8,2.398c0,1-0.2,1.801-0.7,2.5c-0.5,0.7-1.2,1-2.3,1c-0.9,0-1.5-0.3-2-0.898
		c-0.5-0.602-0.8-1.4-0.8-2.4c0-1.1,0.3-1.9,0.8-2.5s1.2-0.9,2.1-0.9C188.5,67,189.2,67.3,189.7,67.9z M189.1,72
		c0.301-0.5,0.4-1.1,0.4-1.8c0-0.601-0.1-1.101-0.3-1.4c-0.3-0.6-0.8-0.899-1.5-0.899c-0.601,0-1.101,0.199-1.4,0.699
		c-0.299,0.5-0.399,1.101-0.399,1.801c0,0.699,0.1,1.199,0.398,1.699c0.301,0.399,0.7,0.699,1.4,0.699
		C188.3,72.8,188.8,72.5,189.1,72z"/>
	<path fill="#C1A73D" d="M193.7,65.3c0.2-0.399,0.7-0.5,1.399-0.5c0.101,0,0.101,0,0.199,0c0.102,0,0.2,0,0.2,0v1
		c-0.101,0-0.2,0-0.2,0h-0.1c-0.301,0-0.5,0.101-0.602,0.2c-0.1,0.1-0.1,0.6-0.1,1.3h1.1v0.8h-1.1v5.4h-1v-5.4h-0.9v-0.8h0.9v-1
		C193.5,65.8,193.6,65.5,193.7,65.3z"/>
	<path fill="#C1A73D" d="M207,70.9c0,0.699-0.1,1.3-0.3,1.699c-0.4,0.699-1.2,1.101-2.3,1.101c-0.602,0-1.2-0.2-1.7-0.5
		s-0.7-1-0.7-1.9v-0.6h1.1v0.6c0,0.5,0.102,0.8,0.301,1.101s0.5,0.399,1,0.399c0.601,0,1-0.2,1.199-0.6c0.102-0.3,0.2-0.8,0.2-1.5
		V65h1.2V70.9L207,70.9z"/>
	<path fill="#C1A73D" d="M211.1,67.2v4.2c0,0.3,0,0.6,0.102,0.8c0.199,0.399,0.5,0.6,1,0.6c0.699,0,1.199-0.3,1.5-1
		c0.1-0.399,0.199-0.8,0.199-1.399V67.3h1.101v6.3h-1V72.7c-0.101,0.2-0.3,0.399-0.5,0.6c-0.399,0.3-0.899,0.5-1.399,0.5
		c-0.899,0-1.5-0.3-1.801-0.899c-0.199-0.301-0.3-0.699-0.3-1.301v-4.3L211.1,67.2L211.1,67.2z"/>
	<path fill="#C1A73D" d="M218.7,71.5c0,0.4,0.1,0.6,0.3,0.8c0.3,0.3,0.7,0.5,1.4,0.5c0.398,0,0.699-0.1,1.1-0.3s0.5-0.4,0.5-0.8
		c0-0.3-0.1-0.5-0.4-0.601c-0.199-0.101-0.5-0.199-0.898-0.301l-0.9-0.199c-0.5-0.101-0.898-0.301-1.199-0.399
		c-0.5-0.3-0.699-0.7-0.699-1.2c0-0.6,0.199-1.1,0.699-1.4c0.399-0.398,1-0.6,1.699-0.6c1,0,1.602,0.3,2.102,0.8
		c0.3,0.4,0.398,0.7,0.398,1.101h-1c0-0.199-0.1-0.5-0.3-0.601c-0.2-0.3-0.7-0.399-1.3-0.399c-0.4,0-0.7,0.101-0.9,0.199
		c-0.199,0.2-0.3,0.4-0.3,0.602c0,0.3,0.101,0.5,0.399,0.699c0.199,0.101,0.399,0.199,0.699,0.301l0.7,0.199
		c0.8,0.199,1.3,0.399,1.601,0.5c0.399,0.301,0.601,0.699,0.601,1.301c0,0.6-0.2,1-0.601,1.398c-0.399,0.4-1.101,0.602-2,0.602
		s-1.601-0.2-2-0.602C218,72.7,217.8,72.2,217.8,71.5H218.7z"/>
	<path fill="#C1A73D" d="M225.7,65.5h1.1v1.8h1v0.9h-1v4.1c0,0.2,0.101,0.4,0.2,0.4s0.2,0.1,0.4,0.1c0.1,0,0.1,0,0.199,0
		c0.101,0,0.101,0,0.199,0v0.8c-0.1,0-0.199,0.102-0.398,0.102c-0.2,0-0.301,0-0.4,0c-0.5,0-0.8-0.102-1-0.4s-0.3-0.6-0.3-1v-4.199
		h-0.8V67.2h0.8V65.5L225.7,65.5z"/>
	<path fill="#C1A73D" d="M230.2,64.9h1.1V66.1h-1.1V64.9z M230.2,67.3h1.1v6.2h-1.1V67.3z"/>
	<path fill="#C1A73D" d="M238.4,67.6c0.398,0.301,0.699,0.9,0.8,1.801h-1c-0.101-0.399-0.2-0.699-0.4-1s-0.6-0.399-1.1-0.399
		c-0.7,0-1.2,0.3-1.4,1c-0.2,0.399-0.3,1-0.3,1.601s0.1,1.199,0.4,1.601c0.3,0.399,0.699,0.6,1.3,0.6c0.399,0,0.8-0.1,1-0.399
		c0.2-0.301,0.399-0.601,0.5-1.101h1c-0.101,0.8-0.4,1.4-0.9,1.8c-0.5,0.4-1.1,0.602-1.8,0.602c-0.8,0-1.5-0.301-2-0.9
		s-0.7-1.3-0.7-2.199c0-1.101,0.3-2,0.8-2.601s1.2-0.899,2-0.899C237.3,67,237.9,67.2,238.4,67.6z"/>
	<path fill="#C1A73D" d="M245.5,67.4c0.4,0.199,0.7,0.5,0.9,0.8c0.199,0.3,0.3,0.7,0.398,1.1c0.102,0.3,0.102,0.8,0.102,1.4H242.3
		c0,0.6,0.2,1.2,0.4,1.5c0.3,0.399,0.7,0.6,1.3,0.6c0.5,0,1-0.2,1.3-0.5c0.2-0.2,0.3-0.5,0.4-0.7h1c0,0.2-0.101,0.5-0.3,0.801
		c-0.2,0.301-0.301,0.5-0.5,0.699c-0.301,0.301-0.7,0.5-1.2,0.602c-0.3,0.1-0.5,0.1-0.9,0.1c-0.8,0-1.399-0.3-2-0.898
		c-0.5-0.602-0.8-1.4-0.8-2.4s0.3-1.8,0.8-2.5c0.5-0.6,1.3-0.9,2.101-0.9C244.6,67.1,245.1,67.2,245.5,67.4z M245.8,69.9
		c0-0.5-0.1-0.801-0.3-1.102c-0.3-0.5-0.8-0.8-1.4-0.8c-0.5,0-0.898,0.2-1.199,0.5s-0.5,0.8-0.5,1.3L245.8,69.9L245.8,69.9z"/>
</g>
</svg>
