<?xml version="1.0" encoding="utf-8"?>
<!-- Generator: Adobe Illustrator 22.0.1, SVG Export Plug-In . SVG Version: 6.00 Build 0)  -->
<svg version="1.1" id="Layer_1" xmlns="http://www.w3.org/2000/svg" xmlns:xlink="http://www.w3.org/1999/xlink" x="0px" y="0px"
	 viewBox="0 0 1000 1000" style="enable-background:new 0 0 1000 1000;" xml:space="preserve">
<style type="text/css">
	.st0{fill:#ED1C24;}
	.st1{fill:none;stroke:#FFFFFF;stroke-width:0.553;}
	.st2{fill:#FFFFFF;}
	.st3{fill:#231F20;}
	.st4{font-family:'Times-Roman';}
	.st5{font-size:34.9295px;}
	.st6{font-family:'TimesNewRomanPS-BoldMT';}
	.st7{font-size:27.2886px;}
</style>
<g>
	<path class="st0" d="M595.6,457.9c0,48.4-39.3,87.7-87.7,87.7c-48.4,0-87.7-39.3-87.7-87.7c0-48.4,39.3-87.7,87.7-87.7
		C556.3,370.2,595.6,409.5,595.6,457.9"/>
	<path class="st1" d="M507.8,370.6c-48.2,0-87.3,39.1-87.3,87.3c0,48.2,39.1,87.3,87.3,87.3c48.2,0,87.3-39.1,87.3-87.3
		C595.2,409.7,556.1,370.6,507.8,370.6L507.8,370.6z"/>
	<path class="st2" d="M590.2,484.7L590.2,484.7c-1,3.6-7.4,6.8-17.9,9.3c2.9-7.9,4.8-16.5,5.7-25.5c8-2,13.8-4.4,16.4-7.1
		C594,469.4,592.6,477.3,590.2,484.7L590.2,484.7z M552.8,531.9c-2.6,1.2-6.3,2.3-11.1,3.3c5.7-3.9,10.9-8.8,15.5-14.4
		c6.2-1.2,11.1-2.8,14.7-4.7C566.4,522.2,560,527.5,552.8,531.9L552.8,531.9z M529.3,541.8c3.2-1.3,6.3-2.8,9.2-4.6
		c2.7-0.5,5.1-1,7.3-1.5C540.6,538.3,535,540.4,529.3,541.8L529.3,541.8z M468.5,535c2.4,0.7,5.1,1.3,8.1,1.9
		c3.1,1.9,6.4,3.6,9.8,4.9C480.1,540.2,474.2,537.9,468.5,535L468.5,535z M443,515.2c3.7,2,8.7,3.6,15,5c4.6,5.7,9.8,10.6,15.5,14.6
		c-5.8-1.3-10.1-2.8-12.9-4.4C454,526.1,448.1,521,443,515.2L443,515.2z M437.8,468.4c0.9,8.9,2.8,17.5,5.6,25.4
		c-10.2-2.4-16.5-5.5-17.9-9.1c-2.4-7.4-3.9-15.3-4.2-23.5C424,464,429.8,466.4,437.8,468.4L437.8,468.4z M424.9,433.3
		C424.9,433.3,424.9,433.4,424.9,433.3c1.8,2.4,6.7,4.6,13.9,6.5c-1,5.9-1.5,11.9-1.5,18.1c0,3,0.1,6,0.4,8.9
		c-10.5-2.7-16.3-5.9-16.3-8.9C421.3,449.4,422.5,441.1,424.9,433.3L424.9,433.3z M458.1,387.2c0.7,0.8,2.5,1.7,5.1,2.6
		c-6,6.2-11.3,13.6-15.4,21.9c-5.4-1.6-8.8-3.2-9.5-4.6c-0.1-0.2-0.1-0.4-0.1-0.5C443.8,399.1,450.5,392.5,458.1,387.2L458.1,387.2z
		 M485.7,374.4c-0.1,0-0.1,0-0.2-0.1c0.3-0.1,0.6-0.2,0.9-0.3C486.2,374.2,485.9,374.3,485.7,374.4L485.7,374.4z M530.5,374.4
		c-0.1,0-0.2,0.1-0.2,0.1c-0.3-0.1-0.7-0.3-1-0.4C529.7,374.2,530.1,374.3,530.5,374.4L530.5,374.4z M577.8,407
		c0.1,0.3,0.1,0.5,0,0.8c-0.8,1.5-4.2,3.1-9.6,4.6c-4.2-8.5-9.5-16.1-15.6-22.4c2.6-0.9,4.4-1.8,5-2.7
		C565.3,392.6,572.2,399.3,577.8,407L577.8,407z M560.4,470.3c0.3-4,0.5-8.1,0.5-12.3c0-5-0.3-9.9-0.8-14.7
		c5.8-0.9,10.9-1.8,15.3-2.9c0.9,5.7,1.4,11.6,1.4,17.7c0,3.2-0.1,6.3-0.4,9.3C572,468.4,566.6,469.4,560.4,470.3L560.4,470.3z
		 M555.5,496.8c2.3-7.8,4-16.2,4.8-25.1c5.9-0.8,11.3-1.8,16.1-2.9c-0.9,9-2.9,17.6-5.9,25.5C566.1,495.3,561.1,496.1,555.5,496.8
		L555.5,496.8z M531.5,536.7c4.5-3.7,8.6-8.4,12.3-14c4.1-0.4,7.8-0.9,11.2-1.5c-5,5.9-10.7,10.9-17,14.7
		C536,536.2,533.8,536.5,531.5,536.7L531.5,536.7z M529.4,538.4c1.8-0.2,3.5-0.4,5.1-0.6c-3.8,2-7.7,3.5-11.8,4.7
		C524.9,541.4,527.2,540,529.4,538.4L529.4,538.4z M486.2,538.3c2.2,1.7,4.5,3.1,6.9,4.2c-4.3-1.2-8.4-2.8-12.3-4.9
		C482.5,537.8,484.3,538.1,486.2,538.3L486.2,538.3z M471.7,522.4c3.7,5.6,7.8,10.4,12.3,14.2c-2.4-0.3-4.6-0.6-6.7-1
		c-6.2-3.9-12-8.9-17-14.9C463.7,521.3,467.6,521.9,471.7,522.4L471.7,522.4z M455.4,471.7c0.8,8.9,2.5,17.3,4.8,25.1
		c-5.6-0.7-10.7-1.6-15.1-2.6c-2.9-7.9-4.9-16.5-5.8-25.4C444,469.9,449.5,470.9,455.4,471.7L455.4,471.7z M489.5,375.3
		c-0.5-0.1-1-0.2-1.4-0.3c1.7-0.6,3.3-1.2,5-1.6C491.9,374,490.7,374.6,489.5,375.3L489.5,375.3z M526.4,375.4
		c-1.2-0.8-2.5-1.4-3.8-2c1.8,0.5,3.6,1.1,5.3,1.7C527.4,375.2,526.9,375.3,526.4,375.4L526.4,375.4z M543,443.7
		c-0.6-8.9-1.7-17.4-3.3-25.2c4.8-0.5,9.4-1.1,13.6-1.7c2.5,7.7,4.3,16.2,5.3,25.1C553.8,442.7,548.6,443.3,543,443.7L543,443.7z
		 M539.5,498.4c1.6-7.7,2.8-16,3.4-24.8c5.5-0.5,10.9-1,15.9-1.7c-0.9,8.9-2.5,17.3-4.9,25.1C549.4,497.6,544.6,498,539.5,498.4
		L539.5,498.4z M532.2,522.1c2.8-6.4,5.1-13.9,7-22.2c4.9-0.3,9.7-0.8,14.2-1.3c-2.7,8.5-6.2,16.2-10.4,22.7
		C539.7,521.6,536.1,521.9,532.2,522.1L532.2,522.1z M523.1,537.5c3.1-3.6,5.9-8.3,8.4-13.8c3.7-0.2,7.1-0.5,10.4-0.8
		c-3.9,5.7-8.3,10.5-13.1,14.1C527,537.2,525.1,537.3,523.1,537.5L523.1,537.5z M521.7,539c1.6-0.1,3.2-0.2,4.7-0.3
		c-3.1,2-6.3,3.5-9.7,4.5C518.5,542.1,520.1,540.7,521.7,539L521.7,539z M493.9,539c1.6,1.7,3.3,3.1,5,4.2c-3.4-1-6.7-2.5-9.8-4.6
		C490.7,538.7,492.3,538.9,493.9,539L493.9,539z M484.1,523.5c2.5,5.6,5.3,10.3,8.4,13.9c-2-0.1-4-0.3-5.8-0.5
		c-4.8-3.6-9.2-8.5-13.1-14.3C476.9,523,480.4,523.3,484.1,523.5L484.1,523.5z M476.5,499.9c1.8,8.2,4.2,15.7,6.9,22.1
		c-3.8-0.3-7.5-0.6-10.9-1c-4.1-6.5-7.6-14-10.2-22.4C466.7,499.1,471.5,499.5,476.5,499.9L476.5,499.9z M472.8,473.6
		c0.6,8.8,1.8,17.1,3.4,24.8c-5.1-0.4-9.9-0.8-14.4-1.4c-2.4-7.8-4-16.2-4.9-25.1C461.9,472.6,467.2,473.1,472.8,473.6L472.8,473.6z
		 M476,418.4c-1.6,7.9-2.8,16.4-3.3,25.4c-5.6-0.5-10.8-1.1-15.6-1.8c1-9,2.9-17.6,5.4-25.4C466.7,417.2,471.2,417.8,476,418.4
		L476,418.4z M483.4,393.9c-2.9,6.6-5.3,14.4-7.1,23c-4.8-0.5-9.2-1.2-13.3-1.9c2.9-8.6,6.7-16.2,11.1-22.6
		C477,393,480.1,393.5,483.4,393.9L483.4,393.9z M493.4,377.5c-3.4,3.8-6.6,8.9-9.4,15c-3.2-0.4-6.2-0.9-9-1.4
		c4.4-6,9.3-10.8,14.7-14.2C490.9,377.1,492.1,377.3,493.4,377.5L493.4,377.5z M494.7,376.1c-1-0.1-2-0.3-3-0.4
		c2.3-1.3,4.7-2.3,7.2-3C497.5,373.6,496.1,374.8,494.7,376.1L494.7,376.1z M521.1,376.2c-1.4-1.4-2.8-2.6-4.3-3.5
		c2.5,0.7,5,1.8,7.3,3.1C523.2,375.9,522.2,376.1,521.1,376.2L521.1,376.2z M531.7,392.5c-2.8-6.1-5.9-11.2-9.3-15
		c1.3-0.2,2.6-0.4,3.8-0.6c5.3,3.4,10.3,8.2,14.6,14.2C538,391.7,534.9,392.1,531.7,392.5L531.7,392.5z M532.3,393.9
		c3.3-0.4,6.4-0.9,9.3-1.4c4.5,6.5,8.3,14.3,11.2,23c-4.1,0.6-8.6,1.2-13.4,1.7C537.6,408.4,535.2,400.6,532.3,393.9L532.3,393.9z
		 M524.1,418.3c-0.9-8.5-2-16.4-3.4-23.3c3.5-0.2,6.9-0.5,10.2-0.9c2.9,6.6,5.3,14.5,7.1,23.2C533.6,417.7,528.9,418,524.1,418.3
		L524.1,418.3z M525.8,444.9c-0.3-8.6-0.8-17.1-1.6-25.1c4.8-0.2,9.5-0.6,14.1-1c1.6,7.8,2.7,16.2,3.3,25.1
		C536.5,444.3,531.3,444.6,525.8,444.9L525.8,444.9z M523.9,499.2c0.8-7.8,1.4-16.1,1.8-24.6c5.4-0.2,10.6-0.5,15.8-0.9
		c-0.6,8.8-1.8,17.1-3.4,24.8C533.5,498.8,528.8,499.1,523.9,499.2L523.9,499.2z M520.3,522.6c1.4-6.4,2.6-13.9,3.5-21.9
		c4.7-0.2,9.3-0.4,13.9-0.7c-1.8,8.3-4.2,15.8-7,22.2C527.4,522.4,524,522.5,520.3,522.6L520.3,522.6z M515.7,537.8
		c1.6-3.6,3-8.3,4.3-13.7c3.5-0.1,6.9-0.2,10-0.4c-2.6,5.7-5.6,10.4-8.8,13.9C519.5,537.7,517.6,537.8,515.7,537.8L515.7,537.8z
		 M515,539.3c1.6,0,3.2-0.1,4.7-0.2c-2.5,2.3-5,3.9-7.7,4.7C513.1,542.7,514.1,541.2,515,539.3L515,539.3z M513.3,539.4
		c-1.5,2.9-3.1,4.7-4.7,5.1v-5C510.2,539.4,511.8,539.4,513.3,539.4L513.3,539.4z M502.4,539.4c1.5,0,3.1,0.1,4.7,0.1v5
		C505.5,544,503.9,542.3,502.4,539.4L502.4,539.4z M500.7,539.3c0.9,1.9,1.9,3.4,3,4.6c-2.7-0.8-5.3-2.4-7.7-4.8
		C497.5,539.2,499.1,539.3,500.7,539.3L500.7,539.3z M495.7,524c1.3,5.5,2.7,10.1,4.3,13.8c-1.9-0.1-3.8-0.2-5.6-0.3
		c-3.2-3.5-6.2-8.2-8.8-13.9C488.8,523.8,492.2,523.9,495.7,524L495.7,524z M491.9,500.7c0.9,8,2.1,15.4,3.5,21.8
		c-3.6-0.1-7.1-0.3-10.5-0.5c-2.8-6.3-5.1-13.8-6.9-22.1C482.4,500.3,487.1,500.6,491.9,500.7L491.9,500.7z M490,474.7
		c0.3,8.5,0.9,16.8,1.8,24.6c-4.9-0.2-9.6-0.4-14.1-0.7c-1.6-7.6-2.8-16-3.4-24.8C479.4,474.1,484.6,474.4,490,474.7L490,474.7z
		 M491.4,419.7c-0.8,8-1.3,16.6-1.6,25.2c-5.5-0.2-10.8-0.6-15.7-1c0.6-9,1.7-17.5,3.3-25.3C481.9,419,486.6,419.4,491.4,419.7
		L491.4,419.7z M495,395c-1.4,6.8-2.5,14.7-3.4,23.2c-4.8-0.3-9.5-0.7-13.9-1.1c1.8-8.6,4.2-16.4,7.1-23
		C488.1,394.4,491.5,394.8,495,395L495,395z M499.9,378.2c-1.8,4-3.3,9.2-4.6,15.4c-3.4-0.2-6.7-0.5-9.9-0.9
		c2.8-6.3,6.1-11.3,9.6-15C496.7,377.9,498.3,378,499.9,378.2L499.9,378.2z M500.6,376.8c-1.5-0.1-2.9-0.2-4.2-0.4
		c2.3-2.1,4.7-3.5,7.3-4.3C502.6,373.2,501.6,374.8,500.6,376.8L500.6,376.8z M507.1,377c-1.7,0-3.3-0.1-4.9-0.2
		c1.6-3.1,3.2-5,4.9-5.4V377L507.1,377z M513.5,376.9c-1.6,0.1-3.2,0.1-4.9,0.2v-5.5C510.2,371.9,511.9,373.8,513.5,376.9
		L513.5,376.9z M515.1,376.8c-1-2-2-3.6-3.1-4.7c2.5,0.8,5,2.3,7.3,4.4C518,376.5,516.6,376.7,515.1,376.8L515.1,376.8z
		 M515.8,378.2c1.6-0.1,3.3-0.3,4.9-0.4c3.5,3.6,6.8,8.7,9.6,15c-3.1,0.4-6.4,0.7-9.9,0.9C519.1,387.4,517.5,382.1,515.8,378.2
		L515.8,378.2z M508.6,394v-15.5c1.7,0,3.6-0.1,5.6-0.2c1.7,3.7,3.3,8.9,4.7,15.4C515.6,393.8,512.1,394,508.6,394L508.6,394z
		 M508.6,418.7v-23.2c3.5,0,7.1-0.1,10.6-0.4c1.4,6.6,2.6,14.4,3.5,23.2C518.1,418.5,513.4,418.7,508.6,418.7L508.6,418.7z
		 M508.6,445.3v-25.1c4.8,0,9.6-0.1,14.2-0.3c0.7,7.7,1.3,16.1,1.5,25.1C519.2,445.1,513.9,445.2,508.6,445.3L508.6,445.3z
		 M508.6,499.5V475c5.2,0,10.5-0.1,15.7-0.3c-0.3,8.9-0.9,17.1-1.7,24.5C518,499.4,513.4,499.5,508.6,499.5L508.6,499.5z
		 M508.6,522.7V501c4.5,0,9.1-0.1,13.8-0.2c-1,8.4-2.2,15.7-3.5,21.9C515.5,522.7,512.1,522.7,508.6,522.7L508.6,522.7z
		 M508.6,524.2c3.4,0,6.7,0,9.9-0.1c-1.3,5.7-2.8,10.4-4.4,13.7c-1.8,0-3.6,0.1-5.5,0.1V524.2L508.6,524.2z M507.1,524.2v13.7
		c-1.9,0-3.7,0-5.5-0.1c-1.6-3.4-3.1-8-4.4-13.8C500.4,524.2,503.7,524.2,507.1,524.2L507.1,524.2z M507.1,501v21.8
		c-3.5,0-6.9-0.1-10.2-0.1c-1.4-6.2-2.6-13.5-3.5-21.9C497.8,500.9,502.4,501,507.1,501L507.1,501z M507.1,475v24.5
		c-4.8,0-9.4-0.1-13.9-0.2c-0.8-7.5-1.4-15.7-1.7-24.6C496.6,474.9,501.9,475,507.1,475L507.1,475z M507.1,420.1v25.1
		c-5.4,0-10.7-0.1-15.8-0.3c0.3-9.1,0.8-17.5,1.6-25.2C497.5,420,502.3,420.1,507.1,420.1L507.1,420.1z M507.1,395.4v23.2
		c-4.8,0-9.5-0.2-14.1-0.4c0.9-8.8,2.1-16.6,3.5-23.2C500,395.3,503.6,395.4,507.1,395.4L507.1,395.4z M507.1,394
		c-3.5,0-7-0.1-10.3-0.3c1.4-6.5,3-11.6,4.7-15.4c2,0.1,3.9,0.2,5.6,0.2V394L507.1,394z M491.1,457.9c0-4,0.1-7.8,0.2-11.5
		c5.2,0.2,10.5,0.3,15.8,0.3v26.8c-5.4,0-10.7-0.1-15.7-0.3C491.2,468.3,491.1,463.2,491.1,457.9L491.1,457.9z M524.6,457.9
		c0,5.3-0.1,10.4-0.3,15.3c-5,0.2-10.3,0.3-15.7,0.3v-26.8c5.4,0,10.7-0.1,15.8-0.3C524.5,450.2,524.6,454,524.6,457.9L524.6,457.9z
		 M473.7,457.9c0-4.3,0.1-8.5,0.4-12.6c5.1,0.4,10.4,0.8,15.8,1c-0.1,3.9-0.2,7.7-0.2,11.6c0,5.1,0.1,10.2,0.3,15.3
		c-5.5-0.2-10.8-0.5-15.8-0.9C473.8,467.6,473.7,462.8,473.7,457.9L473.7,457.9z M542,457.9c0,4.9-0.2,9.7-0.5,14.4
		c-5,0.4-10.3,0.7-15.8,0.9c0.2-5.1,0.3-10.2,0.3-15.3c0-3.9-0.1-7.7-0.2-11.6c5.5-0.2,10.7-0.6,15.8-1
		C541.9,449.5,542,453.7,542,457.9L542,457.9z M456.2,457.9c0-5,0.3-9.8,0.7-14.6c4.9,0.7,10.1,1.3,15.6,1.8
		c-0.2,4.2-0.4,8.4-0.4,12.8c0,4.8,0.2,9.6,0.5,14.2c-5.7-0.5-11-1.1-15.9-1.7C456.4,466.4,456.2,462.2,456.2,457.9L456.2,457.9z
		 M559.5,457.9c0,4.3-0.2,8.4-0.5,12.5c-4.9,0.7-10.2,1.2-15.9,1.7c0.3-4.6,0.5-9.4,0.5-14.2c0-4.3-0.1-8.6-0.4-12.7
		c5.5-0.5,10.8-1.1,15.6-1.8C559.2,448.2,559.5,453,559.5,457.9L559.5,457.9z M575.2,438.9c-4.3,1.1-9.5,2.1-15.2,2.9
		c-1-8.9-2.8-17.4-5.3-25.1c4.8-0.8,9-1.7,12.6-2.6C571,421.7,573.7,430,575.2,438.9L575.2,438.9z M579,408.6
		c4.7,6.8,8.5,14.3,11.1,22.3c0.1,0.5,0,1.1-0.5,1.7c-1.6,2.1-6.2,4.2-12.9,5.9c-1.6-8.9-4.3-17.2-7.9-24.9
		C574.2,412.1,577.8,410.4,579,408.6L579,408.6z M566.7,412.7c-3.5,0.9-7.7,1.8-12.5,2.5c-2.9-8.7-6.7-16.4-11.1-23
		c3-0.6,5.6-1.2,7.8-1.8C557.2,396.6,562.5,404.2,566.7,412.7L566.7,412.7z M549.8,389.2c-2.1,0.6-4.6,1.2-7.6,1.7
		c-4.2-5.9-8.9-10.8-14.1-14.3c0.8-0.2,1.5-0.4,2.1-0.5C537.3,379.1,543.9,383.6,549.8,389.2L549.8,389.2z M556.2,386.2L556.2,386.2
		c0,0,0.1,0.1,0.1,0.1c-0.2,0.6-1.9,1.5-5,2.4c-5.8-5.7-12.3-10.3-19.4-13.5c0.1-0.1,0.3-0.2,0.4-0.3
		C541,377.5,549,381.3,556.2,386.2L556.2,386.2z M485.8,375.9c0.6,0.2,1.3,0.4,2,0.5c-5.2,3.5-10,8.4-14.2,14.3
		c-2.9-0.6-5.4-1.1-7.5-1.7C471.9,383.4,478.6,379,485.8,375.9L485.8,375.9z M483.5,374.9c0.1,0.1,0.2,0.2,0.4,0.3
		c-7.1,3.2-13.6,7.8-19.4,13.5c-2.9-0.9-4.8-1.7-5.1-2.3C466.6,381.3,474.8,377.4,483.5,374.9L483.5,374.9z M464.8,390.3
		c2.2,0.6,4.8,1.3,7.8,1.9c-4.4,6.5-8.1,14.1-11,22.6c-4.7-0.8-8.9-1.8-12.3-2.7C453.4,403.8,458.7,396.4,464.8,390.3L464.8,390.3z
		 M448.6,413.4c3.5,1,7.7,1.9,12.5,2.8c-2.6,7.9-4.4,16.4-5.4,25.5c-5.8-0.9-10.9-1.9-15.2-3C442.1,429.7,444.9,421.1,448.6,413.4
		L448.6,413.4z M425.6,431c2.7-8.3,6.6-16,11.6-22.9c1.1,1.6,4.7,3.4,10,5c-3.7,7.8-6.5,16.3-8.1,25.3c-6.9-1.8-11.5-3.9-13-5.9
		C425.7,431.9,425.5,431.4,425.6,431L425.6,431z M438.7,457.9c0-6.1,0.5-12,1.5-17.8c4.4,1.1,9.6,2.1,15.3,3
		c-0.5,4.8-0.8,9.8-0.8,14.8c0,4.2,0.2,8.3,0.5,12.3c-6.1-0.9-11.5-1.9-16.1-3C438.9,464.2,438.7,461.1,438.7,457.9L438.7,457.9z
		 M445.7,495.8c4.4,1,9.4,1.8,15,2.5c2.6,8.3,6,15.9,10,22.4c-4.4-0.5-8.3-1.2-11.9-2C453.5,512.1,449,504.3,445.7,495.8
		L445.7,495.8z M426.9,488.7c3.3,2.6,9.1,4.9,17.1,6.7c3.2,8.4,7.5,16.2,12.5,22.9c-8.3-1.9-14.1-4.4-17.1-7.5
		C434.2,504.2,430,496.7,426.9,488.7L426.9,488.7z M556.5,519.4c-3.5,0.7-7.4,1.2-11.7,1.7c4.1-6.6,7.5-14.2,10.2-22.7
		c5.4-0.7,10.4-1.5,14.9-2.4C566.5,504.7,562,512.6,556.5,519.4L556.5,519.4z M575.6,511.8c-3.1,3-8.7,5.4-16.9,7.1
		c5.2-6.8,9.6-14.7,12.9-23.3c7.6-1.7,13.6-3.9,17-6.6C585.4,497.3,581,505,575.6,511.8L575.6,511.8z M594.4,458
		c0,3.1-5.9,6.2-16.4,8.9c0.2-3,0.4-5.9,0.4-9c0-6.2-0.5-12.2-1.5-18c7.1-1.9,12-4.1,13.8-6.4c0,0,0-0.1,0.1-0.1
		C593.2,441.2,594.4,449.4,594.4,458C594.4,458,594.4,458,594.4,458L594.4,458z M595.9,458C595.9,458,595.9,458,595.9,458
		c0-9.6-1.6-18.9-4.4-27.5c0,0,0-0.1,0-0.1l0,0c-2.9-8.7-7.1-16.8-12.4-24.1c-0.1-0.1-0.1-0.2-0.2-0.3l0,0
		c-16-21.9-41.9-36.1-71-36.1c-18.3,0-35.3,5.6-49.4,15.2l0,0c-0.1,0.1-0.2,0.2-0.3,0.3c-8,5.5-15.1,12.3-20.9,20.2l-0.1,0
		c-0.1,0.1-0.1,0.3-0.2,0.4c-5.4,7.4-9.7,15.7-12.7,24.6l0,0c0,0,0,0.1,0,0.1c-2.8,8.6-4.4,17.8-4.4,27.4c0,9.5,1.5,18.6,4.3,27.2h0
		c0,0,0,0.1,0.1,0.1c3,9.3,7.6,17.9,13.3,25.5l-0.1,0c0.3,0.3,0.6,0.7,0.9,1c5.6,7.2,12.2,13.5,19.7,18.7l0,0
		c0.5,0.4,1.1,0.7,1.7,1.1c13.8,9.1,30.4,14.4,48.2,14.4c16.8,0,32.5-4.7,45.8-12.9c1.8-0.8,3.1-1.7,3.9-2.5v0
		c7.2-5,13.7-11,19.1-17.8c0.6-0.6,1.1-1.2,1.6-1.9l-0.1,0C589.3,496.1,595.9,477.8,595.9,458C595.9,458,595.9,458,595.9,458"/>
	<path class="st2" d="M449.7,402.9c0.4,0.1,0.7,0.2,1.1,0.3c-0.1,0.5-0.6,1-1,1.2c-0.2,1.7,1.1,2.2,1.2,3.7c0.8-0.5,0.9,0.1,0.9,0.6
		c-0.3,0.6-1.2,0.9-0.8,1.6c-2.2,0.9-3.9,0.2-5.7,1.5c0.2-0.8,1.4-1.3,2.1-2c-0.3,0-0.6,0-0.9,0c-0.2-0.3,0.4-0.8,0.9-1.2
		c-0.2-0.1-0.1-0.4,0-0.5c1.1,0,0.7-1,1-1.6c-0.7,0-1-0.5-1.2-0.9c0.3-1.2,0.8-2.4,1.9-3.4c0.3,0,0.6,0,0.9-0.1
		C449.9,402.3,449.8,402.6,449.7,402.9"/>
	<path class="st2" d="M562.4,415.7c0.7,0.8,1-0.3,1.3,0.9c0.1,1.2-0.9,0.7-0.8,2.1c-0.8-0.3-1.2-1.4-1.7-2.1
		c0.1-0.1,0.2-0.1,0.3-0.2c-0.5-0.8-1.2-1.2-1.5-2.1C560.5,414.3,561.6,414.6,562.4,415.7"/>
	<path class="st2" d="M567.2,423.5c0.6,0.4,1.4,1.3,1.2,1.9c0,1.3-1.8-0.6-1,1.6c-0.5,0-1.1,0.1-1.8-0.9c-0.7,0-0.3,1.1-1.2,0.8
		c-0.2-2.2,1.8-1.6,0.3-4.4c0.3,0.2,0.8,0.5,1.1,0.7c-0.1-1.6-1.2-2.1-2.2-3.5c-0.4-0.7-0.6-1.3,0.2-1.1
		C565.2,420.4,566.6,421.3,567.2,423.5"/>
	<path class="st2" d="M469.1,392.2c0,0,0-0.1,0-0.1C469.1,392.1,469.1,392.1,469.1,392.2"/>
	<path class="st2" d="M456.5,420.6c-0.2,0-0.4,0-0.6,0c-0.2-0.7,0.2-1.4,0.6-1.9C456.8,419.1,456.8,420.3,456.5,420.6"/>
	<path class="st2" d="M456.9,422.2c0,0.9-0.5,1.4-1,2c-0.2,0-0.5,0-0.7,0C454.9,423,456.2,419.6,456.9,422.2"/>
	<path class="st2" d="M566.4,428c0,0.3-0.1,0.5-0.4,0.3c-0.4-0.2-0.3-0.7-0.5-1.1C565.5,426.3,566.8,427.4,566.4,428"/>
	<path class="st2" d="M566,429.5c0.1,0.3,0.3,0.7,0,0.7c-0.8-0.5-1.6-2.1-2.4-2.2c-0.3-0.5,0-0.6,0.2-0.9
		C564.9,426.9,565.3,428.5,566,429.5"/>
	<path class="st2" d="M450.7,423.4c0.1,0.7-0.5,0.7-0.7,0.9c-0.1,0-0.2,0-0.3,0c0.1-0.4,0.2-0.7,0.3-1.1
		C450.2,423.2,450.6,423.2,450.7,423.4"/>
	<path class="st2" d="M462.3,425c0.1,0.5,0.2,1.5-0.4,2c-1,0.2-1.5-1-2.4-1.3C460.1,424.7,461.6,424.1,462.3,425"/>
	<path class="st2" d="M481.8,427.9c0,0.2,0,0.4,0,0.6c-1-0.7-1.3,0.7-2.2-0.2C480.3,428,481.2,426.2,481.8,427.9"/>
	<path class="st2" d="M473.5,428.1c0,0.1,0,0.2,0,0.3c-0.4,0-1,0-1.4,0c0-0.1,0-0.2,0-0.3C472.6,428.6,473.1,427.8,473.5,428.1"/>
	<path class="st2" d="M503.3,416.2c-0.5-0.9-1-1.9-0.8-2.8c0.6,0,0.9-1.3,1.5-0.2c0.2,1.2,0.4,1.3,0.5,2.3
		C504.1,415.9,504.1,416.5,503.3,416.2L503.3,416.2z M500,424.2c-1,1-1.9,0.1-3,0.1c-0.7-0.8-0.9-1.4-1.3-2.5
		c0.7,0.1,0.9-0.7,0.8-1.4c-2.3-1.3-1.9-3.9-4-5.4c-0.4-0.8,0.2-1.2,0.5-1.8c1.3-0.6,3.5-0.8,4.4,0.6c-0.6-0.6-1.4,0.3-1.9,0.7
		c-0.2,0.3-0.4,0.6-0.3,1c2.3,0.7,1.5,4.5,4.1,3.3c-1.5,0.6-0.2,2.5,0.1,3.2C500.1,422.9,500.3,423.2,500,424.2L500,424.2z
		 M488.3,451.3c-3.5-1.1,0.2-4.6-3-6.1c-0.9-1.3-1.2-3.6-2.6-4.6c-0.2-1.7-1.6-3.6-2.1-4.8c0.3,0.8,0.8,1.3,1.5,1.3
		c0.3-0.6,0.5-1.1,0.8-1.7c-0.4,2.1,1.2,3,2.2,4.4c2.4,3.9,3.3,8.5,6.9,11.9c0.4,2.4,1.9,4.3,1.9,6.6
		C491.5,456,488.2,456,488.3,451.3L488.3,451.3z M474.3,433.2c-3.2,0.7-6.2-4.5-8.4,0.7c-1.2-0.4-3.1-0.5-3.8-2
		c-1.7-0.2-3.5-0.3-4.9-1.3c1.2-1.5,0.2-2.9,0.5-4.5c-1.6-0.6-3-0.4-4.6,0.5c-2.7,0.2-4.6,0.2-6.8,0.9c-1.1,1.6-2.7,0.5-4,1.8
		c-0.4,0.1-0.8-0.4-0.7-1c1.8-0.7,3.5-0.4,4.8-2.4c0.2-0.7,0.6-1.4,0.4-2.1c1.7-1.4,3-2.3,4-4c0.4,0,0.9,0,1.3,0.1
		c0,0.1,0,0.1,0,0.2c1.6,0.3,2.1-1.9,4.1-1.7c1.9-1.1,1.4,1.5,2.8,1.9c1.4,1,3.1,1.7,4.3,3.2c0.1,0.7-1.2,0.9-0.1,1.4
		c0.7-0.3,1.5-1,1.9-1.8c0-0.2,0-0.4,0.1-0.6c0,0,0-0.1,0-0.1c0,0,0,0.1,0,0.1c0.2,0.1,0.6,0.3,0.6-0.2c-0.3-1.5-1.7-1.7-2.3-2.7
		c-0.9-1.3-3.2-1.9-2.2-3.8c0,1.4,0.7,0.1,1.4,0.6c0.5,2.3,3.1,3.2,4.1,5.6c0.9,1.5,2.7,1.9,2,4.6c0.7,0,1.5,0.4,2.3-0.3
		c0.2-1.4,0.8-2.6-0.2-3.7c0.1-1.9,1.3-0.7,2.2-1.1c0.6-0.1,1.1-0.1,1.7-0.2c0.1,1.3-1.1,0.3-1.3,1.3c0.7,1.5,0.7,3.4,1.7,4.6
		c2,1.1,3.1-1.4,4.8-0.2c1.7,0.5,1.7-1.7,3.2-0.7c-0.2,1.9-0.4,3.6-0.6,5.6C479.4,433.2,477.4,431.9,474.3,433.2L474.3,433.2z
		 M476.4,415.2c1-0.7,1.6-0.6,2.8-0.6c-0.2,0.2-0.2,0.7-0.2,1c0.5,0.8,1.6,1,2.1,0c0.2-0.5,0.7-1.1,0.3-1.7c0.6-0.2,1.3-0.5,2-0.6
		c0.2,1.1-1,0.5-1,1.3c1.5,1.2,2.5,3.2,4.9,3.1c0,1.9-1.6,1.3-2.7,2.1c-2.2-0.1-3.5-2.9-6.1-0.8c-1,0.9-1.9,1.5-3.3,1.7
		c0.1-0.4,0.6-0.7,0.4-1.3C473.7,418.1,476.5,416.9,476.4,415.2L476.4,415.2z M559.6,403.6c-1.4-0.8-1.2-2.5-2.6-3.2
		c-0.6-1.5-1.7-0.4-2-2.2c0.5-0.8,1.2-0.8,1.8-1.4c-0.1-0.1-0.1-0.3-0.2-0.4c0.2-0.1,0.3-0.4,0.4-0.4c-0.2-1.1,0.5-1.7,0.9-2.3
		c-1.1-1.1-2.5-1.3-3.2-2.3c1.7-0.2,3.4,1.2,4.9,0.4c-1.4-2.7-3.7-2.7-5.7-3.9c-0.5-0.1-1,0.7-1.4-0.2c-0.4-0.1-1.2-1-1.4-0.4
		c-2.6-1-4.3-0.5-6.7-0.7c-0.4,0.2-0.2,1-0.1,1.2c-2.3,0.3-4.5-0.7-6.7-0.8c-1.9,1.9-3.6-0.9-5.7-0.2c0-0.1,0-0.2,0-0.3
		c-1.3-0.9-2.2-0.4-3.2,0.3c0.1,0.2,0.2,0.4,0.3,0.6c-0.4,0.2-0.8,0.3-1.3,0.5c-0.6,1.8-2-1.1-2.4,0.8c-2.1-0.3-3.5-2.3-5.8-1.4
		c-1.9,1.9-3.5-0.2-5.1-0.3c0.1-0.3,0.6-0.2,0.2-0.6c-0.8-0.9-1.6-1.4-2.7-1.7c-0.8,0.1-1.4,1.8-2,0c-0.9-1.3-2-0.2-2.2,0.4
		c-1,0.1-2.8-0.8-3.3,0.3c-1.9-0.3-1.5,1.3-3.3,1.2c0.2,0.2,0.3,0.4,0.6,0.6c-1.2-0.2-1.5,0.6-2.5,0.4c-0.1,0.4,0.5,0.7,0.3,1.3
		c-1.2-0.7-0.9-2.2-3-1.6c-0.1,0.7-0.9,1.6-0.2,2.3c-1.9-0.3-3.7-0.6-5.5-0.4c-0.7,1,0.8,0.8,1.4,1.1c-0.1,0.1-0.2,0.1-0.2,0.2
		c-0.1-0.1-0.1-0.1-0.2-0.1c-2.3-1.1-3.2,0.5-4.7,1.3c-2.1,0.7-1-1.5-3-1.1c-0.4,0.5,0,1,0.4,1.2c-0.1,0.1-0.2,0.1-0.3,0.2
		c0,0-0.1-0.1-0.1-0.1c0,0.2,0.1,0.4,0.1,0.5c-0.1,0-0.2,0-0.3,0c-0.7,0.4-1.6,0.5-1.5,1.4c-1.6-0.3-3.4,1.2-4-0.5
		c0.8,0,1.6,0,2.3,0c0.4-0.6,1.5-0.4,1.3-1.4c-1.6-0.6-2.8-1.2-4.6-1.2c-1.2-0.2-2-1-3.2-0.6c-1-0.8-2.8-0.2-3.9,0
		c-1.4,0.6-2.8,1.2-4.2,1.7c-0.6,1.4-2.6,2.1-3.7,3.5c-0.1,1.9-1.9,0.9-3.1,1.7c-1.5,0.4-1.8,1.4-2,2.4c-1.3,1.6,0.7,1.5,1,2.6
		c0.1-0.1,0.3-0.3,0.4-0.4c1.1-0.2,2.6-1.5,3.4-0.4c0.2,1.1-0.2,2-1.1,2.9c0.2,0.1,0.3,0.5,0.6,0.3c0-0.1,0-0.2,0.1-0.3
		c1.5,0.8,2.2-0.9,3.6-1.4c0.9-0.6,0.5-1.4,0.4-2c0.4-0.3,0.7-0.6,1-0.6c0.2-0.7,0.8-1.4,0-1.8c-0.4-1.9,2.2-1.9,2.4-3.3
		c0.9-0.5,1.6-1,2.4-0.8c-0.6,0.7-1.2,1.3-1.9,2c0.1,1.2,0.2,2.3,0.3,3.5c0.3,0.2,0.7-0.1,0.9,0.3c-0.1,0-0.1,0.1-0.2,0.1
		c0.2,0.2,0.3,0.4,0.5,0.7c-0.2,1.1-1.4,0.8-2.1,1.4c0.5,1.7-1.5,1.9-2.6,2.9c-0.7-0.2-1.8,0.1-1.8-0.7c-1.7,0-3,1.3-4.5,0.5
		c0.4-1.2,0.5-1.6,0.2-2.4c0.4-0.2,0.1-0.6-0.1-0.8c-0.2,0-0.5,0.3-0.6,0.4c0,0.1,0,0.1,0.1,0.2c-1.9,1-0.8,2.8-1.2,4
		c-1,0.2-2.1,0.4-2.9,1.5c-0.1-0.3-0.2-0.5-0.3-0.7c-0.1,0.1-0.3,0.3-0.5,0.5c0.1,2-2,1.2-2.7,2.9c-0.3,0.1-1.2,0-1,0.7
		c-0.8,1.4-1.3,0-2.2,0.1c0,0.1,0,0.2-0.1,0.3c-0.3,0.6-0.7,0-1.1,0.1c-0.9,0.3-1.7,0.6-1.9,1.6c0.6,0.4,0.8,0.9,1.7,1.3
		c0.9,1.2-0.2,2.4-0.6,3.8c-0.8,0.1-1.6,0.2-2.4,0.4c-1.7,0.7-3.5-0.9-4.4,1.4c0.4,2.3-2.4,4.6-0.9,7c0.6,0,1.5-0.2,1.8,0.4
		c-0.3,2.9-2.5,4.2-4.7,6.3c0.1,2.7-2.8,3.8-4.6,5.3c-1.8,2.5-4.4,4.9-5.1,8.2c-1.4,1.6-0.3,3.3-0.3,5.1c-0.1,2.7-2,4.8-0.2,7.2
		c-0.3,3,1.9,2.3,2.9,4.5c1.7,3.2,4.2,4.9,7,8c0.3,0,0.8,0,1.2,0c4.1-1,7.2-2.3,11.7-2.9c1.6,4.6,5.8,0.7,7.6,5.1
		c1.2,2.6-0.5,3.8-1,5.9c0.6,1,0.7,1.6,1.6,2.1c0.5,0.8,0.9,1.8,0.5,2.5c1.5,3.1,2.9,5.8,4.4,8.7c0.7,1.8-0.1,2.4-0.5,3.8
		c0.2,2.9-0.3,4.4,0.4,7.3c3.4,3.8,3.9,7.2,5.8,11.1c1.5,2.9,1.9,6.4,5.3,7.5c0.4-0.4,0.8-0.9,1-1.4c2.2-0.5,3.3-1.9,5.4-2.7
		c1.4-1.5,1.3-3.4,3.3-4.5c0.9-3,3.9-5.1,2.6-9.6c1.9-1.5,3.6-2.9,5.5-4.4c2.1-3.9,0.3-7.7-1.2-11.2c0.1-1,0.2-2,0.3-3
		c2.2-2.2,1.1-5.6,4-7.1c3.4-4.4,6.5-8.7,8.5-14.5c1.7-1.6-0.1-3.3,1.2-5.2c-0.3-0.5-0.6-0.4-1.1-0.1c-2.7,0.7-5,2.2-7.7,1.9
		c-0.8-0.9,0.6-1.4,0-2.2c3.4-1.2,6-2.7,9-4.5c0.9-2.4,3-1.4,3.7-3.9c2-0.4,1.8-2.9,2.8-4.5c1-4.8-3.8-3.4-4.3-7.5
		c-1.5-0.2-0.8,1.9-1.6,2.8c-1.2,0.5-2.1-0.1-3.2-0.2c0.1-1-0.1-1.9-0.7-2.4c-0.9,0.5-0.8-1-1.2-1.4c-0.3-1.1-2.3-1.9-1.4-3.4
		c2,0.4,2.4,3,4.3,4.1c1.3,1.5,2.7,0.2,4-0.5c2.4,5.4,5.6,0.3,9.1,2.1c3.3-0.4,2.5,3.9,5.2,3.2c0,0.3,0,0.6-0.1,0.8
		c0.7,1,1.2,2.8,2.7,2.2c0-0.1,0-0.2,0-0.3c0.2-0.1,0.8-0.4,1-0.3c0.2,0.9,0.2,1.6,0.4,2.5c2.7,5.5,4,11.4,6.7,16
		c0.9-0.2,1.3-0.8,1.6-1.6c-0.1-3.9,1.5-6.4,0.6-10c2.5-2.8,4.1-5.2,5.5-8.7c1.4,2.7,1-0.7,2.5-0.7c0.1,0.2,0.5,0.6,0.6,0.8
		c-0.1,2.1,0.9,2.5,2.2,3.3c1.5,1.6,0.9,4.1,1.9,5.7c1,0.1,1.7-0.1,2-1.4c1,0.7,1.3,2.1,1.6,3.6c2.1,2.2,0.4,4.9,0.9,7.6
		c0.6,2.2,2.5,4,2.1,6.5c1.5,1,1.2,4.3,3.5,3.4c-0.4-1.8,0-4-0.9-5.8c-2.2-1-1.8-4.2-3.7-6c0.1-1.1,0.3-2.2,0.4-3.3
		c1.9,1.4,4.5,1.4,4.7,5.1c0.3,0,0.6-0.4,0.9-0.6c0.6-2.5,2.7-4,2.1-6.9c-0.1-4-3.2-3.6-4.4-7c-0.6-1.5,0.3-2.7,1-3.5
		c0.9-1,1.5,0.5,2.2,1.1c1-1,1.6-2.9,2.9-3.2c2.2-2.2,1.7-6.1,0.5-10c-0.6-0.9-1.6-2.2-2.6-2.9c-0.2-1.1-1.1-1.4-1.6-2.1
		c-1.9-1.3-0.6-2.8-1-4.3c-1.1-1.1-1.6-0.1-2.2-0.1c0-0.1,0-0.1-0.1-0.2c-0.3-0.2-0.6,0.2-1.2-0.4c-2.7-1.3,0.2-1.9-0.4-3.3
		c1.1,0.1,1.1,1.4,1.6,2.1c0.5-0.5,1.5-0.6,2.7,0.5c1.3,2.2,3.1,3.3,4.4,5.5c0.2-0.3,0.4-0.5,0.5-0.8c0-1.7-1.8-3.1-2.9-4.8
		c-2.7-0.9-0.6-2.4-2.5-4.2c0.2-0.2,0.2-0.4,0.5-0.3c0.5,0.4,0.7,0.2,0.8-0.1c-0.8-2.5-0.9-4.1-2.7-6.8c-0.7-0.6-1.6-1.3-1.9-2.1
		c2,1.4,4.2,2.9,5.7,5.3c0.6,0.3-0.1-0.4,0.2-0.5c-1-1.2-2.4-2-2.7-2.9c-0.5-0.4-0.9-0.8-1.3-1c-1.7-1.7-3.1-2.4-4.8-4
		c-0.6-0.3-0.6,0.2-1,0.2c-1.4-1.1-1.7-0.1-3.3-1.2c0.8-1-2.3-3.3-1.3-3.9c1.5,1.3,1.5-0.3,2.7,0.9c1.3-0.2,3.3,0.8,3.4-1.4
		c-0.1-1-1-1.1-1.6-1c-0.4-0.5,0-1,0.2-1.5c0.2,0,0.9-0.4,1.4,0.2c1.3,0,0.1-1,0.5-1.7c0.5,0.3,0.5,1.1,1.2,1.2
		c0.9,1.5,1.4,3.1,0.8,4.8c2,3,4.3,3.9,6.6,6.2c0.4,1,0.4,2,1.3,2.7c-0.6-0.9-0.7-1.9-0.9-2.9C560.3,406,558.8,405.1,559.6,403.6"/>
	<path class="st2" d="M558.8,449c-0.5-0.2-1-0.5-1.5-0.7c-0.1-1,0.6-2.1,1.4-2.6C560,446.7,558.9,447.8,558.8,449"/>
	<path class="st2" d="M569.3,450.2c-0.3,1.1,0,2.3,0.5,3.2c0.5,1,1.8,0.5,1.7,2.1c-0.4,0.2-1.8-1-1.7,0.8c-0.1,0.1-0.1,0.2-0.2,0.3
		c-1.3-1.7-1.8-4.5-2.3-6.9c-0.2-1-0.2-2.2,0.4-2.3C568.5,447.8,568.8,449.1,569.3,450.2"/>
	<path class="st2" d="M573.2,460c0.7,1.2,0.8,2.6,0.1,4.1c-0.2,0.2-0.5,0.5-0.7,0.8c-0.6-0.7,0.2-2.4-0.8-2.4
		c-0.4,0.5-0.5,1.5-1.2,1.4c-0.5-2.2,1.8-3.5,0.2-5.4c0.4-0.1,0.9,0.2,1.3-0.3c-0.2-0.7-0.3-1.3-0.4-2
		C573.2,456.5,573,458.5,573.2,460"/>
	<path class="st2" d="M535.3,463.2c0.1,1.4,0.1,3.6-1.4,3.2c-0.4-0.1-0.9-0.3-1.2-0.5c0.2-1.9,0.3-3.7,1.2-5
		C535.2,460.8,534.6,462.4,535.3,463.2"/>
	<path class="st2" d="M567.7,467.9c-0.4,0.6-1.1,1.6-0.5,2.2c0.4,0.1,0.7,0.9,0.8,1.5c0,1.4-1,0.5-1.5,1.7c-0.2,2.7-1.8,3.9-1.8,6.6
		c-2.4,0.7-2.7-1.9-4.7-2c0.6-2.9-1.7-4.7,0.9-7.2c0.6,0.4,1.2,0,1.7-0.6c0.7-3.4,3.5-2.8,3.6-6.3
		C566.8,464.9,568.7,465.5,567.7,467.9"/>
	<path class="st2" d="M551.6,469.6c0.7,3.5,3.5,3.2,4,6.9c0.8,1.5,0.8,3.1,0.2,5.2c-0.4,0.5-0.8,1-1.2,1.5c-0.3-1.6-2.8-1.4-1.9-4.7
		c-0.6-1.3-1.1-2-1.5-3.6c-1.1-1.5-1.8-3.7-3.1-5.2c0-1-0.8-1.4-0.3-2.5C550.1,467,549.2,470.2,551.6,469.6"/>
	<path class="st2" d="M575.1,470.9c-0.6,1-0.4,3.6-1.8,2.7c0.6-1.4-0.3-3,0.9-4.3C575,469.3,574.8,470.2,575.1,470.9"/>
	<path class="st2" d="M571,472.8c-0.9,0.9-1.9-1.3-2,1.1c0.6-0.1,1.2-0.2,1.8,0.4c-0.1,1-0.6,1.3-1.1,2.1c0.1,1.3,0.8,1.5,0,3.3
		c-0.4,0.9-1,0.8-1.3,0.5c-0.6-0.3,0.6-1.8-0.5-1.6c-0.7,1.1,0,2.3-1.1,2.8c-0.3,0.1-0.4-0.3-0.5-0.7c1.4-2.3-0.7-3.5,1.5-5.6
		c0.2-1.5,0.6-2.9,1.6-3.6c1-0.5,0.9,0.5,1.8,0.1c0.3-0.4,0.7-0.8,1-1.2C572.7,471.2,571.4,472.2,571,472.8"/>
	<path class="st2" d="M578.8,475.1c1.4-2.6,1.8-0.6,2.9-0.9c0.6,0.7,1.3,0.7,1.8,1.5c0.5-0.5,0.6,0.1,0.5,0.6
		c-0.5,1.1-0.3,1.9,0.2,1.7c0.4,0,0.2,1.2,0,1.8c-0.3,0.7-0.8,1.6-0.3,1.7c0.7-0.1,0.5,0.8,0.7,1.4c-0.2,0.4-0.5,1-0.8,0.9
		c-0.4,0-0.4-0.7-1.2-0.3c0.5-0.9-0.3-0.4,0.2-1.3c-0.4-0.3-1.1-0.3-1-1.4c-0.1-0.4-0.4-0.5-0.8,0.3c-0.2,1,0.5,0.6-0.1,1.6
		c-1.1,0.7-1.5-0.1-1.9-0.9c0.3-1.3,0.4-2.3-0.4-2.3c-0.9,0.2-1-1-1.6-1.3c0.7-1.1,0.6-2,0-2.3c-0.6-0.1-1-0.4-1.3-1.1
		c0.1-1.1,1-1.2,1.6-1.6C578.8,472.7,577.2,476.2,578.8,475.1"/>
	<path class="st2" d="M575.2,477.1c-0.1,0.2-0.1,0.4-0.1,0.6c-0.6-0.2-1.6,0.4-1.9-0.8c0.1-0.3,0.3-0.6,0.4-0.9
		C574.3,475.9,574.7,476.5,575.2,477.1"/>
	<path class="st2" d="M585.8,479.2c-0.7,0.3-0.5-0.3-0.6-0.7c0.2-0.8,0.6-0.9,0.9-1.1c0.3,0.1,0.6,0.3,1.1-0.4
		C587,478.2,586.4,478.6,585.8,479.2"/>
	<path class="st2" d="M559.7,483.1c1.7-0.5,1.4,1.7,2.8,1.6c0.4,1,1.5,0.2,2.3,0.7c-0.8,0.3-1.7,0.5-2.7,0.7
		c-1.3,0.2-1.8-1.6-3.6,0.2c-1.4-0.3-2.8-1.1-3.3-2.7C557.3,482,558,484,559.7,483.1"/>
	<path class="st2" d="M570.7,484.6c-1.1,1-1.9,0.6-3.2,2.4c-0.6,0.3-1.3,0.6-1.9,0.9c1-2.3,2.5-2.3,3.8-3.7
		C569.8,484.5,570.7,483.7,570.7,484.6"/>
	<path class="st2" d="M575.4,487.1c-0.1,0.3-0.2,0.6-0.3,0.9c-0.4,0.5-0.9,0.9-1.4,1.4c0.3,1.2-2,3.4-0.5,3.5c0.4,0-0.2,1,0,1.4
		c1.2-1.3,2-2.3,3-3.8c0.1-0.4,0.3-0.8,0.4-1.2c0,0.1,0,0.1,0,0.2c0.5-1.3,1.5-2.8,2.3-3.8c0.6,0.4-0.9,2.4-1,3.3
		c0.2,0.2,0.3,0.4,0.4,0.6c-1.1,2.5-4.1,5.4-1.9,6.8c-0.2,0.9,0.2,1.2-0.2,2.2c0,0,0-0.1-0.1-0.1c-0.2,0.1-0.2,0.3-0.3,0.4
		c0.3,0.3,0.7,0,0.9-0.2c0.1,1.4-1.7,3.6-0.1,4.1c-0.7,2.1-2.2,3.5-3.2,5.2c0-0.1,0-0.1,0-0.2c-0.1,0.1-0.2,0.2-0.3,0.3
		c0,0.1,0,0.1,0,0.2c-0.5,0.5-1.7,2.1-2.5,2.4c0.1,0,0.1,0.1,0.1,0.1c-2.1,2.5-4.5,4.3-6.5,7.1c-1.4,0.8-2.5,0.9-3.7,2.2
		c-1.2-0.5-4.3,1.2-3.4-2c1.4-2.6-2.6-0.9-0.1-3.3c0.3-0.3,0.7-0.7,0.8-1.1c-0.7,0-1.2,1.1-1.8,1.7c-0.8-0.9,1.6-4-0.3-3.4
		c-1.9-0.5-5.9,4-8.1,3.9c-1.2,0.6-2.6,1.6-3.3,1.2c0.8-1.5,3.1-3,3.1-4.4c1-2.3,1.7-4.3,3.6-6.6c0.4-1.3,1.4-2.4,2.3-3.7
		c1.6-0.5,3.3-3,4.7-2.6c1.8-1.1,3.5-2.7,4.8-4.9c0.4-0.7,1-0.7,1-0.4c1.4-1.4,3.1-4.5,4.5-3.7c-0.1,0.3-0.1,0.7-0.2,1.1
		c1.9-0.2,1.5-2.2,3.2-3.6c0.3-0.1,0.8,0,1.1-0.3c0.4-0.9-0.2-0.7,0.1-1.3C574,486.2,573.8,488,575.4,487.1"/>
	<path class="st2" d="M500.6,498.2c-1.3,4.3-3.3,8.2-4.4,12.2c-0.4,0.8-1.2,1.5-2,1.6c-1.1-0.6-0.4-2.1-1.2-2.9
		c-0.3-2.2,2.3-4.2,0.4-5.9c0-1.7,1-1.9,2-2.9c0.5,0.1,0.9,0.3,1.4,0c1.5-1.2,1.8-3,2.6-4.7C500.4,496.1,500.3,497.1,500.6,498.2"/>
	<path class="st2" d="M548.7,522.2c0-0.2,0.1-0.3,0.1-0.5c0.1,0.1,0.2,0.2,0.3,0.3C549,522,548.8,522.1,548.7,522.2"/>
	<path class="st2" d="M559.4,523.1c-0.8,2-2.3,2.1-3.5,2.9c0.3-1.3,0.9-2.3,1.1-3.4C557.9,522.4,558.8,522.7,559.4,523.1"/>
	<g>
		<path class="st2" d="M572,517.2c-2.3,3.4-4.4,4-7,7c-1,1.2-1.7,1.8-2.4,0.9c-0.4-0.3-0.4-0.3-0.4-0.9c3.6-3.6,6.8-3.1,10.2-7.1
			l0.2,0.1C573.1,516.8,572,516.8,572,517.2"/>
		<path class="st3" d="M893.4,380.7l-8.8,21.5c-4.1,10-10,25.6-10,34.5c-0.3,66,0.9,106.9-7.1,185.8c13-18.9,19.7-44.2,24.7-78.9
			c5.3-37.7,3.5-74.5,3.5-114c0.6-29.5,2.9-45.1,3.5-53.3C901.4,363.3,899.9,365.1,893.4,380.7"/>
		<path class="st3" d="M263.5,502c-1.8-48.9-1.8-94,2.4-162.3c0.9-16.5-3.8-8.5-4.7-5.9l-15,49.5c-4.1,34.8-5.3,91.6-3.5,139.9
			c2.4,65.4,16.2,87.2,67.4,103.7c95.1,30.6,311.3-4.4,376.7-61.6c6.2-5.6,14.7-16.2,18.9-26.2c6.2,6.8,10.9,14.4,18,20
			c11.2,8.8,12.7,8.8,30.9-2.9c7.1-4.7,78.9-78.3,79.5-78.9c7.1-6.5,6.8-8.2-3.2-7.7l-78.6,3.5c-8.2,0-8-0.9-0.6-6.8
			c17.7-14.7,24.4-19.7,66.3-44.5c32.4-19.4,67.7-62.4,77.8-94.2c2.9-8.8,0.3-9.7-5-0.9c-8.8,15-20.3,28.6-33.9,40.4
			c-14.7,13-39.2,30.3-49.2,35.6c-28.9,14.1-54.8,36.8-68.3,59.8c-5,8.2-15,28.6-7.4,33c5.6,1.8,54.8,1.2,70.1-1.2
			c-17.1,16.8-28,26.8-48.6,38.9c-8.8,5.3-32.4,2.4-37.7-4.7c-0.6-14.1-0.6-13.8-10.3-7.1c-36.5,25.9-104.6,47.4-186.4,58.6
			c-80.7,11.2-169.6,5.6-215-15C275.5,552.1,264.9,538.8,263.5,502"/>
		<path class="st3" d="M679.9,608.3l-19.4,25.9c-6.2,8.2-4.1,12.4,3.2,16.8l21.5,13.8c8,5,11.5,1.8,15.3-3.5l11.2-15.6
			c2.9-3.8,2.7-4.4,8.2-0.3l24.2,17.7c5,3.5,9.7,4.1,14.7-2.4l18.9-25.3c4.1-5.9,3.5-7.7-1.8-12.1l-23.6-18.3
			c-7.6-5.9-8.8-3.5-13,1.8l-11.8,14.7c-7.1,9.1-5.3,7.1-13.5,1.2l-20-15.3C688.2,603,684.6,602.5,679.9,608.3"/>
		<path class="st3" d="M128,384.8l-19.4,25.9c-6.2,8.2-4.1,12.4,3.2,16.8l21.5,13.8c8,5,11.5,1.8,15.3-3.5l11.2-15.6
			c2.9-3.8,2.7-4.4,8.2-0.3l24.2,17.7c5,3.5,9.7,4.1,14.7-2.4l18.8-25.3c4.1-5.9,3.5-7.7-1.8-12.1l-23.6-18.3
			c-7.7-5.9-8.8-3.5-13,1.8l-11.8,14.7c-7.1,9.1-5.3,7.1-13.5,1.2l-20-15.3C136.2,379.5,132.7,378.9,128,384.8"/>
	</g>
	<path class="st3" d="M604,380.4c-50.1,15.9-126.6,39.5-163.5,54.5c-13.2,5.6-23.3,10-31.8,23c-5.3,8.3-2.9,10.9,5.9,5
		c16.5-11.2,26.8-14.7,185.3-66l14.1-16.5C615.5,378.6,617.9,376,604,380.4"/>
	<path class="st3" d="M145.1,527.9c-4.1,10.6-11.8,43.3-9.4,65.4c2.1,20.6,24.4,23.9,37.1,12.4c21.2-19.1,38.9-79.5,30-103.1
		c-5-13.6-18.3-22.7-40.1-26.8c-5.6-1.2-10,2.4-11.2,6.5l-12.7,41.8C137.1,530,140.7,529.7,145.1,527.9"/>
	<path class="st2" d="M154.5,530.3c22.1,2.6,33.3,30.9,28,40.6c-7.1,13-30.3,15.3-33.9,2.9C146,565.3,150.4,538.2,154.5,530.3"/>
	<text transform="matrix(1 0 0 1 426.7061 358.5684)" class="st3 st4 st5">AL</text>
	<g>
		<path class="st3" d="M483.1,357.9c1.4-0.1,2.2-0.4,2.6-0.8c0.3-0.4,0.5-1.3,0.5-2.8v-15.1c0-1.3-0.2-2.1-0.6-2.4
			c-0.4-0.4-1.2-0.6-2.5-0.7v-0.6h9.7v0.6c-1.3,0.1-2.1,0.3-2.5,0.7s-0.6,1.2-0.6,2.4v6.8h10.6v-6.8c0-1.3-0.2-2.1-0.6-2.4
			c-0.4-0.4-1.2-0.6-2.5-0.7v-0.6h9.7v0.6c-1.3,0.1-2.1,0.3-2.5,0.7s-0.6,1.2-0.6,2.4v15.5c0,1.3,0.2,2.1,0.6,2.4s1.2,0.6,2.5,0.7
			v0.6h-9.7v-0.6c1.4-0.1,2.2-0.4,2.6-0.7c0.3-0.4,0.5-1.3,0.5-2.8v-6.8h-10.6v7.2c0,1.3,0.2,2.1,0.6,2.4s1.2,0.6,2.5,0.7v0.6h-9.7
			V357.9z"/>
		<path class="st3" d="M508.3,358.6v-0.6c0.9-0.1,1.6-0.4,2-1c0.4-0.6,1.2-2.1,2.3-4.7l7.3-17.1h0.7l8.7,19.8c0.6,1.3,1,2.1,1.4,2.4
			c0.3,0.3,0.9,0.5,1.7,0.6v0.6h-8.9v-0.6c1-0.1,1.7-0.2,2-0.3c0.3-0.1,0.4-0.4,0.4-1c0-0.2-0.1-0.5-0.2-0.9
			c-0.1-0.4-0.3-0.9-0.5-1.4L524,351h-9.2c-0.9,2.3-1.4,3.7-1.6,4.2c-0.2,0.5-0.3,0.9-0.3,1.2c0,0.6,0.2,1,0.7,1.2
			c0.3,0.1,0.9,0.2,1.7,0.3v0.6H508.3z M523.4,349.6l-4-9.6l-4,9.6H523.4z"/>
	</g>
	<text transform="matrix(1 0 0 1 537.4678 358.5684)" class="st3 st4 st5">YA</text>
	<text transform="matrix(1 0 0 1 578.0498 358.5684)" class="st3 st4 st5">T</text>
	<text transform="matrix(1 0 0 1 100.7979 670.9492)" class="st3 st6 st7">ww</text>
	<text transform="matrix(1 0 0 1 140.208 670.9492)" class="st3 st6 st7">w.</text>
	<g>
		<path class="st3" d="M178.3,652.9v14.3c0,1,0,1.5,0.1,1.7c0.1,0.3,0.2,0.5,0.4,0.7c0.2,0.1,0.5,0.2,1,0.3v0.4l-5.3,1v-2
			c-0.6,0.8-1.2,1.3-1.7,1.6c-0.5,0.3-1.1,0.4-1.7,0.4c-1.6,0-2.8-0.7-3.8-2.1c-0.7-1.2-1.1-2.6-1.1-4.3c0-1.3,0.2-2.5,0.7-3.6
			s1.1-1.9,1.9-2.4c0.8-0.5,1.7-0.8,2.6-0.8c0.6,0,1.1,0.1,1.6,0.3c0.5,0.2,1,0.6,1.5,1.2v-3.8c0-1,0-1.5-0.1-1.7
			c-0.1-0.3-0.3-0.4-0.5-0.6c-0.2-0.1-0.6-0.2-1.2-0.2v-0.6H178.3z M174.6,661.3c-0.7-1.3-1.5-1.9-2.4-1.9c-0.3,0-0.6,0.1-0.8,0.3
			c-0.3,0.3-0.6,0.8-0.8,1.5c-0.2,0.7-0.3,1.8-0.3,3.2c0,1.6,0.1,2.7,0.3,3.5s0.5,1.3,0.9,1.6c0.2,0.2,0.5,0.3,0.8,0.3
			c0.8,0,1.5-0.6,2.2-1.8V661.3z"/>
		<path class="st3" d="M188.2,669.1c-1.5,1.3-2.9,2-4.1,2c-0.7,0-1.3-0.2-1.8-0.7c-0.5-0.5-0.7-1.1-0.7-1.8c0-1,0.4-1.8,1.2-2.6
			c0.8-0.8,2.6-1.8,5.3-3v-1.3c0-0.9-0.1-1.5-0.2-1.8s-0.3-0.5-0.6-0.6c-0.3-0.2-0.6-0.3-1-0.3c-0.6,0-1.1,0.1-1.4,0.4
			c-0.2,0.2-0.3,0.3-0.3,0.6c0,0.2,0.1,0.4,0.4,0.7c0.3,0.4,0.5,0.8,0.5,1.1c0,0.4-0.2,0.8-0.5,1.1c-0.3,0.3-0.7,0.5-1.3,0.5
			c-0.6,0-1-0.2-1.4-0.5c-0.4-0.3-0.6-0.7-0.6-1.2c0-0.6,0.3-1.2,0.8-1.8c0.5-0.6,1.2-1,2.1-1.3c0.9-0.3,1.8-0.5,2.8-0.5
			c1.2,0,2.1,0.3,2.8,0.8c0.7,0.5,1.1,1,1.3,1.6c0.1,0.4,0.2,1.2,0.2,2.6v4.8c0,0.6,0,0.9,0.1,1.1c0,0.1,0.1,0.3,0.2,0.3
			s0.2,0.1,0.3,0.1c0.2,0,0.5-0.2,0.7-0.5l0.4,0.3c-0.4,0.7-0.9,1.1-1.4,1.4c-0.5,0.3-1,0.4-1.6,0.4c-0.7,0-1.3-0.2-1.7-0.5
			C188.6,670.3,188.3,669.8,188.2,669.1z M188.2,668.1V664c-1.1,0.6-1.9,1.3-2.4,2c-0.3,0.5-0.5,1-0.5,1.5c0,0.4,0.1,0.8,0.4,1.1
			c0.2,0.2,0.5,0.4,0.9,0.4C187.1,668.9,187.6,668.6,188.2,668.1z"/>
		<path class="st3" d="M200.2,658.5v2.8c0.8-1.3,1.5-2.1,2.2-2.6c0.6-0.4,1.2-0.6,1.8-0.6c0.5,0,0.9,0.2,1.2,0.5
			c0.3,0.3,0.4,0.7,0.4,1.3c0,0.6-0.1,1.1-0.4,1.4c-0.3,0.3-0.6,0.5-1,0.5c-0.5,0-0.9-0.2-1.2-0.5c-0.3-0.3-0.6-0.5-0.6-0.5
			c-0.1-0.1-0.2-0.1-0.3-0.1c-0.3,0-0.5,0.1-0.7,0.3c-0.4,0.3-0.6,0.7-0.8,1.3c-0.3,0.9-0.4,1.8-0.4,2.9v2.9l0,0.7
			c0,0.5,0,0.8,0.1,1c0.1,0.2,0.3,0.4,0.5,0.5c0.2,0.1,0.6,0.2,1.1,0.2v0.5h-6.7v-0.5c0.5,0,0.9-0.2,1.1-0.4c0.2-0.3,0.3-0.9,0.3-2
			v-6.9c0-0.7,0-1.2-0.1-1.4c-0.1-0.2-0.2-0.4-0.4-0.5c-0.2-0.1-0.5-0.2-0.9-0.2v-0.5H200.2z"/>
		<path class="st3" d="M214,669.1c-1.5,1.3-2.9,2-4.1,2c-0.7,0-1.3-0.2-1.8-0.7c-0.5-0.5-0.7-1.1-0.7-1.8c0-1,0.4-1.8,1.2-2.6
			c0.8-0.8,2.6-1.8,5.3-3v-1.3c0-0.9-0.1-1.5-0.2-1.8s-0.3-0.5-0.6-0.6c-0.3-0.2-0.6-0.3-1-0.3c-0.6,0-1.1,0.1-1.4,0.4
			c-0.2,0.2-0.3,0.3-0.3,0.6c0,0.2,0.1,0.4,0.4,0.7c0.3,0.4,0.5,0.8,0.5,1.1c0,0.4-0.2,0.8-0.5,1.1c-0.3,0.3-0.7,0.5-1.3,0.5
			c-0.6,0-1-0.2-1.4-0.5c-0.4-0.3-0.6-0.7-0.6-1.2c0-0.6,0.3-1.2,0.8-1.8c0.5-0.6,1.2-1,2.1-1.3c0.9-0.3,1.8-0.5,2.8-0.5
			c1.2,0,2.1,0.3,2.8,0.8c0.7,0.5,1.1,1,1.3,1.6c0.1,0.4,0.2,1.2,0.2,2.6v4.8c0,0.6,0,0.9,0.1,1.1c0,0.1,0.1,0.3,0.2,0.3
			s0.2,0.1,0.3,0.1c0.2,0,0.5-0.2,0.7-0.5l0.4,0.3c-0.4,0.7-0.9,1.1-1.4,1.4c-0.5,0.3-1,0.4-1.6,0.4c-0.7,0-1.3-0.2-1.7-0.5
			C214.3,670.3,214.1,669.8,214,669.1z M214,668.1V664c-1.1,0.6-1.9,1.3-2.4,2c-0.3,0.5-0.5,1-0.5,1.5c0,0.4,0.1,0.8,0.4,1.1
			c0.2,0.2,0.5,0.4,0.9,0.4C212.9,668.9,213.4,668.6,214,668.1z"/>
		<path class="st3" d="M225.6,652.9v15.5c0,0.9,0.1,1.4,0.3,1.7c0.2,0.2,0.6,0.4,1.2,0.4v0.5h-6.7v-0.5c0.6,0,1-0.2,1.2-0.5
			c0.2-0.2,0.3-0.7,0.3-1.6v-12.9c0-0.9-0.1-1.4-0.3-1.7c-0.2-0.2-0.6-0.4-1.2-0.4v-0.5H225.6z"/>
		<path class="st3" d="M233.4,652.9v7.2c0.7-0.7,1.3-1.2,1.9-1.5c0.6-0.3,1.2-0.4,1.8-0.4c0.8,0,1.5,0.2,2,0.7s0.9,1,1.1,1.6
			s0.3,1.6,0.3,3v4.9c0,1,0.1,1.5,0.3,1.8s0.5,0.4,1.1,0.4v0.5h-6.3v-0.5c0.4-0.1,0.8-0.2,1-0.5c0.2-0.2,0.2-0.8,0.2-1.7v-5.6
			c0-1,0-1.7-0.1-1.9c-0.1-0.3-0.2-0.5-0.4-0.6c-0.2-0.1-0.4-0.2-0.6-0.2c-0.4,0-0.7,0.1-1,0.4c-0.3,0.2-0.7,0.7-1.1,1.3v6.7
			c0,0.9,0.1,1.4,0.2,1.7c0.2,0.3,0.5,0.5,1,0.6v0.5h-6.3v-0.5c0.5-0.1,0.9-0.2,1.1-0.5c0.2-0.2,0.2-0.8,0.2-1.7v-12.7
			c0-0.9-0.1-1.5-0.3-1.8c-0.2-0.2-0.5-0.4-1.1-0.5v-0.5H233.4z"/>
		<path class="st3" d="M250.4,669.1c-1.5,1.3-2.9,2-4.1,2c-0.7,0-1.3-0.2-1.8-0.7c-0.5-0.5-0.7-1.1-0.7-1.8c0-1,0.4-1.8,1.2-2.6
			c0.8-0.8,2.6-1.8,5.3-3v-1.3c0-0.9-0.1-1.5-0.2-1.8s-0.3-0.5-0.6-0.6c-0.3-0.2-0.6-0.3-1-0.3c-0.6,0-1.1,0.1-1.4,0.4
			c-0.2,0.2-0.3,0.3-0.3,0.6c0,0.2,0.1,0.4,0.4,0.7c0.3,0.4,0.5,0.8,0.5,1.1c0,0.4-0.2,0.8-0.5,1.1c-0.3,0.3-0.7,0.5-1.3,0.5
			c-0.6,0-1-0.2-1.4-0.5c-0.4-0.3-0.6-0.7-0.6-1.2c0-0.6,0.3-1.2,0.8-1.8c0.5-0.6,1.2-1,2.1-1.3c0.9-0.3,1.8-0.5,2.8-0.5
			c1.2,0,2.1,0.3,2.8,0.8c0.7,0.5,1.1,1,1.3,1.6c0.1,0.4,0.2,1.2,0.2,2.6v4.8c0,0.6,0,0.9,0.1,1.1c0,0.1,0.1,0.3,0.2,0.3
			s0.2,0.1,0.3,0.1c0.2,0,0.5-0.2,0.7-0.5l0.4,0.3c-0.4,0.7-0.9,1.1-1.4,1.4c-0.5,0.3-1,0.4-1.6,0.4c-0.7,0-1.3-0.2-1.7-0.5
			C250.7,670.3,250.5,669.8,250.4,669.1z M250.4,668.1V664c-1.1,0.6-1.9,1.3-2.4,2c-0.3,0.5-0.5,1-0.5,1.5c0,0.4,0.1,0.8,0.4,1.1
			c0.2,0.2,0.5,0.4,0.9,0.4C249.3,668.9,249.8,668.6,250.4,668.1z"/>
		<path class="st3" d="M262.9,671.5l-4-9.2c-0.6-1.4-1.1-2.3-1.3-2.6c-0.3-0.3-0.6-0.5-1-0.7v-0.5h6.6v0.5c-0.4,0-0.7,0.1-0.9,0.3
			c-0.2,0.2-0.3,0.3-0.3,0.5c0,0.3,0.2,1,0.7,2l2.1,4.9l1.5-3.8c0.5-1.3,0.8-2.3,0.8-2.8c0-0.3-0.1-0.6-0.3-0.8s-0.6-0.3-1.2-0.3
			v-0.5h4.2v0.5c-0.4,0-0.7,0.2-1,0.5c-0.3,0.3-0.7,1.2-1.3,2.8l-3.6,9.2c-0.9,2.3-1.6,3.7-2,4.3c-0.6,0.7-1.4,1.1-2.3,1.1
			c-0.7,0-1.3-0.2-1.8-0.6s-0.7-0.9-0.7-1.5c0-0.5,0.2-0.9,0.5-1.3c0.3-0.3,0.7-0.5,1.2-0.5c0.4,0,0.8,0.1,1.1,0.4
			c0.3,0.3,0.4,0.7,0.4,1.3c0,0.3,0,0.6,0.1,0.7c0.1,0.1,0.2,0.1,0.3,0.1c0.2,0,0.4-0.1,0.7-0.4c0.4-0.4,0.8-1.2,1.3-2.6
			L262.9,671.5z"/>
		<path class="st3" d="M277.7,669.1c-1.5,1.3-2.9,2-4.1,2c-0.7,0-1.3-0.2-1.8-0.7c-0.5-0.5-0.7-1.1-0.7-1.8c0-1,0.4-1.8,1.2-2.6
			c0.8-0.8,2.6-1.8,5.3-3v-1.3c0-0.9-0.1-1.5-0.2-1.8s-0.3-0.5-0.6-0.6c-0.3-0.2-0.6-0.3-1-0.3c-0.6,0-1.1,0.1-1.4,0.4
			c-0.2,0.2-0.3,0.3-0.3,0.6c0,0.2,0.1,0.4,0.4,0.7c0.3,0.4,0.5,0.8,0.5,1.1c0,0.4-0.2,0.8-0.5,1.1c-0.3,0.3-0.7,0.5-1.3,0.5
			c-0.6,0-1-0.2-1.4-0.5c-0.4-0.3-0.6-0.7-0.6-1.2c0-0.6,0.3-1.2,0.8-1.8c0.5-0.6,1.2-1,2.1-1.3c0.9-0.3,1.8-0.5,2.8-0.5
			c1.2,0,2.1,0.3,2.8,0.8c0.7,0.5,1.1,1,1.3,1.6c0.1,0.4,0.2,1.2,0.2,2.6v4.8c0,0.6,0,0.9,0.1,1.1c0,0.1,0.1,0.3,0.2,0.3
			s0.2,0.1,0.3,0.1c0.2,0,0.5-0.2,0.7-0.5l0.4,0.3c-0.4,0.7-0.9,1.1-1.4,1.4c-0.5,0.3-1,0.4-1.6,0.4c-0.7,0-1.3-0.2-1.7-0.5
			C278,670.3,277.8,669.8,277.7,669.1z M277.7,668.1V664c-1.1,0.6-1.9,1.3-2.4,2c-0.3,0.5-0.5,1-0.5,1.5c0,0.4,0.1,0.8,0.4,1.1
			c0.2,0.2,0.5,0.4,0.9,0.4C276.6,668.9,277.1,668.6,277.7,668.1z"/>
		<path class="st3" d="M289.4,653.9v4.6h3v1.3h-3v7.7c0,0.7,0,1.2,0.1,1.4c0.1,0.2,0.2,0.4,0.4,0.5c0.2,0.1,0.3,0.2,0.5,0.2
			c0.6,0,1.1-0.4,1.6-1.3l0.4,0.3c-0.7,1.7-1.9,2.6-3.5,2.6c-0.8,0-1.5-0.2-2-0.7s-0.9-0.9-1-1.5c-0.1-0.3-0.1-1.1-0.1-2.5v-6.7H284
			v-0.5c1.1-0.8,2.1-1.6,2.9-2.5c0.8-0.9,1.5-1.8,2.1-2.9H289.4z"/>
		<path class="st3" d="M296,666.8c0.6,0,1.1,0.2,1.6,0.7c0.4,0.4,0.6,1,0.6,1.6c0,0.6-0.2,1.1-0.7,1.6c-0.4,0.4-1,0.6-1.6,0.6
			s-1.1-0.2-1.6-0.6c-0.4-0.4-0.6-1-0.6-1.6c0-0.6,0.2-1.1,0.6-1.6C294.9,667.1,295.4,666.8,296,666.8z"/>
		<path class="st3" d="M310.5,667.7l0.4,0.3c-0.6,1.1-1.3,1.9-2.2,2.5c-0.9,0.5-1.8,0.8-2.8,0.8c-1.7,0-3-0.6-4-1.9
			c-1-1.3-1.5-2.8-1.5-4.5c0-1.7,0.5-3.2,1.4-4.5c1.1-1.6,2.6-2.3,4.5-2.3c1.3,0,2.3,0.3,3.1,1c0.8,0.6,1.1,1.4,1.1,2.2
			c0,0.5-0.2,0.9-0.5,1.2c-0.3,0.3-0.7,0.5-1.2,0.5c-0.5,0-1-0.2-1.3-0.5s-0.6-1-0.6-1.9c-0.1-0.6-0.2-1-0.4-1.2
			c-0.2-0.2-0.4-0.3-0.7-0.3c-0.4,0-0.8,0.2-1.1,0.7c-0.5,0.7-0.7,1.7-0.7,3.1c0,1.2,0.2,2.3,0.6,3.4c0.4,1.1,0.9,1.9,1.5,2.4
			c0.5,0.4,1.1,0.6,1.7,0.6c0.4,0,0.8-0.1,1.2-0.3C309.5,668.7,310,668.3,310.5,667.7z"/>
		<path class="st3" d="M318.4,658.1c1.1,0,2.1,0.3,3,0.8s1.6,1.4,2.1,2.4c0.5,1,0.7,2.2,0.7,3.4c0,1.8-0.4,3.2-1.3,4.4
			c-1.1,1.4-2.6,2.2-4.5,2.2c-1.9,0-3.3-0.7-4.3-2s-1.5-2.8-1.5-4.6c0-1.8,0.5-3.3,1.6-4.7C315.1,658.8,316.5,658.1,318.4,658.1z
			 M318.4,659.1c-0.5,0-0.8,0.2-1.2,0.5c-0.3,0.3-0.5,1-0.6,2c-0.1,1-0.2,2.4-0.2,4.2c0,1,0.1,1.8,0.2,2.7c0.1,0.6,0.3,1.1,0.6,1.4
			c0.3,0.3,0.7,0.5,1.1,0.5c0.4,0,0.7-0.1,1-0.3c0.3-0.3,0.6-0.7,0.7-1.3c0.2-0.8,0.3-2.5,0.3-5.1c0-1.5-0.1-2.5-0.3-3.1
			s-0.4-1-0.7-1.2C319.1,659.2,318.8,659.1,318.4,659.1z"/>
		<path class="st3" d="M331.3,658.5v1.6c0.7-0.7,1.3-1.3,1.9-1.6c0.6-0.3,1.2-0.4,1.9-0.4c0.8,0,1.5,0.2,2,0.6s1,0.9,1.3,1.7
			c0.7-0.8,1.4-1.4,2-1.7c0.7-0.4,1.3-0.5,2-0.5c0.9,0,1.5,0.2,2.1,0.6s0.9,0.9,1.1,1.5c0.2,0.6,0.3,1.6,0.3,2.9v5.1
			c0,1,0.1,1.6,0.3,1.8s0.5,0.4,1.1,0.5v0.5h-6.4v-0.5c0.5,0,0.9-0.2,1.1-0.6c0.2-0.2,0.2-0.8,0.2-1.7v-5.4c0-1.1,0-1.8-0.1-2.1
			s-0.2-0.5-0.4-0.7c-0.2-0.1-0.4-0.2-0.7-0.2c-0.4,0-0.8,0.1-1.2,0.4c-0.4,0.3-0.8,0.7-1.2,1.3v6.7c0,0.9,0.1,1.5,0.2,1.7
			c0.2,0.3,0.6,0.5,1.2,0.5v0.5h-6.4v-0.5c0.3,0,0.6-0.1,0.8-0.3c0.2-0.2,0.3-0.3,0.4-0.6c0.1-0.2,0.1-0.7,0.1-1.4v-5.4
			c0-1.1,0-1.8-0.1-2.1s-0.2-0.5-0.4-0.7c-0.2-0.2-0.4-0.2-0.7-0.2c-0.4,0-0.7,0.1-1,0.3c-0.4,0.3-0.9,0.7-1.3,1.4v6.7
			c0,0.9,0.1,1.5,0.3,1.7c0.2,0.3,0.5,0.4,1.1,0.5v0.5h-6.4v-0.5c0.5-0.1,0.9-0.2,1.1-0.5c0.2-0.2,0.2-0.8,0.2-1.7v-7
			c0-0.9-0.1-1.5-0.3-1.8c-0.2-0.2-0.5-0.4-1.1-0.5v-0.5H331.3z"/>
	</g>
</g>
</svg>
