<?xml version="1.0" encoding="utf-8"?>
<!-- Generator: Adobe Illustrator 22.0.1, SVG Export Plug-In . SVG Version: 6.00 Build 0)  -->
<svg version="1.1" id="Layer_1" xmlns="http://www.w3.org/2000/svg" xmlns:xlink="http://www.w3.org/1999/xlink" x="0px" y="0px"
	 viewBox="0 0 1000 1000" style="enable-background:new 0 0 1000 1000;" xml:space="preserve">
<style type="text/css">
	.st0{fill:#0069B5;}
	.st1{fill:#96C13D;}
</style>
<path class="st0" d="M838,564.9V374h62.2v153.6C900.2,527.6,903.4,564.9,838,564.9L838,564.9z"/>
<path class="st1" d="M563.3,510.9v-40.2c0,0-3.2-37.4,62.2-37.4h46.7c65.4,0,62.2,37.4,62.2,37.4v40.2c0,0,6.1,82.5-48.8,109.3
	v-58.9l-60.1,1.6c-65.4,0-62.2-36.6-62.2-36.6v-40.2V510.9L563.3,510.9z"/>
<path class="st0" d="M818.5,527.6V374h-62.2v147.5h-17.9c0,0,2,14.2-8.5,43.5h26.4C821.8,564.9,818.5,527.6,818.5,527.6L818.5,527.6
	z"/>
<path class="st0" d="M99.7,523.9c0,44.3,37.4,41,37.4,41h405.5V469c0,0,3.2-37.4-62.2-37.4h-64.2c0,0-21.6-0.7-37,10.5v-67.8h-59.7
	v149.5h-21.1H99.7L99.7,523.9z M480.5,523.9L480.5,523.9H379.3v-28c0-21.9,7.3-24,7.3-24h93.9V523.9L480.5,523.9z M235,401.2
	L235,401.2v-26.8h-62.2v64.2C238.3,438.6,235,401.2,235,401.2L235,401.2z M298.4,523.9L298.4,523.9v-90.6h-62.2v75.6
	c0,0-3.3,14.6-12.2,14.6h-50c-8.9,0-12.2-14.6-12.2-14.6v-75.6H99.7v90.6H298.4L298.4,523.9z"/>
<path class="st0" d="M745.4,608.7c0.6-0.8,1.3-1.5,2.1-2c0.9-0.5,1.8-0.9,2.9-1.1c1.1-0.2,2.2-0.3,3.3-0.3c1,0,2,0.1,3,0.2
	c1,0.1,1.9,0.4,2.8,0.8c0.8,0.4,1.5,1,2.1,1.7c0.5,0.7,0.8,1.7,0.8,2.9v10.2c0,0.9,0.1,1.7,0.2,2.5c0.1,0.8,0.3,1.4,0.5,1.8h-5.5
	c-0.1-0.3-0.2-0.6-0.2-0.9c-0.1-0.3-0.1-0.6-0.1-1c-0.9,0.9-1.9,1.5-3,1.9c-1.2,0.4-2.4,0.5-3.6,0.5c-0.9,0-1.8-0.1-2.6-0.3
	c-0.8-0.2-1.5-0.6-2.1-1.1c-0.6-0.5-1.1-1.1-1.4-1.8c-0.3-0.7-0.5-1.6-0.5-2.6c0-1.1,0.2-2,0.6-2.8c0.4-0.7,0.9-1.3,1.5-1.7
	c0.6-0.4,1.3-0.8,2.1-1c0.8-0.2,1.6-0.4,2.4-0.5c0.8-0.1,1.6-0.2,2.4-0.3c0.8-0.1,1.5-0.2,2.1-0.3c0.6-0.2,1.1-0.4,1.4-0.7
	c0.4-0.3,0.5-0.7,0.5-1.3c0-0.6-0.1-1-0.3-1.4c-0.2-0.3-0.4-0.6-0.8-0.8c-0.3-0.2-0.7-0.3-1.1-0.4c-0.4-0.1-0.9-0.1-1.4-0.1
	c-1.1,0-1.9,0.2-2.5,0.7c-0.6,0.5-1,1.2-1.1,2.3h-5.4C744.5,610.6,744.8,609.6,745.4,608.7L745.4,608.7z M756,616.4L756,616.4
	c-0.3,0.1-0.7,0.2-1.1,0.3c-0.4,0.1-0.8,0.1-1.2,0.2c-0.4,0.1-0.9,0.1-1.3,0.2c-0.4,0.1-0.8,0.2-1.2,0.3c-0.4,0.1-0.7,0.3-1,0.5
	c-0.3,0.2-0.5,0.5-0.7,0.8c-0.2,0.3-0.3,0.7-0.3,1.3c0,0.5,0.1,0.9,0.3,1.2c0.2,0.3,0.4,0.6,0.7,0.8c0.3,0.2,0.7,0.3,1.1,0.4
	c0.4,0.1,0.8,0.1,1.3,0.1c1.1,0,1.9-0.2,2.5-0.5c0.6-0.4,1-0.8,1.3-1.3c0.3-0.5,0.4-1,0.5-1.5c0.1-0.5,0.1-0.9,0.1-1.2v-2
	C756.7,616.1,756.4,616.2,756,616.4L756,616.4z"/>
<polygon class="st0" points="772,598.3 772,625.5 766.6,625.5 766.6,598.3 772,598.3 "/>
<polygon class="st0" points="787.7,612.8 787.7,617.4 776.3,617.4 776.3,612.8 787.7,612.8 "/>
<polygon class="st0" points="808.7,625.5 805.2,612.3 805.1,612.3 801.8,625.5 796.2,625.5 790,605.8 795.7,605.8 799.3,619.2 
	799.4,619.2 802.6,605.8 807.9,605.8 811.2,619.2 811.3,619.2 814.9,605.8 820.5,605.8 814.3,625.5 808.7,625.5 "/>
<path class="st0" d="M823.5,608.7c0.6-0.8,1.3-1.5,2.1-2c0.9-0.5,1.8-0.9,2.9-1.1c1.1-0.2,2.2-0.3,3.3-0.3c1,0,2,0.1,3,0.2
	c1,0.1,1.9,0.4,2.8,0.8c0.8,0.4,1.5,1,2.1,1.7c0.5,0.7,0.8,1.7,0.8,2.9v10.2c0,0.9,0.1,1.7,0.2,2.5c0.1,0.8,0.3,1.4,0.5,1.8h-5.5
	c-0.1-0.3-0.2-0.6-0.2-0.9c-0.1-0.3-0.1-0.6-0.1-1c-0.9,0.9-1.9,1.5-3,1.9c-1.2,0.4-2.4,0.5-3.6,0.5c-0.9,0-1.8-0.1-2.6-0.3
	c-0.8-0.2-1.5-0.6-2.1-1.1c-0.6-0.5-1.1-1.1-1.4-1.8c-0.3-0.7-0.5-1.6-0.5-2.6c0-1.1,0.2-2,0.6-2.8c0.4-0.7,0.9-1.3,1.5-1.7
	c0.6-0.4,1.3-0.8,2.1-1c0.8-0.2,1.6-0.4,2.4-0.5c0.8-0.1,1.6-0.2,2.4-0.3c0.8-0.1,1.5-0.2,2.1-0.3c0.6-0.2,1.1-0.4,1.4-0.7
	c0.4-0.3,0.5-0.7,0.5-1.3c0-0.6-0.1-1-0.3-1.4c-0.2-0.3-0.4-0.6-0.8-0.8c-0.3-0.2-0.7-0.3-1.1-0.4c-0.4-0.1-0.9-0.1-1.4-0.1
	c-1.1,0-1.9,0.2-2.5,0.7c-0.6,0.5-1,1.2-1.1,2.3h-5.4C822.6,610.6,822.9,609.6,823.5,608.7L823.5,608.7z M834.1,616.4L834.1,616.4
	c-0.3,0.1-0.7,0.2-1.1,0.3c-0.4,0.1-0.8,0.1-1.2,0.2c-0.4,0.1-0.9,0.1-1.3,0.2c-0.4,0.1-0.8,0.2-1.2,0.3c-0.4,0.1-0.7,0.3-1,0.5
	c-0.3,0.2-0.5,0.5-0.7,0.8c-0.2,0.3-0.3,0.7-0.3,1.3c0,0.5,0.1,0.9,0.3,1.2c0.2,0.3,0.4,0.6,0.7,0.8c0.3,0.2,0.7,0.3,1.1,0.4
	c0.4,0.1,0.8,0.1,1.3,0.1c1.1,0,1.9-0.2,2.5-0.5c0.6-0.4,1-0.8,1.3-1.3c0.3-0.5,0.5-1,0.5-1.5c0.1-0.5,0.1-0.9,0.1-1.2v-2
	C834.8,616.1,834.5,616.2,834.1,616.4L834.1,616.4z"/>
<path class="st0" d="M855.4,605.8v3.6h-4v9.7c0,0.9,0.2,1.5,0.5,1.8c0.3,0.3,0.9,0.5,1.8,0.5c0.3,0,0.6,0,0.9,0
	c0.3,0,0.5-0.1,0.8-0.1v4.2c-0.5,0.1-1,0.1-1.5,0.2c-0.6,0-1.1,0-1.6,0c-0.8,0-1.6-0.1-2.4-0.2c-0.7-0.1-1.4-0.3-2-0.7
	c-0.6-0.3-1-0.8-1.4-1.4c-0.3-0.6-0.5-1.4-0.5-2.4v-11.6h-3.3v-3.6h3.3v-5.9h5.4v5.9H855.4L855.4,605.8z"/>
<path class="st0" d="M858.7,608.7c0.6-0.8,1.3-1.5,2.1-2c0.9-0.5,1.8-0.9,2.9-1.1c1.1-0.2,2.2-0.3,3.3-0.3c1,0,2,0.1,3,0.2
	c1,0.1,1.9,0.4,2.8,0.8c0.8,0.4,1.5,1,2.1,1.7c0.5,0.7,0.8,1.7,0.8,2.9v10.2c0,0.9,0.1,1.7,0.2,2.5c0.1,0.8,0.3,1.4,0.5,1.8h-5.5
	c-0.1-0.3-0.2-0.6-0.2-0.9c-0.1-0.3-0.1-0.6-0.1-1c-0.9,0.9-1.9,1.5-3,1.9c-1.2,0.4-2.4,0.5-3.6,0.5c-0.9,0-1.8-0.1-2.6-0.3
	c-0.8-0.2-1.5-0.6-2.1-1.1c-0.6-0.5-1.1-1.1-1.4-1.8c-0.3-0.7-0.5-1.6-0.5-2.6c0-1.1,0.2-2,0.6-2.8c0.4-0.7,0.9-1.3,1.5-1.7
	c0.6-0.4,1.3-0.8,2.1-1c0.8-0.2,1.6-0.4,2.4-0.5c0.8-0.1,1.6-0.2,2.4-0.3c0.8-0.1,1.5-0.2,2.1-0.3c0.6-0.2,1.1-0.4,1.4-0.7
	c0.4-0.3,0.5-0.7,0.5-1.3c0-0.6-0.1-1-0.3-1.4c-0.2-0.3-0.4-0.6-0.8-0.8c-0.3-0.2-0.7-0.3-1.1-0.4c-0.4-0.1-0.9-0.1-1.4-0.1
	c-1.1,0-1.9,0.2-2.5,0.7c-0.6,0.5-1,1.2-1.1,2.3h-5.4C857.8,610.6,858.2,609.6,858.7,608.7L858.7,608.7z M869.4,616.4L869.4,616.4
	c-0.3,0.1-0.7,0.2-1.1,0.3c-0.4,0.1-0.8,0.1-1.2,0.2c-0.4,0.1-0.9,0.1-1.3,0.2c-0.4,0.1-0.8,0.2-1.2,0.3c-0.4,0.1-0.7,0.3-1,0.5
	c-0.3,0.2-0.5,0.5-0.7,0.8c-0.2,0.3-0.3,0.7-0.3,1.3c0,0.5,0.1,0.9,0.3,1.2c0.2,0.3,0.4,0.6,0.7,0.8c0.3,0.2,0.7,0.3,1.1,0.4
	c0.4,0.1,0.8,0.1,1.3,0.1c1.1,0,1.9-0.2,2.5-0.5c0.6-0.4,1-0.8,1.3-1.3c0.3-0.5,0.5-1,0.5-1.5c0.1-0.5,0.1-0.9,0.1-1.2v-2
	C870,616.1,869.7,616.2,869.4,616.4L869.4,616.4z"/>
<path class="st0" d="M885,605.8v2.7h0.1c0.7-1.1,1.6-2,2.7-2.5c1.1-0.5,2.2-0.8,3.3-0.8c1.4,0,2.6,0.2,3.6,0.6
	c0.9,0.4,1.7,0.9,2.2,1.6c0.5,0.7,0.9,1.5,1.1,2.5c0.2,1,0.3,2.1,0.3,3.3v12.1h-5.4v-11.1c0-1.6-0.3-2.8-0.8-3.6
	c-0.5-0.8-1.4-1.2-2.7-1.2c-1.5,0-2.5,0.4-3.2,1.3c-0.7,0.9-1,2.3-1,4.3v10.3h-5.4v-19.7H885L885,605.8z"/>
</svg>
