<?xml version="1.0" encoding="utf-8"?>
<!-- Generator: Adobe Illustrator 22.0.1, SVG Export Plug-In . SVG Version: 6.00 Build 0)  -->
<svg version="1.1" id="Layer_1" xmlns="http://www.w3.org/2000/svg" xmlns:xlink="http://www.w3.org/1999/xlink" x="0px" y="0px"
	 viewBox="0 0 1000 1000" style="enable-background:new 0 0 1000 1000;" xml:space="preserve">
<style type="text/css">
	.st0{display:none;fill:#808184;}
	.st1{display:none;fill:#EC1C24;}
	.st2{fill:#0077BC;}
</style>
<g>
	<polygon class="st0" points="513.8,396 515.7,396 515.7,398.6 513.8,398.6 513.8,396 513.8,396 	"/>
	<polygon class="st0" points="509.6,396 511.5,396 511.5,398.6 509.6,398.6 509.6,396 509.6,396 	"/>
	<polygon class="st0" points="518,396 519.9,396 519.9,398.6 518,398.6 518,396 518,396 	"/>
	<polygon class="st0" points="522.2,396 524.1,396 524.1,398.6 522.2,398.6 522.2,396 522.2,396 	"/>
	<polygon class="st0" points="513.8,400.3 515.7,400.3 515.7,402.8 513.8,402.8 513.8,400.3 513.8,400.3 	"/>
	<polygon class="st0" points="509.6,400.3 511.5,400.3 511.5,402.8 509.6,402.8 509.6,400.3 509.6,400.3 	"/>
	<polygon class="st0" points="518,400.3 519.9,400.3 519.9,402.8 518,402.8 518,400.3 518,400.3 	"/>
	<polygon class="st0" points="522.2,400.3 524.1,400.3 524.1,402.8 522.2,402.8 522.2,400.3 522.2,400.3 	"/>
	<polygon class="st0" points="513.8,391.7 515.7,391.7 515.7,394.3 513.8,394.3 513.8,391.7 513.8,391.7 	"/>
	<polygon class="st1" points="509.6,387.5 511.5,387.5 511.5,394.3 509.6,394.3 509.6,387.5 509.6,387.5 	"/>
	<polygon class="st0" points="518,391.7 519.9,391.7 519.9,394.3 518,394.3 518,391.7 518,391.7 	"/>
	<polygon class="st0" points="513.8,387.5 515.7,387.5 515.7,390.1 513.8,390.1 513.8,387.5 513.8,387.5 	"/>
	<polygon class="st0" points="518,387.5 519.9,387.5 519.9,390.1 518,390.1 518,387.5 518,387.5 	"/>
	<polygon class="st1" points="513.8,382.2 515.7,382.2 515.7,385.8 513.8,385.8 513.8,382.2 513.8,382.2 	"/>
	<polygon class="st0" points="513.8,404.5 515.7,404.5 515.7,408.2 513.8,408.2 513.8,404.5 513.8,404.5 	"/>
	<polygon class="st0" points="509.6,404.5 511.5,404.5 511.5,408.7 509.6,408.7 509.6,404.5 509.6,404.5 	"/>
	<polygon class="st0" points="518,404.5 519.9,404.5 519.9,407.7 518,407.7 518,404.5 518,404.5 	"/>
	<polygon class="st1" points="505.4,396 507.3,396 507.3,409.5 505.4,409.5 505.4,396 505.4,396 	"/>
	<g>
		<polygon class="st0" points="522.2,404.5 524.1,404.5 524.1,407.2 522.2,407.2 522.2,404.5 522.2,404.5 		"/>
	</g>
	<path class="st1" d="M524.5,411.3c-0.3,0.3-0.6,0-0.9,0.2c0,0,0-0.2-0.1-0.1c-0.3,0.3-0.7,0.1-1.1-0.1l0-0.1
		c-0.1,0-0.2,0.1-0.2,0.1l0-0.1c0,0.1-0.1,0-0.2,0.1l-0.1-0.2l0,0.1c-0.1,0.3-0.3,0-0.4,0.1l0-0.1c-0.2,0.2-0.5,0.1-0.8,0.2l0-0.2
		c0,0.1-0.1,0.2-0.2,0.2c0-0.1-0.1,0.1-0.2,0l0,0c-0.1,0.1-0.1-0.1-0.1,0.1l0-0.1c0,0.2-0.1-0.1-0.1,0v0l-0.1,0l0,0
		c-0.1,0-0.2-0.1-0.2,0.1c0-0.1,0.1,0,0-0.2c-0.4,0.1-0.7,0.1-1.1,0.1l-0.1-0.1l-0.2,0.1l0-0.1c-0.1-0.1-0.1,0.2-0.1,0.1l0-0.1
		c-0.1,0.1-0.1,0.1-0.2,0.1l0-0.1c-0.1,0.1-0.1,0-0.2,0.1l0-0.1c-0.1-0.1,0,0.2-0.1,0.1l0-0.1c-0.1,0.2-0.2,0.1-0.3,0.2l0,0l-0.3,0
		c0,0,0-0.2-0.1-0.2c0,0.2-0.2,0.1-0.1,0.3c-0.1,0-0.2-0.1-0.3,0c0-0.1,0-0.2,0-0.2l-0.1-0.1c0-0.1,0.1,0,0-0.1l-0.2,0.1
		c-0.1,0.1-0.1,0.3-0.2,0.3l0-0.2l-0.1,0.3c0,0,0-0.1-0.1-0.1l0,0.1c0,0-0.1,0-0.2-0.1l0-0.1l-0.1,0.1l0,0c0,0-0.1,0.1-0.1,0.2
		c0,0,0-0.1,0-0.1l-0.2,0.1l0-0.1l-0.3,0.2c0,0.1,0-0.1,0-0.1c-0.1-0.1-0.3,0.2-0.4,0l0,0.1c-0.1,0-0.1-0.1-0.1-0.1c0-0.1,0,0-0.1,0
		c0,0,0,0,0,0c-0.1,0.1-0.3,0.2-0.4,0.1c0,0-0.1,0.2-0.1,0.2l0-0.1c0-0.1-0.1,0-0.1-0.1c-0.1,0.1,0.2-0.1,0.2,0c0-0.1-0.1,0.2-0.1,0
		c-0.1,0-0.1,0.1-0.2,0c0,0,0-0.1,0-0.1l-0.1,0.1l0,0c0,0.1-0.1,0,0,0.1c0-0.1-0.1,0.1-0.1-0.1v-0.1l-0.1,0.2l0-0.1
		c0,0.2-0.1,0-0.1,0.2c-0.1-0.1-0.2,0-0.2-0.1c-0.1,0.1-0.1,0.1-0.2,0.1l0-0.1c0-0.1-0.1,0-0.1,0c0,0-0.1-0.1-0.2-0.2l0,0.2
		c-0.1-0.2-0.2,0.1-0.2,0c0,0,0.1-0.1,0-0.2c-0.1-0.2-0.1,0.2-0.2,0.1l0,0.2c-0.1-0.1-0.1,0.1-0.1-0.1c0,0.1-0.1,0-0.1,0.1
		c-0.2-0.1-0.3,0.1-0.5-0.2l-0.1,0.1c0,0.1,0-0.1,0.1,0l0,0.1c0,0-0.1,0-0.1-0.2c-0.1-0.1-0.1,0.3-0.2,0.2l-0.1-0.1l-0.1,0.1
		c-0.1,0-0.1-0.1-0.1-0.3l-0.1,0.1l-0.1-0.1c0.1,0.1,0,0.1,0,0.1l0,0l-0.1,0l0.1,0.1l-0.1,0.1c0-0.1-0.1-0.1-0.1-0.1l0,0.1
		c0-0.1-0.1,0,0-0.1l0.1,0c0,0,0-0.1-0.1-0.1c0,0.1,0,0.2,0,0.2l0-0.1l-0.1,0l0,0.1l0,0c0,0.1-0.1,0.1-0.1,0.2l-0.1-0.1l0,0
		c-0.1,0-0.1,0-0.1,0.1v0l-0.1,0.1c-0.1-0.1-0.1-0.4-0.1-0.2c-0.1,0-0.1,0.2,0,0.3c-0.1,0-0.2,0.1-0.3,0l0,0.1c-0.2,0-0.3,0.2-0.5,0
		l0-0.2c0,0.1-0.1-0.1,0,0.1l0.1,0.2c-0.1,0.1-0.2,0.1-0.3,0l0,0.1c0-0.1-0.1-0.1-0.1-0.1l0,0.1l-0.1-0.1c0,0,0,0.2-0.1,0.1l0-0.1
		c0,0.1-0.1,0.2-0.2,0.2l-0.1-0.1l0,0.1l-0.2-0.2c-0.1,0.3-0.3,0.4-0.5,0.4l0-0.1c-0.1,0,0,0.1,0,0.1l-0.1-0.2
		c-0.1,0-0.1,0.1-0.1,0.2c0,0.1,0-0.1,0,0c0,0-0.1,0-0.1,0.1l-0.1-0.2l0,0.1c-0.1-0.1,0-0.3-0.1-0.5l0,0c-0.1-0.1,0.1-0.2,0-0.2
		c0,0.1,0,0.3,0,0.3c-0.1,0.1,0,0.3-0.1,0.3c0-0.1,0.1,0,0-0.1c-0.1-0.1-0.1,0.1-0.1,0.1l0,0.2l-0.1-0.1c0,0.1,0,0.2,0,0.2
		c0,0.2-0.1,0-0.1,0.1c-0.1-0.1,0-0.3-0.1-0.3c0,0.1,0,0.2,0,0.3l-0.1-0.2c-0.1-0.1,0,0.2-0.1,0l0,0.1l-0.1-0.1c0,0-0.1,0.2-0.1,0
		c0,0-0.1,0,0,0.1c0.1,0.1,0-0.1,0.1,0c-0.1-0.1-0.1,0-0.1,0.1l0-0.1l0,0.1l0-0.1l0,0.1c-0.1,0.1-0.1-0.2-0.1-0.1l0-0.1l-0.1,0
		l0,0.3c0,0.1-0.1-0.1-0.1,0l0-0.1c0,0-0.1-0.1-0.2-0.1c0,0,0,0.2,0,0.2l-0.1-0.1l0,0.2l-0.2-0.2l0-0.2l0,0c0-0.1-0.1-0.1-0.1-0.2
		l-0.1,0.1c0.2,0.2,0,0.3,0.1,0.5c-0.1,0.1-0.3-0.4-0.2-0.1c0,0,0.1,0.2,0.1,0.1c-0.1,0,0,0.2-0.1,0.2c0-0.1-0.1-0.2-0.1-0.3
		c0,0.1,0.1,0,0.1,0c-0.1-0.1-0.1-0.2-0.1-0.2c0,0-0.1,0.1,0,0.2c0,0.1,0.1,0,0.1,0.1c-0.1,0.1-0.1-0.1-0.1,0.1c0,0,0.1,0.1,0.1,0.1
		l0,0.1l0-0.1c-0.1,0,0,0.1-0.1,0.2l-0.1-0.1c0-0.1,0.1,0,0-0.2l-0.1,0.1l0-0.1c0,0-0.2-0.2-0.2-0.1l0.1,0.1l-0.1,0.2
		c-0.1-0.1-0.1,0-0.1-0.1c0.1,0.1,0.2,0,0.2-0.1c-0.1-0.1,0.1,0,0-0.2c-0.1,0-0.2-0.1-0.2-0.2l0,0.1l0.1,0.2c-0.1,0-0.1,0.1-0.1,0.2
		l-0.1-0.2l-0.3,0.1c0.1,0.1-0.1,0.1,0.1,0.2c0.1,0,0.2,0.1,0.2,0.2l-0.1-0.1c0,0.1-0.1-0.1-0.1,0.1c0-0.1-0.1-0.2-0.2-0.3
		c0,0.1-0.1-0.1-0.1,0l-0.1,0.3c-0.2,0-0.2,0.2-0.2,0.2c-0.1,0-0.2-0.2-0.2-0.1c0,0,0.2,0.1,0,0.1l0,0c0,0-0.2,0-0.1,0.2l-0.1-0.1
		l0,0.1l-0.1-0.1c-0.1,0-0.1,0.1-0.1,0.2l0.1,0c0,0.1-0.1,0.1-0.1,0.2l-0.1,0l0,0.1c-0.1,0-0.2,0-0.1,0l-0.2-0.2l0.2,0.1
		c0.1,0,0.1-0.1,0-0.1l0,0.1c-0.1,0-0.1-0.1-0.2-0.2l0,0.1v-0.2l0.1,0.1c-0.1-0.1-0.1-0.2,0-0.2c0.2,0.1,0-0.2,0.2-0.2l0.1,0.3
		l0.1,0c0-0.1-0.1-0.2-0.1-0.3l0.1,0.1c0-0.1-0.1-0.2,0-0.2l0.4-0.2l0.1,0.1c-0.1-0.2,0.1-0.2,0.2-0.3c0.2,0,0.2-0.2,0.4-0.1
		l0.6-0.4l0,0.1c0-0.1,0.1,0.1,0.1,0c-0.1-0.1,0-0.2,0-0.2c0.1,0,0.2-0.1,0.3-0.3l0,0.1c0-0.2,0.2-0.1,0.3-0.1l0.1,0.1
		c0-0.2,0.1-0.2,0.1-0.3l0.3,0c0.2-0.3,0.5-0.2,0.8-0.5l0,0.1c0.2-0.3,0.6-0.2,0.8-0.4l0,0.2c0.1,0,0.2-0.1,0.1-0.2
		c0.1,0,0.2-0.1,0.2,0c0.1,0,0.1-0.1,0.1-0.1l0.4,0l0,0l0,0.1c0-0.1,0.2,0,0.1-0.2c0.2,0.1,0.3-0.2,0.5,0l0-0.1
		c0.1,0,0.3,0.1,0.4-0.1l0,0.1l0-0.1c0.2-0.2,0.5,0,0.7,0c0.3-0.2,0.7-0.1,1.1-0.2l0,0c0.1-0.2,0.3,0.1,0.4-0.1l0.1,0.1
		c0.1-0.1,0.3,0.1,0.4-0.1l0,0c0.1,0.1,0.2-0.1,0.4,0l0,0.1c0.1,0.1,0.1-0.2,0.2,0l0-0.1c0.3,0,0.6-0.1,1-0.2c0.2,0.1,0,0.4,0.2,0.2
		l0,0c0.1-0.1,0.1,0.2,0.2,0.1c0-0.1,0-0.1,0-0.2c0.1,0.1,0.2,0.2,0.3,0.1l0,0.1c0.1-0.2,0.3-0.1,0.4-0.3l2.1-0.3
		c0.7,0,1.4-0.1,2.1,0c0.2,0.2,0.2,0.2,0.4,0.1l0,0.1c0-0.1,0.1,0,0.1-0.1l0.8,0l0,0.1l0.1-0.1l0,0l0-0.1c0.7-0.1,1.3,0.2,2,0.2
		c0.2,0.1,0.4,0,0.5,0c0.5,0.2,0.9,0.4,1.5,0.3C524.8,410.8,524.7,411.2,524.5,411.3L524.5,411.3L524.5,411.3z"/>
	<path class="st1" d="M505.9,414C506,414,506,413.9,505.9,414C506,413.9,506,414.1,505.9,414L505.9,414L505.9,414z"/>
	<polygon class="st1" points="506.2,413.8 506.3,413.7 506.3,413.8 506.2,413.8 506.2,413.8 	"/>
	<polygon class="st1" points="512.6,412.1 512.6,412.2 512.6,412.1 512.6,412.1 512.6,412.1 	"/>
	<path class="st1" d="M515.6,411.9C515.6,411.8,515.6,411.9,515.6,411.9L515.6,411.9L515.6,411.9L515.6,411.9z"/>
	<polygon class="st1" points="517.1,411.5 517.1,411.5 517.1,411.4 517.1,411.5 517.1,411.5 	"/>
	<path class="st1" d="M418.5,386.8c0.1,0.1,0.2,0.2,0.4,0.2c0.1,0.1,0.3,0.1,0.4,0.1c0.2,0,0.3,0,0.4-0.1c0.1-0.1,0.3-0.1,0.4-0.2
		c0.1-0.1,0.2-0.2,0.2-0.4c0.1-0.1,0.1-0.3,0.1-0.4c0-0.3-0.1-0.6-0.3-0.8c-0.2-0.2-0.5-0.3-0.8-0.3c-0.3,0-0.6,0.1-0.8,0.3
		c-0.2,0.2-0.3,0.5-0.3,0.8c0,0.2,0,0.3,0.1,0.4C418.4,386.5,418.4,386.6,418.5,386.8L418.5,386.8z"/>
	<path class="st1" d="M421.4,386.8c0.1,0.1,0.2,0.2,0.4,0.2c0.1,0.1,0.3,0.1,0.4,0.1c0.2,0,0.3,0,0.4-0.1c0.1-0.1,0.3-0.1,0.4-0.2
		c0.1-0.1,0.2-0.2,0.2-0.4c0.1-0.1,0.1-0.3,0.1-0.4c0-0.3-0.1-0.6-0.3-0.8c-0.2-0.2-0.5-0.3-0.8-0.3c-0.3,0-0.6,0.1-0.8,0.3
		c-0.2,0.2-0.3,0.5-0.3,0.8c0,0.2,0,0.3,0.1,0.4C421.3,386.5,421.3,386.6,421.4,386.8L421.4,386.8z"/>
	<path class="st1" d="M387.8,397.9c-0.1-0.1-0.2-0.2-0.3-0.2c-0.1-0.1-0.3-0.1-0.4-0.1c-0.3,0-0.6,0.1-0.8,0.3
		c-0.2,0.2-0.3,0.5-0.3,0.8c0,0.1,0,0.3,0.1,0.4c0.1,0.1,0.1,0.2,0.2,0.3c0.1,0.1,0.2,0.2,0.3,0.2c0.1,0.1,0.3,0.1,0.4,0.1
		c0.2,0,0.3,0,0.4-0.1c0.1-0.1,0.2-0.1,0.3-0.2c0.1-0.1,0.2-0.2,0.2-0.3c0.1-0.1,0.1-0.3,0.1-0.4c0-0.2,0-0.3-0.1-0.4
		C388,398.1,387.9,398,387.8,397.9L387.8,397.9z"/>
	<path class="st1" d="M390.9,397.9c-0.1-0.1-0.2-0.2-0.3-0.2c-0.1-0.1-0.3-0.1-0.4-0.1c-0.3,0-0.6,0.1-0.8,0.3
		c-0.2,0.2-0.3,0.5-0.3,0.8c0,0.1,0,0.3,0.1,0.4c0.1,0.1,0.1,0.2,0.2,0.3c0.1,0.1,0.2,0.2,0.3,0.2c0.1,0.1,0.3,0.1,0.4,0.1
		c0.2,0,0.3,0,0.4-0.1c0.1-0.1,0.2-0.1,0.3-0.2c0.1-0.1,0.2-0.2,0.2-0.3c0.1-0.1,0.1-0.3,0.1-0.4c0-0.2,0-0.3-0.1-0.4
		C391,398.1,391,398,390.9,397.9L390.9,397.9z"/>
	<path class="st1" d="M414.4,391.7c-0.2,0.3-0.4,0.6-0.7,0.9c-0.3,0.3-0.6,0.5-1,0.7c-0.4,0.2-0.8,0.4-1.3,0.5
		c-0.2-0.3-0.4-0.6-0.6-0.9c-0.3-0.3-0.6-0.6-0.9-1c-0.3-0.3-0.7-0.6-1-0.9c-0.3-0.3-0.7-0.6-1-0.8c0.5-0.1,1-0.1,1.6-0.2
		c0.6,0,1.2-0.1,1.8-0.1c0.4,0,0.8,0,1.1,0c0.4,0,0.7,0.1,1,0.1c0.3,0.1,0.6,0.1,0.8,0.2c0.2,0.1,0.3,0.1,0.4,0.2
		C414.6,391,414.5,391.3,414.4,391.7L414.4,391.7z M400.8,394.3c-0.2,0.3-0.4,0.6-0.7,0.8c-0.3,0.2-0.6,0.4-1,0.6
		c-0.4,0.1-0.8,0.2-1.2,0.2c-0.4,0-0.8-0.1-1.2-0.2c-0.4-0.1-0.7-0.3-1-0.6c-0.3-0.2-0.5-0.5-0.6-0.8c-0.2-0.3-0.2-0.7-0.2-1
		c0-0.4,0.1-0.7,0.2-1c0.2-0.3,0.4-0.6,0.7-0.8c0.3-0.2,0.6-0.4,1-0.6c0.4-0.1,0.8-0.2,1.2-0.2c0.4,0,0.8,0.1,1.2,0.2
		c0.4,0.1,0.7,0.3,1,0.6c0.3,0.2,0.5,0.5,0.7,0.8c0.2,0.3,0.2,0.7,0.2,1C401.1,393.6,401,394,400.8,394.3L400.8,394.3z M430.8,383.4
		v10.5h-1.9h-0.2h-0.6v-10.5h-2.3v10.5h-2h-0.1h-1.5v-5.3h-2.3v5.3H418h-0.1h-2.2c0.6-0.5,0.6-0.7,0.9-1.3c0.3-0.6,0.5-1.4,0.5-2.2
		c0-0.5-0.2-0.9-0.5-1.2c-0.3-0.3-0.7-0.6-1.2-0.8c-0.5-0.2-1.1-0.3-1.8-0.4c-0.7-0.1-1.4-0.1-2.1-0.1c-0.6,0-1.1,0-1.7,0.1
		c-0.6,0-1.1,0.1-1.7,0.2c-0.5,0.1-1,0.2-1.5,0.3c-0.4,0.1-0.8,0.2-1.1,0.3v2c0.1,0.1,0.3,0.2,0.5,0.4c0.2,0.2,0.4,0.3,0.7,0.5
		c0.2,0.2,0.5,0.4,0.7,0.6c0.3,0.2,0.5,0.4,0.8,0.7c0.2,0.2,0.1,0,0.3,0.3c0.2,0.2,0.4,0.4,0.6,0.6h-4.6h-0.2h-1.2
		c0-0.2,0-0.3,0.1-0.5c0-0.2,0-0.4,0-0.5c0-0.7-0.1-0.9-0.4-1.4c-0.3-0.6-0.6-1.1-1.1-1.5c-0.5-0.4-1-0.8-1.6-1
		c-0.6-0.2-1.3-0.4-2-0.4c-0.7,0-1.4,0.1-2,0.4c-0.6,0.2-1.2,0.6-1.6,1c-0.5,0.4-0.8,0.9-1.1,1.5c-0.3,0.6-0.4,1.2-0.4,1.8
		c0,0.3,0,0.2,0,0.6h-1.1h-0.2h-1.9v-5.3h-2.3v5.3H386h-0.2h-1.4c0.1-0.5,0.1-0.6,0.1-1.1c0-0.4,0-0.3,0-0.7l0-3.1h-2.3l0,3.2
		c0,0.5,0,0.9-0.1,1.3c0,0.4-0.1,0.8-0.3,1.3c-0.1,0.5-0.3,0.9-0.6,1.3c-0.2,0.4-0.5,0.7-0.8,1c-0.3,0.3-0.7,0.5-1.1,0.7
		c-0.4,0.2-0.9,0.2-1.4,0.2c-0.2,0-0.5,0-0.7-0.1c-0.2,0-0.5-0.1-0.8-0.2l-0.1,1.8c0.4,0.1,0.7,0.2,1.1,0.3c0.4,0.1,0.7,0.1,1,0.1
		c0.7,0,1.4-0.1,2.1-0.4c0.6-0.3,1.2-0.6,1.7-1.1c0.3-0.3,0.6-0.7,0.9-1c0.3-0.4,0.5-0.8,0.7-1.2h1.9h0.2h5.7h0.2h2.1
		c0.5,0.6,1.1,1,1.8,1.3c0.7,0.3,1.4,0.5,2.3,0.5c0.8,0,1.6-0.2,2.3-0.5c0.7-0.3,1.3-0.8,1.8-1.3h2.2h0.2h13.4h0.1h5.8h0.1h4.9h0.2
		h3.2c0.3,0,0.5-0.1,0.7-0.3c0.2-0.2,0.3-0.4,0.3-0.7v-11.8H430.8L430.8,383.4z"/>
	<path class="st1" d="M454.4,397.9c-0.1-0.1-0.2-0.2-0.4-0.2c-0.1-0.1-0.3-0.1-0.4-0.1c-0.3,0-0.6,0.1-0.8,0.3
		c-0.2,0.2-0.3,0.5-0.3,0.8c0,0.2,0,0.3,0.1,0.4c0.1,0.1,0.1,0.3,0.2,0.4c0.1,0.1,0.2,0.2,0.4,0.2c0.1,0.1,0.3,0.1,0.4,0.1
		c0.2,0,0.3,0,0.4-0.1c0.1-0.1,0.3-0.1,0.4-0.2c0.1-0.1,0.2-0.2,0.2-0.4c0.1-0.1,0.1-0.3,0.1-0.4c0-0.2,0-0.3-0.1-0.4
		C454.6,398.1,454.5,398,454.4,397.9L454.4,397.9z"/>
	<path class="st1" d="M457.5,397.9c-0.1-0.1-0.2-0.2-0.4-0.2c-0.1-0.1-0.3-0.1-0.4-0.1c-0.3,0-0.6,0.1-0.8,0.3
		c-0.2,0.2-0.3,0.5-0.3,0.8c0,0.2,0,0.3,0.1,0.4c0.1,0.1,0.1,0.3,0.2,0.4c0.1,0.1,0.2,0.2,0.4,0.2c0.1,0.1,0.3,0.1,0.4,0.1
		c0.2,0,0.3,0,0.4-0.1c0.1-0.1,0.3-0.1,0.4-0.2c0.1-0.1,0.2-0.2,0.2-0.4c0.1-0.1,0.1-0.3,0.1-0.4c0-0.2,0-0.3-0.1-0.4
		C457.7,398.1,457.6,398,457.5,397.9L457.5,397.9z"/>
	<path class="st1" d="M441.3,393.9c0.3-2.6,1.6-3.6,3.8-3.7c0.5,0,0.9,0.1,1.3,0.3c0.4,0.2,0.8,0.4,1.2,0.8c0.3,0.3,0.6,0.8,0.9,1.3
		c0.2,0.5,0.4,0.7,0.5,1.4L441.3,393.9L441.3,393.9z M491.5,383.4v10.5h-1.9h-0.2h-1.3c-0.1-0.6-0.2-1.1-0.4-1.6
		c-0.2-0.5-0.5-0.9-0.8-1.3c-0.3-0.4-0.7-0.8-1.2-1.1c-0.5-0.3-0.9-0.6-1.5-0.8c-0.5-0.2-1.1-0.4-1.7-0.5c-0.6-0.1-1.2-0.2-1.8-0.3
		c-0.6,0-1.3,0-1.9,0c-0.6,0.1-1.2,0.2-1.8,0.3l0.1,2.3c0.6-0.2,1.1-0.3,1.7-0.4c0.6-0.1,1.2-0.1,1.8,0c0.6,0,1.2,0.1,1.8,0.3
		c0.6,0.1,1.2,0.4,1.7,0.7c0.5,0.3,0.9,0.7,1.3,1.1c0.4,0.4,0.5,0.4,0.6,1.2h-11.1h-0.2h-1c0-0.3-0.1-0.6-0.2-1
		c-0.1-0.4-0.2-0.8-0.4-1.2c-0.2-0.4-0.4-0.8-0.8-1.2c-0.3-0.4-0.7-0.7-1.2-1c-0.5-0.3-1.1-0.5-1.8-0.7c-0.7-0.2-1.5-0.3-2.5-0.3
		h-4.1c0.5-0.7,0.5-0.7,1.1-1.2c0.6-0.5,1.3-0.7,2-1c0.5-0.1,1-0.3,1.4-0.3c0.5-0.1,1-0.1,1.4-0.2c0.5,0,0.9-0.1,1.3-0.1
		c0.4,0,0.8,0,1.1,0v-2.3c-0.4,0-0.8,0-1.2,0c-0.4,0-0.9,0-1.4,0.1c-0.5,0-1,0.1-1.6,0.2c-0.5,0.1-1.1,0.2-1.6,0.4
		c-0.5,0.2-1.1,0.4-1.6,0.7c-0.5,0.3-1,0.6-1.5,1c-0.5,0.4-0.9,0.8-1.3,1.3c-0.4,0.5-0.8,1-1,1.7c-0.1,0.5-0.1,0.8-0.1,1
		c0,0.2,0.1,0.4,0.2,0.5c0.1,0.2,0.3,0.3,0.5,0.4c0.2,0.1,0.4,0.1,0.7,0.1v0h5.6c0.7,0,1.2,0.1,1.7,0.2c0.5,0.1,0.7,0.3,1.1,0.5
		c0.4,0.2,0.7,0.4,0.9,0.6c0.2,0.2,0.4,0.5,0.6,0.7c0.1,0.3,0.3,0.5,0.3,0.8c0.1,0.3,0,0.1,0.1,0.3h-13.2h-0.2h-1.9v-5.3h-2.1v5.3
		h-1.7h-0.2h-1.2c-0.1-1-0.3-1.5-0.7-2.3c-0.4-0.8-0.8-1.4-1.4-1.9c-0.5-0.5-1.2-0.9-1.8-1.2c-0.7-0.3-1.4-0.4-2-0.4
		c-0.7,0-1.4,0.1-2.1,0.4c-0.7,0.3-1.3,0.7-1.9,1.2c-0.6,0.6-1,1.2-1.4,2.1c-0.4,0.8-0.6,1.6-0.6,2.7c-0.4,0.2-0.7,0.4-0.9,0.6
		c-0.3,0.2-0.7,0.7-0.9,1c-0.2,0.3-0.3,0.6-0.4,0.9c-0.1,0.3-0.1,0.7-0.1,1.1c0,0.6,0.1,1.3,0.4,2c0.3,0.7,0.6,1.3,1.2,1.9l1.6-1.2
		c-0.4-0.4-0.6-0.9-0.8-1.4c-0.2-0.5-0.3-0.9-0.3-1.4c0-0.3,0-0.5,0.1-0.7c0.1-0.2,0.2-0.4,0.4-0.6c0.2-0.2,0.4-0.3,0.7-0.4
		c0.3-0.1,0.6-0.2,1.1-0.2h11.1h0.2h5.7h0.2h16.4h0.2h14.5h0.2h3.2c0.3,0,0.5-0.1,0.7-0.3c0.2-0.2,0.3-0.4,0.3-0.7v-11.8H491.5
		L491.5,383.4z"/>
	<polygon class="st1" points="498.3,383.4 498.3,396.2 496,396.2 496,383.4 498.3,383.4 498.3,383.4 	"/>
	<polygon class="st0" points="380.2,409 376.4,409 376.4,404 380.2,404 380.2,405 378,405 378,405.9 380.1,405.9 380.1,406.9 
		378,406.9 378,408 380.2,408 380.2,409 	"/>
	<polygon class="st0" points="385.1,409 381.2,409 381.2,404 382.8,404 382.8,407.8 385.1,407.8 385.1,409 	"/>
	<polygon class="st0" points="393.5,409 392,409 392,407.1 389.7,407.1 389.7,409 388.2,409 388.2,404 389.7,404 389.7,405.8 
		392,405.8 392,404 393.5,404 393.5,409 	"/>
	<path class="st0" d="M397.9,407.1l-0.7-1.8l-0.7,1.8H397.9L397.9,407.1z M400.3,409h-1.6l-0.4-1h-2.2l-0.4,1h-1.6l2.2-5h1.7
		L400.3,409L400.3,409z"/>
	<polygon class="st0" points="406.2,409 404.4,409 402.4,406.7 402.4,409 400.9,409 400.9,404 402.4,404 402.4,406.2 404.3,404 
		405.9,404 404,406.4 406.2,409 	"/>
	<polygon class="st0" points="410.7,409 406.9,409 406.9,404 410.6,404 410.6,405 408.4,405 408.4,405.9 410.5,405.9 410.5,406.9 
		408.4,406.9 408.4,408 410.7,408 410.7,409 	"/>
	<polygon class="st0" points="415.5,409 411.7,409 411.7,404 415.4,404 415.4,405 413.2,405 413.2,405.9 415.3,405.9 415.3,406.9 
		413.2,406.9 413.2,408 415.5,408 415.5,409 	"/>
	<polygon class="st0" points="422.3,409 420.8,409 420.8,406.1 419.5,407.8 419.3,407.8 418,406.1 418,409 416.5,409 416.5,404 
		417.9,404 419.4,405.9 421,404 422.3,404 422.3,409 	"/>
	<polygon class="st0" points="425.8,404 428.5,404 428.5,404.6 426.5,404.6 426.5,406 428.5,406 428.5,406.7 426.5,406.7 426.5,409 
		425.8,409 425.8,404 	"/>
	<path class="st0" d="M431.7,404.6c-0.6,0-1.1,0.2-1.4,0.5c-0.4,0.4-0.6,0.8-0.6,1.4c0,0.5,0.2,1,0.6,1.4c0.4,0.4,0.8,0.5,1.4,0.5
		c0.6,0,1-0.2,1.4-0.6c0.4-0.4,0.6-0.8,0.6-1.4c0-0.5-0.2-1-0.6-1.4C432.8,404.8,432.3,404.6,431.7,404.6L431.7,404.6z M431.7,403.9
		c0.8,0,1.4,0.2,2,0.7c0.5,0.5,0.8,1.1,0.8,1.9s-0.3,1.4-0.8,1.9c-0.5,0.5-1.2,0.7-2,0.7c-0.8,0-1.4-0.2-1.9-0.7
		c-0.5-0.5-0.8-1.1-0.8-1.8c0-0.8,0.3-1.4,0.8-1.9C430.3,404.1,430.9,403.9,431.7,403.9L431.7,403.9z"/>
	<path class="st0" d="M436.3,404.6h-0.2v1.6h0.3c0.4,0,0.6,0,0.8-0.1c0.1-0.1,0.2-0.2,0.3-0.3c0.1-0.1,0.1-0.3,0.1-0.4
		c0-0.2,0-0.3-0.1-0.4c-0.1-0.1-0.2-0.2-0.4-0.3C436.9,404.6,436.7,404.6,436.3,404.6L436.3,404.6z M435.4,409V404h1.3
		c0.5,0,0.9,0.1,1.2,0.4c0.3,0.3,0.5,0.6,0.5,1c0,0.3-0.1,0.6-0.2,0.8c-0.1,0.2-0.4,0.4-0.6,0.5c0.2,0.1,0.3,0.3,0.5,0.4
		c0.2,0.2,0.4,0.5,0.7,1c0.2,0.3,0.3,0.5,0.4,0.6l0.3,0.4h-0.9l-0.2-0.3c0,0,0,0,0-0.1l-0.1-0.2l-0.2-0.4l-0.2-0.4
		c-0.1-0.2-0.3-0.4-0.4-0.5c-0.1-0.1-0.2-0.2-0.3-0.3c-0.1-0.1-0.3-0.1-0.5-0.1h-0.2v2.2H435.4L435.4,409z"/>
	<path class="st0" d="M446.3,407.9v0.8c-0.5,0.3-1.1,0.4-1.8,0.4c-0.6,0-1-0.1-1.4-0.3c-0.4-0.2-0.7-0.5-0.9-0.9
		c-0.2-0.4-0.3-0.8-0.3-1.3c0-0.7,0.3-1.4,0.8-1.9c0.5-0.5,1.2-0.8,1.9-0.8c0.5,0,1.1,0.1,1.8,0.4v0.8c-0.6-0.3-1.2-0.5-1.7-0.5
		c-0.6,0-1.1,0.2-1.4,0.5c-0.4,0.4-0.6,0.8-0.6,1.4c0,0.6,0.2,1,0.6,1.4c0.4,0.4,0.9,0.5,1.4,0.5
		C445.1,408.4,445.7,408.2,446.3,407.9L446.3,407.9z"/>
	<path class="st0" d="M449.7,404.6c-0.6,0-1.1,0.2-1.4,0.5c-0.4,0.4-0.6,0.8-0.6,1.4c0,0.5,0.2,1,0.6,1.4c0.4,0.4,0.8,0.5,1.4,0.5
		c0.6,0,1-0.2,1.4-0.6c0.4-0.4,0.6-0.8,0.6-1.4c0-0.5-0.2-1-0.6-1.4C450.7,404.8,450.2,404.6,449.7,404.6L449.7,404.6z M449.7,403.9
		c0.8,0,1.4,0.2,2,0.7c0.5,0.5,0.8,1.1,0.8,1.9s-0.3,1.4-0.8,1.9c-0.5,0.5-1.2,0.7-2,0.7c-0.8,0-1.4-0.2-1.9-0.7
		c-0.5-0.5-0.8-1.1-0.8-1.8c0-0.8,0.3-1.4,0.8-1.9C448.2,404.1,448.9,403.9,449.7,403.9L449.7,403.9z"/>
	<polygon class="st0" points="457.3,404 458,404 458,409 457.4,409 454,405.1 454,409 453.3,409 453.3,404 453.9,404 457.3,407.9 
		457.3,404 	"/>
	<path class="st0" d="M460.3,406.9l-0.6-0.3c-0.3-0.2-0.6-0.4-0.7-0.6c-0.1-0.2-0.2-0.4-0.2-0.7c0-0.4,0.1-0.7,0.4-1
		c0.3-0.2,0.6-0.4,1.1-0.4c0.4,0,0.8,0.1,1.2,0.4v0.8c-0.4-0.4-0.8-0.5-1.2-0.5c-0.2,0-0.4,0.1-0.6,0.2c-0.2,0.1-0.2,0.2-0.2,0.4
		c0,0.2,0.1,0.3,0.2,0.4c0.1,0.1,0.3,0.3,0.5,0.4l0.6,0.3c0.6,0.4,0.9,0.8,0.9,1.4c0,0.4-0.1,0.7-0.4,1c-0.3,0.3-0.6,0.4-1.1,0.4
		c-0.5,0-1-0.2-1.4-0.5v-0.9c0.4,0.5,0.8,0.7,1.4,0.7c0.2,0,0.4-0.1,0.6-0.2c0.2-0.1,0.2-0.3,0.2-0.5
		C461,407.5,460.8,407.2,460.3,406.9L460.3,406.9z"/>
	<polygon class="st0" points="462.1,404 466.3,404 466.3,404.6 464.5,404.6 464.5,409 463.8,409 463.8,404.6 462.1,404.6 462.1,404 
			"/>
	<path class="st0" d="M467.9,404.6h-0.2v1.6h0.3c0.4,0,0.6,0,0.8-0.1c0.1-0.1,0.2-0.2,0.3-0.3c0.1-0.1,0.1-0.3,0.1-0.4
		c0-0.2,0-0.3-0.1-0.4c-0.1-0.1-0.2-0.2-0.4-0.3S468.3,404.6,467.9,404.6L467.9,404.6z M467,409V404h1.3c0.5,0,0.9,0.1,1.2,0.4
		c0.3,0.3,0.5,0.6,0.5,1c0,0.3-0.1,0.6-0.2,0.8c-0.1,0.2-0.4,0.4-0.6,0.5c0.2,0.1,0.3,0.3,0.5,0.4c0.2,0.2,0.4,0.5,0.7,1
		c0.2,0.3,0.3,0.5,0.4,0.6l0.3,0.4H470l-0.2-0.3c0,0,0,0,0-0.1l-0.1-0.2l-0.2-0.4l-0.2-0.4c-0.1-0.2-0.3-0.4-0.4-0.5
		c-0.1-0.1-0.2-0.2-0.3-0.3c-0.1-0.1-0.3-0.1-0.5-0.1h-0.2v2.2H467L467,409z"/>
	<path class="st0" d="M474.8,404h0.7v2.9c0,0.4,0,0.7-0.1,0.9c-0.1,0.2-0.1,0.4-0.2,0.5c-0.1,0.1-0.2,0.2-0.3,0.4
		c-0.4,0.3-0.9,0.5-1.6,0.5c-0.7,0-1.2-0.2-1.6-0.5c-0.1-0.1-0.2-0.2-0.3-0.4c-0.1-0.1-0.2-0.3-0.2-0.5c-0.1-0.2-0.1-0.5-0.1-0.9
		V404h0.7v2.9c0,0.5,0.1,0.8,0.2,1c0.1,0.2,0.3,0.3,0.5,0.4c0.2,0.1,0.5,0.2,0.8,0.2c0.4,0,0.8-0.1,1.1-0.3c0.1-0.1,0.2-0.3,0.3-0.4
		c0.1-0.2,0.1-0.4,0.1-0.8V404L474.8,404z"/>
	<path class="st0" d="M480.9,407.9v0.8c-0.5,0.3-1.1,0.4-1.8,0.4c-0.6,0-1-0.1-1.4-0.3c-0.4-0.2-0.7-0.5-0.9-0.9
		c-0.2-0.4-0.3-0.8-0.3-1.3c0-0.7,0.3-1.4,0.8-1.9c0.5-0.5,1.2-0.8,1.9-0.8c0.5,0,1.1,0.1,1.8,0.4v0.8c-0.6-0.3-1.2-0.5-1.7-0.5
		c-0.6,0-1.1,0.2-1.4,0.5c-0.4,0.4-0.6,0.8-0.6,1.4c0,0.6,0.2,1,0.6,1.4c0.4,0.4,0.9,0.5,1.4,0.5
		C479.7,408.4,480.3,408.2,480.9,407.9L480.9,407.9z"/>
	<polygon class="st0" points="481.3,404 485.6,404 485.6,404.6 483.8,404.6 483.8,409 483.1,409 483.1,404.6 481.3,404.6 481.3,404 
			"/>
	<polygon class="st0" points="486.3,404 487,404 487,409 486.3,409 486.3,404 	"/>
	<path class="st0" d="M490.6,404.6c-0.6,0-1.1,0.2-1.4,0.5c-0.4,0.4-0.6,0.8-0.6,1.4c0,0.5,0.2,1,0.6,1.4c0.4,0.4,0.8,0.5,1.4,0.5
		c0.6,0,1-0.2,1.4-0.6c0.4-0.4,0.6-0.8,0.6-1.4c0-0.5-0.2-1-0.6-1.4C491.7,404.8,491.2,404.6,490.6,404.6L490.6,404.6z M490.6,403.9
		c0.8,0,1.4,0.2,2,0.7c0.5,0.5,0.8,1.1,0.8,1.9s-0.3,1.4-0.8,1.9c-0.5,0.5-1.2,0.7-2,0.7c-0.8,0-1.4-0.2-1.9-0.7
		c-0.5-0.5-0.8-1.1-0.8-1.8c0-0.8,0.3-1.4,0.8-1.9C489.2,404.1,489.8,403.9,490.6,403.9L490.6,403.9z"/>
	<polygon class="st0" points="498.3,404 499,404 499,409 498.3,409 494.9,405.1 494.9,409 494.3,409 494.3,404 494.8,404 
		498.3,407.9 498.3,404 	"/>
</g>
<g>
	<g>
		<g>
			<path class="st2" d="M855.8,559.8h32.5v61.7h-33.1L855.8,559.8 M827.3,346.2v205h-33.1V426.7c0-12-2.3-21.7-12.6-28
				C802.7,373.6,827.3,346.2,827.3,346.2 M794.7,559.8h33.7c0,0-1.1,19.4-1.1,52c0,32.5-28.5,45.7-44,45.7
				c-15.4,0-50.8-7.4-50.8-45.7v-27.4H393.9c0,0,5.7,32-18.8,53.1c-24.6,21.1-54.8,14.8-77.1-6.3c-2.9-4,0.6-3.4,6.9-1.7
				c6.3,1.7,37.1,6.8,48.5-15.4c11.4-22.3,6.8-30.8,6.8-30.8h-69.7v-25.7h473.9c0,0-0.6,42.8-0.6,55.9c0,13.1,30.8,17.7,30.8-3.4
				V559.8z M260.9,555.8v28.5h-62.8c4.6,57.1-47.4,90.2-102.8,45.7c-2.9-2.9,2.3-2.3,9.1-2.3c6.9,0,40.1,1.6,55.4-24
				c8.6-14.3,2.3-48,2.3-48H260.9z M161.6,549.5h100.5v-97.1C171.3,443.3,163.9,478.7,161.6,549.5 M230.7,519.2h-31.4
				c-3.4-22.3,14.3-38.3,31.4-36V519.2z M717.7,507.2c4.6,0.6,8,4,12,7.4c4,3.4,4.6,9.1-6.9,9.1H393.9V449
				c-48.5-9.1-81.6,12.6-93.6,42.2c-12,29.7-8,61.1-8,61.1h472.2V447.3C764.5,447.3,733.7,485.5,717.7,507.2 M362.5,524.4h-36
				c-0.6-28,20.6-40.5,36-37.1V524.4z M590.3,606.6c10.4,0,18.8,8.4,18.8,18.8c0,10.4-8.4,18.8-18.8,18.8
				c-10.4,0-18.8-8.4-18.8-18.8C571.5,615,579.9,606.6,590.3,606.6 M539,606.6c10.4,0,18.8,8.4,18.8,18.8c0,10.4-8.4,18.8-18.8,18.8
				c-10.4,0-18.8-8.4-18.8-18.8C520.1,615,528.6,606.6,539,606.6 M856.4,341.7l49.1,61.1c0,0-1.1-1.1-9.1,1.7c-8,2.9-8,8-8,22.3V550
				h-32V341.7z"/>
		</g>
	</g>
</g>
</svg>
