<?xml version="1.0" encoding="utf-8"?>
<!-- Generator: Adobe Illustrator 26.0.1, SVG Export Plug-In . SVG Version: 6.00 Build 0)  -->
<svg version="1.1" id="Layer_1" xmlns="http://www.w3.org/2000/svg" xmlns:xlink="http://www.w3.org/1999/xlink" x="0px" y="0px"
	 viewBox="0 0 762 340" style="enable-background:new 0 0 762 340;" xml:space="preserve">
<style type="text/css">
	.st0{fill:#020303;}
	.st1{fill:#FCFCFC;}
	.st2{fill:#00A650;}
	.st3{fill:#00B6F1;}
	.st4{fill:#F8FCFF;}
</style>
<g id="surface1">
	<path class="st0" d="M295.87,157.33c7.07,13.43-15.59,40.55-15.59,40.55l-1.36,0.51c-15.35,5.54-43.11,1.88-43.07,1.87l-1.74,3.59
		c-4.22,18.28-21.99,29.71-36.61,32.61c0,0-30.06,3.98-38.09-14.82c-10.17-23.86,10.83-52.36,22.96-64.48l3.9-2.48
		c4.73-0.96,2.75,7.77-1.02,14.79c-4.68,8.73-13.41,25.03-8.58,33.18c0,0,16.75,11.22,41.8-0.43l1.37-1.72
		c0,0-4.88-17.75-6.19-22.13l-0.34-1.77c0,0,3.37-5,4.41-7.08c1.81-3.48,10.21-15.21,10.21-15.21c0.56,1.47,4.23,9.47,4.6,10.91
		c1.23,4.87,2.61,7.49,4.75,7.54c2.88,0.13,5.38-3.48,7.86-5.91c10.72-10.66,22.92-22.79,40.2-19.45l0.8,0.12l0.62,0.42l1.16,0.82
		C290.73,150.54,293.77,153.32,295.87,157.33 M287.2,174.1c-1.05-7.42-10.26-10.29-10.26-10.29c-17.17-2-28.12,15.21-28.12,15.21
		c7.32,2.5,15.31,3.59,22.72,2.93c3.6-0.29,11.44-0.7,11.44-0.7c1.6-0.45,2.99-1.56,3.77-3.04
		C287.44,176.76,287.2,174.1,287.2,174.1"/>
	<path class="st0" d="M295.87,157.33l-0.62,0.33c0.89,1.69,1.28,3.63,1.28,5.75c0.02,6.8-4.15,15.38-8.38,22.16
		c-4.2,6.81-8.42,11.83-8.42,11.84l0.54,0.46l-0.25-0.68l-1.36,0.53l0.24,0.66l-0.23-0.66c-6.47,2.33-15.33,3.02-23.29,3.02
		c-5.26,0-10.13-0.29-13.68-0.59c-1.78-0.16-3.22-0.3-4.22-0.41l-1.15-0.14l-0.3-0.04l-0.06-0.01l-0.02,0.06l0.02-0.06l-0.02,0.06
		l0.02-0.06l-0.11,0.61l0.15-0.61l-0.04-0.01l-0.11,0.61l0.15-0.61l-0.17,0.68l0.25-0.66l-0.08-0.02l-0.17,0.68l0.25-0.66
		l-0.25,0.66l0.37-0.6l-0.12-0.07l-0.25,0.66l0.37-0.6l-0.37,0.61h0.7l-0.33-0.61l-0.37,0.61h0.7h-0.7v0.71l0.7-0.71h-0.7v0.71
		v-0.71l-0.64-0.32l-1.73,3.6l-0.04,0.08l-0.02,0.07c-4.11,17.91-21.65,29.23-36.05,32.07l0.13,0.7l-0.08-0.71
		c-0.01,0-2.62,0.36-6.54,0.36c-9.27,0.02-25.46-2.02-30.83-14.75c-1.84-4.32-2.64-8.79-2.65-13.3
		c-0.03-19.88,15.63-40.59,25.45-50.38l-0.48-0.5l0.37,0.6l3.9-2.48l-0.37-0.59l0.14,0.69l0.52-0.06l1.02,0.52l0.39,1.86
		c0.02,2.76-1.54,7.41-3.71,11.43c-3.71,6.97-10.05,18.68-10.08,27.6c0,2.31,0.44,4.47,1.51,6.29l0.09,0.14l0.13,0.09
		c0.07,0.05,7.46,4.99,19.77,4.99c6.38,0,14.07-1.34,22.72-5.36l0.14-0.07l1.48-1.83l0.22-0.29l-0.09-0.36c0,0-4.88-17.75-6.2-22.16
		l-0.67,0.21l0.7-0.14l-0.34-1.76l-0.7,0.13l0.58,0.4c0.01-0.02,3.36-4.98,4.46-7.14l-0.63-0.34l0.62,0.34
		c0.87-1.66,3.43-5.48,5.75-8.84c2.31-3.37,4.4-6.29,4.41-6.29l-0.57-0.42l-0.65,0.26c0.57,1.51,4.27,9.57,4.58,10.83
		c0.62,2.47,1.28,4.38,2.11,5.77c0.82,1.38,1.92,2.29,3.3,2.32l0.02-0.71l-0.02,0.71l0.17,0.01c3.42-0.11,5.8-3.84,8.2-6.14h0.01
		c9.48-9.44,20.01-19.83,33.92-19.81c1.83,0,3.71,0.18,5.65,0.56h0.01l0.66,0.09l0.48,0.34l1.17,0.81l0.01,0.01l0.01,0.01
		c2.71,1.73,5.66,4.43,7.69,8.3L295.87,157.33l0.62-0.33c-2.18-4.15-5.3-7.02-8.18-8.84l-0.38,0.6l0.4-0.58l-1.17-0.82v-0.01
		l-0.63-0.42l-0.12-0.09l-0.95-0.15l-0.11,0.71l0.13-0.7c-2.04-0.4-4.01-0.57-5.92-0.57c-14.67,0.02-25.43,10.81-34.91,20.21h0.01
		c-2.47,2.5-5.02,5.82-7.23,5.72l-0.11,0h-0.01c-0.77-0.03-1.42-0.46-2.14-1.63c-0.7-1.15-1.34-2.99-1.95-5.39
		c-0.43-1.62-4.09-9.54-4.63-10.98l-0.47-1.24l-0.76,1.07c-0.01,0.02-8.39,11.7-10.26,15.3v0.01c-1,1.98-4.37,6.99-4.37,6.99
		l-0.17,0.25l0.39,2.05l0.02,0.04l0.01,0.03c1.3,4.37,6.17,22.11,6.18,22.14l0.68-0.2l-0.55-0.45l-1.37,1.71l0.55,0.46l-0.29-0.66
		c-8.46,3.95-15.95,5.23-22.13,5.23c-5.96,0-10.72-1.2-14-2.39c-3.27-1.2-4.99-2.37-4.99-2.36l-0.39,0.59l0.6-0.37
		c-0.91-1.54-1.31-3.41-1.31-5.55c-0.04-8.29,6.18-20,9.9-26.91c2.24-4.19,3.86-8.89,3.88-12.11c-0.01-1.02-0.16-1.91-0.61-2.63
		c-0.45-0.73-1.27-1.18-2.21-1.17l-0.8,0.09l-0.12,0.02l-4.01,2.55l-0.07,0.04l-0.05,0.05c-9.96,9.97-25.84,30.77-25.88,51.39
		c0,4.68,0.83,9.36,2.76,13.88c5.92,13.7,22.74,15.6,32.12,15.6c4,0,6.69-0.35,6.71-0.36h0.05c14.82-2.95,32.81-14.47,37.14-33.14
		l-0.68-0.17l0.64,0.31l1.73-3.59l0.5-1.04h-1.12l-0.7,0.72l0.33,0.59l0.22,0.1c0.34,0.07,9.16,1.21,19.71,1.22
		c8.04,0,17-0.67,23.75-3.11h0.01l1.37-0.52l0.17-0.06l0.12-0.14c0.01-0.08,17.05-20.27,17.12-34.93c0-2.3-0.43-4.48-1.46-6.41h0.01
		L295.87,157.33z M287.2,174.1l0.69-0.1c-1.23-8.02-10.71-10.81-10.75-10.87l-0.07-0.02l-0.07-0.01c-0.96-0.1-1.92-0.16-2.85-0.16
		c-16.05,0.04-25.86,15.64-25.93,15.69l-0.48,0.77l0.85,0.29c5.98,2.05,12.39,3.17,18.59,3.17c1.48,0,2.96-0.07,4.4-0.21
		c3.59-0.28,11.41-0.69,11.42-0.69h0.08l0.08-0.02c1.79-0.52,3.33-1.75,4.2-3.41l0.01-0.01v0c0.5-1.06,0.57-2.38,0.57-3.34
		l-0.04-1.14v-0.01l-0.01-0.02L287.2,174.1l-0.7,0.07l0.04,1.01l-0.42,2.71l0.63,0.32l-0.62-0.34c-0.68,1.3-1.92,2.31-3.34,2.71
		l0.2,0.68l-0.04-0.71c0,0-7.83,0.4-11.46,0.69l-0.01,0.01c-1.41,0.12-2.84,0.18-4.29,0.18c-6.04,0-12.3-1.08-18.13-3.08l-0.24,0.68
		l0.6,0.38c0,0,0.58-0.92,1.72-2.34c3.43-4.25,11.71-12.72,23.02-12.7c0.88,0,1.78,0.05,2.7,0.16l0.09-0.71l-0.21,0.68
		c0,0,2.21,0.7,4.55,2.28c2.35,1.59,4.74,4.03,5.22,7.44L287.2,174.1l-0.7,0.07"/>
	<path class="st1" d="M299.92,156.64c7.06,13.39-15.9,41.13-15.9,41.13l-1.36,0.51c-15.73,6.67-42.87,2.63-42.87,2.63l-1.73,3.57
		c-5.45,17.65-22,30.68-36.83,32.22c0,0-30.79,3.73-38.49-15.21c-9.76-24.02,11.21-51.65,23.4-64.45l3.67-3.25
		c6.27-3.07,2.96,8.52-0.8,15.54c-4.68,8.76-13.41,25.04-8.57,33.22c0,0,16.79,11.18,41.75-0.45l1.39-1.75c0,0-4.9-17.71-6.23-22.15
		l-0.28-1.73c0,0,3.36-4.95,4.41-7.04c1.84-3.54,10.18-15.28,10.18-15.28c0.57,1.48,4.27,9.52,4.62,10.98
		c1.25,4.82,2.59,7.02,4.74,7.07c2.89,0.13,5.54-2.91,7.85-5.47c9.77-10.84,26.57-24.54,40.34-19.57
		C296.15,149.64,297.79,152.64,299.92,156.64 M282.29,173.61c-0.67-4.87-6.7-6.71-6.7-6.71c-11.18-1.35-19.56,10.22-19.56,10.22
		c4.72,1.61,11.21,2,16.06,1.61c2.31-0.21,7.43-0.47,7.43-0.47c1.07-0.33,1.96-1.06,2.47-2
		C282.45,175.31,282.29,173.61,282.29,173.61"/>
	<path class="st0" d="M299.92,156.64l-0.62,0.33c0.88,1.66,1.27,3.58,1.27,5.69c0.02,6.85-4.22,15.59-8.52,22.52
		c-4.27,6.97-8.56,12.12-8.56,12.14l0.53,0.45l-0.23-0.67l-1.37,0.5l-0.01,0.02l-0.02,0.01c-6.95,2.95-16.34,3.8-24.51,3.8
		c-9.9,0-17.98-1.22-18-1.22l-0.51-0.07l-1.95,4.05l-0.03,0.05l-0.02,0.05c-5.34,17.36-21.73,30.24-36.23,31.72h-0.01l-0.01,0.01
		c0,0-2.42,0.29-6.08,0.29c-9.35,0.02-26.43-1.98-31.67-15.07c-1.71-4.22-2.46-8.55-2.46-12.91c-0.04-19.91,15.75-40.34,25.7-50.78
		l-0.5-0.49l0.45,0.53l3.68-3.24l-0.46-0.53l0.3,0.64l1.48-0.44l0.73,0.4l0.31,1.62c0.02,3.09-2.03,8.9-4.23,12.98
		c-3.71,6.98-10.05,18.66-10.07,27.61c0,2.32,0.44,4.49,1.52,6.32l0.08,0.14l0.13,0.09c0.07,0.05,7.45,4.95,19.72,4.95
		c6.38,0,14.08-1.32,22.71-5.35l0.15-0.07l1.49-1.88l0.22-0.29l-0.09-0.35c0,0-4.89-17.71-6.23-22.18l-0.68,0.21l0.7-0.12
		l-0.29-1.72l-0.69,0.11l0.58,0.41c0.01-0.02,3.35-4.93,4.45-7.12l-0.62-0.32l0.62,0.33c1.78-3.42,10.12-15.19,10.13-15.2
		l-0.57-0.42l-0.65,0.25c0.58,1.51,4.31,9.63,4.59,10.89l0.01,0.01v0.02c0.64,2.44,1.3,4.25,2.13,5.53
		c0.82,1.28,1.95,2.05,3.28,2.07l0.01-0.71l-0.03,0.71h0.23c3.34-0.07,5.89-3.23,8.17-5.7v-0.01v0.01
		c8.27-9.22,21.74-20.43,33.65-20.4c2.04,0.01,4.01,0.32,5.93,1.01c6.78,2.48,8.15,5.15,10.31,9.16v-0.01L299.92,156.64l0.62-0.34
		c-2.1-4-4.01-7.32-11.08-9.82c-2.08-0.75-4.23-1.09-6.4-1.09c-12.76,0.05-26.27,11.54-34.69,20.86v-0.01
		c-2.25,2.54-4.83,5.3-7.14,5.24h-0.16l-0.01-0.01h-0.01c-0.82-0.03-1.44-0.38-2.14-1.42c-0.69-1.05-1.33-2.74-1.95-5.11l-0.68,0.18
		l0.68-0.16c-0.4-1.68-4.1-9.62-4.65-11.08l-0.47-1.22l-0.75,1.07c-0.02,0.02-8.33,11.71-10.23,15.36l-0.01,0.02
		c-1,2-4.35,6.96-4.36,6.97l-0.16,0.23l0.32,2l0.02,0.05l0.01,0.05c1.32,4.41,6.22,22.12,6.22,22.14l0.68-0.19l-0.55-0.44
		l-1.39,1.74l0.55,0.45l-0.3-0.64c-8.45,3.93-15.93,5.22-22.12,5.22c-5.95,0-10.69-1.19-13.96-2.38c-3.26-1.18-4.98-2.35-5-2.34
		l-0.38,0.59l0.61-0.37c-0.92-1.54-1.33-3.44-1.33-5.59c-0.02-8.3,6.19-20,9.91-26.92c2.27-4.28,4.37-10.04,4.39-13.66l-0.5-2.35
		l-1.94-1.09l-2.09,0.58l-0.08,0.03l-3.75,3.32l-0.03,0.02l-0.02,0.03c-10.04,10.57-26.07,31.11-26.11,51.77
		c-0.01,4.52,0.78,9.05,2.56,13.46c5.8,14.09,23.52,15.93,32.97,15.95c3.74,0,6.23-0.3,6.25-0.3l-0.09-0.71l0.07,0.71
		c15.16-1.59,31.87-14.78,37.43-32.72l-0.67-0.22l0.63,0.32l1.72-3.57l-0.62-0.31l-0.1,0.7c0.02,0,8.18,1.23,18.19,1.23
		c8.27-0.01,17.78-0.82,25.05-3.91l-0.27-0.65l0.25,0.67l1.36-0.52l0.18-0.05l0.12-0.15c0.01-0.07,17.34-20.81,17.4-35.57
		c0-2.29-0.42-4.45-1.43-6.36h0L299.92,156.64z M282.29,173.61l0.7-0.1c-0.84-5.45-7.17-7.24-7.2-7.3l-0.07-0.02l-0.05,0l-1.9-0.12
		c-10.73,0.07-18.25,10.59-18.3,10.62l-0.57,0.79l0.92,0.32c3.72,1.27,8.41,1.79,12.62,1.79c1.29,0,2.55-0.06,3.71-0.16h0.01
		c2.29-0.2,7.39-0.45,7.4-0.46h0.09l0.08-0.03c1.24-0.39,2.28-1.23,2.88-2.34l0.01,0v-0.01l0.41-2.28l-0.03-0.76v-0.02l-0.01-0.01
		L282.29,173.61l-0.7,0.06l0.02,0.62l-0.27,1.63l0.63,0.32l-0.62-0.34c-0.4,0.77-1.16,1.38-2.05,1.67l0.21,0.67l-0.03-0.71
		c-0.01,0-5.11,0.25-7.47,0.46h0.02c-1.12,0.09-2.34,0.14-3.6,0.14c-4.09,0-8.69-0.52-12.19-1.71l-0.22,0.67l0.56,0.42
		c0,0,0.44-0.61,1.29-1.56c2.53-2.86,8.56-8.5,15.88-8.48l1.73,0.1l0.09-0.7l-0.21,0.68c0,0,1.41,0.43,2.92,1.43
		c1.5,1.02,3,2.55,3.3,4.69L282.29,173.61l-0.7,0.06"/>
	<path class="st0" d="M464.51,173.73h0.71l-0.04-0.2c0-0.14-0.04-0.32-0.12-0.53H330.31c-2.67,0-6.63-4.4-6.74-7.15
		c-0.17-4.05-0.75-18.98-0.79-27.72c-0.02-8.1-0.05-16.48-0.52-25.72c-0.1-1.99-0.03-2.71-1.23-6.22c-0.98-2.84-2.59-5.69-5.98-5.42
		l-12.46,18.78c4.96,21.79,3.47,45.77,5.85,73.21c2.03,4.82,7.37,8.45,12.42,9.3l150.43,0.06h1.52l1.23-0.89l0.03-0.01v-0.01
		c4.89-3.85,7.63-9.64,10-14.7l-0.01,0.01c1-2.14,2-4.2,3-5.86l0.02,0l0.55-0.95l0.09-0.16v-1.45c0-7.26-1.39-14.07-2.89-19.24
		c-1.54-5.2-3.11-8.63-3.72-9.49l-0.02-0.01v-0.01c-1.74-2.11-3.79-7.63-9.21-7.69l-1.28,0.09l-2.14,0.34l-0.38,0.06l-0.97,2.37
		l-7.09,17.11l-0.54,1.29l-0.09,0.23l0.42,1.52v0.01c0.57,1.92,1.69,3.64,2.74,5.27v0.01l0.02,0.01l1.27,2.05l0.66,1.5v0.05"/>
	<path class="st0" d="M592.6,102.74c1.86-3.6,4.26-5.36,4.26-5.36c1.53,9.41,2.53,28.22,3.03,37.27c2.52,46.22,1.4,56.79,1.4,56.79
		c-6.18,16.69-17.75,29.68-17.75,29.68l-0.63-11.41c1.31-16.85-1.47-82.38-1.47-82.38S588.06,111.53,592.6,102.74"/>
	<path class="st0" d="M592.6,102.74l0.62,0.33c0.9-1.73,1.92-3.02,2.73-3.87l1.33-1.25l-0.42-0.57l-0.7,0.11
		c1.52,9.34,2.54,28.15,3.02,37.2c1.34,24.5,1.66,38.98,1.66,47.16c0,7.25-0.25,9.51-0.23,9.52l0.68,0.08l-0.65-0.25
		c-3.07,8.26-7.48,15.64-11.12,20.94c-3.64,5.29-6.52,8.49-6.52,8.51l0.53,0.48l0.69-0.04l-0.62-11.42l-0.7,0.05l0.68,0.06
		c0.28-3.26,0.37-8.27,0.37-14.25c0-25.34-1.82-68.22-1.82-68.22l-0.7,0.03l0.64,0.27c0.02-0.04,6.64-15.8,11.14-24.54v0.01v-0.01
		L592.6,102.74l-0.63-0.33c-4.54,8.85-11.18,24.62-11.18,24.63l-0.07,0.15l0.02,0.17c0,0.02,0.44,10.71,0.9,24.59
		c0.46,13.88,0.91,30.93,0.91,43.57c0,5.96-0.11,10.95-0.34,14.13l-0.01,0.05l0.63,11.45l0.1,1.71l1.12-1.28
		c0.03-0.04,11.66-13.06,17.9-29.9l0.03-0.09l0.01-0.08c0-0.04,0.25-2.39,0.25-9.67c0-8.22-0.33-22.71-1.66-47.23
		c-0.5-9.06-1.48-27.86-3.04-37.35l-0.18-1.15l-0.93,0.68c-0.05,0.05-2.52,1.88-4.46,5.62h0"/>
	<path class="st0" d="M255.66,141.62l-20.51-13.96l15.46-20.94l19.82,15.46L255.66,141.62z"/>
	<path class="st0" d="M255.66,141.62l0.4-0.59l-19.91-13.54l14.6-19.77l18.7,14.59l-14.34,18.88L255.66,141.62l0.4-0.59
		L255.66,141.62l0.57,0.44l15.2-20l-20.95-16.34l-16.34,22.12l21.69,14.75l0.4-0.53"/>
	<path class="st0" d="M394.07,220.34l13.45-9.25l18.2,16.88l-18.38,16.05l-11.89-10.71l-13.87,10.77l-18.89-15.72l19.44-17.57"/>
	<path class="st0" d="M394.07,220.34l0.39,0.59l12.98-8.92l17.21,15.94l-17.32,15.13l-11.86-10.7l-13.89,10.8l-17.82-14.84
		l18.39-16.62l11.89,9.49l0.42-0.29L394.07,220.34l0.43-0.56l-12.39-9.91l-20.5,18.52L381.56,245l13.87-10.77l11.91,10.74l19.45-17
		l-19.2-17.79l-13.89,9.57L394.07,220.34l0.43-0.56"/>
	<path class="st0" d="M551.87,105.79c2.28,3.45,10.22,4.31,10.22,4.31l3.5,0.77l-0.49,3.59c-2,12.05-5.04,17.33-5.12,17.58
		c0,0,1.14,11.14,1.88,17.49c2.21,17.84,4.35,35.45-8.21,51.23l-4.77,4.29c-12.74,1.19-22.94-0.14-34.69-1.31
		c-0.14,0-13.93,35.3-34.29,38.36c-4.12,0.64-35.07-5.25-42.36-14.62c0,0,51.2-11.84,64.31-32.56l-7.34-13.51l11.77-26.91l2.14-1.09
		c1.33,2.52,3.18,10.39,3.63,11.8c2.91,9.48,7.94,11.37,7.94,11.37c8.45,2.2,17.4,2.03,26.86,2.03c0,0-3.08-20.29-4.19-31.79
		l-1.34-13.47c0,0-8.28-6.06-4.81-18.48c0,0,1.77-4.18,2.37-5.86c2.23-6.43,4.34-10.75,8.1-10.62
		C550.57,98.55,551.81,105.63,551.87,105.79"/>
	<path class="st0" d="M551.87,105.79l-0.57,0.4c2.71,3.89,10.66,4.55,10.71,4.62l0.08-0.71l-0.15,0.7l2.87,0.62l-0.4,2.94l0.7,0.1
		l-0.7-0.11c-0.99,5.98-2.24,10.27-3.25,13.08c-0.51,1.41-0.95,2.45-1.27,3.15l-0.38,0.82l-0.2,0.45l-0.04,0.12l0.02,0.14
		c0,0,1.13,11.14,1.88,17.5c0.84,6.84,1.68,13.62,1.68,20.24c-0.02,10.65-2.13,20.88-9.75,30.45l0.55,0.45l-0.46-0.53l-4.77,4.3
		l0.46,0.53l-0.07-0.71c-3.5,0.33-6.82,0.46-10.02,0.46c-8.35,0-16.02-0.93-24.54-1.78h-0.07l-0.53,0.23l-0.18,0.3
		c-0.99,2.34-14.69,35.12-33.68,37.83l-0.69,0.04c-6.05,0.08-34.57-5.87-41-14.39l-0.56,0.43l0.16,0.7
		c0.06-0.08,51.23-11.72,64.73-32.88l0.24-0.35l-7.38-13.58l11.52-26.34l1.92-0.97l-0.32-0.64l-0.62,0.33
		c1.24,2.34,3.12,10.23,3.59,11.69v-0.01c2.96,9.68,8.21,11.79,8.38,11.84l0.03,0.01l0.04,0c7.44,1.94,15.22,2.06,23.32,2.06
		c1.23,0,2.46-0.01,3.7-0.01h0.84l-0.13-0.81c0-0.04-3.09-20.3-4.19-31.77L542,132.96l-0.25-0.18l-0.81-0.72
		c-1.51-1.48-4.56-5.22-4.56-11.3c0-1.7,0.23-3.6,0.82-5.69l-0.67-0.2l0.65,0.29c0-0.01,1.76-4.17,2.38-5.91
		c1.08-3.15,2.16-5.77,3.32-7.53c1.21-1.77,2.41-2.61,3.93-2.62l0.14,0.01h-0.01c1.29,0,2.43,1.49,3.16,3.26l0.8,2.41l0.19,0.82
		l0.13,0.48l0.02,0.06l0.04,0.06L551.87,105.79l0.65-0.29l-0.45,0.2l0.47-0.12l-0.02-0.08l-0.45,0.2l0.47-0.12
		c-0.06-0.25-0.42-2.12-1.22-3.95c-0.8-1.8-2.07-3.82-4.31-3.95h-0.2c-2.12-0.01-3.79,1.29-5.08,3.25c-1.33,1.96-2.39,4.67-3.5,7.85
		c-0.57,1.63-2.34,5.81-2.34,5.81l-0.02,0.05l-0.02,0.05c-0.62,2.21-0.87,4.23-0.87,6.07c0,8.8,5.87,13.13,5.95,13.18l0.41-0.58
		l-0.7,0.08l1.34,13.47c1.11,11.53,4.21,31.83,4.21,31.84l0.68-0.12v-0.71h-3.7c-8.1,0.01-15.75-0.13-22.98-2l-0.19,0.68l0.27-0.66
		l-0.72-0.38c-1.41-0.91-4.68-3.59-6.82-10.55h-0.01c-0.43-1.36-2.26-9.21-3.67-11.93l-0.32-0.61l-2.77,1.39l-0.22,0.12
		l-12.01,27.46l7.52,13.81l0.62-0.34l-0.58-0.39c-6.36,10.09-22.35,18.27-36.73,23.77c-14.39,5.54-27.12,8.48-27.15,8.49l-1.08,0.25
		l0.69,0.89c7.4,9.32,35.54,14.86,42.11,14.94l0.89-0.06c10.55-1.61,19.14-11.37,25.21-20.63c3.02-4.63,5.41-9.18,7.05-12.55
		c0.82-1.69,1.45-3.09,1.87-4.07l0.5-1.13l0.16-0.32l-0.42-0.23l0.4,0.27l0.02-0.04l-0.42-0.23l0.4,0.27l-0.57-0.38l0.49,0.46
		l0.08-0.09l-0.57-0.38l0.49,0.46l-0.51-0.48v0.71l0.51-0.23l-0.51-0.48v0.71v-0.71l-0.07,0.69c8.49,0.86,16.19,1.79,24.67,1.8
		c3.25,0,6.6-0.14,10.15-0.47l0.22-0.03l4.95-4.45l0.04-0.04l0.04-0.05c7.87-9.88,10.07-20.52,10.06-31.35
		c0-6.75-0.84-13.59-1.68-20.42c-0.73-6.33-1.89-17.46-1.89-17.48l-0.7,0.07l0.68,0.19l-0.07-0.02l0.07,0.04v-0.02l-0.07-0.02
		l0.07,0.04c0.4-0.83,3.25-6.32,5.13-17.67v-0.01l0.5-3.61l0.09-0.65l-4.14-0.9l-0.04-0.01h-0.04c0,0-1.93-0.22-4.14-0.84
		s-4.64-1.72-5.57-3.17L551.87,105.79l0.65-0.29"/>
	<path class="st1" d="M555.66,105.63c2.25,3.49,10.18,4.36,10.18,4.36l3.54,0.76l-0.5,3.56c-1.99,12.1-5.05,17.33-5.16,17.63
		c0,0,1.2,11.11,1.96,17.48c2.17,17.83,4.27,35.41-8.28,51.22l-4.77,4.29c-12.73,1.18-22.91-0.19-34.68-1.31
		c-0.17-0.04-13.96,34.66-34.3,37.69c-4.13,0.61-34.3-2.27-41.57-11.7c0,0,48.37-9.79,63.58-34.86l-7.4-13.47l11.78-26.93l2.13-1.08
		c1.36,2.51,3.24,10.44,3.66,11.83c2.89,9.5,7.98,11.36,7.98,11.36c8.4,2.15,17.35,1.98,26.83,1.98c0,0-3.12-20.27-4.22-31.75
		l-1.32-13.43c0,0-8.29-6.11-4.81-18.57c0,0,1.78-4.14,2.39-5.8c2.24-6.45,4.3-10.74,8.07-10.61
		C554.3,98.42,555.56,105.51,555.66,105.63"/>
	<path class="st0" d="M555.66,105.63l-0.59,0.39c2.7,3.95,10.63,4.61,10.7,4.68l0.07-0.71l-0.15,0.7l2.89,0.62l-0.4,2.91l0.7,0.09
		l-0.7-0.11c-1,6-2.24,10.29-3.25,13.11c-0.5,1.4-0.96,2.45-1.28,3.16l-0.6,1.24l-0.05,0.15l0.02,0.16c0,0,1.18,11.11,1.95,17.49
		c0.82,6.8,1.64,13.53,1.64,20.11c-0.01,10.69-2.13,20.95-9.76,30.57l0.54,0.46l-0.46-0.55l-4.77,4.31l0.46,0.53l-0.06-0.7
		c-3.43,0.31-6.69,0.45-9.84,0.45c-8.43,0-16.12-0.94-24.73-1.76l-0.05,0.7l0.18-0.69l-0.18-0.02l-0.57,0.29l-0.31,0.6
		c-1.85,4.22-15.26,34.19-33.53,36.8l-1.44,0.07c-7.31,0.07-33.3-3.3-39.46-11.5l-0.55,0.43l0.14,0.7
		c0.05-0.06,48.49-9.7,64.04-35.19l0.22-0.36l-7.44-13.54l11.54-26.36l1.93-0.96l-0.33-0.64l-0.61,0.34
		c1.27,2.3,3.16,10.26,3.59,11.69l0.01,0.02l-0.01-0.01c2.95,9.71,8.26,11.77,8.43,11.8l0.03,0.02h0.02
		c7.39,1.9,15.14,2.02,23.23,2.02c1.24,0,2.51-0.01,3.77-0.01h0.82l-0.13-0.81c0-0.05-3.11-20.27-4.21-31.72l-1.36-13.75l-0.25-0.19
		l-0.8-0.72c-1.52-1.48-4.56-5.24-4.56-11.34c0-1.71,0.24-3.63,0.82-5.73l-0.68-0.2l0.66,0.29c0-0.01,1.78-4.13,2.4-5.84v-0.01
		c1.09-3.16,2.14-5.77,3.32-7.53c1.18-1.76,2.37-2.6,3.91-2.61h0.15c1.26,0,2.39,1.49,3.12,3.25l0.83,2.4l0.22,0.82l0.07,0.25
		l0.02,0.12l0.16,0.27L555.66,105.63l-0.59,0.39L555.66,105.63l0.52-0.47l-0.46,0.41l0.59-0.2l-0.14-0.22l-0.46,0.41l0.59-0.2
		c-0.07-0.14-0.45-2.07-1.25-3.88c-0.82-1.8-2.06-3.79-4.29-3.93h-0.21c-2.13-0.01-3.8,1.28-5.09,3.23
		c-1.31,1.96-2.37,4.66-3.48,7.85l0.67,0.24l-0.65-0.25c-0.58,1.62-2.38,5.76-2.38,5.78l-0.01,0.04l-0.02,0.04
		c-0.62,2.23-0.88,4.27-0.88,6.12c0,8.82,5.87,13.16,5.95,13.21l0.41-0.58l-0.7,0.07l1.32,13.44c1.1,11.52,4.22,31.79,4.22,31.79
		l0.7-0.11v-0.71h-3.77c-8.08,0.01-15.71-0.11-22.88-1.96l-0.18,0.7l0.24-0.68l-0.71-0.38c-1.43-0.88-4.72-3.54-6.84-10.52
		c-0.42-1.36-2.27-9.25-3.71-11.96l-0.31-0.61l-2.77,1.39l-0.23,0.11l-12.01,27.49l7.56,13.78l0.62-0.35l-0.6-0.36
		c-7.44,12.29-23.22,20.99-37.16,26.55c-6.96,2.77-13.45,4.77-18.21,6.07c-4.75,1.31-7.73,1.9-7.75,1.91l-1.12,0.23l0.71,0.91
		c7.17,9.05,32.94,11.97,40.57,12.04l1.64-0.07c10.54-1.6,19.11-11.21,25.18-20.29c3.02-4.55,5.43-9.01,7.07-12.32
		c0.82-1.65,1.46-3.03,1.89-3.98l0.5-1.11l0.13-0.28l0.01-0.03l-0.46-0.26l0.43,0.31l0.03-0.05l-0.46-0.26l0.43,0.31l-0.55-0.42
		v0.69l0.55-0.27l-0.55-0.42v0.69v-0.7l-0.17,0.68l0.17,0.02v-0.7l-0.17,0.68l0.05,0.02h0.05c8.57,0.82,16.32,1.77,24.86,1.77
		c3.18,0,6.48-0.14,9.95-0.46l0.24-0.02l4.95-4.45l0.04-0.04l0.04-0.05c7.89-9.94,10.08-20.61,10.07-31.48
		c0-6.69-0.83-13.48-1.65-20.28c-0.75-6.37-1.95-17.45-1.95-17.46l-0.69,0.07l0.66,0.24l-0.23-0.09l0.23,0.12v-0.03l-0.23-0.09
		l0.23,0.12c0.26-0.57,3.27-6,5.21-17.77v-0.01l0.48-3.57l0.11-0.66l-4.17-0.91l-0.03-0.01h-0.05c0,0-1.93-0.21-4.12-0.86
		c-2.22-0.61-4.64-1.73-5.54-3.19l-0.03-0.05l-0.04-0.04"/>
	<path class="st1" d="M325.25,111.29c0.57,9.68,0.59,18.33,0.59,26.71c0.04,8.93,0.64,24.28,0.78,27.97
		c0.12,3.09,4.34,7.67,7.44,7.67h134.95l-0.04-0.25c0-0.77-1.35-2.82-2.1-3.93c-1.03-1.65-2.1-3.33-2.58-5.1l-0.4-1.33l0.51-1.23
		l7.14-17.13l0.8-2.01l2.12-0.34c5.71-0.86,7.84,4.85,9.79,7.38c1.04,1.29,6.57,14.01,6.55,28.39v1.12l-0.54,0.96
		c-1.1,1.72-2.07,3.75-3.09,5.93c-2.36,5.01-5.07,10.7-9.78,14.39l-1.04,0.82h-1.3l-149.71-0.07h-0.35l-0.29-0.06
		c-4.77-0.79-8.94-3.7-11.44-7.93l-0.4-0.69l-0.11-0.82c-1.22-9.98-1.56-20.44-1.87-30.55c-0.62-20.42-3.82-41.57-3.82-41.57
		l12.13-18.29C324.09,100.82,325.25,111.29,325.25,111.29"/>
	<path class="st0" d="M325.25,111.29l-0.7,0.04c0.56,9.66,0.59,18.29,0.59,26.67c0.25,9.6,0.55,19.61,0.82,28.94
		c1.38,3.33,3.76,6.03,7.11,7.41h136.72l-0.12-1.04l-0.7,0.07h0.71l-0.88-2.19l-1.36-2.14l-0.59,0.41l0.6-0.39
		c-1.04-1.64-2.05-3.27-2.52-4.89v-0.02l-0.32-1.08l0.41-1l7.13-17.13l0.67-1.64l1.71-0.28v0.01l1.04-0.09
		c4.3-0.05,6.18,4.62,8.11,7.2v0.01c0.36,0.42,2.07,3.97,3.53,9c1.5,5.07,2.87,11.75,2.87,18.82v1.04l-0.45,0.8l0.62,0.35
		l-0.61-0.39c-1.13,1.78-2.11,3.83-3.12,6.01c-2.34,5.02-5.04,10.59-9.58,14.14l-0.84,0.66h-1.06l-149.71-0.06h-0.29l-0.22-0.05
		h-0.01c-4.57-0.76-8.56-3.55-10.96-7.6l-0.33-0.56l-0.09-0.67c-1.21-9.94-1.55-20.38-1.86-30.49c-0.62-20.47-3.82-41.64-3.82-41.66
		l-0.7,0.11l0.58,0.4l12.13-18.29l-0.58-0.4l0.08,0.71l0.28-0.02c1.71-0.06,3.08,2.05,3.9,4.5c0.81,2.4,1.09,4.82,1.09,4.82
		L325.25,111.29l-0.7,0.04L325.25,111.29l0.7-0.07c-0.01-0.03-0.28-2.56-1.16-5.14c-0.88-2.52-2.34-5.38-5.23-5.46l-0.43,0.02
		l-0.33,0.03l-12.47,18.79c0.78,4.39,1.23,8.96,1.72,13.38c0.88,7.83,1.83,18.2,2.13,28.39c0.31,10.11,0.66,20.59,1.88,30.62
		l0.11,0.82l0.02,0.14l0.48,0.82v-0.01v0.01c2.6,4.41,6.95,7.45,11.93,8.27l0.11-0.71l-0.12,0.71l0.29,0.06l0.06,0.01h0.41
		l149.71,0.06h1.55l1.2-0.96l0.02-0.01l-0.02,0.01c4.89-3.84,7.64-9.64,9.98-14.65h0.01c1.02-2.19,1.97-4.19,3.04-5.86l0.02-0.02
		l0.54-0.98l0.1-0.16v-1.42c0-7.26-1.41-14.06-2.93-19.23c-1.55-5.2-3.12-8.62-3.78-9.5l-0.55,0.45l0.57-0.44
		c-1.73-2.14-3.77-7.68-9.23-7.74l-1.25,0.09l-2.12,0.34l-0.39,0.06l-0.95,2.37l-7.13,17.13l-0.51,1.23l-0.09,0.24l0.46,1.57
		l0.68-0.21l-0.69,0.18c0.55,1.93,1.64,3.65,2.69,5.29v0.01l0.01,0.02l1.31,2.04l0.67,1.48v0.04l0.04,0.3l0.7-0.09v-0.71H333.7
		c-0.52-0.01-0.58-0.07-0.77-0.18c-2.6-1.23-4.36-3.52-5.58-6.08c-0.3-9.56-0.77-19.11-0.82-28.68V138c0-8.38-0.02-17.05-0.59-26.74
		v-0.04"/>
	<path class="st1" d="M596.36,102.59c1.86-3.58,4.28-5.29,4.28-5.29c1.48,9.42,2.5,28.2,2.99,37.18
		c2.52,46.29,1.43,56.87,1.43,56.87c-6.19,16.68-17.74,29.62-17.74,29.62l-0.62-11.36c1.27-16.87-1.55-82.39-1.55-82.39
		C585.14,127.18,591.82,111.35,596.36,102.59"/>
	<path class="st0" d="M596.36,102.59l0.63,0.33c0.89-1.71,1.91-2.98,2.7-3.82l1.35-1.21l-0.4-0.59l-0.7,0.11
		c1.48,9.35,2.49,28.14,3,37.11c1.33,24.89,1.67,39.45,1.67,47.57c0,6.98-0.25,9.17-0.23,9.18l0.68,0.07l-0.65-0.25
		c-3.08,8.27-7.48,15.62-11.11,20.91c-3.65,5.29-6.5,8.47-6.5,8.48l0.52,0.48l0.7-0.04l-0.61-11.36l-0.71,0.04l0.71,0.04
		c0.23-3.12,0.33-7.86,0.33-13.52c0-25.23-1.88-68.95-1.88-68.95l-0.71,0.03h0.71h-0.71l0.68,0.23l0.04-0.23h-0.71l0.68,0.23
		c0-0.04,6.67-15.88,11.16-24.53l0.01-0.02v0.02L596.36,102.59l-0.62-0.33c-2.28,4.4-5.08,10.56-7.33,15.62
		c-1.11,2.54-2.09,4.79-2.79,6.42l-0.82,1.93l-0.22,0.52l-0.07,0.14l-0.02,0.04l-0.01,0.03l0,0.02l-0.04,0.24v0.03
		c0,0.03,0.46,10.93,0.93,25c0.48,14.07,0.93,31.3,0.93,43.88c0,5.65-0.09,10.36-0.31,13.41l-0.01,0.05l0.63,11.41l0.07,1.7
		l1.14-1.26c0.04-0.04,11.62-13.02,17.91-29.85l0.02-0.08l0.02-0.1c0-0.04,0.23-2.31,0.23-9.32c0-8.16-0.3-22.74-1.67-47.66
		c-0.5-8.99-1.5-27.76-3-37.25l-0.18-1.12l-0.91,0.65c-0.07,0.04-2.56,1.82-4.5,5.54v0.03v-0.03"/>
	<path class="st1" d="M259.43,141.48l-20.54-13.92l15.48-20.98l19.85,15.48L259.43,141.48z"/>
	<path class="st0" d="M259.43,141.48l0.39-0.59l-19.93-13.51l14.62-19.8l18.73,14.61l-14.36,18.86L259.43,141.48l0.39-0.59
		L259.43,141.48l0.57,0.44l15.22-19.98l-20.97-16.36l-16.36,22.16l21.71,14.71l0.4-0.52"/>
	<path class="st1" d="M397.84,220.22l13.43-9.23l18.23,16.88l-18.4,16.07l-11.89-10.74l-13.85,10.77l-18.93-15.71l19.45-17.57"/>
	<path class="st0" d="M397.84,220.22l0.4,0.59l12.96-8.91l17.23,15.95l-17.32,15.14l-11.87-10.72l-13.89,10.79l-17.85-14.82
		l18.41-16.62l11.9,9.49l0.42-0.29L397.84,220.22l0.44-0.56l-12.43-9.91l-20.5,18.54l19.99,16.58l13.84-10.75l11.92,10.77l19.46-17
		l-19.23-17.8l-13.88,9.55L397.84,220.22l0.44-0.56"/>
	<path class="st0" d="M321.4,111.53c1.23,21.39-0.12,38.27,1.64,56.66c1.57,3.99,4.85,7.77,8.76,9.29l137.21,0.05
		c8.59-3.22,0.14-9.92-1.04-14.22l7.09-17.12c3.91-0.62,5.25,4.88,7.05,7.64c3.33,7.34,4.84,16.36,4.84,24.26
		c-3.61,5.98-6.03,14.75-11.89,19.37l-149.71-0.07c-3.62-0.65-6.79-2.77-8.77-6.12c-2.84-23.23-0.78-48.43-5.41-70.91
		c1.39-2.21,7.05-10.96,8.71-14.34C321.28,107.07,321.72,109.34,321.4,111.53"/>
	<path class="st0" d="M552.07,107.23c2.89,4.71,8.15,5.52,13.01,6.59c-0.82,5.64-2.45,11.15-4.86,16.49
		c0.15,23.66,10.39,48.89-6.48,68.12l-2.26,2.12c-13.27,1.24-22.92,0.15-35.71-1.04c-2.71,5.71-18.91,38.14-33.2,37.38
		c-11.27-1.24-23.04-1.51-33.02-6.12c0,0,35.97-3,59.69-34.05c0.77-5.33-4.89-10.14-6.75-15.18c1.48-3.04,7.18-16.4,8.29-19.91
		c3,6.54,3.95,15.41,12.04,18.6c8.9,2.32,18.85,2.32,28.66,2.32c1.05-0.51,1.96-1.38,2.69-2.32c-2.55-16.64-3.6-31.91-5.41-48.86
		c-4.37-3.5-6.79-9.51-4.82-15.45C546.18,112.75,550.24,93.02,552.07,107.23"/>
	<path class="st0" d="M598.22,107.23c1.04,27.5,4.52,55.62,3.18,82.94c-2.13,7.05-11.6,21.64-11.6,21.64
		c2-26.13-0.31-55.72-0.77-83.81C590.66,124.28,595.6,112.84,598.22,107.23"/>
	<path class="st0" d="M295.95,158.24c4.07,14.68-8.07,24.97-14.6,36.38c-12.24,4.57-28.52,2.77-41.8,1.69
		c-3.59,0-4.2,4.11-5.44,6.56c-3.6,15.54-18.84,26.73-33.59,29.64c-12.84,0.87-26.56,0.12-34.22-12.06
		c-7.26-18.52,4.94-38.17,13.59-50.61c3.15-3.49,4.39-7.89,9.18-10.54c2.11,2.01-20.52,30.73-11.91,45.26
		c12.5,10.81,33.32,7.45,46.75,1.05c1.18-1.24,2.69-1.84,3.74-3.37c-1.05-8.7-4.97-16.2-6.46-24.72l9.77-15.88
		c1.95,5.17,2.27,13.11,9.22,14.8h4.19c12.23-10.86,25.05-29.02,44.05-25.38C291.09,152.89,294.87,154.89,295.95,158.24
		 M287.2,174.1c-1.05-7.42-10.26-10.29-10.26-10.29c-17.17-2-28.12,15.21-28.12,15.21c7.32,2.5,15.31,3.59,22.72,2.93
		c3.6-0.29,11.44-0.7,11.44-0.7c1.6-0.45,2.99-1.56,3.77-3.04C287.44,176.76,287.2,174.1,287.2,174.1"/>
	<path class="st0" d="M255.21,112.12l-10.85,14.77l14.2,9.36l10.25-13.5L255.21,112.12z"/>
	<path class="st0" d="M386.02,215.94l10.93,9.53l13.95-9.53l13.6,12.59l-13.2,10.31l-11.33-10.31l-14.48,10.52l-13.39-10.79"/>
	<path class="st2" d="M397.88,95.94c0.54,0.6-0.23,1.86,0.68,2.23l0.96,0.32l-0.44,1.49l0.1,0.64l0.95-0.22l0.84-0.33
		c1.44-0.16,3.16-0.16,4.24,0.71l0.59,0.44l-0.22,0.19c-0.7,0.13-1.55-0.9-1.86,0.09l-0.05,0.72l-0.11,0.04l-1.42-0.54l-0.62-0.03
		l-1.34,0.48l-0.62,0.41l-0.46,1l0.1,0.71l2.32-0.57c1.18,0,2.15-0.07,3.27,0.06l2.08,0.42l1.5,0.81l2.25,1.76l1.46,1.67l0.68,1.09
		l0.28,0.41l-0.16,0.09l-0.72-0.48c-0.83-1.17-1.93-1.89-3.01-2.7l-0.52,0.07l0.09,0.63l0.17,1.84l-0.36,0.14l-0.85-1.49
		c-0.5-0.79-1.45-1.27-2.37-1.67l-0.59-0.38l-0.18,0.92l0.36,1.17l-0.09,0.38l1.23,0.64l1.44,0.58l1.15,0.82l0.83,0.56l1.79,1.91
		l0.73,1.24l0.16,0.97l0.1,0.13v2.61l-0.19,0.87l-0.07,1.14l-0.35,1.07l-0.23,0.16l-0.14-0.19l-0.09-3.84l-0.11-0.35l-0.82-2.66
		l-0.41,1.21l-0.56,1.11l-0.73,1.06l-0.22,0.29l-0.24-0.21l0.18-0.96c-0.09-1.16,0.06-2.56-0.57-3.53l-0.36-0.62l-0.49,0.25
		l-0.04,0.35l-0.07,0.3c0.16,0.92-0.57,1.53-0.48,2.39l-0.56,0.25c0.07-1.37-0.13-2.71-0.61-3.79l-0.35-0.91l-0.56-0.43l-0.16,1.93
		L403.7,113l-0.7-1.15l-0.68-1.32l-0.72-0.98l-0.7-0.49l-1.18-0.46l-0.21,0.35l0.3,0.32c0.75,1,1.54,2.02,2.42,2.98l0.21,0.32
		l0.5,0.65l0.7,1.18l0.7,1.16l0.44,1.39l0.42,1.18v2.3l-0.62,2.04l-0.92,2.43l-0.54,0.81l0.23-2.13l0.1-0.07
		c0-1.04,0.18-2.08,0.18-3.02l0.21-0.29l0.06-0.33l-0.26-0.05l-0.12,0.23l-0.15,0.3l-0.76,1.17l-0.4,0.57l-0.38,0.16l0.05-1.15
		l0.23-0.75l0.31-1.26l0.14-1.39l-0.35,0.18l-0.17,0.58l-0.63,0.93l-0.2-0.13c0-1.15,0.83-2.1,0.46-3.39l-0.2-0.68l0.07-0.27
		l-0.25-0.01l-0.2,0.25l-0.14,0.18l-0.13,0.33l-0.52,0.93l-0.23-0.29l-0.07-0.32l-0.07-1.77l-1.01-1.07l-1.27,1.6l-0.1,0.42
		l0.1,1.72l0.52,2.03l-0.4,1.65l0.22,1.9l0.65,1.63l-0.47,1.47l-0.52,1.47l0.24,1.14l0.75,1.71l0.39,1.48l-0.39,0.65l-0.33,1.66
		l-0.21,0.44l0.26,0.94l0.7,1.3l0.44,1.76l-0.25,1.12l-0.13,0.07l-0.09,1.27l-0.3,0.55v2.07l0.71,0.14l0.16,1.32l1.35,0.21
		l-0.18,0.56l-0.22,1.65l-0.21,0.61l-0.04,1.39l-0.34,0.55c0.12,1.06-0.39,1.76-0.36,2.81l-2.29,1.03c-1.04,0.7-1.96-0.27-3-0.33
		l-0.82-0.53c-0.23-0.93-0.36-2.02-0.5-2.98l-0.13-0.12c-0.06-1.33-0.41-2.43-0.64-3.68v-1.02l1.46-0.49l-0.04-1.03l0.34-0.09h0.4
		l0.24-0.52c-0.06-0.85-0.48-1.61-0.58-2.52l-0.25-0.92l-0.31-1.05l-0.09-0.9l0.65-0.97l0.52-0.93l0.22-1.48l-0.65-2.38
		c-0.41-1.03,0.25-1.73,0.5-2.48l0.77-1.63l-0.44-1.4c-0.34-0.71-0.99-2.02-0.26-2.95l0.7-1.05c0.23-1.05-0.62-1.68-0.38-2.77
		l-0.09-0.47l0.47-1.7l-0.13-2.3l-0.65-1.12l-0.4-0.41l-1.1,0.93l-0.14,1.27l-0.09,0.84l-0.27,0.21l-0.69-1.17l-0.19-0.28
		l-0.33,0.32l-0.06,2.44l0.42,1.47l-0.23,0.14l-0.49-0.72l-0.51-0.84h-0.14c-0.13,1.04,0.47,1.69,0.47,2.8l0.35,1.18l-0.35,0.17
		l-0.8-1.02l-0.31-0.43l-0.29-0.29l-0.13-0.3l-0.18,0.21l0.05,0.25l0.12,0.39c0.19,1.63,0.35,3.29,0.64,4.78l-0.18,0.12l-0.33-0.35
		l-0.38-0.98l-0.34-0.73l-0.5-1.76l-0.33-1.07l-0.06-0.39v-2.64l0.83-2.05l0.55-1.28l0.82-1.09l0.38-0.56
		c0.66-0.95,1.41-1.81,2.13-2.74l0.8-0.98l0.25-0.23l-0.39-0.27l-1.34,0.5c-0.77,0.63-1.37,1.4-1.64,2.42l-0.47,0.93l-0.58,0.52
		l-0.17-2.04h-0.39l-0.73,1.23l-0.08,0.36l-0.41,1.53l-0.06,0.36v0.54l-0.1,1.27l-0.68-1.38l-0.16-1.08l-0.06-0.38l-0.68-0.97
		l-0.67,1.72l-0.13,2.56l-0.27,1.18l-0.26-0.21l-0.75-1.2l-0.48-1.35l-0.17-0.89c-1.09,0.19-0.36,1.71-0.99,2.38l-0.18,3.82h-0.4
		l-0.4-1.4l-0.23-1.85l0.06-2.1l0.66-1.32c0.23-0.93,1.15-1.34,1.46-2.2l1.61-1.08l1-0.79l1.55-0.64l1.16-0.79l-0.09-0.7l0.33-1.55
		l-1.99,1.02c-0.91,0.54-1.57,1.43-1.88,2.38l-0.36,0.15l0.03-2.23l0.1-0.39l-0.63-0.07l-1.71,1.32L380.5,110l-0.46,0.11l0.64-1.18
		c0.68-0.81,1.21-1.78,2.21-2.47l2.19-1.81l0.98-0.4l2.49-0.51h2.52l0.49,0.06l2.25,0.45l0.16-0.45l-0.71-1.29l-1.61-0.8h-0.59
		l-1.73,0.71l-0.38-1.27l-1.51,0.27l-0.2-0.23l0.86-0.64c1.59-0.87,4.24-0.75,5.75,0.16l0.2-0.16l-0.32-0.8l-0.08-1.34l1.24-0.5
		l0.14-1.88l0.58-0.46h0.14L396.8,95"/>
	<path class="st3" d="M387.98,149.96c0.59,0.64,1.12,1.35,1.93,1.7l0.89,0.72l2.18,1.04l1.43,0.81l1.54,0.44l1.64-0.29l2.36-1.05
		l1.17-0.52l1.34-0.88l0.74-0.38l0.83-0.87l0.56-0.41l0.44-0.64l0.84-0.85l0.94-1.32l1.23-1.94c0.57-0.73,1.36-1.43,2.34-1.56
		l0.99-0.44c0.91-0.23,1.71-0.61,2.61-0.76c0.89-0.44,1.92-0.73,2.85-1.05l1.3-0.77l0.74-0.36c1.01-0.97,2.5-1.76,3.29-2.9
		l0.25-0.02c0.84-1.27,1.61-2.45,2.8-3.21l0.65-0.11c0.98,0.55,0.41,2.05,0.51,3.05l-0.32,0.91c-0.45,1.08,0.45,1.38,0.32,2.39
		c0,1.02-0.32,2.09-0.05,3.05l-0.06,0.64c0.06,0.92-0.3,1.52-0.6,2.21c-0.29,0.98,0.27,2.44-0.56,3.12l-0.96,1.62l-0.61,0.63
		l-1.85,1.71c-0.92,0.78-2.04,1.45-2.96,2.27l-0.94,0.57l-0.86,0.46l-1.13,0.83l-1.24,0.64l-1.82,0.87l-1.36,0.72l-1.97,0.6
		l-1.28,0.41h-0.44c-0.93,0.05-2.08,0-2.98,0c-1.5-0.32-3.03-0.41-4.49-0.73l-0.08-0.09l-2.34-0.34c-0.99,0.05-2.01-0.12-2.89,0.11
		l-2.41,0.31c-1.17,0.37-2.43,0.37-3.6,0.62l-0.53,0.11h-3.36l-0.31-0.07h-0.24c-0.98-0.33-1.94-0.45-2.91-0.83l-2.18-1.01
		l-1.45-0.86l-1.57-0.89c-0.94-0.65-1.8-1.14-2.71-1.79l-1.21-0.93l-1.36-0.98l-1.74-1.55l-0.42-0.41l-0.99-1.41l-0.59-1.27
		c-0.32-1.04,0.2-2.45-0.67-3.25c-0.33-1.19-0.1-2.49-0.1-3.75l-0.11-0.03l0.21-2.61l-0.33-2.36l-0.02-2.03l1.03-0.75
		c1.82,2.16,3.8,4.19,6.21,5.87c2.83,1.96,6.09,2.91,9.33,3.98C385.31,144.93,386.31,148.16,387.98,149.96"/>
	<path class="st4" d="M424.23,138l-0.11,0.75l-0.3,0.76l-0.31,0.81l-1.46,1.81c-0.89,1.14-2,1.92-3,2.76l-1.89,1.08l-0.39,0.27
		l0.65,1.12l1.4-0.6c0.94-0.68,2-1.25,2.81-2.15h0.07l2.16-2.36l0.37,0.04l-0.58,1.39l-0.34,0.36l-0.52,0.64l-1.77,1.81l-1.8,1.29
		l-0.16,0.04l-0.43,0.39l-1.39,0.73l-1.21,0.87l0.56,1.09l1.64-0.92l1.11-0.49l2.62-1.78l0.67-0.43l0.39-0.52h0.29l0.06,0.11
		l-1.14,1.82l-0.99,0.74l-0.73,0.71l-0.16,0.02l-0.65,0.54l-0.84,0.4l-0.33,0.27l-1.83,1.01l-2.26,0.97l0.11,0.63l0.5,0.7l1.46-0.7
		l1.12-0.63l2.53-1.23l0.56-0.23l0.17,0.16l-0.7,0.85l-1.83,1.34l-0.41,0.31l-1.33,0.8l-1.59,1L414.1,157l-1.33,0.63l-1.32,0.82
		l-2.02,0.8l-1.95,0.32h-2.99l-1.63-0.25l-1.89-0.36c-1.06-0.14-2.1-0.14-3.09-0.41h-3.34l-0.72,0.24c-1.54-0.13-2.78,0.7-4.38,0.57
		c-1.49,0.41-3.45,0.64-4.91,0c-1.07,0-1.91-0.57-2.86-0.81l-0.48-0.36l-0.86-0.34l-0.39-0.27l-1.45-0.68l-1.81-1.25l-1.03-0.55
		l-1.22-0.91l-1.04-0.86l-0.73-0.45l-0.69-0.85l0.07-0.16l0.95,0.49l1.45,0.79l2.08,0.95l1.25,0.5l0.67-1.05l-1.27-0.75l-1.41-0.82
		l-0.96-0.44l-1.5-0.86l-1.48-1.05l-1.66-1.63l-0.77-0.66l-0.09-0.6l0.18-0.16l1.39,1.19l0.73,0.46l0.97,0.81l1.41,0.6l0.94,0.66
		l0.93,0.39l0.51,0.2l0.47-0.73v-0.44c-1.32-0.74-2.52-1.48-3.78-2.34l-0.67-0.47c-0.98-0.68-1.93-1.73-2.7-2.69l-0.29-0.27
		l-0.57-1.15l0.03-0.15l1.29,0.96c0.81,1.18,2.13,1.79,3.13,2.75l1.3,0.55l0.84,0.47l0.64-0.89l-0.53-0.58
		c-1.88-1.08-3.47-2.1-4.86-3.9l-1.41-1.83l-0.66-1.59l0.29-0.29c2.91,2.28,5.67,4.51,9.1,5.82c1.86,0.71,4.39,1.56,5.46,2.38
		c1.2,1.26,2.14,2.79,3.18,4.2l1.55,1.6l0.5,0.33l1.11,0.69l1.59,0.93l2.45,1.25c0.76,0.43,1.66,0.68,2.64,0.57
		c1.45,0.35,2.4-0.73,3.55-0.96l0.77-0.44l0.95-0.47l1.58-0.98l0.92-0.59c0.86-0.86,1.92-1.71,2.44-2.73l0.46-0.51l0.42-0.75
		l0.89-1.12l1.74-1.71c0.89-0.55,2.16-0.74,3.08-1.23l2.18-0.65l1.34-0.57l1.57-0.7l0.9-0.64l0.67-0.39l0.71-0.65l1.04-0.65
		c0.67-0.81,1.77-1.34,2.16-2.32"/>
</g>
</svg>
