<?xml version="1.0" encoding="utf-8"?>
<!-- Generator: Adobe Illustrator 25.4.1, SVG Export Plug-In . SVG Version: 6.00 Build 0)  -->
<svg version="1.1" id="Layer_1" xmlns="http://www.w3.org/2000/svg" xmlns:xlink="http://www.w3.org/1999/xlink" x="0px" y="0px"
	 viewBox="0 0 1000 1000" style="enable-background:new 0 0 1000 1000;" xml:space="preserve">
<style type="text/css">
	.st0{fill:#00524C;}
	.st1{fill:url(#SVGID_00000077304331460123010590000015952930061029730986_);}
	.st2{fill:#FFFFFF;}
</style>
<g>
	<g>
		<g>
			<path class="st0" d="M405.4,531.3l-2.7,0.6l-10.9,10.9c34.8-7.4,85.1-12,140.9-12s106,4.6,140.9,12l11.7-11.7
				c-35.9-7.5-86.5-11.8-139.4-11.8C492.6,519.3,441.3,523.7,405.4,531.3"/>
			<path class="st0" d="M402.8,531.8l0.6-2.7c7.6-35.9,12-87.2,12-140.5c0-52.8-4.3-103.5-11.7-139.4L391.9,261
				c7.4,34.8,12,85.1,12,140.9s-4.6,106-12,140.9L402.8,531.8z"/>
		</g>
		<g>
			<g>
				
					<radialGradient id="SVGID_00000078008984889089613690000004173167011607171483_" cx="545.8875" cy="610.5756" r="138.6" gradientTransform="matrix(1 0 0 -1 0 999.2756)" gradientUnits="userSpaceOnUse">
					<stop  offset="0" style="stop-color:#7CA7AD"/>
					<stop  offset="0.1198" style="stop-color:#5F9396"/>
					<stop  offset="0.2874" style="stop-color:#3D7C7C"/>
					<stop  offset="0.4585" style="stop-color:#226967"/>
					<stop  offset="0.6324" style="stop-color:#0F5C58"/>
					<stop  offset="0.8106" style="stop-color:#04544F"/>
					<stop  offset="1" style="stop-color:#00524C"/>
				</radialGradient>
				<path id="SVGID_1_" style="fill:url(#SVGID_00000078008984889089613690000004173167011607171483_);" d="M545.9,261.6
					c-52.3,0-102.6-4.2-138.6-11.5c7.3,36,11.6,86.3,11.6,138.6s-4.2,102.6-11.6,138.6c36-7.3,86.3-11.5,138.6-11.5
					c52.4,0,102.6,4.2,138.6,11.5c-7.3-36-11.5-86.2-11.5-138.6c0-52.3,4.2-102.6,11.5-138.6C648.6,257.4,598.3,261.6,545.9,261.6"
					/>
			</g>
		</g>
		<path class="st2" d="M574.9,353.4c0.1-1.8-2.2-4.4-3.1-5.3l-0.7-0.6l0.8-0.4c0.5-0.2,0.7-0.5,0.7-0.8c0.1-1.2-2.9-3.6-5-4.8
			l-0.8-0.5l0.8-0.6c0.1-0.1,0.2-0.1,0.3-0.2c-0.5-0.6-1-1.2-1.5-2.1c-0.4,0.3-1.2,0.7-2.2,0.7c-1.5,0-3.4-0.8-5.6-2.3l-0.1-0.1
			c-0.1-0.1-5.6-6.3-9.9-9.7c2.2,3.9,4.2,9.7,4.4,10.5c2.8,4.7,5,4,5,4l0.7-0.2l0.1,0.7c0.6,5,3,5.2,3.1,5.2h0.5v0.6
			c0.1,4.7,3.1,6,3.2,6.1l0.3,0.2l0.1,0.4c0.2,4.1,1.6,7.3,1.6,7.3l0.1,0.2v0.2c-0.1,1.4,1.8,4,3.3,5.5c0.6-0.1,1-0.4,1.3-0.9
			c0.9-1.4,0.6-4,0.5-4.9l-0.1-0.4l0.3-0.2c2.8-2.4,1.2-5.2,1.1-5.3l-0.3-0.5l0.5-0.3C574.7,354.4,574.9,354,574.9,353.4"/>
		<path class="st2" d="M590.8,350.5l0.1-0.3c1.3-5.4-2-7.8-2.2-7.9l-0.4-0.3l0.1-0.5c0.3-1,0.3-1.9-0.2-2.8
			c-1.4-2.8-5.8-4.1-5.8-4.1l-0.7-0.2l0.3-0.7c0.4-0.8,0.4-1.5,0.1-2c-1-1.8-5.6-2.2-7.2-2.2h-0.8l0.3-0.8c0.1-0.3,0.1-0.6,0.2-0.9
			c-0.1,0-0.2,0.1-0.2,0.1c-1.5,0-3.1-0.5-4.7-1.6c-0.6,0.8-2.2,2.2-5.8,2.2c-0.7,0-1.5,0-2.3-0.2h-0.1c-0.1,0-8-3.1-13-3.7
			c-0.3-0.1-0.6-0.1-0.9-0.1c0,0-0.1,0-0.1,0.1c0.3,0.2,0.7,0.5,1.1,0.7c0.5,0.4,1.1,0.8,1.7,1.3c4,3.4,8.6,8.5,9.1,9.1
			c1.9,1.4,3.6,2.1,4.9,2.1c1.3,0,1.8-0.7,1.9-0.8l0.2-0.3l0.3-0.4l0.4,0.8c0.7,1.1,1.3,2,1.9,2.6c0.2,0.2,0.4,0.4,0.5,0.5
			c1.1,1.1,2,1.3,2.6,1.3s0.9-0.2,0.9-0.2l0.5-0.4l0.3,0.6c2.3,4.8,5,5.3,6.1,5.3c0.2,0,0.3,0,0.3,0l0.4-0.1l0.2,0.4
			c2.5,5,5.7,8,5.7,8l0.1,0.1v0.1c0.8,2.2,4.4,3.9,6.1,4.5c2.2-3-1.8-8.9-1.8-9L590.8,350.5z"/>
		<path class="st2" d="M600.6,330.2c-0.5-2.4-3.8-4.3-3.8-4.3l-0.3-0.2v-0.4c0.2-4.7-3.5-5.2-3.6-5.2l-0.6-0.1l0.1-0.6
			c0.1-0.7-0.1-1.3-0.4-1.7c-0.7-0.8-2.2-1.3-4.4-1.3c-1.4,0-2.5,0.2-2.5,0.2l-0.9,0.2l0.2-0.9c0.2-0.6,0.1-1,0-1.3
			c-0.2-0.3-0.8-0.5-1.6-0.5c-2.5,0-6.3,1.6-6.3,1.6l-0.9,0.4l0.1-1c0.1-0.6,0-1-0.3-1.3c-0.3-0.4-1.1-0.6-2-0.6
			c-2.2,0-5.1,1.1-5.2,1.1l-0.2,0.1c-0.9,0.5-2.1,0.9-3.8,0.9c-0.2,1.1-1,3.4-5.1,5.4H559c0,0-2.2,0.5-4.8,1.2
			c-1.5,0.4-3.2,1-4.7,1.6h-0.1c0.5,0.1,1,0.2,1.6,0.3c4.7,1,10.1,3.1,10.8,3.4c0.7,0.1,1.4,0.2,2.1,0.2c4.2,0,5.1-2,5.1-2.1
			l0.3-0.7l0.6,0.4c1.6,1.2,3.1,1.7,4.4,1.7h0.1c0.2,0,0.4,0,0.6-0.1c0.2-0.1,0.4-0.1,0.6-0.2c0.7-0.2,1-0.7,1-0.7l0.4-0.5l0.4,0.4
			c1.6,1.4,3.2,2.1,5,2.1c1.6,0,2.6-0.6,2.6-0.6l0.4-0.2l0.3,0.3c3.5,2.9,7.3,3.9,7.3,4h0.2l0.1,0.1c0.6,0.7,2.2,1.1,4.5,1.1
			c1.1,0,2.2-0.1,2.6-0.2C600.7,331.5,600.8,330.9,600.6,330.2"/>
		<path class="st2" d="M558.7,319.3c4.2-2.1,4.4-4.3,4.4-4.6v-0.1L563,314v-0.2h0.4h0.3c0.8,0,1.4,0,2-0.1c0.2,0,0.3-0.1,0.5-0.1
			c0.5-0.2,1-0.3,1.3-0.6c0.2-0.1,0.4-0.3,0.5-0.4c0.7-0.7,0.8-1.3,0.8-1.3l0.1-0.6l0.6,0.1c0.4,0.1,0.8,0.1,1.2,0.1
			c3.4,0,4.9-2.5,4.9-2.6l0.2-0.3l0.4,0.1c0.6,0.1,1.3,0.1,1.9,0.1c2.8,0,4.9-0.7,4.9-0.7h0.2h0.1c0.1,0,0.3,0.1,0.4,0.1
			c1.5,0,4-1.8,5.1-2.7c0-0.6-0.2-1.1-0.5-1.4c-1.1-1.2-3.5-1.3-4.1-1.3h-0.3h-0.4l-0.2-0.3c-0.8-1.5-1.8-2.3-3.2-2.3
			c-0.8,0-1.4,0.3-1.4,0.3l-0.6,0.3l-0.2-0.6c-0.3-0.7-0.8-1.1-1.5-1.1c-1.7,0-4,1.9-4.8,2.6l-0.7,0.6l-0.2-1
			c-0.2-0.9-0.6-0.9-0.7-0.9c-1.3,0-3.7,2.8-5,4.6l-0.6,0.8l-0.4-0.9c-0.3-0.7-0.7-0.8-1-0.8c0,0-0.1,0-0.2,0
			c-0.6,0.8-1.5,1.5-2.8,2c0,1-0.4,3-3.3,4.5c0.2,1,0.2,3.1-2.2,6.1l-0.1,0.1c0,0-3.2,2.6-5.7,5.1c-0.5,0.5-0.9,1-1.3,1.5
			c0,0,0,0.1-0.1,0.1c0,0,0,0.1-0.1,0.1c0.9-0.4,2-0.9,3.1-1.3C554,320.4,558.1,319.5,558.7,319.3"/>
		<path class="st2" d="M549.4,318.9c2-1.9,4-3.5,4.3-3.8c2.7-3.5,1.8-5.2,1.8-5.3l-0.3-0.5v-0.1l0.1-0.1l0.5-0.2
			c1-0.5,1.6-1,2.1-1.5c0.8-0.9,1-1.6,1-2.1c0-0.2,0-0.4,0-0.4l-0.1-0.4l-0.1-0.2l0.4-0.1l0.2-0.1c1.5-0.5,2.4-1.3,2.9-2.1
			c0.8-1.1,0.8-2.1,0.8-2.1v-0.4l0.4-0.1c3-1.1,5.1-3.1,5.1-3.2l0.1-0.1h0.2c1.1-0.2,2.5-2.5,3.2-4.1c-0.3-0.6-0.9-1-1.7-1
			c-1.4,0-2.9,0.9-2.9,0.9l-0.3,0.2l-0.3-0.2c-0.7-0.5-1.4-0.8-2-0.8c-1.3,0-2.1,1.1-2.1,1.1l-0.4,0.5l-0.5-0.4
			c-0.3-0.3-0.5-0.4-0.8-0.4c-1.4,0-3,3-3.4,4l-0.3,0.9l-0.6-0.8c-0.2-0.3-0.4-0.4-0.4-0.4c-0.9,0-2.1,2.9-2.6,5.5l-0.2,1l-0.7-0.7
			c-0.2-0.2-0.4-0.3-0.6-0.3c-1,5.8-3.5,14.8-5,19.7c-0.1,0.3-0.1,0.5-0.2,0.7c0.4-0.4,0.8-0.9,1.2-1.3
			C548.5,319.8,548.9,319.4,549.4,318.9"/>
		<path class="st2" d="M533.3,336.5l-0.1,0.1c-2.1,1.5-4,2.3-5.6,2.3c-1.1,0-1.8-0.4-2.2-0.7c-0.5,0.8-1,1.5-1.5,2.1
			c0.1,0.1,0.2,0.2,0.3,0.2l0.8,0.6l-0.8,0.5c-2,1.2-5,3.6-4.9,4.8c0,0.3,0.3,0.5,0.7,0.8l0.8,0.4l-0.7,0.6
			c-0.9,0.9-3.2,3.5-3.1,5.3c0,0.5,0.3,1,0.8,1.3l0.5,0.3l-0.3,0.5c-0.1,0.1-1.8,2.9,1.1,5.3l0.3,0.2l-0.1,0.4c0,0-0.7,3.3,0.5,4.9
			c0.3,0.4,0.7,0.7,1.2,0.9c1.4-1.5,3.4-4.1,3.3-5.5v-0.2v-0.2c0,0,1.5-3.3,1.7-7.3v-0.4l0.3-0.1c0.1-0.1,3.1-1.4,3.2-6.1v-0.6h0.6
			c0.1,0,2.5-0.2,3.1-5.2l0.1-0.8l0.6,0.2c0,0,2.2,0.7,5-4c0.3-0.8,2.3-6.6,4.4-10.5C539,330.1,533.4,336.4,533.3,336.5"/>
		<path class="st2" d="M543.4,324.5c-5,0.6-12.9,3.7-13,3.7h-0.1c-0.8,0.1-1.6,0.2-2.3,0.2c-3.6,0-5.2-1.4-5.8-2.2
			c-1.6,1.1-3.1,1.6-4.5,1.6c-0.1,0-0.2-0.1-0.3-0.1c0,0.3,0.1,0.6,0.1,0.9l0.3,0.8H517c-1.7,0-6.2,0.4-7.2,2.2
			c-0.3,0.5-0.3,1.2,0.1,2l0.3,0.7l-0.6,0.2c0,0-4.5,1.4-5.8,4.1c-0.4,0.9-0.5,1.8-0.2,2.8l0.1,0.5l-0.4,0.3
			c-0.2,0.1-3.5,2.4-2.2,7.9l0.1,0.3l-0.2,0.3c0,0.1-4,6-1.8,9c1.7-0.6,5.3-2.3,6.1-4.5l0.1-0.1l0.1-0.1c0,0,3.2-3,5.8-8l0.2-0.4
			l0.4,0.1c0,0,0.1,0,0.3,0c1.1,0,3.8-0.5,6.1-5.3l0.3-0.6l0.6,0.4c0,0,0.3,0.2,0.9,0.2c0.5,0,1.4-0.2,2.5-1.3
			c0.2-0.1,0.3-0.3,0.5-0.5c0.6-0.6,1.2-1.5,1.9-2.6l0.5-0.8l0.3,0.5l0.2,0.4c0,0,0.5,0.8,1.8,0.8s2.9-0.7,4.9-2.1
			c0.5-0.6,5.1-5.7,9.1-9.1c0.6-0.5,1.1-0.9,1.7-1.3c0.4-0.3,0.7-0.5,1.1-0.7c-0.1,0-0.1,0-0.1,0C544,324.4,543.7,324.4,543.4,324.5
			"/>
		<path class="st2" d="M498.8,331.1h0.2c0,0,3.8-1.1,7.3-4l0.3-0.3l0.3,0.2c0,0,1.1,0.6,2.6,0.6c1.7,0,3.4-0.7,4.9-2.1l0.4-0.4
			l0.4,0.5c0,0,0.4,0.4,1.1,0.7c0.2,0.1,0.4,0.1,0.6,0.2c0.2,0,0.4,0.1,0.6,0.1h0.1c1.3,0,2.8-0.6,4.4-1.7l0.6-0.4l0.2,0.7
			c0,0,0.9,2.1,5.1,2.1c0.6,0,1.3,0,2.1-0.2c0.7-0.2,6.2-2.3,10.9-3.4c0.5-0.1,1-0.2,1.5-0.3h-0.1c-1.5-0.6-3.2-1.1-4.7-1.6
			c-2.6-0.7-4.7-1.2-4.7-1.2h-0.2c-4.1-2-4.9-4.2-5.1-5.4c-1.7,0-2.9-0.4-3.7-0.9l-0.2-0.1c0,0-2.9-1.1-5.1-1.1c-1,0-1.7,0.2-2,0.6
			c-0.3,0.3-0.3,0.7-0.3,1.4l0.1,1l-0.9-0.4c0,0-3.8-1.6-6.3-1.6c-0.8,0-1.4,0.2-1.6,0.5c-0.2,0.2-0.2,0.7-0.1,1.3l0.2,0.9l-0.9-0.2
			c0,0-1.2-0.2-2.6-0.2c-2.1,0-3.7,0.5-4.4,1.3c-0.4,0.4-0.5,1-0.4,1.7v0.6l-0.6,0.1c-0.1,0-3.8,0.5-3.6,5.2v0.4l-0.3,0.2
			c0,0-3.2,1.9-3.8,4.3c-0.2,0.7-0.1,1.3,0.3,2c0.5,0.1,1.5,0.2,2.7,0.2c2.2,0,3.8-0.4,4.4-1.1L498.8,331.1z"/>
		<path class="st2" d="M544.5,322.7c-0.4-0.5-0.9-1-1.3-1.5c-2.5-2.6-5.6-5.1-5.7-5.1l-0.1-0.1c-2.4-3.1-2.4-5.2-2.2-6.1
			c-2.9-1.6-3.3-3.5-3.3-4.5c-1.3-0.5-2.2-1.3-2.8-2H529c-0.3,0-0.7,0.1-1,0.8l-0.4,0.9l-0.6-0.8c-1.3-1.8-3.8-4.6-5-4.6
			c-0.1,0-0.5,0-0.7,0.9l-0.3,1l-0.7-0.6c-0.1,0-2.9-2.6-4.9-2.6c-0.7,0-1.2,0.3-1.5,1.1l-0.2,0.6l-0.6-0.3c0,0-0.6-0.3-1.4-0.3
			c-1.3,0-2.4,0.8-3.2,2.3l-0.2,0.4h-0.4h-0.3c-0.7,0-3.1,0.1-4.2,1.3c-0.3,0.4-0.5,0.9-0.5,1.4c1.1,0.9,3.5,2.7,5.1,2.7
			c0.1,0,0.3,0,0.4-0.1h0.2h0.1c0,0,2.1,0.7,5,0.7c0.7,0,1.3-0.1,1.9-0.1l0.4-0.1l0.2,0.3c0.1,0.1,1.5,2.6,4.8,2.6
			c0.4,0,0.8,0,1.2-0.1l0.5-0.1l0.1,0.6c0,0,0.2,0.7,0.8,1.3c0.1,0.1,0.3,0.2,0.5,0.4c0.3,0.2,0.8,0.4,1.3,0.6
			c0.2,0,0.3,0.1,0.5,0.1c0.6,0.1,1.2,0.2,2,0.1h0.3h0.4v0.2l-0.1,0.6v0.1c0,0.3,0.2,2.6,4.4,4.6c0.6,0.1,4.7,1,8.3,2.4
			c1.1,0.4,2.2,0.8,3.1,1.3v-0.1C544.5,322.8,544.5,322.8,544.5,322.7"/>
		<path class="st2" d="M539.8,301.1c-0.2,0-0.4,0.1-0.7,0.3l-0.7,0.7l-0.2-1c-0.6-2.6-1.7-5.5-2.4-5.5c-0.2,0-0.4,0.1-0.6,0.4
			l-0.6,0.8l-0.4-0.9c-0.4-1.1-2-4-3.4-4c-0.3,0-0.6,0.1-0.8,0.4l-0.5,0.4l-0.4-0.5c0,0-0.8-1.1-2.1-1.1c-0.6,0-1.3,0.3-2,0.8
			l-0.3,0.2l-0.3-0.2c0,0-1.5-0.9-2.9-0.9c-0.9,0-1.4,0.3-1.7,1c0.8,1.6,2.2,3.9,3.2,4.1h0.1l0.1,0.1c0,0,2.1,2.1,5.1,3.2l0.3,0.1
			l0.1,0.4c0,0.1,0.1,1.1,0.8,2.1c0.5,0.8,1.5,1.6,2.9,2.2l0.2,0.1l0.4,0.1l-0.1,0.2l-0.1,0.4c0,0,0,0.2,0,0.4c0,0.4,0.2,1.2,1,2.1
			c0.5,0.5,1.1,1,2.1,1.5l0.5,0.2l0.1,0.1v0.1l-0.4,0.6c0,0-0.9,1.7,1.8,5.2c0.4,0.3,2.3,1.9,4.3,3.8c0.5,0.4,0.9,0.9,1.4,1.4
			c0.4,0.4,0.8,0.9,1.2,1.3c-0.1-0.2-0.1-0.5-0.2-0.7C543.4,315.9,540.9,306.9,539.8,301.1"/>
		<path class="st2" d="M550.9,301.2c0.1-0.3,0.1-0.7,0.2-1c0.3-1.7,0.4-2.8,0.3-3.3h-0.5l0.1-0.7c0.4-4.3,0.1-8-0.7-9
			c-0.2-0.2-0.3-0.2-0.4-0.2c-0.1,0-0.3,0.1-0.4,0.1l-0.7,0.4l-0.2-0.8c-0.7-3.4-1.9-5.4-2.6-6.3c-0.7,1-2,2.9-2.6,6.3l-0.1,0.8
			l-0.7-0.4c-0.2-0.1-0.3-0.1-0.4-0.1c0,0-0.3,0-0.4,0.2c-0.9,1.1-1.2,4.7-0.7,9l0.1,0.7h-0.4c-0.1,0.5,0,1.7,0.3,3.3
			c0,0.3,0.1,0.6,0.2,1c0.1,0.5,0.2,1,0.3,1.6c0.9,4.1,2.3,9.8,4,15.5c0,0.1,0.1,0.3,0.1,0.4c0.2,0.6,0.3,1.1,0.5,1.7
			c0,0.1,0,0.1,0,0.2c0-0.1,0.1-0.2,0.1-0.2c0.1-0.6,0.3-1.1,0.5-1.7c0-0.1,0.1-0.3,0.1-0.4c1.6-5.7,3.1-11.4,4-15.5
			C550.7,302.2,550.8,301.6,550.9,301.2"/>
		<path class="st2" d="M564.3,416.5h-15.4l2.9-14.4l-2.6-2.6l3.3-13.1l-2.6-1.3l3.4-14.3l-3.1-2.3l2.7-12.2l-3.1-1.7l1.9-10.8
			l-2.6-1.7l0.4-11.7c0,0-1.1-3.7-3.7-5.9l0,0l0,0c-2.5,2-3.6,5.3-3.7,5.8v0.1l0.4,11.7l-2.6,1.7l2,10.8l-3.1,1.7l2.7,12.2l-3.1,2.3
			l3.4,14.3l-2.6,1.3l3.3,13.1l-2.6,2.6l3.3,14.5h-15.7c0,0-2,0.9-1.3,2.4s8.7,9.6,9.4,9.2c0.6-0.4,0.6-3.4,1.1-4
			c0.3-0.4,2.6,3.2,4.2,4c0,0,2.6-1.9,5-3.4c2.4,1.5,4,3.4,4,3.4c1.6-0.9,4.9-4.5,5.3-4.1c0.4,0.6,0.4,3.6,1.1,4
			c0.7,0.4,8.7-7.7,9.4-9.2C566.3,417.3,564.3,416.5,564.3,416.5"/>
		<path class="st2" d="M502.2,424c-11-6.2-35.3-13.2-54.6-6c0,0,25.7-2.2,59.8,20.5c25.5,16.9,50.1,40.9,54.8,45.6l6.9-6.8
			C541.7,447.9,513.2,430.2,502.2,424"/>
		<path class="st2" d="M602.4,481.1c0,0-3.6-4.2-7.7-0.1c-3.6,3.6-6.1,4.7-9.6,4.7c-4.7,0.1-10.5-2.6-11.9-5.6c0,0-0.4-1.1,0.3-2.2
			c1,0.2,2.1,0,3-0.8c1.4-1.2,1.6-3.2,0.6-4.4c-1.1-1.3-3.1-1.3-4.5,0c-1.1,1-1.5,2.5-1,3.7c-0.1,0.4-0.4,0.7-0.8,1.1
			c0-0.2,0-0.5-0.2-0.7c-0.3-0.3-0.7-0.3-1,0l-0.5,0.5l-6.9,6.8l-1.1,1.1c-0.3,0.3-0.3,0.7,0,1c0.1,0.1,0.2,0.2,0.3,0.2
			c-0.1,0-0.2,0.1-0.3,0.1c-0.8,0-1.8,0.3-2.5,0.9c-1.4,1.2-1.6,3.2-0.5,4.5c1.1,1.2,3.1,1.2,4.5,0c0.9-0.8,1.3-1.9,1.2-3
			c0.2-0.7,0.4-1.4,0.8-1.6c0.8-0.4,1.4,0,2.3,1c2.3,2.8,11.4,8.9,21.5,8.7C596.4,496.8,608.1,489.4,602.4,481.1"/>
		<path class="st2" d="M589.7,424c11-6.2,35.3-13.2,54.6-6c0,0-25.7-2.2-59.8,20.5c-25.5,16.9-50.1,40.9-54.8,45.6l-6.9-6.8
			C550.2,447.9,578.7,430.2,589.7,424"/>
		<path class="st2" d="M489.5,481.1c0,0,3.6-4.2,7.7-0.1c3.6,3.6,6,4.7,9.6,4.7c4.6,0.1,10.4-2.6,11.8-5.6c0,0,0.4-1.1-0.3-2.2
			c-1,0.2-2.1,0-3-0.8c-1.4-1.2-1.6-3.2-0.5-4.4c1.1-1.3,3.1-1.3,4.5,0c1.1,1,1.5,2.5,1,3.7c0.2,0.4,0.4,0.7,0.8,1.1
			c0-0.2,0-0.5,0.2-0.7c0.3-0.3,0.7-0.3,1,0l0.5,0.5l6.9,6.8l1.2,1.1c0.3,0.3,0.3,0.7,0,1c-0.1,0.1-0.2,0.2-0.3,0.2
			c0.1,0,0.2,0.1,0.3,0.1c0.9,0,1.8,0.3,2.5,0.9c1.4,1.2,1.6,3.2,0.5,4.5c-1.1,1.2-3.1,1.2-4.5,0c-0.9-0.8-1.3-1.9-1.2-3
			c-0.1-0.7-0.4-1.4-0.8-1.6c-0.8-0.4-1.4,0-2.2,1c-2.3,2.8-11.4,8.9-21.4,8.7C495.4,496.8,483.8,489.4,489.5,481.1"/>
	</g>
	<polygon class="st0" points="532.6,681.1 540.8,686.2 544.4,680.1 536.2,675.3 	"/>
	<g>
		<polygon class="st0" points="335.5,623.4 343.8,628.4 347.4,622.5 338.7,617.3 335.9,621.9 327.8,616.8 324.2,623 333,628.1 		"/>
		<path class="st0" d="M349.9,648.4c0-2.4-0.9-4.5-2.8-6.2c-0.6-0.5-2-1.7-4.3-3.3c-2.1-1.5-3.5-2.8-4.3-3.8l-6.9,9
			c-5.4,7.1-8.1,12.3-8.1,15.7c0,2.3,1.1,3.9,3.4,4.9c1.8,0.8,3.9,1.1,6.3,0.8c3.7-0.4,6.9-1.7,9.5-3.8c1.4-1,2.8-2.5,4.2-4.4
			C348.9,653.2,349.9,650.2,349.9,648.4z M342.3,656c-2.9,1.2-5.7,1.8-8.3,1.8c-2.9,0-4.3-1.2-4.3-3.6c0-0.7,0.2-1.5,0.6-2.3
			c2.2-3.2,4.1-5.8,5.7-7.8c5.3,3.3,8.1,6.2,8.2,8.8C344.3,654.1,343.7,655.2,342.3,656z"/>
		<path class="st0" d="M373.1,640.2c-1,4.4-1.6,7.4-2,9.1c6.7,4.8,10,8.6,10,11.4c0,3.9-2.7,8.4-8.2,13.7s-10.1,7.9-14,7.9
			c-1.8,0-4.1-0.6-7-1.8s-4.5-1.8-4.7-1.8c-0.4,0-0.6,0.2-0.6,0.6c0,1.3,2.7,3,8.1,5.1c5,1.9,8.6,2.8,10.7,2.8
			c4.3,0,8.4-2.8,12.2-8.4c4.3-6.1,6.4-11.8,6.4-17.1c0-5.6-1.1-10.2-3.3-13.8C379.1,645.5,376.6,643,373.1,640.2z"/>
		<path class="st0" d="M492.7,644.1L492.7,644.1C492.9,644.1,492.9,644.1,492.7,644.1z"/>
		<polygon class="st0" points="508.4,626.3 516.8,631.3 520.4,625.4 511.7,620.2 508.9,624.8 500.8,619.7 497.2,625.9 505.8,630.9 
					"/>
		<path class="st0" d="M547.1,617.9c-2.1-1.1-4.3-2.3-6.5-3.5c-0.6-0.3-0.9-0.7-0.9-1.2c0-0.3,0.1-0.7,0.4-1.3
			c0.3-0.6,0.4-1,0.4-1.3s-0.2-0.6-0.7-0.7c-0.3-0.3-0.9,0.2-1.6,1.5l-3.9,6.8c-0.3,0.6-0.5,1.2-0.5,1.8c0,0.9,0.5,1.6,1.4,2.2
			l0.5,0.2c2.9,17.4,4.4,28.7,4.4,33.7c0,1.2-0.1,1.8-0.3,1.8h-16.6l0,0h-2.3c-0.9,0-1.4-0.3-1.5-0.9c0-0.1,0.1-0.8,0.3-2.2
			c1.1-6.2,1.7-10.9,1.7-14.1c0-0.5,0-0.8-0.1-0.9c-2.9,3.2-5.1,5.9-6.8,8.2l-0.2,9.9h-19.6l0,0h-17.4l-0.8-0.5
			c-1.3-0.9-1.9-2.1-1.9-3.6c2.9-1.4,6.9-2.1,12.1-2.1c1.1,0,2,0,2.7,0.1c1.5-3.4,2.6-6,3.2-7.8c-0.4,0-1.2,0-2.6,0.1h-2.5
			c-3.8,0-9.8-1.2-18-3.6c-5.5-1.6-9.5-2.5-12-2.5c-4.4,0-7.8,2.8-10.2,8.4c-0.5,1.3-0.8,2.4-0.8,3.3c0.1,0.1,0.1,0.2,0.1,0.3
			c3.5-2.6,6.3-3.9,8.4-3.9l4.1,0.9c5.7,1.2,10,2.1,12.9,2.7c-6.7,5.5-12.8,8.2-18.3,8.2h-16.9l0,0h-12.7h-1.9h-10.1l0,0h-3.8
			c-1.9,0-3.3-0.4-4-1.2c-0.3-0.3-0.6-0.6-0.7-0.7c-0.4-0.9-1.2-7.7-2.4-20.4l-2.4-28.3c-2.2,3-3.9,5.2-4.9,6.6
			c1.5,16.3,2.8,33.5,3.8,51.6h11.8l0,0h12.7h1.9h11l0,0h18.4c3.5,0,6.4-1.1,8.7-3.4c0.9-0.9,2.5-2,4.6-3.4c2.2-1.4,3.7-2.5,4.6-3.5
			c0.4,3.2,0.7,5.2,1,6.1c0.7,2.7,1.9,4.1,3.7,4.1h20.3l0,0h13.5c0.4,0,1.1-0.8,2-2.3s1.5-2.3,1.7-2.3c0.2,0.1,0.5,0.6,1,1.6
			s0.9,1.6,1.3,1.9c1,0.7,2,1,3,1h2.3l0,0h19.7c0.7,0,1.5-2,2.2-5.9c0.7-3.7,1-6.5,1-8.4l-2.5-25.2c0.3,0.1,0.6,0.2,1.1,0.3
			L547.1,617.9z"/>
		<path class="st0" d="M563.5,607.4c-4,6.6-5.9,10.9-5.6,13c2,18.8,3.6,34.8,4.7,48.1c2.4-5.9,3.5-10.2,3.5-12.9l-1-23.9
			C564.3,616,563.8,607.9,563.5,607.4z"/>
		<polygon class="st0" points="610.9,623.4 619.2,628.4 622.8,622.5 614.2,617.3 611.3,621.9 603.3,616.8 599.6,623 608.4,628.1 		
			"/>
		<path class="st0" d="M625.3,648.4c0-2.4-0.9-4.5-2.8-6.2c-0.6-0.5-2-1.7-4.3-3.3c-2.1-1.5-3.5-2.8-4.3-3.8l-6.9,9
			c-5.4,7.1-8.1,12.3-8.1,15.7c0,2.3,1.1,3.9,3.4,4.9c1.8,0.8,3.9,1.1,6.3,0.8c3.7-0.4,6.9-1.7,9.5-3.8c1.4-1,2.8-2.5,4.2-4.4
			C624.3,653.2,625.3,650.2,625.3,648.4z M617.8,656c-2.9,1.2-5.7,1.8-8.3,1.8c-2.9,0-4.3-1.2-4.3-3.6c0-0.7,0.2-1.5,0.6-2.3
			c2.2-3.2,4.1-5.8,5.7-7.8c5.3,3.3,8.1,6.2,8.2,8.8C619.7,654.1,619.1,655.2,617.8,656z"/>
		<path class="st0" d="M648.5,640.2c-1,4.4-1.6,7.4-2,9.1c6.7,4.8,10,8.6,10,11.4c0,3.9-2.7,8.4-8.2,13.7s-10.1,7.9-14,7.9
			c-1.8,0-4.1-0.6-7-1.8s-4.5-1.8-4.7-1.8c-0.4,0-0.6,0.2-0.6,0.6c0,1.3,2.7,3,8.1,5.1c5,1.9,8.6,2.8,10.7,2.8
			c4.3,0,8.4-2.8,12.3-8.4c4.3-6.1,6.4-11.8,6.4-17.1c0-5.6-1.1-10.2-3.3-13.8C654.5,645.5,652,643,648.5,640.2z"/>
		<path class="st0" d="M676.2,607.4c-4,6.6-5.9,10.9-5.6,13c2,18.8,3.6,34.8,4.7,48.1c2.4-5.9,3.5-10.2,3.5-12.9l-1-23.9
			C677.1,616,676.5,607.9,676.2,607.4z"/>
		<path class="st0" d="M714.3,647.9c-1.5-2.4-4-5-7.5-7.7c-1,4.4-1.6,7.4-2,9.1c6.7,4.8,10,8.6,10,11.4c0,3.9-2.7,8.4-8.2,13.7
			s-10.1,7.9-14,7.9c-1.8,0-4.1-0.6-7-1.8s-4.5-1.8-4.7-1.8c-0.4,0-0.6,0.2-0.6,0.6c0,1.3,2.7,3,8.1,5.1c5,1.9,8.6,2.8,10.7,2.8
			c4.3,0,8.4-2.8,12.3-8.4c4.3-6.1,6.4-11.8,6.4-17.1C717.6,656.2,716.5,651.6,714.3,647.9z"/>
		<polygon class="st0" points="708.2,624.3 699.8,619.3 696.1,625.3 704.6,630.4 		"/>
		<path class="st0" d="M750.3,642.7c-2-3.9-3.7-5.8-5.2-5.8c-2.2,0-4.7,2.3-7.6,6.9c-2.7,4.4-4,7.8-3.9,10.2c0,2.3,0.5,4.3,1.3,6
			c1.1,2.2,2.6,3.4,4.7,3.5c2.4,0.2,4.1,0,5.2-0.6c1.7-1,3.4-3.2,5-6.8c0.4,1.2,0.6,2.7,0.6,4.6c0.1,3.9-2.3,8.2-7.1,12.9
			c-4.4,4.3-9.1,7.3-13.8,9.1c-1,0.3-2,0.5-3.3,0.5c-1.1,0-2.8-0.3-5-0.8c-2.2-0.6-3.9-0.8-4.9-0.8c-0.7,0-1.1,0.3-1.1,0.8
			c0,1,2.8,2,8.5,3.3c4.5,1,8,1.5,10.5,1.7c2.9,0.2,5.8-1.2,8.9-4.2c2.5-2.4,4.5-5.2,6-8.4c2.9-6.1,4.4-12.7,4.4-19.7
			C753.5,650.8,752.5,646.7,750.3,642.7z M743.4,655.5c-1.4,0-2.8-0.3-4.2-0.8c-1.8-0.7-2.7-1.6-2.8-2.8c0-1.1,0.7-2.4,2.2-3.9
			s2.7-2.2,3.8-2.2c1.5,0.1,2.8,1.1,4,3.1c1,1.8,1.5,3.6,1.5,5.2C747.3,655.1,745.7,655.5,743.4,655.5z"/>
	</g>
	<g>
		<polygon class="st0" points="308.2,703.8 318.3,730.5 328.6,703.8 335.4,703.8 335.4,739.2 329.5,739.2 329.5,714.8 320.1,739.2 
			316.2,739.2 307.3,714.8 307.3,739.2 301.4,739.2 301.4,703.8 		"/>
		<path class="st0" d="M345.9,708.8H340v-5h5.8L345.9,708.8L345.9,708.8z M345.9,739.2H340v-25.6h5.8L345.9,739.2L345.9,739.2z"/>
		<path class="st0" d="M350,713.6h5.9v2.1c1.1-0.8,2.3-1.5,3.6-1.9c1.3-0.4,2.6-0.6,4-0.6c1.3,0,2.5,0.2,3.6,0.5
			c1.1,0.4,1.9,0.9,2.7,1.6c0.7,0.7,1.3,1.5,1.7,2.5s0.6,2,0.6,3.2v18.2h-5.8v-17.7c0-1.5-0.3-2.6-0.9-3.3c-0.6-0.6-1.4-1-2.5-1
			c-1,0-1.9,0.2-2.7,0.6c-0.8,0.4-1.6,0.9-2.2,1.5c-0.6,0.6-1.1,1.3-1.5,2.1s-0.5,1.6-0.5,2.5v15.3h-6V713.6z"/>
		<path class="st0" d="M382.4,708.8h-5.8v-5h5.8V708.8z M382.4,739.2h-5.8v-25.6h5.8V739.2z"/>
		<path class="st0" d="M392.5,730.7c0,0.9,0.2,1.7,0.4,2.3c0.3,0.6,0.6,1.1,1,1.5s0.9,0.7,1.4,0.9c0.6,0.2,1.2,0.3,1.8,0.3
			c0.5,0,1.1-0.1,1.7-0.2c0.6-0.1,1.1-0.3,1.6-0.5s0.9-0.6,1.2-1.1c0.3-0.4,0.5-1,0.5-1.7c0-0.6-0.2-1.1-0.5-1.6
			c-0.3-0.4-0.7-0.8-1.2-1.1s-1.1-0.6-1.8-0.9c-0.7-0.3-1.4-0.5-2.1-0.8c-1.1-0.4-2.2-0.8-3.3-1.2s-2.1-0.9-2.9-1.5
			c-0.9-0.6-1.6-1.3-2.1-2.1c-0.6-0.8-0.8-1.8-0.8-3s0.3-2.2,0.8-3s1.2-1.6,2.1-2.1c0.9-0.6,1.9-1,3.1-1.3s2.4-0.4,3.7-0.4
			c1.4,0,2.7,0.1,4,0.4c1.2,0.3,2.3,0.8,3.2,1.4c0.9,0.6,1.6,1.4,2.2,2.4c0.5,1,0.8,2.1,0.9,3.4H407c-0.2,0-0.4,0-0.7,0
			c-0.2,0-0.5,0-0.7,0h-0.4h-3.6c-0.1-0.7-0.3-1.2-0.5-1.7c-0.3-0.4-0.6-0.8-1-1.1s-0.8-0.5-1.3-0.6s-1-0.2-1.6-0.2
			c-1.2,0-2.2,0.3-2.8,0.8c-0.7,0.5-1,1.2-1,2c0,0.6,0.2,1,0.5,1.5c0.3,0.4,0.7,0.8,1.2,1.1s1.1,0.6,1.8,0.9
			c0.7,0.3,1.4,0.5,2.1,0.8c1.1,0.4,2.2,0.8,3.3,1.2s2.1,0.9,2.9,1.5c0.9,0.6,1.6,1.2,2.1,2s0.8,1.7,0.8,2.7c0,1.4-0.3,2.6-0.9,3.6
			c-0.6,1-1.4,1.8-2.4,2.5c-1,0.6-2.2,1.1-3.5,1.4c-1.3,0.3-2.7,0.4-4.2,0.4c-1.4,0-2.8-0.2-4-0.6c-1.3-0.4-2.4-0.9-3.3-1.7
			c-1-0.7-1.7-1.7-2.3-2.8s-0.9-2.4-1-3.9L392.5,730.7L392.5,730.7z"/>
		<path class="st0" d="M419.8,706.3v7.3h3.8v4h-3.8v15.6c0,0.9,0.2,1.6,0.5,1.9c0.3,0.3,0.7,0.5,1.2,0.5c0.2,0,0.5,0,0.9-0.1
			s1.1-0.2,1.9-0.3v3.8c-0.7,0.2-1.4,0.3-2.2,0.4c-0.7,0.1-1.4,0.2-2,0.2c-0.8,0-1.6-0.1-2.3-0.3c-0.7-0.2-1.4-0.5-1.9-0.9
			c-0.6-0.4-1-1-1.3-1.6c-0.3-0.7-0.5-1.5-0.5-2.4v-16.9H410v-4h3.8v-7.3L419.8,706.3L419.8,706.3z"/>
		<path class="st0" d="M427.5,713.6h5.2l0.3,2.3c0.7-0.9,1.5-1.6,2.5-2c1-0.5,1.9-0.7,3-0.7c0.3,0,0.7,0.1,1.2,0.2
			c0.5,0.1,1,0.2,1.5,0.4v4.8c-1.6-0.6-2.6-0.9-2.9-0.9c-0.8,0-1.5,0.2-2.1,0.5s-1.2,0.8-1.6,1.4c-0.4,0.6-0.8,1.2-1,2
			c-0.2,0.8-0.3,1.5-0.3,2.4v15.3h-5.8V713.6L427.5,713.6z"/>
		<path class="st0" d="M454.1,731.1l6-17.5h6l-10.8,30.8c-0.4,1-0.8,1.9-1.3,2.6c-0.5,0.7-1.1,1.3-1.7,1.7c-0.6,0.4-1.2,0.8-1.9,1
			c-0.6,0.2-1.3,0.3-1.9,0.3c-0.5,0-1.1,0-1.7-0.1s-1.3-0.3-2.1-0.6V745c0.3,0.1,0.6,0.2,0.9,0.3c0.3,0.1,0.6,0.2,1,0.4
			c0.3,0.1,0.6,0.2,0.8,0.3c0.3,0.1,0.4,0.1,0.6,0.1c0.2,0,0.4-0.1,0.6-0.4c0.2-0.2,0.4-0.5,0.6-0.9c0.2-0.4,0.3-0.7,0.5-1.1
			c0.2-0.4,0.3-0.7,0.4-1.1l1.1-3.4l-9.4-25.5h6.2L454.1,731.1z"/>
		<path class="st0" d="M478.7,726.4c0-1.8,0.3-3.5,0.8-5.1s1.3-3,2.4-4.2c1-1.2,2.3-2.2,3.8-2.8c1.5-0.7,3.3-1,5.3-1s3.7,0.3,5.3,1
			c1.5,0.7,2.8,1.6,3.9,2.8s1.9,2.6,2.4,4.2c0.5,1.6,0.8,3.3,0.8,5.1s-0.3,3.5-0.8,5.1s-1.3,3-2.4,4.2s-2.4,2.1-3.9,2.8
			s-3.3,1-5.3,1s-3.7-0.3-5.3-1c-1.5-0.7-2.8-1.6-3.8-2.8s-1.8-2.6-2.4-4.2C479,730,478.7,728.3,478.7,726.4 M484.5,726.4
			c0,1.3,0.1,2.5,0.4,3.6s0.7,2.1,1.3,2.9c0.6,0.8,1.2,1.5,2,2s1.7,0.7,2.7,0.7s1.9-0.2,2.7-0.7c0.8-0.5,1.5-1.1,2.1-2
			c0.6-0.8,1-1.8,1.3-2.9c0.3-1.1,0.5-2.3,0.5-3.6c0-1.2-0.2-2.4-0.5-3.6c-0.3-1.1-0.7-2.1-1.3-2.9c-0.6-0.8-1.3-1.5-2.1-2
			c-0.8-0.5-1.7-0.7-2.7-0.7s-1.9,0.2-2.7,0.7c-0.8,0.5-1.5,1.1-2,2c-0.6,0.8-1,1.8-1.3,2.9C484.7,724,484.5,725.2,484.5,726.4"/>
		<path class="st0" d="M510.2,713.6V708c0-0.8,0.1-1.4,0.4-2.1c0.3-0.6,0.7-1.2,1.3-1.7c0.6-0.5,1.2-0.8,2-1.1s1.7-0.4,2.7-0.4
			c0.6,0,1.2,0.1,2,0.3s1.5,0.6,2.2,1v3.9c-0.8-0.3-1.5-0.6-2.1-0.8c-0.5-0.2-0.8-0.3-0.9-0.3c-0.5,0-0.9,0.1-1.2,0.4
			c-0.3,0.3-0.5,0.8-0.5,1.4v5h4.3v4.1h-4.3v21.5h-5.9v-21.5H506v-4.1L510.2,713.6L510.2,713.6z"/>
		<path class="st0" d="M540.5,721c0,2.6,0.3,4.8,0.9,6.7c0.6,1.9,1.4,3.5,2.4,4.7s2.2,2.2,3.4,2.8c1.3,0.6,2.6,0.9,3.9,0.9
			s2.6-0.3,3.7-0.8c1.1-0.5,2-1.3,2.9-2.2c0.8-0.9,1.5-1.9,2-3.1c0.5-1.1,0.9-2.3,1.2-3.5h5.9c-0.4,1.9-1,3.7-1.8,5.3
			c-0.8,1.7-1.9,3.1-3.2,4.3s-2.9,2.2-4.6,2.9c-1.8,0.7-3.8,1.1-6,1.1c-2.5,0-4.8-0.4-6.8-1.3c-2-0.9-3.8-2.1-5.2-3.8
			c-1.4-1.6-2.6-3.7-3.3-6c-0.8-2.4-1.2-5.1-1.2-8.1c0-1.5,0.2-3.1,0.5-4.6s0.8-2.9,1.5-4.3c0.6-1.3,1.4-2.6,2.4-3.7
			c0.9-1.1,2-2.1,3.3-3c1.2-0.8,2.6-1.5,4.1-1.9c1.5-0.5,3.1-0.7,4.9-0.7c2.2,0,4.2,0.3,6,0.9c1.7,0.6,3.3,1.4,4.6,2.5
			c1.3,1,2.4,2.3,3.3,3.7c0.9,1.4,1.5,3,2,4.7h-6c-0.9-2.6-2.2-4.5-3.8-5.8s-3.6-1.9-6.1-1.9c-1.6,0-3,0.4-4.3,1.1
			c-1.3,0.8-2.4,1.8-3.4,3.1c-0.9,1.3-1.7,2.8-2.2,4.5C540.7,717.3,540.5,719.1,540.5,721"/>
		<path class="st0" d="M570.6,726.4c0-1.8,0.3-3.5,0.8-5.1s1.3-3,2.4-4.2c1-1.2,2.3-2.2,3.8-2.8c1.5-0.7,3.3-1,5.3-1s3.7,0.3,5.3,1
			c1.5,0.7,2.8,1.6,3.9,2.8c1.1,1.2,1.9,2.6,2.4,4.2c0.5,1.6,0.8,3.3,0.8,5.1s-0.3,3.5-0.8,5.1s-1.3,3-2.4,4.2
			c-1.1,1.2-2.4,2.1-3.9,2.8s-3.3,1-5.3,1s-3.7-0.3-5.3-1c-1.5-0.7-2.8-1.6-3.8-2.8s-1.8-2.6-2.4-4.2
			C570.9,730,570.6,728.3,570.6,726.4 M576.5,726.4c0,1.3,0.1,2.5,0.4,3.6s0.7,2.1,1.3,2.9c0.6,0.8,1.2,1.5,2,2s1.7,0.7,2.7,0.7
			s1.9-0.2,2.7-0.7s1.5-1.1,2.1-2c0.6-0.8,1-1.8,1.3-2.9c0.3-1.1,0.5-2.3,0.5-3.6c0-1.2-0.2-2.4-0.5-3.6c-0.3-1.1-0.7-2.1-1.3-2.9
			c-0.6-0.8-1.3-1.5-2.1-2c-0.8-0.5-1.7-0.7-2.7-0.7s-1.9,0.2-2.7,0.7c-0.8,0.5-1.5,1.1-2,2c-0.6,0.8-1,1.8-1.3,2.9
			C576.6,724,576.5,725.2,576.5,726.4"/>
		<path class="st0" d="M599.3,713.6h5.8v1.9c1-0.8,2.1-1.4,3.3-1.8c1.2-0.4,2.3-0.5,3.4-0.5c1.3,0,2.4,0.3,3.6,0.8
			c1.1,0.5,2.1,1.4,3,2.6c0.5-0.6,1.1-1.1,1.7-1.5c0.6-0.4,1.3-0.8,2-1.1s1.4-0.5,2.1-0.6s1.4-0.2,2.1-0.2c1.3,0,2.5,0.2,3.6,0.6
			c1.1,0.4,2,1,2.8,1.7s1.4,1.5,1.8,2.5c0.4,1,0.7,2,0.7,3.1v18.1h-5.8v-17.1c0-1-0.1-1.7-0.4-2.4c-0.2-0.6-0.5-1.1-0.9-1.5
			c-0.4-0.4-0.8-0.6-1.2-0.8c-0.4-0.1-0.9-0.2-1.3-0.2c-0.6,0-1.3,0.2-1.9,0.5c-0.6,0.3-1.2,0.8-1.7,1.3c-0.5,0.6-0.9,1.2-1.3,2
			c-0.3,0.8-0.5,1.6-0.5,2.5v15.6h-5.8V722c0-1-0.1-1.7-0.3-2.4c-0.2-0.6-0.5-1.1-0.9-1.5c-0.3-0.4-0.7-0.6-1.1-0.8
			c-0.4-0.1-0.8-0.2-1.2-0.2c-0.8,0-1.6,0.2-2.3,0.6c-0.7,0.4-1.3,1-1.8,1.6s-0.9,1.4-1.2,2.1c-0.3,0.8-0.4,1.5-0.4,2.2V739h-5.8
			v-25.4H599.3z"/>
		<path class="st0" d="M639.6,713.6h5.8v1.9c1-0.8,2.1-1.4,3.3-1.8c1.2-0.4,2.3-0.5,3.4-0.5c1.3,0,2.4,0.3,3.6,0.8
			c1.1,0.5,2.1,1.4,3,2.6c0.5-0.6,1.1-1.1,1.7-1.5c0.6-0.4,1.3-0.8,2-1.1s1.4-0.5,2.1-0.6s1.4-0.2,2.1-0.2c1.3,0,2.5,0.2,3.6,0.6
			c1.1,0.4,2,1,2.8,1.7s1.4,1.5,1.8,2.5c0.4,1,0.7,2,0.7,3.1v18.1h-5.8v-17.1c0-1-0.1-1.7-0.4-2.4c-0.2-0.6-0.5-1.1-0.9-1.5
			c-0.4-0.4-0.8-0.6-1.2-0.8c-0.4-0.1-0.9-0.2-1.3-0.2c-0.6,0-1.3,0.2-1.9,0.5c-0.6,0.3-1.2,0.8-1.7,1.3c-0.5,0.6-0.9,1.2-1.3,2
			c-0.3,0.8-0.5,1.6-0.5,2.5v15.6h-5.8V722c0-1-0.1-1.7-0.3-2.4c-0.2-0.6-0.5-1.1-0.9-1.5c-0.3-0.4-0.7-0.6-1.1-0.8
			c-0.4-0.1-0.8-0.2-1.2-0.2c-0.8,0-1.6,0.2-2.3,0.6c-0.7,0.4-1.3,1-1.8,1.6s-0.9,1.4-1.2,2.1c-0.3,0.8-0.4,1.5-0.4,2.2V739h-5.8
			v-25.4H639.6z"/>
		<path class="st0" d="M685.8,727.5c0.1,1.1,0.3,2.1,0.6,3.1s0.8,1.9,1.4,2.6c0.6,0.8,1.2,1.4,2,1.8c0.8,0.4,1.6,0.7,2.5,0.7
			c2.9,0,5-1.6,6.1-4.9h5.4c-0.3,1.4-0.8,2.7-1.6,3.8c-0.7,1.1-1.6,2.1-2.7,2.8c-1,0.8-2.2,1.3-3.5,1.8c-1.3,0.4-2.6,0.6-3.9,0.6
			c-1.9,0-3.6-0.4-5.2-1.1c-1.5-0.7-2.8-1.7-3.9-3c-1.1-1.3-1.9-2.7-2.5-4.3c-0.6-1.6-0.9-3.4-0.9-5.2c0-1.7,0.3-3.4,0.9-4.9
			c0.6-1.6,1.4-2.9,2.5-4.1c1.1-1.2,2.4-2.1,3.9-2.8s3.3-1.1,5.2-1.1c1.8,0,3.5,0.3,5,0.9c1.5,0.6,2.7,1.5,3.8,2.6
			c1,1.1,1.8,2.4,2.4,3.9c0.6,1.5,0.8,3.2,0.8,5v1.9L685.8,727.5L685.8,727.5z M698.3,723.9c-0.1-1-0.2-1.8-0.5-2.6
			s-0.7-1.5-1.3-2.1c-0.5-0.6-1.2-1.1-1.9-1.4c-0.8-0.3-1.6-0.5-2.5-0.5c-0.8,0-1.6,0.2-2.3,0.5c-0.7,0.4-1.3,0.8-1.9,1.4
			c-0.5,0.6-1,1.3-1.3,2.1s-0.5,1.6-0.6,2.5L698.3,723.9L698.3,723.9z"/>
		<path class="st0" d="M707.9,713.6h5.2l0.3,2.3c0.7-0.9,1.5-1.6,2.5-2c1-0.5,1.9-0.7,3-0.7c0.3,0,0.7,0.1,1.2,0.2
			c0.5,0.1,1,0.2,1.5,0.4v4.8c-1.6-0.6-2.6-0.9-2.9-0.9c-0.8,0-1.5,0.2-2.1,0.5c-0.6,0.3-1.2,0.8-1.6,1.4c-0.4,0.6-0.8,1.2-1,2
			s-0.3,1.5-0.3,2.4v15.3h-5.8L707.9,713.6L707.9,713.6z"/>
		<path class="st0" d="M741.5,722.1c-0.5-1.8-1.1-3-2-3.7c-0.8-0.7-1.9-1.1-3.2-1.1c-1,0-1.8,0.2-2.6,0.7s-1.4,1.1-1.9,1.9
			c-0.5,0.8-0.9,1.7-1.2,2.8s-0.4,2.2-0.4,3.3c0,1.2,0.1,2.4,0.4,3.6c0.3,1.2,0.7,2.2,1.2,3.1c0.5,0.9,1.2,1.6,1.9,2.2
			c0.7,0.6,1.6,0.8,2.5,0.8c0.7,0,1.3-0.2,1.9-0.5c0.6-0.3,1.1-0.7,1.5-1.3c0.4-0.5,0.8-1.2,1.1-1.9s0.5-1.5,0.7-2.3h6.1
			c-0.2,1.6-0.6,3-1.2,4.2c-0.6,1.2-1.4,2.3-2.4,3.2s-2.1,1.5-3.5,2c-1.3,0.5-2.8,0.7-4.4,0.7c-2,0-3.8-0.4-5.3-1.2
			s-2.7-1.9-3.6-3.2c-1-1.3-1.7-2.8-2.1-4.4c-0.4-1.6-0.7-3.3-0.7-4.9c0-1.8,0.3-3.5,0.9-5c0.6-1.6,1.4-2.9,2.4-4.1
			c1-1.1,2.3-2.1,3.8-2.7c1.5-0.7,3.1-1,4.9-1c1.6,0,3.1,0.2,4.3,0.7c1.3,0.4,2.4,1.1,3.3,1.9c0.9,0.8,1.7,1.7,2.3,2.8
			s1,2.3,1.3,3.5L741.5,722.1L741.5,722.1z"/>
		<path class="st0" d="M757.3,727.5c0.1,1.1,0.3,2.1,0.6,3.1s0.8,1.9,1.4,2.6c0.6,0.8,1.2,1.4,2,1.8c0.8,0.4,1.6,0.7,2.5,0.7
			c2.9,0,5-1.6,6.1-4.9h5.4c-0.3,1.4-0.8,2.7-1.6,3.8c-0.7,1.1-1.6,2.1-2.7,2.8c-1,0.8-2.2,1.3-3.5,1.8c-1.3,0.4-2.6,0.6-3.9,0.6
			c-1.9,0-3.6-0.4-5.2-1.1c-1.5-0.7-2.8-1.7-3.9-3c-1.1-1.3-1.9-2.7-2.5-4.3s-0.9-3.4-0.9-5.2c0-1.7,0.3-3.4,0.9-4.9
			c0.6-1.6,1.4-2.9,2.5-4.1c1.1-1.2,2.4-2.1,3.9-2.8s3.3-1.1,5.2-1.1c1.8,0,3.5,0.3,5,0.9c1.5,0.6,2.7,1.5,3.8,2.6
			c1,1.1,1.8,2.4,2.4,3.9c0.6,1.5,0.8,3.2,0.8,5v1.9L757.3,727.5L757.3,727.5z M769.8,723.9c-0.1-1-0.2-1.8-0.5-2.6
			s-0.7-1.5-1.3-2.1c-0.5-0.6-1.2-1.1-1.9-1.4c-0.8-0.3-1.6-0.5-2.5-0.5c-0.8,0-1.6,0.2-2.3,0.5c-0.7,0.4-1.3,0.8-1.9,1.4
			c-0.5,0.6-1,1.3-1.3,2.1s-0.5,1.6-0.6,2.5L769.8,723.9L769.8,723.9z"/>
	</g>
</g>
</svg>
