<?xml version="1.0" encoding="utf-8"?>
<!-- Generator: Adobe Illustrator 26.0.1, SVG Export Plug-In . SVG Version: 6.00 Build 0)  -->
<svg version="1.1" id="Layer_1" xmlns="http://www.w3.org/2000/svg" xmlns:xlink="http://www.w3.org/1999/xlink" x="0px" y="0px"
	 viewBox="0 0 474.8 255.6" style="enable-background:new 0 0 474.8 255.6;" xml:space="preserve">
<style type="text/css">
	.st0{fill:#00B258;}
	.st1{fill:#007DC5;}
	.st2{fill:#F15A31;}
</style>
<g id="Layer_2_00000093172923424553829460000012290613533744953477_">
	<g id="Layer_1-2">
		<path class="st0" d="M401,134.1c0.7,0,1.3,0.3,1.7,0.8l-0.8,0.4c-0.1-0.2-0.2-0.3-0.4-0.4c-0.4-0.2-0.8-0.1-1.1,0.1
			c-0.2,0.1-0.3,0.3-0.3,0.4c0,0.2,0.2,0.4,0.7,0.6l0.6,0.2c0.4,0.1,0.8,0.3,1.1,0.6c0.2,0.2,0.4,0.5,0.4,0.9c0,0.5-0.2,0.9-0.6,1.1
			c-0.8,0.6-1.9,0.6-2.7,0.1c-0.3-0.3-0.6-0.7-0.6-1.1l0.9-0.2c0,0.2,0.1,0.4,0.2,0.6c0.2,0.2,0.5,0.3,0.8,0.3
			c0.3,0,0.5-0.1,0.7-0.2c0.3-0.2,0.4-0.6,0.2-0.9c0-0.1-0.1-0.2-0.1-0.2c-0.1-0.1-0.2-0.1-0.3-0.2c-0.1-0.1-0.3-0.1-0.4-0.2
			l-0.6-0.2c-0.8-0.3-1.3-0.7-1.3-1.3c0-0.4,0.2-0.7,0.5-0.9C400.1,134.3,400.5,134.1,401,134.1"/>
		<polygon class="st0" points="406.9,134.9 404.7,134.9 404.7,136.2 406.8,136.2 406.8,136.9 404.7,136.9 404.7,139.3 403.8,139.3 
			403.8,134.2 406.9,134.2 		"/>
		<path class="st0" d="M409,138.5h0.4c0.3,0,0.7,0,1-0.1c0.3-0.1,0.5-0.2,0.7-0.4c0.4-0.3,0.7-0.8,0.7-1.3c0-0.5-0.2-1-0.7-1.3
			c-0.5-0.3-1.2-0.5-1.8-0.5H409L409,138.5z M408.1,139.3v-5h1.3c0.5,0,1,0,1.5,0.1c0.4,0.1,0.7,0.3,1,0.5c1,0.7,1.3,2.1,0.6,3.1
			c-0.2,0.2-0.4,0.4-0.6,0.6c-0.3,0.2-0.6,0.4-1,0.5c-0.5,0.1-1,0.2-1.5,0.1L408.1,139.3z"/>
		<path class="st0" d="M416.6,137.3l-0.9-1.7l-1,1.7H416.6z M417,138h-2.6l-0.7,1.2h-1l3-5.3l2.9,5.3h-1L417,138z"/>
		<path class="st1" d="M396.5,110.8c-11.6-7.6-33.6,17.5-33.6,17.5v0.9l6.8-6.6c13.3-11.6,19.6-5,19.6-5
			c9.6,10.4-29.2,35.5-29.2,35.5l0.1,0.3c8.4-3.3,25.8-17.7,25.8-17.7C406,117.5,396.5,110.9,396.5,110.8"/>
		<path class="st0" d="M429,114.7v-0.4c-8.5,3-16.8,6.4-24.9,10.5c0,0-0.9-7.2,12.1-11l-0.1-0.7c0,0-17.9,3.9-18.4,15.7
			c0,0-19.2,14.2-12.4,23.3c0,0,5.5,6.9,21.6-2.3c0,0,10.8-6.6,14.6-9.8l-0.1-0.8c0,0-20.7,17.2-27.9,6.9S424.6,115.9,429,114.7"/>
		<path class="st2" d="M403.8,101.1c-2.8,0-5,2.2-5,5c0,2.8,2.2,5,5,5s5-2.2,5-5C408.8,103.4,406.5,101.1,403.8,101.1"/>
		<path class="st1" d="M46.3,118.5c-0.3-0.3-0.5-0.5-0.5-1.5c0.2-2,1.8-3.6,3.8-3.6c0.7,0.1,1.5,0.3,2.1,0.6l-0.5,1
			c-0.5-0.3-1.1-0.4-1.7-0.4c-1.3,0-2.8,1.1-2.8,2.1c0,0.8,0,1.1,0.4,1.4c0.4,0.5,1.2,0.4,2.3,0.4h2.5l-0.6,1.1h-5.7v-1.1H46.3z"/>
		<rect x="54.3" y="100.8" class="st1" width="2.4" height="18.7"/>
		<path class="st1" d="M75.3,116.3c0,7.6-3.1,8.4-8.6,8.5c-0.7,0-2.6,0-2.6,0s-0.6-0.9-1.5-2.4c4.3,0,8.1,0.4,9.2-1.2
			c0.5-0.7,1.2-1.8,1.2-4.7c0-4.4-1.7-8.2-5.6-8.1c-2.6,0-5.7,1.2-5.7,6.2c0,2.2,1.1,2.7,3.1,2.7H71l-1.6,2.4h-3.6
			c-4.9,0-6.6-0.6-6.6-5.1c-0.1-4.6,3.5-8.4,8.1-8.5C73.1,106,75.3,111.5,75.3,116.3"/>
		<path class="st1" d="M78.6,119.6l-1.2-2.4h9.1c2.5,0,4,0.2,4.9-1c0.6-0.7,0.8-1.4,0.8-3.2c0-2.2-3-4.6-5.8-4.6
			c-4,0-5.1,2.4-6.2,5.4h-2.5c0,0,0.3-1.3,0.6-2c1.1-3.5,4.4-5.8,8.1-5.7c4.7,0,8.4,4.1,8.4,7.7c0,1.2-0.3,2.3-0.8,3.3h2.6v2.4H78.6
			z"/>
		<polygon class="st1" points="99,117.2 99,100.8 101.3,100.8 101.3,119.6 95.3,119.6 95.3,117.2 		"/>
		<rect x="104.5" y="100.8" class="st1" width="2.4" height="18.7"/>
		<path class="st1" d="M125.5,116.3c0,7.6-3.1,8.4-8.6,8.5c-0.7,0-2.6,0-2.6,0s-0.6-0.9-1.5-2.4c4.3,0,8,0.4,9.2-1.2
			c0.5-0.7,1.2-1.8,1.2-4.7c0-4.4-1.7-8.2-5.6-8.1c-2.6,0-5.7,1.2-5.7,6.2c0,2.2,1.1,2.7,3.1,2.7h6.4l-1.6,2.4h-3.6
			c-4.9,0-6.6-0.6-6.6-5.1c-0.1-4.6,3.5-8.4,8.1-8.5C123.3,106,125.5,111.5,125.5,116.3"/>
		<path class="st1" d="M135.3,118.5c-0.3-0.3-0.5-0.5-0.5-1.5c0.2-2,1.9-3.6,3.9-3.5c0.7,0.1,1.5,0.3,2.1,0.5l-0.5,1
			c-0.5-0.3-1.1-0.5-1.7-0.5c-1.3,0-2.8,1.1-2.8,2.1c0,0.8,0,1.1,0.3,1.4c0.4,0.5,1.2,0.5,2.3,0.5h2.5l-0.6,1.1h-5.7v-1.1H135.3z"/>
		<rect x="143.4" y="100.8" class="st1" width="2.4" height="18.7"/>
		<path class="st1" d="M157.8,102.8c0.1,0.9-0.4,1.7-1.3,1.8c0,0,0,0,0,0c-0.9,0.1-1.7-0.5-1.8-1.4c-0.1-0.9,0.5-1.7,1.4-1.8
			C156.8,101.2,157.6,101.9,157.8,102.8C157.8,102.7,157.8,102.7,157.8,102.8 M149.1,119.6l-1.2-2.4h9.1c2.5,0,4,0.2,4.9-1
			c0.6-0.7,0.8-1.4,0.8-3.2c0-2.2-3-4.6-5.8-4.6c-4,0-5.1,2.4-6.2,5.4h-2.5c0,0,0.3-1.3,0.6-2c1.1-3.5,4.4-5.8,8.1-5.7
			c4.7,0,8.4,4.1,8.4,7.7c0,1.2-0.3,2.3-0.8,3.3h2.6v2.4H149.1z"/>
		<path class="st1" d="M176.5,102.4c0.1,0.9-0.5,1.7-1.4,1.8c-0.9,0.1-1.7-0.5-1.8-1.4c-0.1-0.9,0.5-1.7,1.4-1.8
			C175.6,100.9,176.4,101.5,176.5,102.4C176.5,102.4,176.5,102.4,176.5,102.4 M183.2,113.1c0-2.2-2.8-4.6-6.9-4.6
			c-2.8,0-6.8,2.4-6.8,4.6c0,1.7,0,2.4,0.6,3.2c0.9,1.1,3.6,1,6.1,1s5.3,0.2,6.2-1C183.2,115.5,183.2,114.8,183.2,113.1
			 M165.8,117.2h2.4c-0.6-0.6-1-1.1-1-3.3c0-2.1,1-4,2.6-5.4h-2.5l2.1-2.4h7.7c4.7,0,8.4,4.1,8.4,7.7c0,2.3-0.4,2.8-1,3.3h2.4v2.4
			h-21.2V117.2z"/>
		<polygon class="st1" points="189.8,117.2 189.8,100.9 192.2,100.9 192.2,117.2 195.2,117.2 195.2,119.6 186.2,119.6 186.2,117.2 
					"/>
		<polygon class="st1" points="198.1,117.2 198.1,100.8 200.4,100.8 200.4,119.6 194.4,119.6 194.4,117.2 		"/>
		<path class="st1" d="M221.3,102c0.1,0.9-0.5,1.7-1.4,1.8s-1.7-0.5-1.8-1.4c-0.1-0.9,0.5-1.7,1.4-1.8
			C220.3,100.5,221.1,101.1,221.3,102C221.3,102,221.3,102,221.3,102 M217.8,102c0.1,0.9-0.5,1.7-1.4,1.8c0,0,0,0,0,0
			c-0.9,0.1-1.7-0.4-1.9-1.3c-0.1-0.9,0.4-1.7,1.3-1.9S217.6,101.1,217.8,102C217.8,102,217.8,102,217.8,102 M212.2,113.1
			c0,1.7-0.1,2.5,0.4,3.2c0.9,1.1,2.9,0.9,5.4,0.9h5.4c2,0,0.9-3.9,0.9-3.9c-1.1-3-2.2-4.8-6.1-4.8
			C215.3,108.5,212.2,110.9,212.2,113.1 M226.8,106.1v11.1h1.9v2.4h-15.1c-1.2-0.3-2.3-1.1-3-2.1c-0.6-1.2-0.7-1.3-0.7-3.6
			c0-3.6,3.6-7.7,8.4-7.7c2.3,0,4.5,0.9,6.1,2.5v-2.5L226.8,106.1z"/>
		<path class="st1" d="M238.8,112.4c1.4,1.6,2,3.7,1.4,5.8c-0.1,0.6-0.4,1.2-0.8,1.7c-0.8,1.1-2,2.4-3.2,1.7
			c-1.9-1.1-4.1-2.3-4.1-2.3l0.4-2.6c0.1,0,3.2,2.2,4.2,2.4c0,0,1.3-0.1,1.3-2.5c0.1-1.7-1.3-3.2-3-3.3c-0.1,0-0.3,0-0.4,0
			c-2.1,0-2.6,1-3,2.7c-0.3,1.5-0.1,2.8-1.6,3.5c-0.5,0.2-1.1,0.3-1.6,0.2h-0.7v-2.4h0.7c0.4,0,0.9,0,0.9-0.4c0-2.5,1-5.9,5.7-5.9
			C236.4,110.9,237.7,111.4,238.8,112.4"/>
		<polygon class="st1" points="248.4,119.6 242.4,119.6 242.4,100.8 244.8,100.8 244.8,117.2 248.4,117.2 		"/>
		<path class="st1" d="M264.8,113.1c0-2.2-2.8-4.6-6.8-4.6c-2.8,0-6.8,2.4-6.8,4.6c0,1.7,0.1,2.4,0.6,3.2c0.9,1.1,3.6,1,6.1,1
			c2.5,0,5.4,0.2,6.2-1C264.8,115.5,264.8,114.8,264.8,113.1 M247.4,117.2h2.4c-0.6-0.6-1-1.1-1-3.3c0.1-2.1,1-4,2.6-5.4H249
			l2.1-2.4h7.7c4.7,0,8.4,4.1,8.4,7.7c0,2.3-0.4,2.8-1,3.3h2.4v2.4h-21.2L247.4,117.2z"/>
		<polygon class="st1" points="271.4,117.2 271.4,100.8 273.8,100.8 273.8,119.6 267.8,119.6 267.8,117.2 		"/>
		<rect x="277" y="100.8" class="st1" width="2.4" height="18.7"/>
		<path class="st1" d="M299.6,102c0.1,0.9-0.6,1.7-1.5,1.8c-0.8,0.1-1.6-0.5-1.7-1.3c-0.2-0.9,0.4-1.7,1.3-1.9
			c0.9-0.2,1.7,0.4,1.9,1.3C299.6,101.9,299.6,102,299.6,102 M296.1,102c0.1,0.9-0.5,1.7-1.4,1.8c0,0,0,0,0,0
			c-0.9,0.1-1.7-0.5-1.8-1.4c-0.1-0.9,0.5-1.7,1.4-1.8C295.2,100.5,296,101.1,296.1,102C296.1,102,296.1,102,296.1,102 M290.5,113.1
			c0,1.7-0.2,2.5,0.4,3.2c0.9,1.1,2.9,0.9,5.4,0.9h5.4c2,0,0.9-3.8,0.9-3.8c-1.1-3-2.2-4.8-6.1-4.8
			C293.7,108.5,290.5,110.9,290.5,113.1 M305.1,106.1v11.1h1.9v2.4h-15.1c-1.2-0.3-2.3-1.1-3-2.1c-0.6-1.2-0.7-1.3-0.7-3.6
			c0-3.6,3.6-7.7,8.4-7.7c2.3,0,4.5,0.9,6.1,2.4v-2.5L305.1,106.1z"/>
		<path class="st1" d="M309,106.9c-0.2-0.2-0.3-0.4-0.3-1.1c0.1-1.4,1.3-2.5,2.8-2.6c0.5,0,1.1,0.2,1.6,0.4l-0.4,0.7
			c-0.4-0.2-0.8-0.3-1.2-0.3c-0.9,0-2,0.8-2,1.5c0,0.5,0,0.8,0.2,1c0.3,0.4,0.9,0.3,1.7,0.3h1.8l-0.4,0.7h-4.1v-0.7H309z
			 M309.8,117.2v-7.4h2.4v7.4h3v2.4h-9.1v-2.4H309.8z"/>
		<path class="st1" d="M321.6,122.4c0.1,0.9-0.5,1.7-1.4,1.8c0,0,0,0,0,0c-0.9,0.1-1.7-0.5-1.8-1.4s0.5-1.7,1.4-1.8
			C320.7,120.9,321.5,121.5,321.6,122.4C321.6,122.4,321.6,122.4,321.6,122.4 M318.2,122.4c0.1,0.9-0.5,1.7-1.4,1.8
			s-1.7-0.5-1.8-1.4c-0.1-0.9,0.5-1.7,1.4-1.8C317.2,120.9,318,121.5,318.2,122.4C318.2,122.4,318.2,122.4,318.2,122.4 M317.6,117.2
			v-7.4h2.4v7.4h3v2.4h-9v-2.4H317.6z"/>
		<path class="st1" d="M339.2,113.1c0-2.1-3.4-4.6-6-4.6v8.7c2.6,0,4.5,0.1,5.3-1C339.1,115.5,339.2,114.8,339.2,113.1 M330.9,108.6
			c-2.7,0-5.3,2.6-5.3,4.4c0,1.8,0.1,2.4,0.6,3.2c0.8,1,4.7,1,4.7,1V108.6z M330.9,105.3l2.4-1.1v2c4.7,0,8.4,4.1,8.4,7.7
			c0,2.3-0.4,2.8-1,3.3h2.4v2.4h-21.2v-2.4h2.4c-0.6-0.6-1-1.1-1-3.3c0-3.1,2.8-6.7,7.7-7.6L330.9,105.3z"/>
		<polygon class="st1" points="345.7,117.2 345.7,100.8 348.1,100.8 348.1,119.6 342,119.6 342,117.2 		"/>
		<rect x="351.3" y="100.8" class="st1" width="2.4" height="18.7"/>
		<path class="st1" d="M56.1,136.3l-1.9,1.1c-0.2-0.5-0.6-0.9-1-1.2c-0.4-0.2-0.8-0.3-1.3-0.3c-0.6,0-1.2,0.2-1.6,0.6
			c-0.4,0.3-0.7,0.8-0.6,1.4c0,0.8,0.6,1.4,1.7,1.8l1.5,0.6c1.1,0.4,2,1,2.8,1.9c0.6,0.8,0.9,1.7,0.9,2.7c0,1.3-0.5,2.6-1.4,3.6
			c-1,0.9-2.3,1.4-3.6,1.4c-1.2,0-2.4-0.4-3.3-1.2c-0.9-0.9-1.5-2.1-1.7-3.4l2.4-0.5c0,0.7,0.2,1.3,0.6,1.9c0.5,0.7,1.3,1.1,2.1,1
			c0.7,0,1.3-0.2,1.8-0.7c0.5-0.5,0.7-1.2,0.7-1.9c0-0.3,0-0.6-0.1-0.8c-0.1-0.3-0.2-0.5-0.4-0.7c-0.2-0.2-0.4-0.4-0.7-0.6
			c-0.3-0.2-0.7-0.4-1-0.5l-1.5-0.6c-2.1-0.9-3.2-2.2-3.2-4c0-1.1,0.5-2.2,1.3-2.9c0.9-0.8,2.1-1.2,3.3-1.1
			C53.6,133.7,55.3,134.7,56.1,136.3"/>
		<path class="st1" d="M61.5,144.6c0,0.8,0.2,1.6,0.8,2.3c0.5,0.6,1.2,0.9,2,0.9c0.8,0,1.5-0.3,2-0.9c1-1.3,1-3.2,0-4.6
			c-0.5-0.6-1.2-0.9-2-0.9c-0.8,0-1.5,0.3-2,0.9C61.8,143,61.5,143.8,61.5,144.6 M66.9,139.7h2.3v9.9h-2.3v-1
			c-1.7,1.7-4.5,1.8-6.2,0.1c-0.1-0.1-0.1-0.1-0.2-0.2c-0.9-1.1-1.4-2.4-1.3-3.8c0-1.4,0.4-2.7,1.3-3.7c0.8-1,2-1.5,3.3-1.5
			c1.2,0,2.3,0.5,3.1,1.4V139.7z"/>
		<path class="st1" d="M76,139.8v5.6c0,1.6,0.6,2.4,1.9,2.4c1.3,0,1.9-0.8,1.9-2.4v-5.6h2.3v5.7c0,0.7-0.1,1.4-0.3,2
			c-0.2,0.5-0.6,1-1,1.4c-0.8,0.7-1.9,1-2.9,1c-1.1,0-2.1-0.3-2.9-1c-0.4-0.4-0.8-0.8-1-1.4c-0.2-0.6-0.3-1.3-0.3-2v-5.7H76z"/>
		<path class="st1" d="M88.1,144.6c0,0.8,0.2,1.6,0.8,2.3c0.5,0.6,1.2,0.9,2,0.9c0.8,0,1.5-0.3,2-0.9c1-1.3,1-3.2,0-4.6
			c-1-1.1-2.7-1.2-3.8-0.2c-0.1,0.1-0.2,0.1-0.2,0.2C88.3,143,88,143.8,88.1,144.6 M93.5,132.5h2.3v17.1h-2.3v-1
			c-0.8,0.8-1.9,1.3-3,1.3c-1.3,0-2.5-0.5-3.4-1.5c-0.9-1.1-1.4-2.4-1.3-3.8c0-1.3,0.4-2.7,1.3-3.7c1.5-1.8,4.2-2,6-0.5
			c0.2,0.1,0.3,0.3,0.4,0.4L93.5,132.5z"/>
		<path class="st1" d="M102.2,149.6H100v-9.8h2.3V149.6z M99.6,135.7c0-0.8,0.7-1.5,1.5-1.5c0.8,0,1.5,0.7,1.5,1.5
			c0,0.4-0.2,0.7-0.4,1c-0.3,0.3-0.6,0.4-1,0.4C100.3,137.1,99.7,136.5,99.6,135.7C99.6,135.7,99.6,135.7,99.6,135.7"/>
		<polygon class="st1" points="122.3,136.2 116.9,136.2 116.9,140 122.1,140 122.1,142.2 116.9,142.2 116.9,149.6 114.5,149.6 
			114.5,134 122.3,134 		"/>
		<path class="st1" d="M128.1,144.6c0,0.8,0.2,1.7,0.8,2.3c1.2,1.1,3.1,1.1,4.2,0c1.1-1.3,1.1-3.2,0-4.6c-0.6-0.6-1.3-0.9-2.1-0.9
			c-0.8,0-1.6,0.3-2.1,0.9C128.3,143,128,143.8,128.1,144.6 M125.8,144.6c0-1.4,0.5-2.7,1.5-3.6c2.1-2,5.4-2,7.5,0c2,2,2,5.3,0,7.4
			c-1,1-2.4,1.5-3.8,1.5c-1.4,0-2.7-0.5-3.7-1.5C126.3,147.4,125.7,146,125.8,144.6"/>
		<path class="st1" d="M141.7,144.6c0,0.8,0.2,1.7,0.8,2.3c1.2,1.1,3.1,1.1,4.2,0c1.1-1.3,1.1-3.2,0-4.6c-0.6-0.6-1.3-0.9-2.1-0.9
			c-0.8,0-1.6,0.3-2.1,0.9C142,143,141.7,143.8,141.7,144.6 M139.4,144.6c0-1.4,0.5-2.7,1.5-3.6c2.1-2,5.4-2,7.4,0c2,2,2,5.3,0,7.4
			c-1,1-2.4,1.5-3.8,1.5c-1.4,0-2.7-0.5-3.7-1.5C139.9,147.4,139.3,146,139.4,144.6"/>
		<path class="st1" d="M155.8,144.6c0,0.8,0.2,1.6,0.8,2.3c0.5,0.6,1.2,0.9,2,0.9c0.8,0,1.5-0.3,2-0.9c1-1.3,1-3.2,0-4.6
			c-0.5-0.6-1.2-0.9-2-0.9c-0.8,0-1.5,0.3-2,0.9C156,143,155.7,143.8,155.8,144.6 M161.2,132.5h2.3v17.1h-2.3v-1
			c-0.8,0.8-1.9,1.3-3,1.3c-1.3,0-2.6-0.5-3.4-1.5c-0.9-1-1.4-2.4-1.3-3.8c0-1.3,0.4-2.6,1.3-3.6c1.5-1.8,4.2-2,6-0.5
			c0.2,0.1,0.3,0.3,0.4,0.4V132.5z"/>
		<path class="st1" d="M179.9,139.3l0.2-0.1c0.3-0.2,0.6-0.5,0.8-0.6c0.2-0.1,0.3-0.3,0.5-0.5c0.2-0.3,0.3-0.6,0.3-0.9
			c0-0.4-0.1-0.7-0.4-1c-0.3-0.3-0.7-0.4-1.1-0.4c-0.4,0-0.8,0.1-1.1,0.4c-0.3,0.2-0.5,0.6-0.4,1c0,0.5,0.2,1,0.5,1.3l0.6,0.7
			L179.9,139.3 M179.4,142.3l-0.1,0.1c-0.7,0.5-1.4,1-2,1.6c-0.3,0.4-0.5,0.8-0.5,1.3c0.1,1.4,1.2,2.5,2.6,2.5
			c0.9,0,1.9-0.6,3.1-1.8L179.4,142.3z M181.3,141l2.8,3.4l0.1-0.1c0.3-0.3,0.6-0.7,0.9-1c0.3-0.4,0.5-0.6,0.8-1l1.5,1.6
			c-0.2,0.3-0.4,0.6-0.8,0.9s-0.7,0.8-1.1,1.2l2.9,3.6h-2.9l-1.6-1.9c-1.1,1.3-2.7,2.1-4.5,2.2c-1.3,0-2.6-0.4-3.5-1.3
			c-0.9-0.8-1.4-2-1.4-3.3c0-1.6,0.8-3.1,2.2-3.9l1-0.7h0.1l0.1-0.1c-0.9-0.8-1.5-2-1.6-3.2c0-1,0.3-1.9,1-2.6
			c1.6-1.3,3.8-1.3,5.4,0c0.7,0.6,1,1.5,1,2.4c0,0.7-0.2,1.3-0.6,1.8c-0.6,0.8-1.3,1.4-2.1,2"/>
		<path class="st1" d="M201.4,147.4h1.1c0.9,0,1.8-0.1,2.6-0.3c2.2-0.7,3.7-2.9,3.6-5.2c0.1-1.6-0.6-3.1-1.7-4.1
			c-1.3-1-2.9-1.5-4.6-1.4h-1.1L201.4,147.4z M199.1,149.6V134h3.3c1.3,0,2.5,0.1,3.7,0.5c1,0.3,1.9,0.8,2.7,1.6
			c1.6,1.5,2.5,3.6,2.4,5.8c0.1,3.3-2,6.3-5.2,7.4c-1.2,0.3-2.4,0.5-3.7,0.4L199.1,149.6z"/>
		<path class="st1" d="M214.9,139.8h2.3v0.8c0.3-0.4,0.7-0.7,1.1-0.9c0.4-0.2,0.8-0.3,1.2-0.3c0.7,0,1.3,0.2,1.9,0.6l-1,2.1
			c-0.4-0.3-0.8-0.5-1.3-0.5c-1.2,0-1.9,0.9-1.9,2.8v5.2h-2.3L214.9,139.8z"/>
		<path class="st1" d="M226.9,139.8v5.6c0,1.6,0.6,2.4,1.9,2.4s1.9-0.8,1.9-2.4v-5.6h2.3v5.7c0,0.7-0.1,1.4-0.3,2
			c-0.2,0.5-0.6,1-1,1.4c-1.7,1.3-4.1,1.3-5.9,0c-0.4-0.4-0.8-0.8-1-1.4c-0.2-0.6-0.3-1.3-0.3-2v-5.7H226.9z"/>
		<path class="st1" d="M244.3,144.7c0-0.8-0.2-1.6-0.8-2.3c-0.5-0.6-1.2-0.9-2-0.9c-0.8,0-1.5,0.4-2,1c-0.9,1.3-0.9,3.1,0,4.4
			c0.5,0.6,1.2,1,2,0.9c0.8,0,1.6-0.3,2.1-0.9C244.1,146.3,244.3,145.5,244.3,144.7 M246.4,149.4c0,0.5,0,0.9-0.1,1.2
			s-0.1,0.7-0.1,0.9c-0.2,0.7-0.5,1.4-1,1.9c-0.9,1-2.3,1.6-3.7,1.5c-1.2,0-2.3-0.3-3.2-1.1c-0.9-0.8-1.4-1.8-1.5-3h2.3
			c0.1,0.4,0.2,0.8,0.4,1.1c0.5,0.6,1.3,1,2.1,0.9c1.7,0,2.5-1,2.5-3.1v-1.4c-0.8,0.9-1.9,1.4-3.1,1.4c-1.2,0-2.4-0.5-3.2-1.4
			c-0.9-1-1.3-2.3-1.3-3.7c0-1.3,0.4-2.6,1.2-3.6c0.8-1,2.1-1.6,3.4-1.6c1.2,0,2.3,0.5,3.1,1.4v-1.1h2.3L246.4,149.4z"/>
		<path class="st1" d="M267.1,143.6l-2.3-5.3l-2.4,5.3H267.1z M268.1,145.8h-6.7l-1.7,3.8h-2.5l7.7-16.6l7.5,16.6h-2.6L268.1,145.8z
			"/>
		<path class="st1" d="M277.2,139.8v5.6c0,1.6,0.6,2.4,1.9,2.4c1.3,0,1.9-0.8,1.9-2.4v-5.6h2.3v5.7c0,0.7-0.1,1.4-0.3,2
			c-0.2,0.5-0.6,1-1,1.4c-1.7,1.3-4.1,1.3-5.9,0c-0.4-0.4-0.8-0.8-1-1.4c-0.2-0.6-0.3-1.3-0.3-2v-5.7H277.2z"/>
		<polygon class="st1" points="290.3,141.9 290.3,149.6 288.1,149.6 288.1,141.9 287.1,141.9 287.1,139.8 288.1,139.8 288.1,136.2 
			290.3,136.2 290.3,139.8 292.1,139.8 292.1,141.9 		"/>
		<path class="st1" d="M295.2,132.5h2.3v8c0.7-0.7,1.7-1.1,2.7-1.1c1,0,2,0.4,2.7,1.2c0.6,0.9,0.9,1.9,0.9,3v6h-2.3v-5.8
			c0-0.6-0.1-1.2-0.4-1.7c-0.3-0.4-0.8-0.6-1.4-0.5c-0.7-0.1-1.3,0.2-1.7,0.7c-0.4,0.8-0.5,1.7-0.5,2.6v4.8h-2.3V132.5z"/>
		<path class="st1" d="M309.4,144.6c0,0.8,0.2,1.7,0.8,2.3c0.6,0.6,1.3,0.9,2.1,0.9c0.8,0,1.6-0.3,2.1-0.9c1.1-1.3,1.1-3.2,0-4.6
			c-0.6-0.6-1.3-0.9-2.1-0.9c-0.8,0-1.6,0.3-2.1,0.9C309.7,143,309.4,143.8,309.4,144.6 M307.1,144.6c0-1.4,0.5-2.7,1.5-3.6
			c2.1-2,5.4-2,7.4,0c2,2,2,5.3,0,7.4c-1,1-2.4,1.5-3.8,1.5c-1.4,0-2.7-0.5-3.7-1.5C307.6,147.4,307.1,146,307.1,144.6"/>
		<path class="st1" d="M321.4,139.8h2.3v0.8c0.3-0.4,0.7-0.7,1.1-0.9c0.4-0.2,0.8-0.3,1.2-0.3c0.7,0,1.3,0.2,1.9,0.6l-1,2.1
			c-0.4-0.3-0.8-0.5-1.3-0.5c-1.2,0-1.9,0.9-1.9,2.8v5.2h-2.3L321.4,139.8z"/>
		<path class="st1" d="M333.1,149.6h-2.3v-9.8h2.3L333.1,149.6z M330.5,135.7c0-0.8,0.7-1.5,1.5-1.5c0.4,0,0.8,0.1,1,0.4
			c0.3,0.3,0.4,0.6,0.4,1c0,0.4-0.2,0.7-0.4,1c-0.3,0.3-0.6,0.4-1,0.4c-0.4,0-0.7-0.2-1-0.4C330.7,136.4,330.5,136,330.5,135.7"/>
		<polygon class="st1" points="339.5,141.9 339.5,149.6 337.2,149.6 337.2,141.9 336.3,141.9 336.3,139.8 337.2,139.8 337.2,136.2 
			339.5,136.2 339.5,139.8 341.3,139.8 341.3,141.9 		"/>
		<polygon class="st1" points="347.7,147.8 343.3,139.8 345.9,139.8 348.9,145.4 351.7,139.8 354.3,139.8 346.5,154.9 343.9,154.9 
					"/>
		<rect x="45.8" y="128.7" class="st0" width="307.6" height="0.7"/>
	</g>
</g>
</svg>
