<?xml version="1.0" encoding="utf-8"?>
<!-- Generator: Adobe Illustrator 26.0.1, SVG Export Plug-In . SVG Version: 6.00 Build 0)  -->
<svg version="1.1" id="Layer_1" xmlns="http://www.w3.org/2000/svg" xmlns:xlink="http://www.w3.org/1999/xlink" x="0px" y="0px"
	 viewBox="0 0 1000 1000" style="enable-background:new 0 0 1000 1000;" xml:space="preserve">
<style type="text/css">
	.st0{fill:#C1A979;}
	.st1{fill:#A38051;}
</style>
<g>
	<path class="st0" d="M739.8,354.6v2.5h-2.1c-0.1,0.3-0.1,0.5-0.2,0.6c0,0.1-0.1,0.1-0.1,0.2c-0.3-0.1-0.7-0.2-1.3-0.3
		c-0.6-0.1-1.1-0.2-1.6-0.2c-0.6-0.1-1-0.1-1.5-0.2c-0.4,0-0.7-0.1-0.7-0.1h-1.9c0.1,0.8,0.2,1.5,0.3,2.4c0.1,0.8,0.2,1.6,0.2,2.4
		c-0.1,0.2-0.2,0.3-0.3,0.5s-0.3,0.4-0.4,0.6c-0.2,0.2-0.3,0.4-0.4,0.5c-0.1,0.2-0.3,0.3-0.3,0.3c-0.1-0.8-0.1-1.6-0.2-2.6
		c-0.1-0.9-0.1-1.8-0.2-2.6c-0.1-1-0.1-1.9-0.2-2.9c0.1-0.2,0.2-0.4,0.3-0.5s0.3-0.2,0.5-0.3c0.2-0.1,0.4-0.1,0.6-0.2
		c0.2,0,0.4-0.1,0.6-0.1c0-0.2,0.1-0.4,0.2-0.9c0.1-0.4,0.2-0.8,0.4-1.2c0,0,0,0,0.1-0.1c0.1-0.2,0.3-0.4,0.5-0.8s0.5-0.8,0.8-1.2
		c0.3-0.4,0.6-0.8,0.8-1.2c0.3-0.3,0.5-0.5,0.6-0.6c0,0.1,0.1,0.1,0.2,0.2c0.2,0.2,0.5,0.4,0.8,0.7c0.4,0.3,0.8,0.7,1.2,1.2
		s0.8,1.1,1.1,1.7c0.3,0.7,0.6,1.4,0.7,2.2H739.8z M732.3,354.2c0.1,0.1,0.2,0.2,0.3,0.3s0.4,0.1,0.6,0.2c0.2,0.1,0.5,0.1,0.8,0.1
		s0.6,0,0.8,0s0.4,0,0.7,0c0.2,0,0.4,0,0.6,0c0.2,0,0.4,0,0.6-0.1c-0.2-0.2-0.4-0.4-0.7-0.8c-0.3-0.3-0.6-0.7-0.9-1
		c-0.3-0.4-0.7-0.8-1.1-1.3c-0.1,0-0.3,0.1-0.5,0.3c-0.2,0.2-0.4,0.5-0.6,0.8c-0.2,0.3-0.4,0.7-0.7,1.1v0.4H732.3z M734.3,348.5
		l-0.1-0.1c0-0.1,0-0.1,0.1-0.1V348.5z M745,349.4c0.1,0.3,0.1,0.6,0.2,1.1s0.1,1,0.1,1.5s0.1,1,0.1,1.5s0,0.9,0,1.2h1.5v2.5h-8.3
		v-2.5h5c0-0.1-0.1-0.2-0.1-0.5c-0.1-0.2-0.1-0.4-0.1-0.7c-0.1-0.3-0.1-0.7-0.2-1.1c-0.1-0.4-0.1-0.7-0.2-1L745,349.4z M742.6,359.3
		c0,0-0.1,0.1-0.2,0.3c-0.1,0.1-0.2,0.3-0.3,0.5s-0.2,0.3-0.4,0.5c-0.1,0.2-0.2,0.3-0.3,0.4c-0.3-0.2-0.6-0.4-0.9-0.6
		c-0.3-0.2-0.5-0.3-0.5-0.4c0.1-0.1,0.1-0.2,0.2-0.4c0.1-0.2,0.2-0.3,0.3-0.5s0.2-0.3,0.3-0.4s0.2-0.2,0.2-0.2
		c0.1,0,0.2,0.1,0.3,0.2c0.2,0.1,0.3,0.2,0.5,0.3c0.2,0.1,0.3,0.2,0.4,0.3C742.5,359.2,742.6,359.3,742.6,359.3z M745.3,359.3
		c0,0-0.1,0.1-0.2,0.3s-0.2,0.3-0.3,0.5s-0.2,0.3-0.4,0.5c-0.1,0.2-0.2,0.3-0.3,0.4c-0.3-0.2-0.6-0.4-0.9-0.6
		c-0.3-0.2-0.4-0.3-0.5-0.4c0.1-0.1,0.1-0.2,0.2-0.4c0.1-0.2,0.2-0.3,0.3-0.5s0.2-0.3,0.3-0.4s0.2-0.2,0.2-0.2
		c0.1,0,0.2,0.1,0.3,0.2c0.2,0.1,0.3,0.2,0.5,0.3c0.2,0.1,0.3,0.2,0.4,0.3C745.2,359.2,745.3,359.2,745.3,359.3z M745.6,357.1v-2.5
		h8.4l0.1-0.2c-0.1,0-0.3-0.2-0.6-0.4c-0.3-0.2-0.6-0.5-1-0.8s-0.8-0.7-1.2-1.2c-0.4-0.4-0.7-0.8-0.9-1.3c-0.1-0.2-0.2-0.4-0.3-0.5
		s-0.3-0.2-0.5-0.2c-0.1,0-0.2,0.1-0.3,0.2s-0.2,0.3-0.3,0.4s-0.2,0.1-0.2,0.2c-0.1,0.1-0.2,0.1-0.2,0.1c0-0.1,0.1-0.4,0.3-0.8
		c0.2-0.3,0.4-0.7,0.7-1.1s0.5-0.7,0.8-1s0.4-0.4,0.6-0.4c0.1,0,0.3,0.2,0.6,0.5s0.6,0.8,1,1.3c0.2,0.2,0.4,0.6,0.8,1.1
		c0.4,0.5,0.8,1,1.3,1.5s1,1,1.5,1.5s1,0.8,1.5,1c0.2,0.1,0.4,0.1,0.6,0.1c0.1,0,0.1,0,0.1,0.1l-0.7,2.1c0,0.2-0.1,0.2-0.2,0.2
		L745.6,357.1L745.6,357.1z M763.6,354c0.2,0.3,0.3,0.5,0.5,0.6s0.3,0.1,0.4,0.1h2.8v2.5H765c-0.1,0-0.2,0-0.3,0s-0.2,0-0.3-0.1
		c-0.1,0-0.2-0.1-0.4-0.1c-0.1,0.6-0.3,1.3-0.6,2s-0.7,1.4-1.1,2.1c-0.4,0.7-0.9,1.2-1.4,1.6s-1,0.7-1.4,0.7c-0.3,0-0.7-0.1-1.1-0.2
		c-0.4-0.1-0.8-0.3-1.1-0.5s-0.7-0.3-0.9-0.5c-0.3-0.2-0.4-0.3-0.5-0.4s-0.2-0.2-0.4-0.3c-0.2-0.1-0.2-0.3-0.3-0.3
		c0.1,0,0.1,0,0.2,0.1c0.1,0.1,0.2,0.1,0.3,0.2c0.2,0.1,0.4,0.2,0.6,0.2c0.2,0.1,0.5,0.1,0.8,0.2c0.2,0,0.6-0.1,1.2-0.3
		c0.6-0.2,1.1-0.5,1.7-0.9c0.6-0.4,1.1-0.8,1.7-1.3c0.5-0.5,0.9-1.1,1.1-1.6v-0.2c0-0.4-0.2-1.1-0.5-1.9s-1-1.7-1.8-2.8v-0.1
		c0-0.1,0.1-0.3,0.1-0.6c0.1-0.3,0.2-0.6,0.3-0.9s0.2-0.6,0.3-0.9c0.1-0.2,0.2-0.4,0.2-0.4c0.2,0.1,0.3,0.3,0.5,0.6
		c0.2,0.3,0.4,0.6,0.6,1c0.2,0.4,0.4,0.8,0.6,1.3C763.3,353.1,763.5,353.5,763.6,354z M769.2,344.6c0,0.4,0,0.8,0.1,1.5
		c0,0.6,0.1,1.3,0.1,2s0.1,1.5,0.1,2.2s0,1.4,0.1,2s0,1.1,0.1,1.6c0,0.4,0,0.7,0,0.7c-0.1,0.4-0.1,0.7-0.2,1
		c-0.1,0.3-0.2,0.6-0.3,0.8c-0.1,0.3-0.2,0.5-0.4,0.7h-3.3v-2.5h2.5c-0.1-1-0.1-1.9-0.2-2.8c-0.1-0.9-0.1-1.7-0.2-2.4
		c-0.1-0.7-0.1-1.3-0.1-1.9s-0.1-1-0.1-1.3c0-0.1,0-0.1,0-0.2s0-0.1,0-0.1c0-0.1,0.1-0.2,0.3-0.4c0.2-0.2,0.4-0.4,0.6-0.6
		c0.2-0.2,0.4-0.4,0.7-0.6c0.2-0.2,0.3-0.2,0.4-0.2v0.5H769.2z M773.4,344.2c0,0.3,0,0.7,0.1,1.4c0,0.7,0,1.4,0.1,2.3
		c0,0.9,0.1,1.8,0.1,2.7c0,1,0,1.8,0.1,2.6c0,0.8,0,1.5,0.1,2c0,0.6,0,0.8,0,0.9c-0.3,0.4-0.5,0.7-0.7,1c-0.2,0.2-0.3,0.4-0.5,0.6
		s-0.3,0.2-0.3,0.1c-0.1-1.5-0.2-2.8-0.3-4.2c-0.1-1.3-0.2-2.6-0.2-3.7c-0.1-1.1-0.1-2-0.2-2.7c-0.1-0.7-0.1-1.2-0.1-1.5
		c0-0.1,0.1-0.2,0.3-0.4c0.2-0.2,0.4-0.4,0.6-0.6c0.2-0.2,0.4-0.4,0.7-0.5C773.3,344.2,773.4,344.2,773.4,344.2z M786.8,350.2
		c0.2,0.3,0.4,0.6,0.6,1.1c0.2,0.4,0.4,1,0.6,1.5c0.2,0.6,0.3,1.2,0.3,1.8h1.9c0,0.4,0,0.8,0,1.2c0,0.4,0,0.8,0,1.2h-2
		c-0.1,0.7-0.4,1.3-0.7,2c-0.4,0.7-0.9,1.2-1.5,1.7c-0.4,0.2-1,0.5-1.6,0.7s-1.3,0.3-2.2,0.3H782c-0.4,0-0.8-0.1-1.2-0.3
		c-0.4-0.2-0.8-0.4-1.1-0.7c-0.3-0.3-0.6-0.6-0.9-1s-0.4-0.8-0.5-1.2c0-0.2,0-0.4,0-0.7c0-0.2,0-0.4,0-0.7c0-0.5,0-1.1,0.1-1.6
		c0.1-0.6,0.2-1.1,0.4-1.7c0,0,0,0,0.1-0.1s0.2-0.1,0.3-0.2s0.3-0.2,0.5-0.3c0,0.1-0.1,0.2,0,0.3c0,0.1,0,0.2,0,0.4
		c0,0.1,0,0.3,0,0.4c0,0.2,0,0.4,0,0.6c0,0.6,0.1,1.1,0.1,1.7c0.1,0.6,0.2,1.1,0.5,1.3c0.3,0.4,0.7,0.7,1.2,0.8
		c0.5,0.1,0.9,0.2,1.4,0.3h0.3c0.4,0,0.9-0.1,1.4-0.2c0.4-0.1,0.9-0.3,1.3-0.4c0.4-0.2,0.7-0.4,1-0.6s0.4-0.3,0.5-0.5
		s0.2-0.4,0.2-0.7s-0.1-0.6-0.1-1c-0.1-0.4-0.2-0.8-0.4-1.2c-0.2-0.4-0.3-0.8-0.5-1.2c-0.2-0.4-0.4-0.8-0.6-1.1
		c-0.1,0.1-0.1,0.1-0.2,0.2c-0.1,0.1-0.1,0.1-0.1,0.2c-0.1,0.1-0.2,0.2-0.3,0.2v-0.1c0-0.1,0-0.2,0.1-0.3c0-0.2,0.1-0.4,0.2-0.6
		c0.2-0.4,0.3-0.8,0.5-1.1c0.1-0.3,0.3-0.5,0.4-0.6c0.1-0.1,0.2-0.2,0.3-0.3C786.5,349.8,786.6,350,786.8,350.2z M782.2,351.6
		c-0.4-0.2-0.7-0.5-1-0.7s-0.5-0.4-0.5-0.4c0-0.1,0.1-0.2,0.2-0.4c0.1-0.2,0.3-0.4,0.4-0.6c0.1-0.2,0.2-0.3,0.4-0.5
		c0.1-0.1,0.2-0.2,0.2-0.2c0.1,0,0.2,0.1,0.3,0.2c0.2,0.1,0.3,0.2,0.5,0.4c0.2,0.1,0.3,0.3,0.5,0.4s0.2,0.2,0.2,0.2
		s-0.1,0.1-0.2,0.3c-0.1,0.2-0.2,0.3-0.3,0.5s-0.2,0.4-0.4,0.5C782.3,351.4,782.3,351.5,782.2,351.6z M795.1,348.5
		c0.3,0.3,0.7,0.7,1.1,1.1c0.4,0.5,0.8,1,1.1,1.6s0.7,1.1,1,1.7s0.5,1.2,0.6,1.7h1.9v2.5h-2.5c-0.1,0.1-0.1,0.2-0.1,0.3
		c0,0.1-0.1,0.1-0.1,0.2v0.1c-0.2,0-0.4,0-0.7-0.1c-0.3,0-0.7-0.1-1.1-0.2c-0.4-0.1-0.8-0.2-1.2-0.3c-0.4-0.1-0.8-0.2-1.2-0.4
		c-0.4-0.1-0.7-0.3-0.9-0.4c-0.2-0.2-0.4-0.3-0.4-0.5c-0.1,0.2-0.2,0.4-0.3,0.7c-0.1,0.3-0.3,0.5-0.3,0.7h-3.3v-2.5h2.7
		c0.1-0.4,0.1-0.7,0.2-1.1c0-0.3,0.1-0.5,0.1-0.7s0.1-0.3,0.1-0.3s0.1-0.2,0.2-0.4c0.1-0.2,0.3-0.5,0.5-0.8s0.4-0.6,0.7-1
		c0.3-0.3,0.5-0.7,0.8-1c0.2-0.3,0.5-0.5,0.7-0.7s0.4-0.3,0.6-0.3C795,348.5,795.1,348.5,795.1,348.5z M792.7,353.8
		c0,0.1,0.2,0.3,0.4,0.4s0.5,0.2,0.8,0.3c0.3,0.1,0.7,0.2,1.1,0.2c0.3,0.1,0.7,0.1,1,0.1s0.5,0,0.7-0.1c0.2,0,0.3-0.1,0.3-0.3
		l-1.1-1.6l-0.4-0.4c-0.4-0.6-0.7-0.8-0.9-0.8c-0.1,0-0.2,0.1-0.4,0.3c-0.2,0.2-0.4,0.5-0.6,0.8C793.2,352.9,793,353.3,792.7,353.8
		L792.7,353.8z M799.1,357.1v-2.5h8.4l0.1-0.2c-0.1,0-0.3-0.2-0.6-0.4c-0.3-0.2-0.6-0.5-1-0.8s-0.8-0.7-1.2-1.2
		c-0.4-0.4-0.7-0.8-0.9-1.3c-0.1-0.2-0.2-0.4-0.3-0.5s-0.3-0.2-0.5-0.2c-0.1,0-0.2,0.1-0.3,0.2s-0.2,0.3-0.3,0.4s-0.2,0.1-0.2,0.2
		c-0.1,0.1-0.2,0.1-0.2,0.1c0-0.1,0.1-0.4,0.3-0.8c0.2-0.3,0.4-0.7,0.7-1.1s0.5-0.7,0.8-1s0.4-0.4,0.6-0.4c0.1,0,0.3,0.2,0.6,0.5
		s0.6,0.8,1,1.3c0.2,0.2,0.4,0.6,0.8,1.1c0.4,0.5,0.8,1,1.3,1.5s1,1,1.5,1.5s1,0.8,1.5,1c0.2,0.1,0.4,0.1,0.6,0.1
		c0.1,0,0.1,0,0.1,0.1l-0.7,2.1c0,0.2-0.1,0.2-0.2,0.2L799.1,357.1L799.1,357.1z M817.1,354c0.2,0.3,0.3,0.5,0.5,0.6
		s0.3,0.1,0.4,0.1h2.8v2.5h-2.4c-0.1,0-0.2,0-0.3,0s-0.2,0-0.3-0.1c-0.1,0-0.2-0.1-0.4-0.1c-0.1,0.6-0.3,1.3-0.6,2s-0.7,1.4-1.1,2.1
		c-0.4,0.7-0.9,1.2-1.4,1.6s-1,0.7-1.4,0.7c-0.3,0-0.7-0.1-1.1-0.2c-0.4-0.1-0.8-0.3-1.1-0.5s-0.7-0.3-0.9-0.5
		c-0.3-0.2-0.4-0.3-0.5-0.4s-0.2-0.2-0.4-0.3c-0.2-0.1-0.2-0.3-0.3-0.3c0.1,0,0.1,0,0.2,0.1c0.1,0.1,0.2,0.1,0.3,0.2
		c0.2,0.1,0.4,0.2,0.6,0.2c0.2,0.1,0.5,0.1,0.8,0.2c0.2,0,0.6-0.1,1.2-0.3c0.6-0.2,1.1-0.5,1.7-0.9c0.6-0.4,1.1-0.8,1.7-1.3
		c0.5-0.5,0.9-1.1,1.1-1.6v-0.2c0-0.4-0.2-1.1-0.5-1.9s-1-1.7-1.8-2.8v-0.1c0-0.1,0.1-0.3,0.1-0.6c0.1-0.3,0.2-0.6,0.3-0.9
		s0.2-0.6,0.3-0.9c0.1-0.2,0.2-0.4,0.2-0.4c0.2,0.1,0.3,0.3,0.5,0.6c0.2,0.3,0.4,0.6,0.6,1c0.2,0.4,0.4,0.8,0.6,1.3
		C816.7,353.1,816.9,353.5,817.1,354z M822.7,344.6c0,0.4,0,0.8,0.1,1.5c0,0.6,0.1,1.3,0.1,2s0.1,1.5,0.1,2.2s0,1.4,0.1,2
		c0,0.6,0,1.1,0.1,1.6c0,0.4,0,0.7,0,0.7c-0.1,0.4-0.1,0.7-0.2,1c-0.1,0.3-0.2,0.6-0.3,0.8s-0.2,0.5-0.4,0.7H819v-2.5h2.5
		c-0.1-1-0.1-1.9-0.2-2.8c-0.1-0.9-0.1-1.7-0.2-2.4c-0.1-0.7-0.1-1.3-0.1-1.9s-0.1-1-0.1-1.3c0-0.1,0-0.1,0-0.2s0-0.1,0-0.1
		c0-0.1,0.1-0.2,0.3-0.4c0.2-0.2,0.4-0.4,0.6-0.6c0.2-0.2,0.4-0.4,0.7-0.6c0.2-0.2,0.3-0.2,0.4-0.2v0.5H822.7z M826.9,344.2
		c0,0.3,0,0.7,0.1,1.4c0,0.7,0,1.4,0.1,2.3c0,0.9,0.1,1.8,0.1,2.7c0,1,0,1.8,0.1,2.6c0,0.8,0,1.5,0.1,2c0,0.6,0,0.8,0,0.9
		c-0.3,0.4-0.5,0.7-0.7,1c-0.2,0.2-0.3,0.4-0.5,0.6s-0.3,0.2-0.3,0.1c-0.1-1.5-0.2-2.8-0.3-4.2c-0.1-1.3-0.2-2.6-0.2-3.7
		c-0.1-1.1-0.1-2-0.2-2.7c-0.1-0.7-0.1-1.2-0.1-1.5c0-0.1,0.1-0.2,0.3-0.4c0.2-0.2,0.4-0.4,0.6-0.6s0.4-0.4,0.7-0.5
		C826.8,344.2,826.9,344.2,826.9,344.2z M848.6,344.6c0,0.4,0,0.9,0.1,1.5c0,0.6,0.1,1.3,0.1,2s0.1,1.5,0.1,2.2c0,0.8,0,1.5,0.1,2.1
		c0,0.6,0,1.1,0.1,1.5c0,0.4,0,0.7,0,0.7c0,0.1,0,0.2-0.1,0.4c-0.1,0.2-0.1,0.4-0.2,0.7c-0.1,0.3-0.2,0.5-0.3,0.8s-0.2,0.5-0.4,0.6
		h-8c-0.5,0-0.9-0.2-1.2-0.5s-0.6-0.8-0.7-1.3c-0.1,0.2-0.1,0.3-0.2,0.5c-0.1,0.2-0.2,0.4-0.4,0.6s-0.3,0.4-0.4,0.6
		c-0.2,0.2-0.3,0.3-0.4,0.4c-0.4-0.4-0.9-0.8-1.5-1.1c-0.6-0.3-1.2-0.6-1.7-1l-2.1-1.1c0,0-0.1,0-0.1-0.1s0.1-0.3,0.2-0.5
		c0.1-0.2,0.2-0.5,0.3-0.7s0.2-0.5,0.4-0.7c0.1-0.2,0.2-0.3,0.2-0.4c0.5-0.5,1.1-1,1.9-1.3c0.7-0.4,1.6-0.8,2.7-1.3
		c-0.1-0.1-0.1-0.4-0.2-1c0-0.1,0.1-0.2,0.2-0.3c0.1-0.1,0.2-0.3,0.3-0.5s0.3-0.3,0.4-0.5c0.1-0.2,0.3-0.3,0.4-0.4l0.1,0.7
		c0.1,0.6,0.2,1.4,0.3,2.3s0.3,1.8,0.5,2.7c0,0.1,0.1,0.3,0.1,0.4s0,0.2,0.1,0.4c0,0.2,0.1,0.5,0.1,0.7s0.1,0.4,0.2,0.6
		c0.1,0.2,0.2,0.3,0.3,0.4s0.3,0.2,0.5,0.2h2c-0.1-1-0.1-1.9-0.2-2.8c-0.1-0.9-0.1-1.7-0.2-2.4c-0.1-0.7-0.1-1.3-0.1-1.9
		s-0.1-1-0.1-1.3c0-0.1,0-0.1,0-0.2s0-0.1,0-0.1c0-0.1,0.1-0.2,0.3-0.4c0.2-0.2,0.4-0.4,0.6-0.6c0.2-0.2,0.4-0.4,0.7-0.6
		c0.2-0.2,0.3-0.2,0.4-0.2c0,0.1,0,0.3,0,0.6c0,0.2,0,0.5,0,0.8c0,0.5,0,1,0.1,1.6c0,0.6,0.1,1.2,0.1,1.9c0,0.7,0,1.3,0.1,1.9
		c0,0.6,0,1.2,0.1,1.7c0,0.5,0,0.9,0.1,1.3c0,0.3,0,0.6,0,0.6h3.1c-0.1-1-0.1-1.9-0.2-2.8c-0.1-0.9-0.1-1.7-0.2-2.4
		c-0.1-0.7-0.1-1.3-0.1-1.9s-0.1-1-0.1-1.3c0-0.1,0-0.1,0-0.2s0-0.1,0-0.1c0-0.1,0.1-0.2,0.3-0.4c0.2-0.2,0.3-0.4,0.6-0.6
		c0.2-0.2,0.4-0.4,0.6-0.6c0.2-0.2,0.4-0.2,0.4-0.2L848.6,344.6L848.6,344.6z M833.8,352.9c0.6,0.2,1.1,0.4,1.5,0.6s0.9,0.4,1.3,0.7
		l1.4,0.7c-0.1-0.4-0.2-0.8-0.3-1.2c-0.1-0.3-0.1-0.7-0.2-0.9c0,0,0,0,0-0.1l0,0c0-0.2-0.1-0.4-0.1-0.7c-0.1-0.3-0.1-0.6-0.2-1
		c0,0,0,0,0-0.1l0,0c-0.3,0.2-0.7,0.3-0.9,0.4s-0.5,0.3-0.8,0.4c-0.3,0.2-0.6,0.3-0.8,0.4s-0.4,0.3-0.6,0.4s-0.3,0.2-0.3,0.2
		L833.8,352.9z M845.3,340.6c0,0.1,0.1,0.1,0.1,0.2s0.1,0.2,0.1,0.4c0,0.1,0,0.3,0.1,0.4c0,0.1,0,0.2,0,0.3c0,0.3-0.1,0.7-0.3,1
		s-0.5,0.5-0.9,0.5c-0.7,0-1.1-0.4-1.4-1.1c-0.6,0.7-1.1,1.1-1.5,1.1c-0.6,0-0.9-0.5-0.9-1.5c0-0.3,0.1-0.5,0.2-0.7
		c0.1-0.2,0.2-0.3,0.4-0.3v0.5c0,0.9,0.3,1.3,0.8,1.3c0.3,0,0.7-0.3,1-0.8c0.2-0.4,0.4-0.7,0.7-0.7v0.2c0,0.3,0.1,0.7,0.3,1
		s0.5,0.4,0.9,0.4c0.2,0,0.4-0.1,0.4-0.3c0-0.2-0.1-0.6-0.2-1.3L845.3,340.6z M853,344.2c0,0.3,0,0.7,0.1,1.4c0,0.7,0,1.4,0.1,2.3
		c0,0.9,0.1,1.8,0.1,2.7c0,1,0,1.8,0.1,2.6c0,0.8,0,1.5,0.1,2c0,0.6,0,0.8,0,0.9c-0.3,0.4-0.5,0.7-0.7,1c-0.2,0.2-0.3,0.4-0.5,0.6
		s-0.3,0.2-0.3,0.1c-0.1-1.5-0.2-2.8-0.3-4.2c-0.1-1.3-0.2-2.6-0.2-3.7c-0.1-1.1-0.1-2-0.2-2.7c-0.1-0.7-0.1-1.2-0.1-1.5
		c0-0.1,0.1-0.2,0.3-0.4c0.2-0.2,0.4-0.4,0.6-0.6s0.4-0.4,0.7-0.5C852.9,344.2,853,344.2,853,344.2z M868.3,354.6v2.5h-2.1
		c-0.1,0.3-0.1,0.5-0.2,0.6c0,0.1-0.1,0.1-0.1,0.2c-0.3-0.1-0.7-0.2-1.3-0.3c-0.6-0.1-1.1-0.2-1.6-0.2c-0.6-0.1-1-0.1-1.5-0.2
		c-0.4,0-0.7-0.1-0.7-0.1H859c0.1,0.8,0.2,1.5,0.3,2.4c0.1,0.8,0.2,1.6,0.2,2.4c-0.1,0.2-0.2,0.3-0.3,0.5s-0.3,0.4-0.4,0.6
		c-0.2,0.2-0.3,0.4-0.4,0.5c-0.1,0.2-0.3,0.3-0.3,0.3c-0.1-0.8-0.1-1.6-0.2-2.6s-0.1-1.8-0.2-2.6c-0.1-1-0.1-1.9-0.2-2.9
		c0.1-0.2,0.2-0.4,0.3-0.5s0.3-0.2,0.5-0.3c0.2-0.1,0.4-0.1,0.6-0.2c0.2,0,0.4-0.1,0.6-0.1c0-0.2,0.1-0.4,0.2-0.9
		c0.1-0.4,0.2-0.8,0.4-1.2c0,0,0,0,0.1-0.1c0.1-0.2,0.3-0.4,0.5-0.8s0.5-0.8,0.8-1.2c0.3-0.4,0.6-0.8,0.8-1.2
		c0.3-0.3,0.5-0.5,0.6-0.6c0,0.1,0.1,0.1,0.2,0.2c0.2,0.2,0.5,0.4,0.8,0.7c0.4,0.3,0.8,0.7,1.2,1.2s0.8,1.1,1.1,1.7
		c0.3,0.7,0.6,1.4,0.7,2.2H868.3z M860.8,354.2c0.1,0.1,0.2,0.2,0.3,0.3s0.4,0.1,0.6,0.2c0.2,0.1,0.5,0.1,0.8,0.1s0.6,0,0.8,0
		s0.4,0,0.7,0c0.2,0,0.4,0,0.6,0c0.2,0,0.4,0,0.6-0.1c-0.2-0.2-0.4-0.4-0.7-0.8c-0.3-0.3-0.6-0.7-0.9-1c-0.3-0.4-0.7-0.8-1.1-1.3
		c-0.1,0-0.3,0.1-0.5,0.3c-0.2,0.2-0.4,0.5-0.6,0.8c-0.2,0.3-0.4,0.7-0.7,1.1v0.4H860.8z M862.8,348.5l-0.1-0.1c0-0.1,0-0.1,0.1-0.1
		V348.5z M867.1,354.6h3.8l-0.1-0.4c-0.1-0.1-0.1-0.3-0.2-0.5c-0.1-0.2-0.1-0.4-0.2-0.5c0.1-0.1,0.2-0.3,0.3-0.5s0.3-0.4,0.4-0.6
		c0.1-0.2,0.3-0.4,0.4-0.5c0.1-0.2,0.2-0.3,0.3-0.3c0.1,0.2,0.3,0.6,0.4,1.1c0.2,0.6,0.4,1.3,0.6,2.2h2.4c0-0.2-0.1-0.4-0.1-0.7
		c-0.1-0.2-0.1-0.4-0.1-0.7c-0.1-0.2-0.1-0.4-0.1-0.5c-0.1-0.1-0.1-0.2-0.1-0.2c0-0.1,0.1-0.2,0.2-0.3c0.2-0.2,0.3-0.4,0.5-0.6
		s0.4-0.4,0.6-0.6c0.2-0.2,0.3-0.3,0.4-0.3c0,0.6,0.1,1.2,0.1,1.7c0,0.4,0.1,0.9,0.1,1.3s0,0.8,0,1h2.4c0-0.1,0-0.2-0.1-0.4
		s-0.1-0.5-0.2-0.8c-0.1-0.3-0.1-0.6-0.2-0.8c-0.1-0.3-0.2-0.5-0.2-0.6c0.1-0.1,0.2-0.2,0.4-0.4c0.1-0.1,0.3-0.3,0.5-0.4
		s0.3-0.2,0.5-0.4c0.1-0.1,0.3-0.2,0.4-0.3c0.2,0.6,0.3,1.3,0.4,2c0.1,0.7,0.2,1.4,0.3,2.2h2.7v2.5h-16.5L867.1,354.6L867.1,354.6z
		 M884.3,351.1c0-0.1,0.1-0.2,0.4-0.3c0.2-0.2,0.6-0.4,0.9-0.6c0.3-0.2,0.7-0.4,1-0.6s0.6-0.3,0.7-0.3c0,0.2,0.1,0.4,0.1,0.7
		c0,0.3,0.1,0.6,0.1,1c0,0.3,0,0.7,0.1,1.1c0,0.4,0.1,0.7,0.1,1l0.1,1.1c-0.1,1-0.2,1.7-0.3,2.2s-0.2,0.7-0.2,0.7h-5.4v-2.5h3.9
		c0,0,0-0.1,0-0.2s0-0.1,0-0.2c0-0.2-0.1-0.4-0.1-0.7c0-0.3-0.1-0.6-0.1-0.9c-0.1-0.3-0.1-0.6-0.2-0.8c-0.1-0.2-0.1-0.4-0.2-0.6
		c-0.1-0.1-0.2-0.2-0.3-0.2s-0.3,0-0.4,0L884.3,351.1L884.3,351.1z M884.8,360.6c-0.4-0.2-0.7-0.5-1-0.7s-0.5-0.4-0.5-0.4
		c0-0.1,0.1-0.2,0.2-0.4c0.1-0.2,0.3-0.4,0.4-0.6c0.1-0.2,0.2-0.3,0.4-0.5c0.1-0.1,0.2-0.2,0.2-0.2c0.1,0,0.2,0.1,0.3,0.2
		c0.2,0.1,0.3,0.2,0.5,0.4s0.3,0.3,0.5,0.4s0.2,0.2,0.2,0.2s-0.1,0.1-0.2,0.3c-0.1,0.2-0.2,0.3-0.3,0.5s-0.2,0.4-0.4,0.5
		S884.9,360.5,884.8,360.6z"/>
	<path d="M363.8,413.2V410l109.7-38.2l164.6,16v2.8l0,0l-0.1-43.5c0,0,0,4.3,0-1c0-6.4-5-6.8-5-6.8L560.4,329l-86.9-12.4
		l-103.8,52.7c-6.5,3.2-6,11.9-6,11.9L363.8,413.2"/>
	<path class="st1" d="M473.6,371.8L363.9,410v6.7c0,5.4,6.5,3.6,6.5,3.6l104.4-30.6l155.8,12.9c8.1,0.6,7.7-8.5,7.7-8.5v-3.4v-2.8
		L473.6,371.8"/>
	<path d="M897.4,533.6C873.1,413.3,771,380.8,715.8,383.2c-30.1,1.3-30.1,26-30.1,26v150.6H638l-0.2-40.4c0,0-4.7-31.1-34.5-30.9
		H420.8c0,0-12.7,0.2-12.6-11.8c0,0-1.7-11.4,12.8-14l53.7-4.3l156.1,4.5c0,0,6.4-0.5,6.9-7.4v-31.2c0,0,0-9.2-10.7-10l-152.2-10.7
		L373.5,429c0,0-9.1,1.5-9.7,10.8l0.3,80.1c0,0,0.6,7.7,9.4,8.7h198.3c0,0,16.5,1.4,16.6,14.9v16.2H315.2V409.2c0,0,0-24.7-30.1-26
		c-55.2-2.4-157.3,30.1-181.5,150.4c-4.2,20.9-4.2,46.7,3.4,72.9c3.4,11.7,16.5,14.3,20.1,14.8v0.1H873c0,0,17.1-1.4,21-14.9
		C901.6,580.3,901.6,554.5,897.4,533.6 M267.5,559.8h-100c0,0-17.4,1.2-17.4-20.2c0,0,4-79.1,94.7-109.1c0,0,20.1-6.3,22.7,15.2
		V559.8z M833.4,559.8h-100V445.7c2.6-21.4,22.7-15.2,22.7-15.2c90.7,29.9,94.6,109.1,94.6,109.1C850.8,561,833.4,559.8,833.4,559.8
		"/>
	<path class="st1" d="M715.8,655.4c-3.6-3.4-7.8-5.2-12.7-5.2h-2.4c-1.8,0-3.4,0.7-4.7,2s-2,2.9-2,4.7v10.2
		c-0.2,0.7-0.7,1.1-1.6,1.1h-19.7c-2.5,0-3.8-1.3-3.8-3.8V650h-4.8v0.6c-0.9-0.3-1.7-0.5-2.6-0.5h-1.8c-4.8,0.1-8.9,1.8-12.3,5
		c-3.4,3.3-5.4,7.2-5.8,11.9v3.8c0,0.8,0.3,1.5,0.9,2.1c0.6,0.6,1.3,0.9,2.1,0.9h21.3c0.7,0,1.4-0.3,2-0.8c1,0.5,1.9,0.8,3,0.8h25.9
		c1,0,1.9-0.4,2.5-1.3v1.8l17.5,3.7c0.7,0.2,1.4,0.1,2-0.3c0.6-0.3,1.1-0.8,1.3-1.4h0.1c1-2.3,1.5-5,1.5-7.9l-0.1-0.4
		C721.3,663,719.4,658.8,715.8,655.4 M663.1,667.2c-0.1,0.6-0.7,0.9-1.6,0.9h-12.7c-0.9,0-1.5-0.4-1.6-1.2c0.4-3.2,1.8-5.8,4.2-8
		c2.3-2.2,5.1-3.3,8.3-3.4c2.3,0.1,3.4,1.4,3.4,3.8L663.1,667.2L663.1,667.2z M715.9,668.9l-0.3,1.3c-0.2,1.1-0.9,1.5-2,1.3l-14-3
		V665h-0.1v-5.5c0-2.5,1.2-3.7,3.5-3.7c3.6,0.1,6.6,1.4,9.1,3.9s3.7,5.6,3.7,9.1L715.9,668.9L715.9,668.9z"/>
	<path class="st1" d="M656.4,645.3c0.5-0.5,0.7-1.1,0.7-1.9c0-0.7-0.3-1.3-0.7-1.8c-0.5-0.5-1.1-0.7-1.8-0.7s-1.4,0.2-1.8,0.7
		c-0.5,0.5-0.7,1.1-0.7,1.8s0.2,1.3,0.7,1.9c0.5,0.5,1.1,0.7,1.8,0.7C655.3,646,655.9,645.7,656.4,645.3"/>
	<path class="st1" d="M662.1,645.3c0.5-0.5,0.8-1.1,0.8-1.9c0-0.7-0.2-1.3-0.8-1.8c-0.5-0.5-1.1-0.7-1.8-0.7s-1.3,0.2-1.8,0.7
		s-0.7,1.1-0.7,1.8s0.2,1.3,0.7,1.9c0.5,0.5,1.1,0.7,1.8,0.7S661.6,645.7,662.1,645.3"/>
	<path class="st1" d="M860.4,666.5c0,1.1-0.5,1.6-1.7,1.6h-7.2c-1.7,0-2.8-0.5-3.3-1.5c-0.5-4.7-2.5-8.6-6-11.8s-7.6-4.8-12.3-4.8
		h-2.4c-1.8,0-3.4,0.7-4.7,2s-2,2.9-2,4.7v9.9c0,1-0.6,1.5-1.7,1.5h-10.8v-3.5c0-1.8-0.7-3.4-2-4.7s-2.9-2-4.8-2h-48.1
		c0.3-3.4,1.6-6.2,4.2-8.5c2.5-2.3,5.4-3.4,8.8-3.4l0,0v-5.6l0,0c-5,0-9.2,1.7-12.8,5.1c-3.6,3.4-5.5,7.6-5.8,12.5l0,0v5.6h51.1
		c2.5,0,3.7,1.3,3.7,3.8v0.8H744c-2.5,0-3.8-1.2-3.8-3.6v-14.7h-5.6v16.8c0,3.6-1.3,6.7-3.8,9.2s-5.6,3.8-9.2,3.8v0.1l7.2,4.2
		c2.4-1,4.5-2.5,6.3-4.4s3.2-4.1,4.1-6.6c1,0.5,2,0.8,3.1,0.8h81.1c1.1,0,2-0.5,2.6-1.4v1.8l17.5,3.7c0.7,0.2,1.4,0.1,2-0.3
		c0.6-0.3,1.1-0.8,1.4-1.4h0.1c0.4-1,0.7-2,0.9-3c1,0.4,1.9,0.6,2.8,0.6H863c0.8,0,1.5-0.3,2.1-0.9c0.6-0.6,0.9-1.3,0.9-2.1v-32.9
		h-5.6V666.5 M842.5,670.2c-0.2,1.1-0.9,1.5-2,1.3l-14-3v-9.1c0-2.5,1.2-3.7,3.6-3.8c3.6,0.1,6.6,1.4,9,3.9c2.5,2.5,3.7,5.6,3.7,9.1
		L842.5,670.2z"/>
	<rect x="872" y="638.1" class="st1" width="5.6" height="35.7"/>
	<path class="st1" d="M614.6,654.1c-4.4,0-7.9,3.5-7.9,8c0,4.4,3.6,8,7.9,8c4.4,0,8-3.6,8-8C622.6,657.6,619,654.1,614.6,654.1"/>
	<path class="st1" d="M502.2,651.4c-0.6-0.5-1.5-1-2.6-1.3s-2.4-0.5-3.9-0.5c-1.3,0-2.5,0.1-3.6,0.4c-1.1,0.3-2.2,0.7-3,1.2
		c-0.9,0.5-1.5,1.1-2,1.7c-0.5,0.7-0.8,1.4-0.8,2.2c0,0.4,0.1,0.8,0.2,1.1s0.3,0.6,0.5,0.9c0.2,0.2,0.5,0.4,0.8,0.6
		c0.3,0.1,0.6,0.2,1,0.2c0.5,0,0.9-0.1,1.1-0.3c0.3-0.2,0.5-0.4,0.7-0.7s0.3-0.6,0.4-1s0.1-0.8,0.1-1.2s0.1-0.9,0.2-1.3
		c0.1-0.4,0.3-0.8,0.6-1.1c0.3-0.3,0.7-0.6,1.2-0.8s1.1-0.3,1.9-0.3c0.7,0,1.3,0.1,1.9,0.3s1,0.5,1.4,1c0.4,0.4,0.7,1,0.9,1.8
		c0.2,0.7,0.3,1.6,0.3,2.7v1.5c-1,0.3-2.1,0.5-3.2,0.8s-2.2,0.7-3.2,1c-1,0.4-2,0.8-2.9,1.3s-1.7,1.1-2.4,1.7
		c-0.7,0.6-1.2,1.4-1.6,2.2s-0.6,1.7-0.6,2.7c0,0.8,0.1,1.6,0.4,2.3s0.7,1.3,1.2,1.8s1.1,0.9,1.9,1.2s1.6,0.4,2.5,0.4
		c1,0,1.9-0.1,2.6-0.3s1.4-0.5,2-0.9s1.2-0.8,1.7-1.2s1.1-0.9,1.6-1.3v3.2h4.7v-17.7c0-0.9-0.1-1.8-0.4-2.6
		C503.4,652.6,502.9,651.9,502.2,651.4 M499.4,668.7c-0.5,0.3-0.9,0.7-1.4,1c-0.4,0.3-0.9,0.6-1.3,0.8s-0.9,0.4-1.4,0.6
		c-0.5,0.1-1,0.2-1.5,0.2s-1-0.1-1.4-0.3c-0.5-0.2-0.9-0.5-1.2-0.9c-0.3-0.4-0.6-0.8-0.8-1.4c-0.2-0.5-0.3-1.1-0.3-1.6
		c0-0.6,0.1-1.1,0.4-1.6s0.7-1,1.1-1.4c0.5-0.4,1-0.9,1.6-1.3c0.6-0.4,1.3-0.8,2-1.1s1.4-0.7,2.1-0.9c0.7-0.3,1.4-0.5,2.1-0.7
		L499.4,668.7L499.4,668.7z"/>
	<polyline class="st1" points="146.6,666.5 146.4,666.5 134.5,643.2 129.3,643.2 129.3,673.6 131.6,673.6 131.6,648.9 131.9,648.9 
		144.5,673.6 145.6,673.6 158,648.7 158.2,648.7 158.2,673.6 163.3,673.6 163.3,643.2 158.2,643.2 146.6,666.5 	"/>
	<path class="st1" d="M566.8,651.4c-0.7-0.5-1.5-1-2.6-1.3s-2.4-0.5-3.9-0.5c-1.3,0-2.5,0.1-3.6,0.4c-1.2,0.3-2.2,0.7-3,1.2
		c-0.9,0.5-1.5,1.1-2.1,1.7c-0.5,0.7-0.8,1.4-0.8,2.2c0,0.4,0.1,0.8,0.2,1.1c0.1,0.3,0.3,0.6,0.5,0.9c0.2,0.2,0.5,0.4,0.8,0.6
		c0.3,0.1,0.6,0.2,1,0.2c0.5,0,0.8-0.1,1.1-0.3s0.5-0.4,0.7-0.7s0.3-0.6,0.4-1c0.1-0.4,0.1-0.8,0.1-1.2s0.1-0.9,0.2-1.3
		c0.1-0.4,0.3-0.8,0.6-1.1s0.7-0.6,1.2-0.8s1.1-0.3,1.9-0.3c0.7,0,1.3,0.1,1.9,0.3c0.6,0.2,1,0.5,1.4,1c0.4,0.4,0.7,1,0.9,1.8
		c0.2,0.7,0.3,1.6,0.3,2.7v1.5c-1.1,0.3-2.1,0.5-3.2,0.8c-1.1,0.3-2.2,0.7-3.2,1c-1,0.4-2,0.8-2.9,1.3s-1.7,1.1-2.4,1.7
		c-0.7,0.6-1.2,1.4-1.6,2.2c-0.4,0.8-0.6,1.7-0.6,2.7c0,0.8,0.1,1.6,0.4,2.3c0.3,0.7,0.7,1.3,1.2,1.8s1.2,0.9,1.9,1.2
		s1.6,0.4,2.5,0.4c1,0,1.9-0.1,2.6-0.3c0.7-0.2,1.4-0.5,2.1-0.9c0.6-0.4,1.2-0.8,1.7-1.2s1.1-0.9,1.6-1.3v3.2h4.7v-17.7
		c0-0.9-0.2-1.8-0.4-2.6C567.9,652.6,567.5,651.9,566.8,651.4 M564,668.7c-0.5,0.3-0.9,0.7-1.4,1c-0.4,0.3-0.9,0.6-1.3,0.8
		c-0.4,0.2-0.9,0.4-1.4,0.6c-0.5,0.1-1,0.2-1.5,0.2s-1-0.1-1.4-0.3c-0.5-0.2-0.9-0.5-1.2-0.9c-0.4-0.4-0.6-0.8-0.8-1.4
		c-0.2-0.5-0.3-1.1-0.3-1.6c0-0.6,0.1-1.1,0.4-1.6c0.3-0.5,0.6-1,1.1-1.4s1-0.9,1.7-1.3c0.6-0.4,1.3-0.8,2-1.1s1.4-0.7,2.1-0.9
		c0.7-0.3,1.4-0.5,2.1-0.7L564,668.7L564,668.7z"/>
	<path class="st1" d="M252.5,651.4c-0.7-0.5-1.5-1-2.6-1.3s-2.4-0.5-3.9-0.5c-1.3,0-2.5,0.1-3.6,0.4c-1.2,0.3-2.2,0.7-3,1.2
		c-0.9,0.5-1.5,1.1-2.1,1.7c-0.5,0.7-0.8,1.4-0.8,2.2c0,0.4,0.1,0.8,0.2,1.1c0.1,0.3,0.3,0.6,0.5,0.9c0.2,0.2,0.5,0.4,0.8,0.6
		c0.3,0.1,0.6,0.2,1,0.2c0.5,0,0.8-0.1,1.1-0.3s0.5-0.4,0.7-0.7s0.3-0.6,0.4-1c0.1-0.4,0.1-0.8,0.1-1.2s0.1-0.9,0.2-1.3
		c0.1-0.4,0.3-0.8,0.6-1.1s0.7-0.6,1.2-0.8s1.1-0.3,1.9-0.3c0.7,0,1.3,0.1,1.9,0.3c0.6,0.2,1,0.5,1.4,1c0.4,0.4,0.7,1,0.9,1.8
		c0.2,0.7,0.3,1.6,0.3,2.7v1.5c-1.1,0.3-2.1,0.5-3.2,0.8c-1.1,0.3-2.2,0.7-3.2,1c-1,0.4-2,0.8-2.9,1.3s-1.7,1.1-2.4,1.7
		c-0.7,0.6-1.2,1.4-1.6,2.2c-0.4,0.8-0.6,1.7-0.6,2.7c0,0.8,0.1,1.6,0.4,2.3c0.3,0.7,0.7,1.3,1.2,1.8s1.2,0.9,1.9,1.2
		s1.6,0.4,2.5,0.4c1,0,1.9-0.1,2.6-0.3c0.8-0.2,1.4-0.5,2.1-0.9c0.6-0.4,1.2-0.8,1.7-1.2s1.1-0.9,1.6-1.3v3.2h4.7v-17.7
		c0-0.9-0.1-1.8-0.4-2.6C253.6,652.6,253.1,651.9,252.5,651.4 M249.7,668.7c-0.5,0.3-0.9,0.7-1.4,1c-0.4,0.3-0.9,0.6-1.3,0.8
		c-0.4,0.2-0.9,0.4-1.4,0.6c-0.5,0.1-1,0.2-1.5,0.2s-1-0.1-1.4-0.3c-0.5-0.2-0.9-0.5-1.2-0.9c-0.4-0.4-0.6-0.8-0.8-1.4
		c-0.2-0.5-0.3-1.1-0.3-1.6c0-0.6,0.1-1.1,0.4-1.6c0.3-0.5,0.7-1,1.1-1.4c0.5-0.4,1-0.9,1.6-1.3c0.6-0.4,1.3-0.8,2-1.1
		s1.4-0.7,2.1-0.9c0.7-0.3,1.4-0.5,2.1-0.7L249.7,668.7L249.7,668.7z"/>
	<path class="st1" d="M311,642.5l-14.6,31.1h2.6l4.8-10.2h13l4.6,10.2h5.2l-14.3-31.1H311 M304.6,661.5l5.7-12l5.5,12H304.6z"/>
	<path class="st1" d="M592.8,651.8c-0.5-0.6-1.2-1.2-1.9-1.5c-0.7-0.4-1.5-0.5-2.3-0.5c-1.6,0-3.1,0.4-4.7,1.2c-1.5,0.8-3,2-4.4,3.6
		v-16.3h-4.7v35.4h4.7v-17.4c0.5-0.5,1.1-1,1.6-1.4c0.6-0.4,1.1-0.8,1.7-1.1c0.6-0.3,1.1-0.5,1.7-0.7c0.6-0.2,1.1-0.2,1.6-0.2
		c1.1,0,2,0.4,2.7,1.2s1,2,1,3.5v16h4.7v-16.8c0-1-0.2-1.9-0.5-2.8C593.7,653.1,593.3,652.4,592.8,651.8"/>
	<path class="st1" d="M278.4,651.8c-0.5-0.6-1.2-1.2-1.9-1.5c-0.7-0.4-1.5-0.5-2.3-0.5c-1.6,0-3.1,0.4-4.7,1.2c-1.5,0.8-3,2-4.4,3.6
		v-16.3h-4.6v35.4h4.6v-17.4c0.5-0.5,1.1-1,1.6-1.4c0.6-0.4,1.1-0.8,1.7-1.1s1.1-0.5,1.7-0.7s1.1-0.2,1.6-0.2c1.1,0,2,0.4,2.7,1.2
		s1.1,2,1.1,3.5v16h4.6v-16.8c0-1-0.2-1.9-0.5-2.8C279.4,653.1,279,652.4,278.4,651.8"/>
	<polyline class="st1" points="233.5,650.2 230.4,650.2 218.7,659.6 218.7,638.2 217.3,638.2 214,639.5 214,673.6 218.7,673.6 
		218.7,660.8 229.8,673.6 236,673.6 223,658.7 233.5,650.2 	"/>
	<path class="st1" d="M182.9,651.4c-0.7-0.5-1.5-1-2.6-1.3s-2.4-0.5-3.9-0.5c-1.3,0-2.5,0.1-3.6,0.4c-1.1,0.3-2.2,0.7-3,1.2
		c-0.9,0.5-1.5,1.1-2.1,1.7c-0.5,0.7-0.8,1.4-0.8,2.2c0,0.4,0.1,0.8,0.2,1.1c0.1,0.3,0.3,0.6,0.5,0.9c0.2,0.2,0.5,0.4,0.8,0.6
		c0.3,0.1,0.6,0.2,1,0.2c0.5,0,0.8-0.1,1.1-0.3s0.5-0.4,0.7-0.7s0.3-0.6,0.4-1c0.1-0.4,0.1-0.8,0.1-1.2s0.1-0.9,0.2-1.3
		c0.1-0.4,0.3-0.8,0.6-1.1s0.7-0.6,1.2-0.8s1.1-0.3,1.9-0.3c0.7,0,1.3,0.1,1.9,0.3c0.6,0.2,1,0.5,1.4,1c0.4,0.4,0.7,1,0.9,1.8
		c0.2,0.7,0.3,1.6,0.3,2.7v1.5c-1.1,0.3-2.1,0.5-3.2,0.8s-2.2,0.7-3.2,1c-1,0.4-2,0.8-2.9,1.3s-1.7,1.1-2.4,1.7
		c-0.7,0.6-1.2,1.4-1.6,2.2c-0.4,0.8-0.6,1.7-0.6,2.7c0,0.8,0.1,1.6,0.4,2.3c0.3,0.7,0.7,1.3,1.2,1.8s1.2,0.9,1.9,1.2
		s1.6,0.4,2.5,0.4c1,0,1.9-0.1,2.6-0.3c0.8-0.2,1.4-0.5,2.1-0.9c0.6-0.4,1.2-0.8,1.7-1.2s1.1-0.9,1.6-1.3v3.2h4.7v-17.7
		c0-0.9-0.1-1.8-0.4-2.6C184.1,652.6,183.6,651.9,182.9,651.4 M180.1,668.7c-0.5,0.3-0.9,0.7-1.4,1c-0.4,0.3-0.9,0.6-1.3,0.8
		c-0.4,0.2-0.9,0.4-1.4,0.6c-0.5,0.1-1,0.2-1.5,0.2s-1-0.1-1.4-0.3c-0.5-0.2-0.9-0.5-1.2-0.9c-0.4-0.4-0.6-0.8-0.8-1.4
		c-0.2-0.5-0.3-1.1-0.3-1.6c0-0.6,0.1-1.1,0.4-1.6c0.3-0.5,0.6-1,1.1-1.4s1-0.9,1.7-1.3c0.6-0.4,1.3-0.8,2-1.1s1.4-0.7,2.1-0.9
		c0.7-0.3,1.4-0.5,2.1-0.7v8.6H180.1z"/>
	<polyline class="st1" points="210.5,650.2 207.4,650.2 195.7,659.6 195.7,638.2 191,638.2 191,673.6 195.7,673.6 195.7,660.8 
		206.8,673.6 212.9,673.6 199.9,658.7 210.5,650.2 	"/>
	<path class="st1" d="M544.2,651.9c-0.6-0.7-1.3-1.2-2-1.6c-0.8-0.4-1.6-0.6-2.5-0.6s-1.8,0.1-2.7,0.4c-0.9,0.3-1.8,0.6-2.6,1.1
		c-0.8,0.4-1.6,1-2.3,1.6s-1.2,1.3-1.6,1.9c-0.1-0.7-0.4-1.4-0.9-2c-0.4-0.6-1-1.1-1.6-1.6c-0.6-0.4-1.3-0.8-2-1s-1.4-0.4-2.1-0.4
		c-0.7,0-1.5,0.1-2.3,0.4c-0.8,0.3-1.6,0.6-2.4,1.1c-0.8,0.4-1.6,1-2.3,1.5c-0.7,0.6-1.4,1.2-2,1.9v-4.4h-4.7v23.4h4.7v-17.4
		c0.3-0.5,0.8-0.9,1.3-1.3c0.5-0.4,1.1-0.7,1.7-1.1c0.6-0.3,1.2-0.5,1.9-0.7c0.6-0.2,1.3-0.3,1.9-0.3c0.6,0,1.1,0.1,1.6,0.4
		c0.5,0.3,1,0.6,1.4,1.1c0.4,0.4,0.7,1,0.9,1.5c0.2,0.6,0.3,1.2,0.3,1.9v15.9h4.6v-17.4c0.3-0.5,0.7-0.9,1.2-1.3
		c0.5-0.4,1-0.8,1.6-1.1s1.2-0.5,1.9-0.7s1.3-0.3,2-0.3c0.6,0,1.1,0.1,1.6,0.4c0.5,0.3,1,0.6,1.3,1.1c0.4,0.4,0.7,1,0.9,1.5
		c0.2,0.6,0.3,1.2,0.3,1.9v15.9h4.7V657c0-1-0.2-2-0.5-2.9C545.2,653.3,544.7,652.5,544.2,651.9"/>
	<polyline class="st1" points="424.1,650.2 421.1,650.2 409.3,659.6 409.3,638.2 404.7,638.2 404.7,673.6 409.3,673.6 409.3,660.8 
		420.5,673.6 426.6,673.6 413.6,658.7 424.1,650.2 	"/>
	<path class="st1" d="M443.1,651.4c-0.7-0.5-1.5-1-2.6-1.3s-2.4-0.5-3.9-0.5c-1.3,0-2.5,0.1-3.6,0.4c-1.2,0.3-2.2,0.7-3,1.2
		c-0.9,0.5-1.5,1.1-2.1,1.7c-0.5,0.7-0.8,1.4-0.8,2.2c0,0.4,0.1,0.8,0.2,1.1s0.3,0.6,0.5,0.9c0.2,0.2,0.5,0.4,0.8,0.6
		c0.3,0.1,0.6,0.2,1,0.2c0.5,0,0.9-0.1,1.1-0.3c0.3-0.2,0.5-0.4,0.7-0.7s0.3-0.6,0.4-1s0.1-0.8,0.1-1.2s0-0.9,0.2-1.3
		c0.1-0.4,0.3-0.8,0.6-1.1c0.3-0.3,0.7-0.6,1.2-0.8s1.1-0.3,1.9-0.3c0.7,0,1.3,0.1,1.9,0.3s1,0.5,1.4,1c0.4,0.4,0.7,1,0.9,1.8
		c0.2,0.7,0.3,1.6,0.3,2.7v1.5c-1.1,0.3-2.1,0.5-3.2,0.8s-2.2,0.7-3.2,1c-1,0.4-2,0.8-2.9,1.3s-1.7,1.1-2.4,1.7
		c-0.7,0.6-1.2,1.4-1.6,2.2s-0.6,1.7-0.6,2.7c0,0.8,0.1,1.6,0.4,2.3s0.7,1.3,1.2,1.8s1.2,0.9,1.9,1.2c0.7,0.3,1.6,0.4,2.5,0.4
		c1,0,1.9-0.1,2.6-0.3c0.8-0.2,1.4-0.5,2.1-0.9c0.6-0.4,1.2-0.8,1.7-1.2s1.1-0.9,1.6-1.3v3.2h4.7v-17.7c0-0.9-0.2-1.8-0.4-2.6
		C444.2,652.6,443.8,651.9,443.1,651.4 M440.3,668.7c-0.5,0.3-0.9,0.7-1.4,1c-0.4,0.3-0.9,0.6-1.3,0.8c-0.5,0.2-0.9,0.4-1.4,0.6
		c-0.5,0.1-1,0.2-1.5,0.2s-1-0.1-1.4-0.3c-0.5-0.2-0.9-0.5-1.2-0.9c-0.4-0.4-0.6-0.8-0.8-1.4c-0.2-0.5-0.3-1.1-0.3-1.6
		c0-0.6,0.1-1.1,0.4-1.6s0.6-1,1.1-1.4s1-0.9,1.6-1.3c0.6-0.4,1.3-0.8,2-1.1s1.4-0.7,2.1-0.9c0.7-0.3,1.4-0.5,2.1-0.7L440.3,668.7
		L440.3,668.7z"/>
	<path class="st1" d="M465.1,650.5c-0.3-0.3-0.7-0.5-1.2-0.6c-0.4-0.1-0.9-0.2-1.4-0.2c-0.6,0-1.2,0.1-1.8,0.4
		c-0.6,0.3-1.2,0.6-1.8,1.1c-0.6,0.4-1.1,1-1.6,1.6s-1,1.2-1.5,1.9v-4.4h-4.6v23.4h4.6v-16.2c0.3-0.5,0.6-1,1-1.5
		c0.3-0.4,0.6-0.8,1-1.2c0.3-0.3,0.6-0.6,0.9-0.8s0.6-0.3,0.9-0.3c0.4,0,0.7,0.1,1,0.2c0.3,0.1,0.5,0.2,0.8,0.4
		c0.3,0.1,0.5,0.3,0.9,0.4c0.3,0.1,0.7,0.2,1.3,0.2c0.8,0,1.5-0.2,2-0.6c0.5-0.4,0.7-1,0.7-1.7c0-0.4-0.1-0.7-0.3-1.1
		C465.6,651.1,465.4,650.8,465.1,650.5"/>
	<path class="st1" d="M482.8,650.5c-0.3-0.3-0.7-0.5-1.1-0.6s-0.9-0.2-1.4-0.2c-0.6,0-1.2,0.1-1.9,0.4c-0.6,0.3-1.2,0.6-1.8,1.1
		c-0.6,0.4-1.1,1-1.6,1.6s-1,1.2-1.5,1.9v-4.4h-4.6v23.4h4.6v-16.2c0.3-0.5,0.6-1,1-1.5c0.3-0.4,0.6-0.8,1-1.2
		c0.3-0.3,0.6-0.6,0.9-0.8s0.6-0.3,0.9-0.3c0.4,0,0.7,0.1,1,0.2c0.3,0.1,0.5,0.2,0.8,0.4c0.3,0.1,0.5,0.3,0.8,0.4
		c0.3,0.1,0.7,0.2,1.3,0.2c0.8,0,1.5-0.2,2-0.6c0.5-0.4,0.7-1,0.7-1.7c0-0.4-0.1-0.7-0.3-1.1C483.4,651.1,483.1,650.8,482.8,650.5"
		/>
	<path class="st1" d="M394.6,667.3c-0.3,0.5-0.7,1-1.1,1.5s-0.9,0.9-1.4,1.2s-1,0.6-1.5,0.8s-1,0.3-1.5,0.3c-0.7,0-1.4-0.1-2-0.3
		s-1.2-0.5-1.6-0.9c-0.5-0.4-0.8-0.8-1.1-1.3c-0.3-0.5-0.4-1.1-0.4-1.7v-16.7h-4.6v16.7c0,1,0.2,1.9,0.6,2.8
		c0.4,0.9,0.9,1.7,1.6,2.3c0.7,0.7,1.5,1.2,2.4,1.6c0.9,0.4,1.9,0.6,2.9,0.6c0.7,0,1.4-0.1,2.2-0.4c0.8-0.2,1.5-0.6,2.2-1
		s1.4-1,2-1.6s1.1-1.2,1.5-1.9v4.4h4.7v-23.4h-4.7v17"/>
	<polyline class="st1" points="358.3,666.5 358,666.5 346.2,643.2 341,643.2 341,673.6 343.2,673.6 343.2,648.9 343.6,648.9 
		356.2,673.6 357.3,673.6 369.7,648.7 369.9,648.7 369.9,673.6 375,673.6 375,643.2 369.9,643.2 358.3,666.5 	"/>
	<rect x="329.6" y="638.2" class="st1" width="4.7" height="35.4"/>
	<path class="st1" d="M179.4,367.5c13.2,0,23.9-10.7,23.9-23.9c0-13.2-10.7-23.9-23.9-23.9s-23.9,10.7-23.9,23.9
		C155.5,356.9,166.2,367.5,179.4,367.5"/>
	<path class="st1" d="M233.5,367.5c13.2,0,23.9-10.7,23.9-23.9c0-13.2-10.7-23.9-23.9-23.9s-23.9,10.7-23.9,23.9
		C209.6,356.9,220.3,367.5,233.5,367.5"/>
</g>
</svg>
