<?xml version="1.0" encoding="UTF-8"?>
<svg xmlns="http://www.w3.org/2000/svg" xmlns:xlink="http://www.w3.org/1999/xlink" version="1.1" viewBox="0 0 881.1 487.2">
  <defs>
    <style>
      .cls-1 {
        fill: #014b76;
      }

      .cls-2 {
        fill: url(#linear-gradient);
      }

      .cls-3 {
        fill: #044a74;
      }

      .cls-4 {
        fill: #044a75;
      }
    </style>
    <linearGradient id="linear-gradient" x1="435.5" y1="467.2" x2="122.6" y2="16.6" gradientTransform="translate(0 486.5) scale(1 -1)" gradientUnits="userSpaceOnUse">
      <stop offset="0" stop-color="#04aca0"/>
      <stop offset=".2" stop-color="#04aca0"/>
      <stop offset=".9" stop-color="#00609f"/>
      <stop offset="1" stop-color="#00609f"/>
    </linearGradient>
  </defs>
  <!-- Generator: Adobe Illustrator 28.7.1, SVG Export Plug-In . SVG Version: 1.2.0 Build 142)  -->
  <g>
    <g id="Layer_1">
      <path class="cls-1" d="M281,349.6c-7.1,4-13.8,8.1-20.4,12-18.4,11-34.7,21-49.1,25.1-1.8.5-3.4-.8-3.4-2.6v-55c26.9,1.6,50.9,10,72.8,20.5"/>
      <path class="cls-2" d="M262.6,142.1h0c5.3-6.8,15.1-7.6,21.2-1.5,4.2,4.2,8.8,9.4,13.6,15.5,4.5-6,9.4-11.3,13.4-15.4,6-6.1,16-5.3,21.2,1.5-.3.3-13.6,10.6-24.6,26.4,13-4.6,26.4-6.8,36.2-7.4,8.4-.6,15.6,6.5,15.1,15h0c-.3,0-21.8-1-42.9,5.8,13,4.2,24.6,10.7,32.8,16,7.2,4.6,8.6,14.6,3.1,21.2-.3-.3-18-15.1-40.1-22.5,9.8,9.9,17.2,21,22,29.6,4.2,7.4,1.1,17-6.8,20.2,0-.3-7.9-18.6-21.7-34.3v112.2c-5.2-2.4-10.4-4.6-15.2-6.5v-106.4c-14.2,16-22.1,34.7-22.1,35-7.9-3.3-11-12.9-6.8-20.2,4.9-8.7,12.3-19.7,22-29.6-22,7.3-39.9,22.3-40.1,22.5-5.5-6.5-4-16.5,3.1-21.2,8.1-5.3,19.7-11.8,32.8-16-21.2-6.8-42.6-5.7-42.9-5.7h0c-.3-8.7,6.8-15.7,15.1-15,10.2.8,23.5,2.8,36.9,7.6-11.6-16-25.2-26.6-25.5-26.8M208.4,54.6v258.9c33.7,1.9,63.1,13.7,89,27,13,6.8,25.2,14.1,36.5,20.9,18.4,11,34.8,21,49.2,25.1,1.8.5,3.3-.8,3.3-2.6v-55.1c-18.6,1.2-35.9,5.6-52.1,11.7l-17.1-9.8c0,0,.3,0,.3,0,2.3-1.1,4.5-1.9,6.8-2.9.3-.3.8-.3,1.2-.5,2.2-.8,4.5-1.8,6.8-2.4.6-.3,1.2-.3,1.9-.6,1.8-.6,3.5-1.1,5.2-1.8,1.3-.3,2.8-1,4.2-1.3,5.3-1.6,10.5-2.9,15.9-4,2.4-.5,4.7-1.1,7.3-1.3,6.4-1.1,12.8-1.8,19.4-2.3v-165.4c0-22.5-13.6-42.7-34.3-50.9l-131.5-51.4c-1.1-.3-2.2-.6-3.4-.6-4.7,0-8.9,3.9-8.9,9.1"/>
      <path class="cls-3" d="M577,429.8v-2.3c0,0,0-.1-.1-.1h-2c-.3,0-.6,0-.9,0s-.5.1-.8.2c-.3.1-.6.4-.8.8-.3.4-.5.7-.5,1.6,0,1.6,1,2.5,1.7,2.7.2,0,.7.1,1.4.1s1.1-.2,1.6-.3c.1,0,.2,0,.3-.1,0,0,.1,0,.1-.2v-2.3h0ZM628.8,433.6c.3,0,.8-.1,1-.3.4-.2.7-.5.8-.9,0-.1.1-.3.1-.5,0-.3,0-.6,0-1v-5.6c0,0,0-.1.1-.1h2.1c0,0,.1,0,.1.1v6.1c0,.3,0,.5,0,.8.1.5.4.9.9,1.1.3.1.6.2,1,.2h14.8c.3,0,.7,0,1-.1.3,0,.5-.2.7-.3,0,0,.1-.1.2-.2.2-.2.3-.5.3-.8,0-.3,0-.5.1-.8,0-.2,0-.4,0-.7v-.2c0-.4,0-.8-.1-1.2,0-.1,0-.2-.1-.3-.2-.6-.7-1-1.2-1.2-.3-.1-.6-.2-1-.3s-.6,0-1,0h-.8c-.7,0-1.4.1-2,.3,0,0-.1,0-.2,0s-.1,0-.2-.1c0,0,0-.1,0-.2-.1-.4-.3-.9-.4-1.3,0-.2,0-.3.2-.3.5-.2.9-.3,1.4-.4.4,0,.9-.1,1.4-.1h1.2c.7,0,1.4.1,2,.3.6.2,1.2.4,1.7.8.6.5,1.1,1.1,1.4,1.8.1.4.2.8.3,1.2,0,.3,0,.6,0,1v.4c0,.5,0,1-.1,1.5,0,.1,0,.3,0,.4.2.5.8,1,1.6,1.1.4,0,11.8,0,12.3,0,1.6,0,1.6-.9,1.6-2v-13.2c0-.1,0-.2.2-.2h2c.2,0,.3,0,.3.3v13c0,1.6.1,4.4-3.2,4.4h-12.8c-.2,0-.5,0-.7,0-.3,0-.7-.1-1-.3-.3-.1-.7-.3-1-.6,0,0-.1-.1-.2-.2,0,0-.1,0-.2,0,0,0,0,0-.1,0-.3.3-.8.6-1.3.8-.4.1-.8.2-1.2.3-.5,0-1,0-1.6,0h-13.8c-.6,0-1.2-.1-1.8-.3-.5-.2-1-.5-1.4-1,0,0,0,0,0,0h0c0,0,0,0-.1,0-.4.4-1,.7-1.5.9-.4.1-.8.2-1.2.3-.5,0-.9,0-1.4,0h-46.4c-.2,0-2.5,0-3.1-.2-.5-.1-.8-.5-1.2-1,0,0,0-.1-.1-.1,0,0-.1,0-.2,0s-.1,0-.2,0c-.1,0-.3.1-.5.1-.6.2-1.3.3-1.9.3h-.3c-.7,0-1.3-.1-2-.3-.6-.2-1.1-.5-1.6-1-.2-.2-.3-.4-.5-.6-.4-.5-.6-1.2-.8-1.8,0-.5,0-1.1,0-1.6,0-.6.2-1.2.4-1.7.3-.7.8-1.3,1.4-1.7.5-.3,1-.6,1.6-.8.3,0,.5-.1.8-.2h.1c.4,0,.8,0,1.2,0h4.2c.1,0,.2,0,.2.2v6.8c0,.2,0,.3,0,.5,0,.3.3.5.5.6.3.1.6.2,1,.2.5.2,47.8.2,48,.2"/>
      <path class="cls-3" d="M535.8,430.5c0-.4,0-.8,0-1.2,0-.3-.1-.7-.3-1-.2-.5-.5-.8-1.1-1-.3-.1-.8-.2-1.2-.2s-.3,0-.4,0c-.6,0-1.2.4-1.5.9-.1.2-.3.4-.3.7-.2.5-.2,1-.3,1.6,0,.4,0,.8,0,1.2,0,.3.1.6.3,1s.4.7.8.9c.3.2.7.3,1,.3.8,0,1.9,0,2.5-.8.2-.3.3-.7.4-1.1,0-.4.1-.8.1-1.2M502.4,435.7c-.5,0-1,0-1.4-.1-.3,0-.6-.1-.9-.3-.3-.1-.6-.3-.9-.6,0,0-.1-.1-.2-.2h-.2c-.5.6-1.2,1-2,1.1-.5,0-1,.1-1.4.1h-8c0,0-.1,0-.1-.1v-1.8c0,0,0-.1.1-.1h8.1c.3,0,.5,0,.8-.1.4-.1.6-.4.8-.8,0-.2.1-.5.2-.8,0-.5,0-.9,0-1.4v-12.3c0,0,0-.1.1-.1h1.9c.3,0,.4,0,.4.4v13.2c0,.1,0,.3,0,.3.1.7.5,1.1,1.2,1.3.2,0,.5.1.8.1h27.1c0,0,.1,0,.1-.1,0,0,0,0,0,0-.3-.6-.5-1.3-.6-2,0-.5,0-.9,0-1.4,0-.8.2-1.5.5-2.2.3-.6.7-1.2,1.2-1.6.5-.4,1.2-.8,1.8-.9s.7-.1,1.1-.1h1c.6,0,1.2.1,1.7.3.7.2,1.2.6,1.6,1.2.2.3.4.5.5.9.2.5.3,1,.5,1.6,0,.4,0,.9,0,1.3v.7c0,.7-.1,1.3-.3,1.9-.1.5-.4,1.1-.8,1.5-.3.4-.8.7-1.3.9-.4.1-.9.3-1.3.3s-.8,0-1.2,0c-.7-.1-30.8-.1-31.1-.1"/>
      <path class="cls-3" d="M469.8,430.8v-3.3c0-.1,0-.2.3-.3h2c.2,0,.3,0,.3.3v3.5c0,.3,0,.6,0,.9,0,.3.2.7.4,1,.3.3.6.5,1,.5.3,0,.6,0,.9,0,.5,0,.8-.3,1-.8.1-.3.2-.5.3-.8,0-.5,0-1,0-1.4v-2.9c0,0,0-.1.1-.1h2c.2,0,.3,0,.3.3v4.3c0,.3,0,.5.2.8.1.3.4.5.8.7.2,0,.4.1.7.1h.5c.3,0,.5-.1.8-.3s.5-.6.5-1c0-.3,0-.5,0-.8v-6c0-.1,0-.2.2-.2h1.8c.4,0,.4,0,.5.4v5.5c0,.5,0,1.1-.1,1.6-.1.5-.3,1.1-.7,1.6-.4.5-1,1-1.6,1.2-.3.1-.7.1-1,.2-.4,0-.8,0-1.2,0-.5,0-1-.3-1.4-.6-.1-.1-.3-.2-.4-.3,0,0-.1-.1-.2-.2h-.1c0,0-.1,0-.1.1-.6.6-1.3,1-2.2,1-.2,0-.4,0-.7,0-.8,0-1.5-.1-2.1-.5,0,0-.1,0-.1,0,0,0,0,0,0,0,0,.1,0,.2,0,.3-.2,1-.6,1.8-1.3,2.5s-1.6,1.2-2.5,1.4c-.5.1-1,.2-1.4.3-.3,0-.7,0-1,0-.8,0-1.4-.1-2.2-.3-.7-.2-1.3-.5-1.9-1-.5-.4-1-.9-1.2-1.5-.3-.6-.5-1.3-.7-2,0-.3,0-.5,0-.8,0-.8,0-1.5.2-2.2.2-1,.5-1.9,1-2.8,0,0,0-.1.1-.2,0-.1.1-.1.3-.1s.2,0,.3,0c.5.1.9.3,1.4.5,0,0,.1,0,.2,0,0,0,.1.1,0,.2,0,.1,0,.3-.1.4-.1.4-.3.8-.4,1.2-.1.5-.3,1-.3,1.6,0,.5,0,.9,0,1.4s.1,1,.3,1.4c.3.5.6,1,1.1,1.2.5.3,1.1.5,1.7.5.4,0,.9,0,1.3,0s.9-.1,1.2-.3c.5-.3.9-.6,1.1-1.1.3-.5.4-1,.5-1.5,0-.5,0-.9,0-1.4-.1-.5-.1-1.4-.1-2.2"/>
      <path class="cls-3" d="M554.3,425.3v6.7c0,.5,0,1-.3,1.5-.3,1-1,1.6-1.9,1.9-.4.1-.8.2-1.2.3-.5,0-.9,0-1.4,0h-7.5c0,0-.1,0-.1-.1v-1.5c0-.3,0-.4.4-.4h7.7c.3,0,.5,0,.8,0s0,0,.1,0c.4-.1.7-.4.9-.8.1-.3.2-.7.2-1v-13.4c0,0,0-.1.1-.1h2c.1,0,.2,0,.2.2v.5c0,2,0,4.2,0,6.4"/>
      <path class="cls-3" d="M561.3,426.9v8.6s0,0,0,.1c0,0,0,0,0,0h-2.2c-.1,0-.2,0-.2-.2v-17.1c0,0,0-.1,0-.2,0,0,0,0,0,0h2.2c.1,0,.2,0,.2.2v8.5h0Z"/>
      <path class="cls-3" d="M493.3,426.8v6c0,.1,0,.2-.2.2h-2.1c0,0-.1,0-.1-.1v-12c0-.1,0-.2.2-.2h2c.1,0,.2,0,.2.2v5.9"/>
      <path class="cls-3" d="M547.4,426.8v6c0,.1,0,.2-.2.2h-1.8c-.4,0-.4,0-.4-.5v-11.8c0,0,0-.1.1-.1h2c0,0,.1,0,.1.1v.5c0,2,0,3.8,0,5.6"/>
      <path class="cls-3" d="M546.5,441.8h-2.4c-.1,0-.2,0-.2-.2v-1.2c0,0,0-.1.1-.1h.5c0,0,0,0,0-.1,0-.1,0-.2,0-.3-.1-.5-.1-.9,0-1.4,0-.4.3-.8.6-1.1.3-.3.5-.5.9-.5.5-.2,1.1-.3,1.6-.2.3,0,.5,0,.8.1.4.1.5.1.3.5,0,.3-.1.5-.2.8h0c0,.2-.1.3-.3.2-.2,0-.4,0-.6-.1-.3,0-.5,0-.8,0-.3,0-.5.3-.6.5-.1.3,0,.6,0,.9.1.3.3.5.7.5.2,0,.3,0,.5,0h1.3c0,0,.1,0,.1.1v1.2c0,.1,0,.2-.2.2h-.3c-.7.1-1.4.1-2.1.1"/>
      <path class="cls-3" d="M533.1,423.5c-.6,0-1.2-.4-1.4-1.2,0-.6.3-1.3,1-1.4.3,0,.7,0,1,.1.2,0,.3.2.4.4.4.5.3,1.4-.2,1.8-.1.2-.5.3-.8.3"/>
      <path class="cls-3" d="M632.2,423.5c-.4,0-.8-.1-1.1-.5-.1-.1-.2-.3-.3-.4-.1-.4,0-.8.1-1.2.3-.4.7-.6,1.2-.5.6,0,1.1.5,1.2,1.1.1.5-.1,1.2-.6,1.4-.1,0-.3.1-.6.1"/>
      <path class="cls-3" d="M647.9,438.3c0-.1,0-.2,0-.3,0-.3.3-.6.5-.8.5-.3,1.1-.4,1.6,0,.3.2.4.4.5.8.1.4,0,.8-.2,1.2-.1.2-.3.3-.5.4-.3.1-.6.1-1,0-.4-.1-.9-.5-.9-1.2v-.2h0Z"/>
      <path class="cls-3" d="M574.8,422.2c0,.2,0,.4-.1.6-.1.3-.3.5-.6.6-.7.3-1.4,0-1.8-.6,0-.1-.1-.3-.1-.4v-.3c0-.4.1-.8.5-1,.7-.5,1.6-.3,2,.3.2.1.2.3.2.7"/>
      <path class="cls-3" d="M577.7,422.1c0,.3,0,.5-.2.7-.3.4-.6.6-1.1.7-.3,0-.5,0-.8-.2-.3-.1-.5-.4-.5-.7,0,0,0-.2,0-.3v-.3c0-.5.2-.8.6-1.1.6-.4,1.3-.3,1.8.3.1.2.3.4.3.7v.2"/>
      <path class="cls-3" d="M210.7,435.5h2.8c.4,0,.8,0,1.2-.1s.7-.2.9-.3c.3-.2.5-.4.6-.7.1-.3.2-.7.2-1.2s0-.8-.3-1.2c-.2-.3-.4-.5-.7-.7-.3-.2-.6-.3-1-.3s-.8-.1-1.3-.1h-2.4v4.6h0ZM210.7,428.9h2.4c1,0,1.7-.2,2.1-.5.5-.3.7-.9.8-1.6,0-.5,0-.8-.2-1.1-.1-.3-.3-.5-.5-.6-.2-.1-.5-.3-.8-.3s-.7-.1-1.1-.1h-2.6v4.3h0ZM208.4,422.7h5.6c.7,0,1.2,0,1.8.2.5.1,1,.3,1.4.7.4.3.8.7,1,1.2s.3,1,.3,1.7-.2,1.6-.7,2.2c-.5.5-1.1,1-1.8,1.2h0c.4.1.8.3,1.2.5.3.2.7.4,1,.7.3.3.5.6.6,1,.1.4.2.9.2,1.4s0,1.1-.3,1.6c-.2.5-.5,1-.8,1.3-.4.4-.9.7-1.5.9-.6.2-1.3.3-2.1.3h-5.8v-14.8h0Z"/>
      <path class="cls-3" d="M227.3,432.2c-.5,0-1.1,0-1.6,0s-1,.1-1.4.3c-.4.1-.7.3-.9.6-.2.3-.3.6-.3,1s.1,1,.5,1.2c.3.3.8.5,1.4.5s.9,0,1.3-.3c.3-.1.7-.4.9-.7.2-.3.4-.6.5-1,.1-.3.1-.8.1-1.1v-.8h-.5c0,0,0,0,0,0ZM227.7,430.4c0-.8-.2-1.3-.6-1.7s-1-.5-1.9-.5-.8,0-1.4.1c-.5.1-1,.3-1.4.5l-.5-1.8c.3-.1.9-.3,1.6-.4.7-.1,1.3-.2,1.8-.2,1.6,0,2.7.3,3.5,1,.8.7,1.2,1.7,1.2,3v4.6c0,.4,0,.8,0,1.2,0,.5,0,.9.1,1.2h-2.1c0-.2-.1-.4-.1-.7,0-.3,0-.5-.1-.8h0c-.3.5-.7,1-1.2,1.2-.5.3-1.2.5-2,.5s-1,0-1.4-.2c-.5-.1-.8-.3-1.2-.5-.4-.2-.7-.6-.9-1-.2-.4-.3-1-.3-1.6s.2-1.4.5-1.9c.3-.5.9-.9,1.5-1.2.6-.3,1.4-.5,2.2-.5s1.7-.1,2.7-.1v-.2h0Z"/>
      <path class="cls-3" d="M235.5,426.5v1.5h0c.3-.5.8-1,1.4-1.3.6-.3,1.3-.5,2-.5,1.2,0,2.2.3,2.9,1.1.8.8,1.1,1.7,1.1,2.9v7.2h-2.4v-6.3c0-.5,0-.9-.1-1.3s-.2-.7-.3-1c-.2-.3-.4-.5-.7-.6-.3-.1-.7-.2-1.1-.2s-.7,0-1,.2c-.3.1-.6.3-.8.5-.3.3-.5.6-.6,1-.1.4-.2,1-.2,1.6v6.1h-2.4v-10.9h2.2Z"/>
      <polygon class="cls-3" points="255.3 426.5 250.8 431.5 255.5 437.5 252.6 437.5 248.4 431.8 248.3 431.8 248.3 437.5 245.9 437.5 245.9 422.3 248.3 422.3 248.3 431.3 248.4 431.3 252.4 426.6 255.3 426.6 255.3 426.5"/>
      <path class="cls-3" d="M263.1,428.2c-.2,0-.5,0-.9,0s-.7,0-1,.2c-.3.1-.6.3-.9.6-.2.3-.4.7-.5,1.1-.1.5-.2,1-.2,1.6v5.9h-2.4v-10.9h2.3v1.4h0c.5-1.2,1.4-1.7,2.9-1.7h.8v1.8c0,0,0,0,0,0Z"/>
      <path class="cls-3" d="M272.3,437.5v-1.5h0c-.3.5-.8,1-1.4,1.3-.6.3-1.3.5-2,.5s-1.2,0-1.6-.3-.9-.5-1.2-.8-.6-.8-.8-1.2c-.2-.5-.3-1-.3-1.6v-7.2h2.4v6.3c0,.5,0,.9.1,1.3s.2.7.3,1c.2.3.4.5.7.6.3.1.7.2,1.2.2s.7,0,1-.2c.3-.1.6-.3.8-.5.3-.3.5-.6.6-1,.1-.4.2-1,.2-1.5v-6.1h2.4v10.9h-2.3,0Z"/>
      <path class="cls-3" d="M285.7,432c0-.5,0-1-.2-1.6-.1-.5-.3-.9-.5-1.2-.2-.3-.5-.6-.9-.8-.3-.2-.8-.3-1.2-.3s-.9,0-1.3.3c-.3.2-.7.5-1,.8-.3.3-.5.8-.5,1.2-.1.5-.2,1-.2,1.6s0,1.1.2,1.6c.1.5.3.9.5,1.2.3.3.5.6,1,.8.3.2.8.3,1.3.3s.9-.1,1.2-.3c.3-.2.6-.5.9-.8.2-.3.4-.8.5-1.2.1-.3.2-.9.2-1.4M280,441.6h-2.4v-15h2.3v1.5h0c.4-.6,1-1.1,1.6-1.4.6-.3,1.2-.4,1.8-.4s1.4.1,1.9.4c.6.3,1.1.7,1.5,1.2s.7,1.2.9,1.8c.2.7.3,1.4.3,2.2s-.1,1.6-.3,2.2c-.2.7-.5,1.3-.9,1.8-.4.5-.9.9-1.5,1.2-.5.3-1.2.4-2,.4s-1.2-.1-1.8-.3c-.5-.3-1-.7-1.5-1.2h0v5.3h0,0Z"/>
      <path class="cls-3" d="M290.1,426.5h1.8v-2.9h2.4v2.9h2.4v1.8h-2.4v5.7c0,.3,0,.7,0,.9,0,.2,0,.4.2.5,0,.1.2.2.4.3.1,0,.4,0,.7,0h.5c.2,0,.3,0,.5,0v1.8c-.2,0-.5,0-.8,0s-.6,0-1,0c-.6,0-1.2,0-1.5-.2-.4-.1-.7-.3-.9-.6-.2-.3-.3-.6-.4-1,0-.4-.1-.8-.1-1.3v-6.2h-1.8v-1.9h0,0Z"/>
      <path class="cls-3" d="M306.9,428.5c-.3-.1-.6-.2-1-.3-.3,0-.7,0-1,0-.5,0-1.1.1-1.5.3-.4.2-.8.5-1.1.8-.3.3-.5.8-.7,1.2-.1.5-.2,1-.2,1.5s0,1,.2,1.5c.1.5.3.9.7,1.2.3.3.7.6,1.1.8.5.2,1,.3,1.5.3s.7,0,1,0,.6-.1,1-.3l.4,1.8c-.4.1-.8.3-1.2.3s-.8,0-1.2,0c-1,0-1.8-.1-2.5-.4-.8-.3-1.3-.7-1.8-1.2-.5-.5-.8-1.1-1.1-1.8s-.3-1.4-.3-2.2.1-1.6.4-2.3.6-1.3,1.2-1.8c.5-.5,1.1-.9,1.8-1.2.7-.3,1.5-.4,2.4-.4s1.8.1,2.5.4l-.5,1.8h0Z"/>
      <polygon class="cls-3" points="314.9 434.6 314.9 434.6 317.8 426.5 320.2 426.5 314.3 441.5 311.8 441.5 313.6 437.3 309.3 426.5 311.9 426.5 314.9 434.6"/>
      <path class="cls-3" d="M337,425c-.8-.4-1.7-.5-2.7-.5s-1.6.1-2.2.5c-.6.3-1.2.7-1.6,1.2-.4.5-.8,1.1-1,1.8s-.3,1.4-.3,2.3.1,1.4.3,2.1c.2.7.5,1.3,1,1.8.4.5,1,1,1.6,1.2.7.3,1.4.5,2.2.5s1.1,0,1.6-.1c.5-.1.9-.3,1.3-.5l.5,1.9c-.5.3-1.1.5-1.7.5-.6,0-1.3.1-1.9.1-1.1,0-2.1-.2-3-.5s-1.6-.9-2.3-1.6c-.6-.7-1.1-1.5-1.4-2.4-.3-1-.5-2-.5-3.1s.1-2.1.5-3.1.8-1.8,1.4-2.5,1.4-1.2,2.3-1.6c1-.4,2-.5,3.1-.5s1.3,0,1.8.1c.6.1,1.1.3,1.6.5l-.6,1.8h0Z"/>
      <path class="cls-3" d="M347.3,432.1c0-.5,0-1.1-.2-1.6-.1-.5-.3-.9-.5-1.2-.3-.3-.5-.6-.9-.8-.3-.2-.8-.3-1.3-.3s-1,0-1.3.3c-.3.2-.7.5-.9.8-.3.3-.4.8-.5,1.2-.1.5-.2,1-.2,1.6,0,1.2.3,2.1.8,2.9s1.2,1.1,2.2,1.1,1.8-.4,2.2-1.1c.3-.8.6-1.7.6-2.9M349.7,432.1c0,.9-.1,1.7-.3,2.4-.3.7-.6,1.3-1.1,1.8s-1,.9-1.7,1.2c-.7.3-1.4.4-2.2.4s-1.6-.1-2.2-.4c-.7-.3-1.2-.6-1.7-1.2-.5-.5-.8-1.1-1.1-1.8-.3-.7-.3-1.5-.3-2.4s.1-1.7.3-2.4c.3-.7.6-1.3,1.1-1.8.5-.5,1-.9,1.7-1.1.7-.3,1.4-.4,2.2-.4s1.6.1,2.2.4c.7.3,1.2.6,1.7,1.1s.8,1.1,1.1,1.8c.2.7.3,1.5.3,2.4"/>
      <path class="cls-3" d="M354.6,426.6v1.6h0c.3-.5.7-1,1.3-1.4.6-.3,1.2-.5,1.9-.5,1.6,0,2.7.6,3.2,1.8h0c.4-.6.9-1.1,1.5-1.4.6-.3,1.2-.4,1.9-.4s1.2,0,1.7.3c.5.2.9.5,1.2.8s.5.8.8,1.2.2,1,.2,1.6v7.2h-2.4v-6.3c0-.5,0-1,0-1.3,0-.3-.1-.6-.3-.9-.1-.3-.4-.5-.7-.6-.3-.1-.6-.2-1.1-.2s-.5,0-.9.1c-.3.1-.5.3-.8.5-.2.2-.4.5-.5.8-.1.3-.2.8-.2,1.2v6.7h-2.4v-6.4c0-.5,0-.9,0-1.2,0-.3-.1-.7-.3-1-.1-.3-.3-.5-.7-.5-.3-.1-.6-.2-1.1-.2s-.6,0-1,.2c-.3.1-.5.3-.8.5-.2.3-.4.5-.5,1s-.2.9-.2,1.5v6.1h-2.4v-10.9h2.6Z"/>
      <path class="cls-3" d="M373.8,426.6v1.6h0c.3-.5.7-1,1.3-1.4.6-.3,1.2-.5,1.9-.5,1.6,0,2.7.6,3.2,1.8h0c.4-.6.9-1.1,1.5-1.4.6-.3,1.2-.4,1.9-.4s1.2,0,1.7.3c.5.2.9.5,1.2.8s.5.8.8,1.2.2,1,.2,1.6v7.2h-2.4v-6.3c0-.5,0-1,0-1.3,0-.3-.1-.6-.3-.9-.1-.3-.4-.5-.7-.6-.3-.1-.6-.2-1.1-.2s-.5,0-.9.1c-.3.1-.5.3-.8.5-.2.2-.4.5-.5.8-.1.3-.2.8-.2,1.2v6.7h-2.4v-6.4c0-.5,0-.9,0-1.2,0-.3-.1-.7-.3-1-.1-.3-.3-.5-.7-.5-.3-.1-.6-.2-1.1-.2s-.6,0-1,.2c-.3.1-.5.3-.8.5-.2.3-.4.5-.5,1s-.2.9-.2,1.5v6.1h-2.4v-10.9h2.6Z"/>
      <path class="cls-3" d="M393.1,437.5h-2.4v-10.9h2.4v10.9ZM393.2,424.6h-2.4v-2.2h2.4v2.2Z"/>
      <path class="cls-3" d="M402.6,428.7c-.5-.2-1-.3-1.5-.5-.5,0-.9-.1-1.4-.1s-.4,0-.6,0c-.2,0-.4.1-.5.2-.1,0-.3.2-.4.4-.1.1-.1.3-.1.5s0,.3.1.5c0,.1.2.3.3.4.2.1.4.3.7.4.3.1.6.3,1,.4.5.2,1,.4,1.5.6.4.2.8.5,1.1.8s.5.6.7,1,.2.8.2,1.2-.1,1.1-.3,1.5c-.3.4-.5.8-1,1-.4.3-.9.4-1.4.5-.5.1-1,.1-1.5.1s-1.3,0-2-.2c-.7-.1-1.4-.3-1.9-.5l.5-1.8c.6.3,1.2.5,1.8.6.6.1,1.2.2,1.6.2.6,0,1.1,0,1.4-.3s.5-.5.5-1-.2-.8-.6-1-1-.5-1.9-.8c-1.1-.3-1.9-.8-2.5-1.4s-.8-1.2-.8-1.9.1-1,.3-1.4c.2-.4.5-.8,1-1,.4-.3.8-.5,1.3-.5.5-.1,1-.2,1.4-.2s1.2,0,1.8.1c.6.1,1.1.3,1.6.5l-.5,1.8h0Z"/>
      <path class="cls-3" d="M412.3,428.7c-.5-.2-1-.3-1.5-.5-.5,0-.9-.1-1.4-.1s-.4,0-.6,0c-.2,0-.4.1-.5.2-.2,0-.3.2-.4.4-.1.1-.1.3-.1.5s0,.3.1.5c0,.1.2.3.3.4.2.1.4.3.7.4.3.1.6.3,1,.4.5.2,1,.4,1.5.6.4.2.8.5,1.1.8s.5.6.7,1,.2.8.2,1.2-.1,1.1-.3,1.5c-.3.4-.5.8-1,1-.4.3-.9.4-1.4.5-.5.1-1,.1-1.5.1s-1.3,0-2-.2c-.7-.1-1.4-.3-1.9-.5l.5-1.8c.6.3,1.2.5,1.8.6.6.1,1.2.2,1.6.2.6,0,1.1,0,1.4-.3s.5-.5.5-1-.2-.8-.6-1-1-.5-1.9-.8c-1.1-.3-1.9-.8-2.5-1.4s-.8-1.2-.8-1.9.1-1,.3-1.4c.2-.4.5-.8,1-1,.4-.3.8-.5,1.3-.5.5,0,1-.2,1.4-.2s1.2,0,1.8.1c.6.1,1.1.3,1.6.5l-.5,1.8h0Z"/>
      <path class="cls-3" d="M418.3,437.5h-2.4v-10.9h2.4v10.9ZM418.3,424.6h-2.4v-2.2h2.4v2.2Z"/>
      <path class="cls-3" d="M429.2,432.1c0-.5,0-1.1-.2-1.6-.1-.5-.3-.9-.5-1.2-.3-.3-.5-.6-.9-.8-.3-.2-.8-.3-1.3-.3s-1,0-1.3.3c-.3.2-.7.5-.9.8-.3.3-.4.8-.5,1.2-.1.5-.2,1-.2,1.6,0,1.2.3,2.1.8,2.9s1.2,1.1,2.2,1.1,1.8-.4,2.2-1.1c.4-.8.6-1.7.6-2.9M431.6,432.1c0,.9-.1,1.7-.3,2.4-.3.7-.6,1.3-1.1,1.8s-1,.9-1.7,1.2c-.7.3-1.4.4-2.2.4s-1.6-.1-2.2-.4c-.7-.3-1.2-.6-1.7-1.2-.5-.5-.8-1.1-1.1-1.8-.3-.7-.3-1.5-.3-2.4s.1-1.7.3-2.4c.3-.7.6-1.3,1.1-1.8.5-.5,1-.9,1.7-1.1.7-.3,1.4-.4,2.2-.4s1.6.1,2.2.4c.7.3,1.2.6,1.7,1.1s.8,1.1,1.1,1.8c.2.7.3,1.5.3,2.4"/>
      <path class="cls-3" d="M436.5,426.6v1.5h0c.3-.5.8-1,1.4-1.3.6-.3,1.3-.5,2-.5,1.2,0,2.2.3,2.9,1.1.8.8,1.1,1.7,1.1,2.9v7.2h-2.4v-6.3c0-.5,0-.9-.1-1.3s-.2-.7-.3-1c-.2-.3-.4-.5-.7-.6-.3-.1-.7-.2-1.1-.2s-.7,0-1,.2c-.3.1-.6.3-.8.5-.3.3-.5.6-.6,1-.1.4-.2,1-.2,1.6v6.1h-2.4v-10.9h2.2Z"/>
      <path class="cls-3" d="M423.9,333.6h25.1c.5,0,.8.6.5,1l-2.8,5.5c-.7,1.3-2,2.1-3.4,2.1h-13.7v12.7h12c.6,0,1.1.5,1.1,1.1v6.1c0,.8-.6,1.4-1.4,1.4h-11.7v13.9h14.3c1.5,0,2.9.8,3.6,2.2l2.9,5.5c.3.3,0,.9-.4.9h-31v-47.1c0-2.9,2.2-5.1,5-5.1"/>
      <path class="cls-3" d="M475.5,334.3l6.3,1.8c1.9.5,3.2,2.2,3.2,4.2v45.5h-6.2c-2.5,0-4.4-2-4.4-4.4v-46.5c0-.6.6-1,1.1-.6"/>
      <path class="cls-3" d="M539,343.2c-6.5-3.3-27.9-1.8-17.1,8.1,6,5.5,17.5,5.8,21,14.1,6.2,19.5-15.5,23.9-30.4,19.9-2.1-.5-3.4-2.7-2.9-4.9l1.1-5c6.1,2.3,14.7,4.3,20.3,1.3,3.1-2,3.1-7.2-.1-9.3-5.3-3.8-13.3-5-18-10-6.1-5.6-4.9-16.8,1.9-21.2,6.3-4.2,14.7-4.1,22-2.6,2.2.5,3.8,2.7,3.3,5l-1,4.6h0Z"/>
      <path class="cls-3" d="M580.1,364.5h15.2l-6.3-18.7c-.4-1.2-2.2-1.2-2.6,0l-6.3,18.7h0ZM568.5,385.8h-6.7l17.9-49.6c.5-1.6,2-2.7,3.8-2.7h9.5c1.4,0,2.7.9,3.1,2.2l18,50h-7.7c-2.3,0-4.4-1.4-5.2-3.6l-3.3-9.1h-20.1l-3,8.4c-.9,2.6-3.4,4.4-6.1,4.4"/>
      <path class="cls-3" d="M645.1,356.2c5.9-.2,17.2,1.8,17.1-7,.1-8.8-11.3-6.8-17.1-7v14.1h0ZM634.4,336.6c0-1.6,1.3-2.9,2.9-2.9,9,0,23.4-1.6,30,3,8.5,5.4,7,20.6-3.3,23.2h0c7.7,3.1,5.7,18.6,9,25.9h-11.5c-2.2-6.1.2-14.5-4-19.5-3-2.2-8.5-1.4-12.4-1.6v21.1h-10.7v-49.2h0,0Z"/>
      <path class="cls-4" d="M486.2,293.3c0,1.8,0,3.2-.1,4s-.3,1.3-.4,1.3c-2.9,0-5.8-.1-8.6-.6-2.8-.4-5.2-1.2-7.4-2.2s-4-2.7-5.1-4.6c-1.2-1.9-1.8-4.4-1.8-7.2v-61.2c0-.9.9-1.6,1.8-1.3l8.5,2.7c1.7.5,2.9,2.1,2.9,4v48.5c0,1.5.1,5.9.6,7s1,2,1.8,2.6c.8.6,1.7,1.2,2.6,1.5,1,.3,1.9.3,2.9.3s1.4.2,1.8,1.1c.5,1,.6,2.3.6,4.2"/>
      <path class="cls-4" d="M520.5,288.2c1,0,1.6.2,2.1,1.1s.8,2.4.8,4.4,0,2.9-.3,3.8c-.3.8-.6,1.3-1.2,1.3h-37.4c-1.6-.1-2.7-.5-3.3-1.3-.6-.8-.8-2.2-.8-4.2s.3-2.9.8-4c.5-1,1.2-1.2,2.2-1.2h37.2q0,.1,0,.1Z"/>
      <path class="cls-4" d="M550,298.8c-3.2,0-5-.5-7.4-1.6-2.5-1.1-4.2-2.5-5.1-4.4-1.5,2-3.7,3.5-6.7,4.5-2.9,1-3.6,1.5-8.5,1.5s-2.9-.4-3.7-1.3c-.8-.8-1.3-2.1-1.3-3.8s.3-3.3.8-4.2c.6-1,1.4-1.3,2.5-1.3,7.7,0,10-1.9,10-6.2v-11.2c0-1.2.8-2.3,2-2.7l10.2-3.3c.5-.1.9.2.9.7v15.8c0,5,2.7,6.9,6.4,6.9s7.2-2.2,7.2-7v-10.4c0-1.2.8-2.3,2-2.7l10.2-3.3c.4-.1.8.2.8.6v15.9c0,3.3,1.2,6.9,6.5,6.9s6.9-1.8,6.9-6.9v-16.9c0-1.2.8-2.3,2-2.7l10.2-3.3c.5-.1.9.2.9.7v17.2c0,2.8.5,6.1,2.2,8.7,1.4,2.1,4.9,3.1,8.6,3.1s1.7.4,2.1,1.3c.4.9.7,2.2.7,4s0,3.7-.1,4.4c-.1.7-.1,1.1-.5,1.1h-6.8c-2.5,0-4.7-1.4-5.3-2.4-1-1.6-1.8-3.3-1.9-3.1-3.6,4.6-11.1,5.6-17.8,5.6s-6.6-.5-9-1.6c-2.2-1.1-4-2.5-5-4.4-2.9,3.8-7.9,5.8-13.9,5.8"/>
      <path class="cls-4" d="M609.4,298.9c-1.6,0-2.9-.5-3.7-1.3s-1.3-2.1-1.3-3.8.3-3.1.8-4c.5-1.1,1.4-1.6,2.5-1.6h20.1c1.8,0,2.9-.7,4-1.4.8-.5,1.4-1.1,1.9-1.8s1-1.5,1.2-2.5c.3-1,.5-1.8.6-2.8,0-1,.1-1.8.1-2.7v-10.7c0-2.3,1.5-4.4,3.7-5l8.1-2.7c.6-.2,1.2.3,1.2.9v20.1c0,4.8-1,8.8-2.9,11.8-2,3.1-5.3,5.2-10,6.5-2,.5-4,.9-5.9,1-1.8,0-17.9,0-20.4,0"/>
      <path class="cls-4" d="M662.2,301c-.6-1.2-.9-2.2-.9-3.2,0-2,.6-3.6,1.9-4.9,1.2-1.2,3-1.8,5.3-1.8s1.2,0,1.8.1c.7,0,1.8.3,2.6.5v3.8c-1.4-.6-3.1-.7-4.2-.7s-2,.3-2.7.8-.9,1.3-.9,2.2.3,1.8,1,2.2c.6.5,1.6.8,2.9.8h4v3.7h-12.8v-3.7h2.1v.2h0Z"/>
      <path class="cls-4" d="M672.9,228.9v59.4h-13.2v-64.4c0-1,1-1.7,2-1.4l8.5,2.7c1.6.5,2.7,2,2.7,3.8"/>
      <path class="cls-4" d="M612.2,308.4c0-2,.7-3.5,1.9-4.8,1.2-1.2,2.9-1.9,4.8-1.9s3.5.7,4.8,1.9c1.2,1.2,1.8,2.9,1.8,4.8s-.5,3.6-1.8,4.8c-1.2,1.2-2.8,1.9-4.8,1.9s-3.6-.7-4.8-1.9-1.9-2.8-1.9-4.8"/>
      <path class="cls-4" d="M628.1,308.4c0-2,.7-3.5,1.9-4.8,1.2-1.2,2.9-1.9,4.8-1.9s3.5.7,4.8,1.9c1.2,1.2,1.8,2.9,1.8,4.8s-.5,3.6-1.8,4.8c-1.2,1.2-2.8,1.9-4.8,1.9s-3.6-.7-4.8-1.9-1.9-2.8-1.9-4.8"/>
      <path class="cls-4" d="M426.6,315.2h-7.7v-12c19.1,0,20.1-16.1,20.1-25.4v-3.8c0-1.3.8-2.4,2-2.8l10.3-3.3c.4-.1.8.2.8.6v11.6c0,17.6-10,35-25.5,35"/>
    </g>
  </g>
</svg>