<?xml version="1.0" encoding="utf-8"?>
<!-- Generator: Adobe Illustrator 26.0.1, SVG Export Plug-In . SVG Version: 6.00 Build 0)  -->
<svg version="1.1" id="Layer_1" xmlns="http://www.w3.org/2000/svg" xmlns:xlink="http://www.w3.org/1999/xlink" x="0px" y="0px"
	 viewBox="0 0 1050 250" style="enable-background:new 0 0 1050 250;" xml:space="preserve">
<style type="text/css">
	.st0{fill:#FFFFFF;}
	.st1{fill:#1B3E6F;}
	.st2{fill:#00B189;}
</style>
<g>
	
		<ellipse transform="matrix(0.7071 -0.7071 0.7071 0.7071 184.8054 696.9509)" class="st0" cx="933.7" cy="125.4" rx="106.1" ry="106.1"/>
	<path class="st1" d="M933.7,221.1c-53.4,0-96.6-43.2-96.6-96.6c0-53.4,43.2-96.6,96.6-96.6c53.4,0,96.6,43.2,96.6,96.6
		C1030.2,177.8,987,221,933.7,221.1z M933.7,37.9c-47.8,0-86.6,38.8-86.6,86.6s38.8,86.6,86.6,86.6c47.8,0,86.6-38.8,86.6-86.6
		c0,0,0,0,0,0C1020.2,76.7,981.5,38,933.7,37.9z"/>
	<path class="st1" d="M998.3,143.2l-64.1,40.3c-0.3,0.2-0.7,0.2-1,0l-64.1-40.3c-0.4-0.3-0.6-0.9-0.3-1.3c0.1-0.1,0.2-0.2,0.3-0.3
		l13.9-8.8l50.6,31.9l50.7-31.9l13.9,8.8c0.5,0.2,0.7,0.7,0.5,1.2C998.6,143,998.5,143.1,998.3,143.2z"/>
	<path class="st2" d="M986.2,118.7l-52,32.7c-0.3,0.2-0.7,0.2-1,0l-52-32.7c-0.4-0.3-0.6-0.9-0.3-1.3c0.1-0.1,0.2-0.2,0.3-0.3
		l13.7-8.6l38.8,24.5l38.8-24.4l13.7,8.6c0.4,0.2,0.6,0.7,0.3,1.2C986.5,118.5,986.3,118.6,986.2,118.7z"/>
	<path class="st1" d="M974.6,94.3l-40.4,25.4c-0.3,0.2-0.7,0.2-1,0l-40.4-25.4c-0.4-0.3-0.6-0.9-0.3-1.3c0.1-0.1,0.2-0.2,0.3-0.3
		l40.4-25.4c0.3-0.2,0.7-0.2,1,0l40.4,25.4c0.4,0.3,0.6,0.9,0.3,1.3C974.8,94.1,974.7,94.2,974.6,94.3z"/>
	<path class="st1" d="M9.7,124.9c0-2.1,0.3-4.1,0.9-6.1c0.5-1.6,1.3-3,2.4-4.3c1-1.1,2.1-2.1,3.4-2.9c1.2-0.8,2.6-1.3,4-1.6
		c-1.5-1.7-2.8-3.6-3.7-5.7c-1.1-2.6-1.6-5.4-1.5-8.2c0-2.5,0.4-4.9,1.1-7.3c0.8-2.5,2-4.7,3.7-6.7c1.9-2.2,4.2-3.8,6.9-4.9
		c3.3-1.4,6.9-2,10.5-1.9c4-0.1,7.9,0.7,11.5,2.3c2.9,1.3,5.4,3.3,7.4,5.8c0.3,0.5,0.2,1.1-0.3,1.4c0,0,0,0,0,0l-5.5,5.7
		c-0.3,0.4-0.8,0.4-1.2,0.2c-0.1-0.1-0.2-0.2-0.2-0.3c-2.7-3.2-6.7-4.9-10.8-4.9c-3.5,0-6.2,1-8,3.1s-2.8,4.8-2.8,8.3
		c-0.1,1.8,0.3,3.6,1,5.2c0.5,1.4,1.3,2.6,2.3,3.7c0.8,0.9,1.7,1.7,2.7,2.4c0.7,0.5,1.4,0.9,2.2,1.2h22c0.7,0,1,0.3,1,1v8.2
		c0,0.7-0.3,1-1,1H26.3c-1.9,0-3.2,0.5-3.9,1.5c-0.7,1.1-1.1,2.3-1.1,3.6c-0.1,1.5,0.4,3,1.5,4c1,0.9,3,1.3,5.9,1.3h10.1
		c0.7,0,1,0.3,1,1v8.2c0,0.7-0.3,1-1,1h-11c-5.8,0-10.3-1.2-13.4-3.6S9.7,130.2,9.7,124.9z"/>
	<path class="st1" d="M112.5,51c0-0.7,0.3-1,1-1h9.4c0.7,0,1,0.3,1,1v53c0.6,3.5,3.4,5.3,8.4,5.3h1.7c1.1-0.1,2.3,0.3,3.1,1.1
		c0.8,1.1,1.1,2.5,1,3.8c0,2-0.3,3.4-1,4.1c-0.8,0.8-2,1.2-3.1,1.1c-2.3,0-4.6-0.3-6.8-0.9c-2.1-0.7-3.8-2.2-4.7-4.2
		c-0.9,1.8-2.4,3.2-4.2,4c-2.4,0.8-5,1.2-7.5,1.1H67.2c-0.7,0-1-0.3-1-1v-8.2c0-0.7,0.3-1,1-1h18.2v-44c0-0.7,0.3-1,1-1h9.4
		c0.7,0,1,0.3,1,1v44h10.7c0.9,0,1.8-0.1,2.7-0.5c0.7-0.3,1.2-0.8,1.5-1.5c0.3-0.9,0.5-1.9,0.6-2.9c0.1-1.2,0.1-2.6,0.1-4.3V51
		H112.5z"/>
	<path class="st1" d="M134.2,119.5c-1.4,0-2.3-0.3-2.8-1c-0.6-1.2-0.9-2.5-0.8-3.8c0-2.1,0.2-3.5,0.7-4.2s1.4-1.1,2.9-1.1h12.3
		c1.1-0.1,2.3,0.3,3.1,1.1c0.8,1.1,1.1,2.5,1,3.9c0,2.1-0.3,3.5-1,4.2c-0.8,0.8-2,1.1-3.1,1L134.2,119.5L134.2,119.5z"/>
	<path class="st1" d="M146.5,119.5c-1.4,0-2.3-0.3-2.8-1c-0.6-1.2-0.9-2.5-0.8-3.8c0-2.1,0.2-3.5,0.7-4.2s1.4-1.1,2.9-1.1h12.3
		c1.1-0.1,2.3,0.3,3.1,1.1c0.8,1.1,1.1,2.5,1,3.9c0,2.1-0.3,3.5-1,4.2c-0.8,0.8-2,1.1-3.1,1L146.5,119.5L146.5,119.5z"/>
	<path class="st1" d="M158.8,119.5c-1.4,0-2.3-0.3-2.8-1c-0.6-1.2-0.9-2.5-0.8-3.8c0-2.1,0.2-3.5,0.7-4.2s1.4-1.1,2.9-1.1H171
		c1.1-0.1,2.3,0.3,3.1,1.1c0.8,1.1,1.1,2.5,1,3.9c0,2.1-0.3,3.5-1,4.2c-0.8,0.8-2,1.1-3.1,1L158.8,119.5L158.8,119.5z"/>
	<path class="st1" d="M193,81c3.4-1.6,7-3,10.7-4c3.9-1.1,8-1.7,12.1-1.7c3.9-0.1,7.8,0.5,11.5,1.7c2.9,1,5.5,2.7,7.7,4.9
		c2.1,2.2,3.6,4.8,4.4,7.7c0.9,3.2,1.4,6.6,1.4,10c0,0.6,0,1.3-0.1,1.9c0,0.6-0.1,1.1-0.1,1.5c0,1.9,0.9,3.6,2.4,4.7
		c1.8,1.2,3.9,1.7,6.1,1.6h1.7c1.1-0.1,2.3,0.3,3.1,1.1c0.8,1.1,1.1,2.5,1,3.8c0,2-0.3,3.4-1,4.1c-0.8,0.8-2,1.2-3.1,1.1
		c-2.6,0.1-5.2-0.4-7.7-1.3c-2.3-1-4.1-2.9-4.9-5.2c-0.7,1.3-1.6,2.5-2.7,3.5c-1.1,0.9-2.4,1.6-3.8,2c-1.7,0.4-3.4,0.7-5.1,0.9
		c-1.9,0.1-4,0.2-6.4,0.2H193c-2.2,0-3.7-0.6-4.6-1.7c-1.2,0.8-2.6,1.4-4.1,1.5c-1.8,0.2-3.5,0.3-5.3,0.3h-8c-1.1,0.1-2.2-0.3-3.1-1
		c-0.7-0.7-1-1.9-1-3.9c0-2.2,0.3-3.7,1-4.3c0.8-0.8,2-1.1,3.1-1h5.1c1,0,2-0.2,2.9-0.6c0.7-0.4,1.3-1.1,1.6-1.9
		c0.4-1.2,0.6-2.5,0.7-3.8c0.1-1.6,0.2-3.6,0.2-6.1V51c0-0.7,0.3-1,1-1h9.4c0.7,0,1,0.3,1,1v30H193z M214.1,85.5
		c-3.8,0-7.6,0.6-11.3,1.7c-3.4,1-6.7,2.3-9.9,3.8v13.9c0,0.8,0,1.5-0.1,2.3c-0.1,0.7-0.2,1.5-0.3,2.1h22.4c2.9,0,5.2-0.1,7-0.2
		c1.5,0,2.9-0.4,4.2-1.1c1.1-0.7,1.8-1.8,2-3.1c0.4-1.9,0.5-3.9,0.5-5.9c0-2-0.2-3.9-0.7-5.8c-0.4-1.6-1.2-3.1-2.4-4.3
		c-1.2-1.3-2.8-2.1-4.5-2.6C218.7,85.7,216.4,85.4,214.1,85.5z"/>
	<path class="st1" d="M250.9,119.5c-1.4,0-2.3-0.3-2.8-1c-0.6-1.2-0.9-2.5-0.8-3.8c0-2.1,0.2-3.5,0.7-4.2s1.4-1.1,2.9-1.1h12.3
		c1.1-0.1,2.3,0.3,3.1,1.1c0.8,1.1,1.1,2.5,1,3.9c0,2.1-0.3,3.5-1,4.2c-0.8,0.8-2,1.1-3.1,1L250.9,119.5L250.9,119.5z"/>
	<path class="st1" d="M263.2,119.5c-1.4,0-2.3-0.3-2.8-1c-0.6-1.2-0.9-2.5-0.8-3.8c0-2.1,0.2-3.5,0.7-4.2s1.4-1.1,2.9-1.1h12.3
		c1.1-0.1,2.3,0.3,3.1,1.1c0.8,1.1,1.1,2.5,1,3.9c0,2.1-0.3,3.5-1,4.2c-0.8,0.8-2,1.1-3.1,1L263.2,119.5L263.2,119.5z"/>
	<path class="st1" d="M297.6,114.3c-0.8,1.9-2.4,3.4-4.3,4.1c-2.5,0.9-5.2,1.2-7.8,1.1H276c-1.1,0.1-2.2-0.3-3.1-1
		c-0.7-0.7-1-1.9-1-3.9s0.3-3.4,1-4.2c0.8-0.9,1.9-1.3,3.1-1.2h6.7c1,0.1,1.9-0.1,2.8-0.6c0.6-0.4,1.1-1,1.4-1.7
		c0.3-1,0.5-2,0.6-3.1c0.1-1.3,0.1-2.8,0.1-4.6V78.1c0-0.4,0.2-0.7,0.6-0.8c0.4-0.1,0.8-0.2,1.2-0.2h8.7c0.7,0,1,0.3,1,1V103
		c-0.1,1.9,0.8,3.6,2.3,4.7c1.8,1.2,4,1.7,6.2,1.6h1.7c1.1-0.1,2.3,0.3,3.1,1.1c0.8,1.1,1.1,2.5,1,3.8c0,2-0.3,3.4-1,4.1
		c-0.8,0.8-2,1.2-3.1,1.1c-2.4,0.1-4.7-0.3-7-1C300.2,117.8,298.5,116.3,297.6,114.3z M282.4,66.8c-0.7,0-1-0.3-1-1v-8.9
		c0-0.7,0.3-1,1-1h8.6c0.7,0,1,0.3,1,1v8.9c0,0.7-0.3,1-1,1H282.4z M295.7,66.8c-0.7,0-1-0.3-1-1v-8.9c0-0.7,0.3-1,1-1h8.6
		c0.7,0,1,0.3,1,1v8.9c0,0.7-0.3,1-1,1H295.7z"/>
	<path class="st1" d="M309.3,119.5c-1.4,0-2.3-0.3-2.8-1c-0.6-1.2-0.9-2.5-0.8-3.8c0-2.1,0.2-3.5,0.7-4.2s1.4-1.1,2.9-1.1h12.3
		c1.1-0.1,2.3,0.3,3.1,1.1c0.8,1.1,1.1,2.5,1,3.9c0,2.1-0.3,3.5-1,4.2c-0.8,0.8-2,1.1-3.1,1L309.3,119.5L309.3,119.5z"/>
	<path class="st1" d="M321.6,119.5c-1.4,0-2.3-0.3-2.8-1c-0.6-1.2-0.9-2.5-0.8-3.8c0-2.1,0.2-3.5,0.7-4.2s1.4-1.1,2.9-1.1h12.3
		c1.1-0.1,2.3,0.3,3.1,1.1c0.8,1.1,1.1,2.5,1,3.9c0,2.1-0.3,3.5-1,4.2c-0.8,0.8-2,1.1-3.1,1L321.6,119.5L321.6,119.5z"/>
	<path class="st1" d="M358.3,103c0,4.2,2.5,6.3,7.4,6.3c1.2,0,2.4-0.1,3.6-0.3c0.8-0.1,1.5-0.5,2.1-1c0.6-0.6,0.9-1.4,1-2.3
		c0.2-1.4,0.3-2.8,0.3-4.2V86.1c0-0.7,0.3-1,1-1h9.4c0.7,0,1,0.3,1,1v16.8c-0.1,1.9,0.6,3.7,2,4.9c1.5,1.1,3.4,1.7,5.3,1.6
		c1.3,0.1,2.6-0.1,3.9-0.4c0.9-0.1,1.6-0.6,2.1-1.4c0.5-0.9,0.8-2,0.9-3c0.1-1.3,0.2-3,0.2-5.2V78.1c0-0.7,0.3-1,1-1h9.4
		c0.7,0,1,0.3,1,1v28.6c0,4.7-1,8-2.9,10s-5.2,2.9-9.9,2.9h-4.4c-2.1,0-4.2-0.4-6.1-1.4c-1.6-0.9-3-2.3-3.8-4
		c-0.8,1.8-2.3,3.3-4.1,4.2c-2.3,0.9-4.8,1.3-7.3,1.2h-4.5c-4.8,0-8.2-1.8-9.9-5.5c-0.8,1.9-2.3,3.4-4.1,4.2
		c-2.4,0.9-4.9,1.3-7.4,1.2h-11.7c-1.1,0.1-2.2-0.3-3.1-1c-0.7-0.7-1-1.9-1-3.7c0-2.1,0.3-3.5,1-4.3c0.8-0.9,1.9-1.3,3.1-1.2h8.2
		c2.1,0,3.4-0.6,4-1.7c0.6-2,0.9-4,0.8-6.1V86.1c0-0.7,0.3-1,1-1h9.4c0.7,0,1,0.3,1,1V103H358.3z"/>
	<path class="st1" d="M434.5,118.5c0,0.7-0.3,1-1,1H424c-0.7,0-1-0.3-1-1V51c0-0.7,0.3-1,1-1h9.4c0.7,0,1,0.3,1,1v67.5H434.5z"/>
	<path class="st1" d="M499.8,75.2v-4.4c0-0.7,0.3-1,1-1h9.4c0.7,0,1,0.3,1,1v33.1c0,2,0.4,3.5,1.2,4.2c1,0.9,2.4,1.3,3.7,1.2h3.9
		c2.7,0,4.1,1.7,4.1,5.2c0,2.1-0.3,3.4-1,4.1c-0.8,0.8-2,1.1-3.1,1h-8.3c-3.3,0-6-0.6-7.8-1.8s-3.1-3.2-3.7-6.2
		c-1.5,1.3-3.2,2.3-5.1,2.8c-2,0.6-4.1,0.9-6.2,0.9c-2.5,0-5.1-0.4-7.5-1.1c-2.3-0.7-4.4-1.9-6.1-3.5c-1.8-1.7-3.2-3.7-4.1-6
		c-1.1-2.8-1.6-5.7-1.5-8.7c-0.1-3.4,0.5-6.7,1.7-9.9c0.9-2.5,2.5-4.7,4.5-6.4c1.9-1.6,4-2.7,6.4-3.4c2.4-0.7,5-1,7.5-1L499.8,75.2
		L499.8,75.2z M480.2,62.7c-0.7,0-1-0.3-1-1v-8.9c0-0.7,0.3-1,1-1h8.6c0.7,0,1,0.3,1,1v8.9c0,0.7-0.3,1-1,1L480.2,62.7z
		 M490.2,105.1c3.3,0,5.7-0.9,7.3-2.8s2.4-4.6,2.4-8.2v-8.7h-9.1c-2.6-0.1-5.1,0.6-7.1,2.2c-1.8,1.5-2.7,4.2-2.7,8.2
		c0,3.1,0.8,5.4,2.5,6.9C485,104.4,487.3,105.1,490.2,105.1z M493.5,62.7c-0.7,0-1-0.3-1-1v-8.9c0-0.7,0.3-1,1-1h8.6
		c0.7,0,1,0.3,1,1v8.9c0,0.7-0.3,1-1,1L493.5,62.7z"/>
	<path class="st1" d="M521.3,119.5c-1.4,0-2.3-0.3-2.8-1c-0.6-1.2-0.9-2.5-0.8-3.8c0-2.1,0.2-3.5,0.7-4.2s1.4-1.1,2.9-1.1h12.3
		c1.1-0.1,2.3,0.3,3.1,1.1c0.8,1.1,1.1,2.5,1,3.9c0,2.1-0.3,3.5-1,4.2c-0.8,0.8-2,1.1-3.1,1L521.3,119.5L521.3,119.5z"/>
	<path class="st1" d="M533.6,119.5c-1.4,0-2.3-0.3-2.8-1c-0.6-1.2-0.9-2.5-0.8-3.8c0-2.1,0.2-3.5,0.7-4.2s1.4-1.1,2.9-1.1h12.3
		c1.1-0.1,2.3,0.3,3.1,1.1c0.8,1.1,1.1,2.5,1,3.9c0,2.1-0.3,3.5-1,4.2c-0.8,0.8-2,1.1-3.1,1L533.6,119.5L533.6,119.5z"/>
	<path class="st1" d="M545.8,119.5c-1.4,0-2.3-0.3-2.8-1c-0.6-1.2-0.9-2.5-0.8-3.8c0-2.1,0.2-3.5,0.7-4.2s1.4-1.1,2.9-1.1h12.3
		c1.1-0.1,2.3,0.3,3.1,1.1c0.8,1.1,1.1,2.5,1,3.9c0,2.1-0.3,3.5-1,4.2c-0.8,0.8-2,1.1-3.1,1L545.8,119.5L545.8,119.5z"/>
	<path class="st1" d="M558.1,119.5c-1.4,0-2.3-0.3-2.8-1c-0.6-1.2-0.9-2.5-0.8-3.8c0-2.1,0.2-3.5,0.7-4.2s1.4-1.1,2.9-1.1h12.3
		c1.1-0.1,2.3,0.3,3.1,1.1c0.8,1.1,1.1,2.5,1,3.9c0,2.1-0.3,3.5-1,4.2c-0.8,0.8-2,1.1-3.1,1L558.1,119.5L558.1,119.5z"/>
	<path class="st1" d="M591.7,81c3.4-1.7,7-3,10.7-4c3.9-1.1,8-1.7,12.1-1.7c3.9-0.1,7.7,0.5,11.4,1.7c2.9,1,5.6,2.7,7.8,4.9
		c2.1,2.2,3.6,4.8,4.4,7.7c0.9,3.2,1.4,6.6,1.4,10c0,0.6,0,1.3-0.1,1.9c0,0.6-0.1,1.1-0.1,1.5c0,1.9,0.9,3.6,2.4,4.7
		c1.8,1.2,3.9,1.7,6.1,1.6h1.7c1.1-0.1,2.3,0.3,3.1,1.1c0.8,1.1,1.1,2.5,1,3.8c0,2-0.3,3.4-1,4.1c-0.8,0.8-2,1.2-3.1,1.1
		c-2.6,0.1-5.2-0.4-7.7-1.3c-2.3-1-4.1-2.9-5-5.2c-1.2,2.6-3.5,4.6-6.3,5.3c-3.6,0.9-7.2,1.3-10.9,1.2h-20.2c-1.1,0-2.2,0-3.4-0.1
		c-1.1,0-2.3-0.1-3.4-0.3c-1-0.1-2.1-0.3-3.1-0.5c-0.9-0.2-1.7-0.5-2.5-0.9c-1.1,0.8-2.3,1.2-3.6,1.4c-1.6,0.2-3.1,0.3-4.7,0.3h-8.5
		c-1.1,0.1-2.2-0.3-3.1-1c-0.7-0.7-1-1.9-1-3.9c0-2.2,0.3-3.7,1-4.3c0.8-0.8,2-1.1,3.1-1h4.7c1.1,0.1,2.1-0.2,3-0.8
		c0.7-0.6,1.3-1.4,1.5-2.3c0.3-1.1,0.5-2.2,0.6-3.4c0.1-1.3,0.1-2.7,0.1-4.1v-21c0-0.7,0.3-1,1-1h9.4c0.7,0,1,0.3,1,1V81H591.7z
		 M612.8,85.5c-3.8,0-7.6,0.6-11.3,1.7c-3.4,1-6.7,2.3-9.9,3.8v13.9c0,0.8,0,1.5-0.1,2.3c-0.1,0.7-0.2,1.5-0.3,2.1h22.3
		c2.9,0,5.3-0.1,7.1-0.2c1.5,0,2.9-0.4,4.2-1.1c1.1-0.7,1.8-1.8,2-3.1c0.4-1.9,0.5-3.9,0.5-5.9c0-2-0.2-3.9-0.7-5.8
		c-0.4-1.6-1.2-3.1-2.4-4.3c-1.2-1.3-2.8-2.1-4.5-2.6C617.4,85.7,615.1,85.4,612.8,85.5z"/>
	<path class="st1" d="M649.6,119.5c-1.4,0-2.3-0.3-2.8-1c-0.6-1.2-0.9-2.5-0.8-3.8c0-2.1,0.2-3.5,0.7-4.2s1.4-1.1,2.9-1.1h12.3
		c1.1-0.1,2.3,0.3,3.1,1.1c0.8,1.1,1.1,2.5,1,3.9c0,2.1-0.3,3.5-1,4.2c-0.8,0.8-2,1.1-3.1,1L649.6,119.5L649.6,119.5z"/>
	<path class="st1" d="M683.8,103c-0.1,1.9,0.8,3.6,2.3,4.7c1.8,1.2,4,1.7,6.2,1.6h1.7c1.1-0.1,2.3,0.3,3.1,1.1
		c0.8,1.1,1.1,2.5,1,3.8c0,2-0.3,3.4-1,4.1c-0.8,0.8-2,1.2-3.1,1.1c-2.4,0.1-4.7-0.3-7-1c-2.1-0.8-3.8-2.3-4.7-4.3
		c-0.8,1.9-2.3,3.3-4.2,4.1c-2.5,0.9-5.1,1.2-7.7,1.1h-8.1c-1.1,0.1-2.2-0.2-3.1-0.7c-0.7-0.4-1-1.4-1-2.9c0-1.6,0.3-3.2,1-4.6
		c0.5-1.3,1.8-2.1,3.2-2h4.9c1,0,1.9-0.1,2.8-0.5c0.7-0.3,1.2-0.9,1.5-1.6c0.4-1,0.6-2,0.6-3c0.1-1.2,0.1-2.7,0.1-4.5V78.1
		c0-0.7,0.3-1,1-1h9.4c0.7,0,1,0.3,1,1L683.8,103L683.8,103z M673.2,66.8c-0.7,0-1-0.3-1-1v-8.9c0-0.7,0.3-1,1-1h9.8
		c0.7,0,1,0.3,1,1v8.9c0,0.7-0.3,1-1,1H673.2z"/>
	<path class="st1" d="M693.6,119.5c-1.4,0-2.3-0.3-2.8-1c-0.6-1.2-0.9-2.5-0.8-3.8c0-2.1,0.2-3.5,0.7-4.2s1.4-1.1,2.9-1.1h12.3
		c1.1-0.1,2.3,0.3,3.1,1.1c0.8,1.1,1.1,2.5,1,3.9c0,2.1-0.3,3.5-1,4.2c-0.8,0.8-2,1.1-3.1,1L693.6,119.5L693.6,119.5z"/>
	<path class="st1" d="M705.9,119.5c-1.4,0-2.3-0.3-2.8-1c-0.6-1.2-0.9-2.5-0.8-3.8c0-2.1,0.2-3.5,0.7-4.2s1.4-1.1,2.9-1.1h12.3
		c1.1-0.1,2.3,0.3,3.1,1.1c0.8,1.1,1.1,2.5,1,3.9c0,2.1-0.3,3.5-1,4.2c-0.8,0.8-2,1.1-3.1,1L705.9,119.5L705.9,119.5z"/>
	<path class="st1" d="M749.6,120.3c-3.1,0-6.2-0.4-9.2-1.4c-2.7-0.9-5-2.5-6.9-4.6c-0.6,1.1-1.5,2-2.5,2.7c-0.9,0.6-1.9,1.2-3,1.6
		c-1,0.4-2.1,0.6-3.2,0.8c-1.1,0.1-2.1,0.2-3.1,0.2h-3.6c-1.2,0.1-2.3-0.4-3.1-1.2c-0.7-0.8-1-2.1-1-4s0.3-3.3,1-4
		c0.8-0.8,2-1.1,3.1-1h4c0.8,0,1.6-0.2,2.3-0.5c0.8-0.3,1.5-0.9,2-1.5c0.7-0.9,1.2-1.8,1.5-2.9c0.4-1.4,0.6-2.9,0.6-4.4
		c-0.1-0.5-0.1-1-0.1-1.5v-1.5c0-3.4,0.6-6.9,1.7-10.1c0.9-2.6,2.4-4.8,4.4-6.7c1.9-1.7,4.2-3,6.6-3.8c2.7-0.8,5.5-1.2,8.3-1.2
		c2.8,0,5.7,0.4,8.4,1.2c2.5,0.8,4.8,2.1,6.7,3.9c2,2,3.6,4.4,4.4,7.1c1.2,3.4,1.7,7,1.6,10.6c0.1,3.5-0.4,6.9-1.5,10.2
		c-0.9,2.6-2.4,4.9-4.3,6.9c-1.9,1.8-4.2,3.2-6.7,3.9C755.3,119.9,752.4,120.3,749.6,120.3z M749.5,85.5c-3.3,0-5.7,1.1-7.2,3.2
		s-2.3,5.2-2.3,9.2c0,4.4,0.8,7.5,2.3,9.4s4,2.9,7.2,2.9s5.8-1,7.3-2.9s2.3-5,2.3-9.3C759.2,89.6,756,85.5,749.5,85.5z"/>
	<path class="st1" d="M11.9,200.3c-0.3,0-0.5-0.2-0.5-0.4c0,0,0,0,0-0.1v-33.6c0-0.3,0.2-0.5,0.4-0.5c0,0,0,0,0.1,0h12.9
		c1.6,0,3.1,0.3,4.6,0.8c1.3,0.5,2.6,1.2,3.6,2.2c1,0.9,1.8,2.1,2.3,3.4c0.6,1.4,0.9,2.9,0.8,4.4c0,1.5-0.3,3-0.8,4.4
		c-0.5,1.3-1.3,2.5-2.3,3.4c-1,1-2.3,1.7-3.6,2.2c-1.5,0.5-3,0.8-4.6,0.8h-7.1c-0.1,0-0.3,0.1-0.3,0.2c0,0,0,0,0,0.1v12.2
		c0,0.3-0.2,0.5-0.4,0.5c0,0,0,0-0.1,0L11.9,200.3z M24.4,181.8c1.5,0.1,3-0.4,4.2-1.4c2-2.2,2-5.6,0-7.8c-1.1-1.1-2.7-1.6-4.2-1.5
		h-6.8c-0.1,0-0.3,0.1-0.3,0.2c0,0,0,0,0,0.1v10.1c0,0.1,0.1,0.3,0.2,0.3c0,0,0,0,0.1,0L24.4,181.8z"/>
	<path class="st1" d="M53.9,195.4c1.8,0.1,3.6-0.6,4.8-1.9c1.3-1.5,2-3.5,1.9-5.5v-21.8c0-0.3,0.2-0.5,0.4-0.5c0,0,0,0,0.1,0H66
		c0.3,0,0.5,0.2,0.5,0.4c0,0,0,0,0,0.1v21.9c0,1.8-0.3,3.7-1,5.4c-0.6,1.5-1.5,2.9-2.6,4c-1.2,1.1-2.5,1.9-4,2.5
		c-3.2,1.2-6.8,1.2-10,0c-1.5-0.6-2.8-1.4-4-2.5c-1.1-1.1-2-2.5-2.6-4c-0.7-1.7-1-3.6-1-5.4v-21.9c0-0.3,0.2-0.5,0.4-0.5
		c0,0,0,0,0.1,0h4.9c0.3,0,0.5,0.2,0.5,0.4c0,0,0,0,0,0.1V188c-0.1,2,0.5,4,1.9,5.5C50.4,194.8,52.1,195.5,53.9,195.4z"/>
	<path class="st1" d="M73.9,166.3c0-0.3,0.2-0.5,0.4-0.5c0,0,0,0,0.1,0h12.8c3.6,0,6.3,0.8,8.1,2.5c1.8,1.8,2.7,4.2,2.6,6.7
		c0.1,1.7-0.3,3.3-1.2,4.7c-0.7,1.1-1.7,2-2.8,2.6v0.1c0.6,0.2,1.1,0.6,1.6,1c0.6,0.5,1.1,1.1,1.5,1.7c0.4,0.7,0.8,1.5,1.1,2.3
		c0.3,0.9,0.4,1.9,0.4,2.9c0,3.5-1,6-3.1,7.7s-5,2.5-8.7,2.5H74.4c-0.3,0-0.5-0.2-0.5-0.4c0,0,0,0,0-0.1V166.3z M87,180.1
		c1.3,0.1,2.6-0.4,3.6-1.2c1.7-1.9,1.7-4.7,0-6.6c-1-0.8-2.3-1.3-3.6-1.2h-6.9c-0.1,0-0.3,0.1-0.3,0.2c0,0,0,0,0,0.1v8.5
		c0,0.1,0.1,0.3,0.2,0.3c0,0,0,0,0.1,0H87V180.1z M79.9,194.7c0,0.1,0.1,0.3,0.2,0.3c0,0,0,0,0.1,0h7.2c1.4,0.1,2.8-0.4,3.9-1.3
		c0.9-0.9,1.4-2.2,1.3-3.5c0.1-1.3-0.4-2.6-1.3-3.5c-1.1-0.9-2.5-1.4-3.9-1.3h-7.2c-0.1,0-0.3,0.1-0.3,0.2c0,0,0,0,0,0.1L79.9,194.7
		z"/>
	<path class="st1" d="M104.5,166.3c0-0.3,0.2-0.5,0.4-0.5c0,0,0,0,0.1,0h4.9c0.3,0,0.5,0.2,0.5,0.4c0,0,0,0,0,0.1v28.3
		c0,0.1,0.1,0.3,0.2,0.3c0,0,0,0,0.1,0h15.7c0.3,0,0.5,0.2,0.5,0.4c0,0,0,0,0,0.1v4.4c0,0.3-0.2,0.5-0.4,0.5c0,0,0,0-0.1,0H105
		c-0.3,0-0.5-0.2-0.5-0.4c0,0,0,0,0-0.1V166.3z"/>
	<path class="st1" d="M132,166.3c0-0.3,0.2-0.5,0.4-0.5c0,0,0,0,0.1,0h4.9c0.3,0,0.5,0.2,0.5,0.4c0,0,0,0,0,0.1v33.5
		c0,0.3-0.2,0.5-0.4,0.5c0,0,0,0-0.1,0h-4.9c-0.3,0-0.5-0.2-0.5-0.4c0,0,0,0,0-0.1V166.3z"/>
	<path class="st1" d="M145.4,192.4c-0.2-0.5-0.3-1.1-0.4-1.6c-0.1-0.5-0.2-1.1-0.3-1.8c-0.1-0.7-0.1-1.5-0.2-2.4s-0.1-2.1-0.1-3.5
		s0-2.5,0.1-3.5s0.1-1.8,0.2-2.5s0.2-1.3,0.3-1.8s0.3-1.1,0.4-1.6c0.7-2.6,2.2-4.8,4.4-6.4c2.2-1.4,4.8-2.2,7.5-2.1
		c2.5-0.1,5,0.6,7.1,2c2,1.3,3.6,3.3,4.5,5.5c0.1,0.2,0,0.5-0.2,0.6c0,0-0.1,0-0.1,0l-4.3,2.1c-0.3,0.2-0.5,0.1-0.7-0.3
		c-0.6-1.2-1.3-2.2-2.3-3.1c-1.1-0.9-2.6-1.4-4.1-1.3c-1.4-0.1-2.8,0.4-4,1.2c-1,0.9-1.8,2-2.2,3.3c-0.1,0.4-0.2,0.7-0.3,1.1
		c-0.1,0.5-0.2,0.9-0.2,1.4c-0.1,0.7-0.1,1.5-0.1,2.2v6.3c0,0.8,0.1,1.5,0.1,2.1c0,0.5,0.1,1,0.2,1.5c0.1,0.4,0.2,0.8,0.3,1.1
		c0.4,1.3,1.2,2.4,2.2,3.3c1.2,0.9,2.6,1.3,4,1.2c1.5,0.1,2.9-0.4,4.1-1.3c1-0.8,1.8-1.9,2.3-3.1c0.1-0.3,0.4-0.4,0.7-0.3
		c0,0,0,0,0,0l4.3,2.1c0.2,0,0.4,0.3,0.3,0.5c0,0,0,0.1,0,0.1c-1.9,4.7-6.5,7.7-11.6,7.5c-2.7,0.1-5.3-0.7-7.5-2.1
		C147.7,197.2,146.1,195,145.4,192.4z"/>
	<path class="st1" d="M186.3,192.4c-0.2-0.5-0.3-1.1-0.4-1.6c-0.1-0.5-0.2-1.1-0.3-1.8c-0.1-0.7-0.1-1.5-0.2-2.4s-0.1-2.1-0.1-3.5
		s0-2.5,0.1-3.5s0.1-1.8,0.2-2.5s0.2-1.3,0.3-1.8s0.3-1.1,0.4-1.6c0.7-2.6,2.2-4.8,4.4-6.4c2.2-1.4,4.8-2.2,7.5-2.1
		c2.5-0.1,5,0.6,7.1,2c2,1.3,3.6,3.3,4.5,5.5c0.1,0.2,0,0.5-0.2,0.6c0,0-0.1,0-0.1,0l-4.3,2.1c-0.3,0.2-0.5,0.1-0.7-0.3
		c-0.6-1.2-1.3-2.2-2.3-3.1c-1.1-0.9-2.6-1.4-4.1-1.3c-1.4-0.1-2.8,0.4-4,1.2c-1,0.9-1.8,2-2.2,3.3c-0.1,0.4-0.2,0.7-0.3,1.1
		c-0.1,0.5-0.2,0.9-0.2,1.4c-0.1,0.7-0.1,1.5-0.1,2.2v6.3c0,0.8,0.1,1.5,0.1,2.1c0,0.5,0.1,1,0.2,1.5c0.1,0.4,0.2,0.8,0.3,1.1
		c0.4,1.3,1.2,2.4,2.2,3.3c1.2,0.9,2.6,1.3,4,1.2c1.5,0.1,2.9-0.4,4.1-1.3c1-0.8,1.8-1.9,2.3-3.1c0.1-0.3,0.4-0.4,0.7-0.3
		c0,0,0,0,0,0l4.3,2.1c0.2,0,0.4,0.3,0.3,0.5c0,0,0,0.1,0,0.1c-1.9,4.7-6.5,7.7-11.6,7.5c-2.7,0.1-5.3-0.7-7.5-2.1
		C188.5,197.2,187,195,186.3,192.4z"/>
	<path class="st1" d="M227.4,200.9c-2.7,0.1-5.3-0.6-7.6-2.1c-2.2-1.5-3.7-3.7-4.5-6.2c-0.2-0.5-0.3-1.1-0.4-1.6
		c-0.1-0.5-0.2-1.2-0.3-1.9s-0.1-1.6-0.2-2.5s-0.1-2.1-0.1-3.5s0-2.5,0.1-3.5s0.1-1.8,0.2-2.5s0.2-1.3,0.3-1.9s0.3-1.1,0.4-1.6
		c0.8-2.5,2.3-4.7,4.5-6.2c2.3-1.4,4.9-2.2,7.6-2.1c2.7-0.1,5.4,0.7,7.7,2.1c2.2,1.5,3.7,3.7,4.5,6.2c0.2,0.5,0.3,1.1,0.4,1.6
		c0.1,0.5,0.2,1.2,0.3,1.9s0.1,1.6,0.2,2.5s0.1,2.1,0.1,3.5s0,2.5-0.1,3.5c0,0.8-0.1,1.7-0.2,2.5c-0.1,0.7-0.2,1.3-0.3,1.9
		s-0.3,1.1-0.4,1.6c-0.8,2.5-2.3,4.7-4.5,6.2C232.8,200.2,230.1,201,227.4,200.9z M227.4,195.4c1.5,0.1,2.9-0.3,4.1-1.2
		c1.1-0.9,1.9-2,2.3-3.3c0.1-0.3,0.2-0.7,0.3-1.1s0.1-0.9,0.2-1.5c0.1-0.7,0.1-1.5,0.1-2.2c0-0.9,0.1-1.9,0.1-3.1c0-1,0-2.1-0.1-3.1
		c0-0.9-0.1-1.6-0.1-2.2s-0.1-1.1-0.2-1.5s-0.2-0.8-0.3-1.1c-0.4-1.3-1.2-2.5-2.3-3.3c-2.8-2.3-7-1.8-9.2,1
		c-0.5,0.7-0.9,1.4-1.2,2.3c-0.1,0.3-0.2,0.7-0.3,1.1c-0.1,0.5-0.2,1-0.2,1.5c-0.1,0.7-0.1,1.5-0.1,2.2v6.2c0,0.9,0.1,1.6,0.1,2.2
		s0.1,1.1,0.2,1.5s0.2,0.8,0.3,1.1c0.4,1.3,1.2,2.4,2.2,3.3C224.5,195.1,225.9,195.5,227.4,195.4z"/>
	<path class="st1" d="M247,166.3c0-0.3,0.2-0.5,0.4-0.5c0,0,0,0,0.1,0h4.6c0.4,0,0.7,0.2,0.9,0.5l14,23.8h0.2v-23.8
		c0-0.3,0.2-0.5,0.4-0.5c0,0,0,0,0.1,0h4.4c0.3,0,0.5,0.2,0.5,0.4c0,0,0,0,0,0.1v33.5c0,0.3-0.2,0.5-0.4,0.5c0,0,0,0-0.1,0h-4.6
		c-0.4,0-0.7-0.2-0.9-0.5l-14-23.8h-0.2v23.8c0,0.3-0.2,0.5-0.4,0.5c0,0,0,0-0.1,0h-4.4c-0.3,0-0.5-0.2-0.5-0.4c0,0,0,0,0-0.1
		L247,166.3L247,166.3z"/>
	<path class="st1" d="M290.9,200.9c-1.2,0-2.5-0.1-3.7-0.4c-1.2-0.2-2.4-0.6-3.5-1c-1.1-0.4-2.1-0.9-3-1.5c-0.8-0.6-1.6-1.2-2.4-1.8
		c-0.2-0.2-0.3-0.5-0.2-0.7c0,0,0,0,0.1-0.1l3.1-3.7c0.1-0.2,0.4-0.3,0.6-0.2c0,0,0.1,0.1,0.1,0.1c0.5,0.4,1.2,0.9,1.8,1.3
		s1.4,0.8,2.2,1.2c0.8,0.3,1.6,0.6,2.5,0.8c0.9,0.2,1.9,0.3,2.8,0.3c1.7,0.1,3.4-0.4,4.8-1.4c1.1-0.9,1.7-2.2,1.7-3.6
		c0-1.2-0.5-2.3-1.4-3.1c-1.4-1-3.1-1.6-4.9-1.7l-1.8-0.3c-2.8-0.3-5.5-1.3-7.7-3.1c-1.8-1.7-2.8-4.2-2.7-6.7c0-1.5,0.3-2.9,0.8-4.3
		c0.5-1.3,1.3-2.4,2.3-3.3c1.1-1,2.3-1.7,3.7-2.1c1.5-0.5,3.2-0.7,4.8-0.7c2.1,0,4.1,0.3,6.1,0.9c1.8,0.6,3.5,1.4,5,2.5
		c0.2,0.1,0.3,0.4,0.1,0.7c0,0,0,0,0,0l-2.4,3.8c-0.2,0.3-0.4,0.3-0.7,0.2c-1.3-0.8-2.7-1.5-4.1-2c-1.3-0.4-2.7-0.7-4.1-0.7
		c-1.5-0.1-2.9,0.4-4,1.3c-0.9,0.9-1.4,2.1-1.4,3.3c0,1.2,0.5,2.3,1.4,3c1.4,1,3.1,1.6,4.9,1.7l1.8,0.3c3.3,0.5,5.9,1.5,7.6,3.1
		s2.6,3.9,2.6,6.9c0,1.5-0.3,2.9-0.8,4.3c-0.5,1.3-1.4,2.5-2.5,3.4c-1.2,1-2.6,1.7-4.1,2.2C294.6,200.6,292.8,201,290.9,200.9z"/>
	<path class="st1" d="M322.1,195.4c1.8,0.1,3.6-0.6,4.8-1.9c1.3-1.5,2-3.5,1.9-5.5v-21.8c0-0.3,0.2-0.5,0.4-0.5c0,0,0,0,0.1,0h4.9
		c0.3,0,0.5,0.2,0.5,0.4c0,0,0,0,0,0.1v21.9c0,1.8-0.3,3.7-1,5.4c-0.6,1.5-1.5,2.9-2.6,4c-1.2,1.1-2.5,1.9-4,2.5
		c-3.2,1.2-6.8,1.2-10,0c-1.5-0.6-2.8-1.4-4-2.5c-1.1-1.1-2-2.5-2.6-4c-0.7-1.7-1-3.6-1-5.4v-21.9c0-0.3,0.2-0.5,0.4-0.5
		c0,0,0,0,0.1,0h4.9c0.3,0,0.5,0.2,0.5,0.4c0,0,0,0,0,0.1V188c-0.1,2,0.5,4,1.9,5.5C318.5,194.8,320.3,195.5,322.1,195.4z"/>
	<path class="st1" d="M342.1,166.3c0-0.3,0.2-0.5,0.4-0.5c0,0,0,0,0.1,0h4.9c0.3,0,0.5,0.2,0.5,0.4c0,0,0,0,0,0.1v28.3
		c0,0.1,0.1,0.3,0.2,0.3c0,0,0,0,0.1,0H364c0.3,0,0.5,0.2,0.5,0.4c0,0,0,0,0,0.1v4.4c0,0.3-0.2,0.5-0.4,0.5c0,0,0,0-0.1,0h-21.5
		c-0.3,0-0.5-0.2-0.5-0.4c0,0,0,0,0-0.1v-33.5H342.1z"/>
	<path class="st1" d="M372.6,200.3c-0.3,0-0.5-0.2-0.5-0.4c0,0,0,0,0-0.1v-28.3c0-0.1-0.1-0.3-0.2-0.3c0,0,0,0-0.1,0h-9
		c-0.3,0-0.5-0.2-0.5-0.4c0,0,0,0,0-0.1v-4.4c0-0.3,0.2-0.5,0.4-0.5c0,0,0,0,0.1,0h24.5c0.3,0,0.5,0.2,0.5,0.4c0,0,0,0,0,0.1v4.4
		c0,0.3-0.2,0.5-0.4,0.5c0,0,0,0-0.1,0h-9c-0.1,0-0.3,0.1-0.3,0.2c0,0,0,0,0,0.1v28.3c0,0.3-0.2,0.5-0.4,0.5c0,0,0,0-0.1,0H372.6z"
		/>
	<path class="st1" d="M398.6,166.3c0.1-0.3,0.4-0.5,0.7-0.5h4.6c0.3,0,0.6,0.2,0.7,0.5l11.6,33.5c0.1,0.3,0,0.5-0.4,0.5h-4.9
		c-0.3,0-0.6-0.2-0.7-0.5l-2.3-6.7H395l-2.3,6.7c-0.1,0.3-0.4,0.5-0.7,0.5h-4.9c-0.3,0-0.5-0.2-0.4-0.5L398.6,166.3z M406.1,187.8
		l-4.5-13.4h-0.2l-4.6,13.4H406.1z"/>
	<path class="st1" d="M425.4,200.3c-0.3,0-0.5-0.2-0.5-0.4c0,0,0,0,0-0.1v-28.3c0-0.1-0.1-0.3-0.2-0.3c0,0,0,0-0.1,0h-9
		c-0.3,0-0.5-0.2-0.5-0.4c0,0,0,0,0-0.1v-4.4c0-0.3,0.2-0.5,0.4-0.5c0,0,0,0,0.1,0h24.5c0.3,0,0.5,0.2,0.5,0.4c0,0,0,0,0,0.1v4.4
		c0,0.3-0.2,0.5-0.4,0.5c0,0,0,0-0.1,0h-9c-0.1,0-0.3,0.1-0.3,0.2c0,0,0,0,0,0.1v28.3c0,0.3-0.2,0.5-0.4,0.5c0,0,0,0-0.1,0H425.4z"
		/>
	<path class="st1" d="M445.5,166.3c0-0.3,0.2-0.5,0.4-0.5c0,0,0,0,0.1,0h4.9c0.3,0,0.5,0.2,0.5,0.4c0,0,0,0,0,0.1v33.5
		c0,0.3-0.2,0.5-0.4,0.5c0,0,0,0-0.1,0H446c-0.3,0-0.5-0.2-0.5-0.4c0,0,0,0,0-0.1V166.3z"/>
	<path class="st1" d="M471,200.9c-2.7,0.1-5.3-0.6-7.6-2.1c-2.2-1.5-3.7-3.7-4.5-6.2c-0.2-0.5-0.3-1.1-0.4-1.6
		c-0.1-0.5-0.2-1.2-0.3-1.9s-0.1-1.6-0.2-2.5s-0.1-2.1-0.1-3.5s0-2.5,0.1-3.5s0.1-1.8,0.2-2.5s0.2-1.3,0.3-1.9s0.3-1.1,0.4-1.6
		c0.8-2.5,2.3-4.7,4.5-6.2c2.3-1.4,4.9-2.2,7.6-2.1c2.7-0.1,5.4,0.7,7.7,2.1c2.2,1.5,3.7,3.7,4.5,6.2c0.2,0.5,0.3,1.1,0.4,1.6
		c0.1,0.5,0.2,1.2,0.3,1.9s0.1,1.6,0.2,2.5s0.1,2.1,0.1,3.5s0,2.5-0.1,3.5c0,0.8-0.1,1.7-0.2,2.5c-0.1,0.7-0.2,1.3-0.3,1.9
		s-0.3,1.1-0.4,1.6c-0.8,2.5-2.3,4.7-4.5,6.2C476.4,200.3,473.7,201,471,200.9z M471,195.4c1.5,0.1,2.9-0.3,4.1-1.2
		c1.1-0.9,1.9-2,2.3-3.3c0.1-0.3,0.2-0.7,0.3-1.1s0.1-0.9,0.2-1.5c0.1-0.7,0.1-1.5,0.1-2.2c0-0.9,0.1-1.9,0.1-3.1c0-1,0-2.1-0.1-3.1
		c0-0.9-0.1-1.6-0.1-2.2s-0.1-1.1-0.2-1.5s-0.2-0.8-0.3-1.1c-0.4-1.3-1.2-2.5-2.3-3.3c-2.8-2.3-7-1.8-9.2,1
		c-0.5,0.7-0.9,1.4-1.2,2.3c-0.1,0.3-0.2,0.7-0.3,1.1c-0.1,0.5-0.2,1-0.2,1.5c-0.1,0.7-0.1,1.5-0.1,2.2v6.2c0,0.9,0.1,1.6,0.1,2.2
		s0.1,1.1,0.2,1.5s0.2,0.8,0.3,1.1c0.4,1.3,1.2,2.4,2.2,3.3C468.1,195.1,469.5,195.5,471,195.4z"/>
	<path class="st1" d="M490.6,166.3c0-0.3,0.2-0.5,0.4-0.5c0,0,0,0,0.1,0h4.6c0.4,0,0.7,0.2,0.9,0.5l14,23.8h0.2v-23.8
		c0-0.3,0.2-0.5,0.4-0.5c0,0,0,0,0.1,0h4.4c0.3,0,0.5,0.2,0.5,0.4c0,0,0,0,0,0.1v33.5c0,0.3-0.2,0.5-0.4,0.5c0,0,0,0-0.1,0h-4.6
		c-0.4,0-0.7-0.2-0.9-0.5l-14-23.8H496v23.8c0,0.3-0.2,0.5-0.4,0.5c0,0,0,0-0.1,0h-4.4c-0.3,0-0.5-0.2-0.5-0.4c0,0,0,0,0-0.1V166.3z
		"/>
	<path class="st1" d="M536.1,200.3c-0.3,0-0.5-0.2-0.5-0.4c0,0,0,0,0-0.1v-33.6c0-0.3,0.2-0.5,0.4-0.5c0,0,0,0,0.1,0H549
		c1.6,0,3.1,0.3,4.6,0.8c1.3,0.5,2.6,1.2,3.6,2.2c1,0.9,1.8,2.1,2.3,3.4c0.6,1.4,0.9,2.9,0.8,4.4c0,1.5-0.3,3-0.8,4.4
		c-0.5,1.3-1.3,2.5-2.3,3.4c-1,1-2.3,1.7-3.6,2.2c-1.5,0.5-3,0.8-4.6,0.8h-7.1c-0.1,0-0.3,0.1-0.3,0.2c0,0,0,0,0,0.1v12.2
		c0,0.3-0.2,0.5-0.4,0.5c0,0,0,0-0.1,0L536.1,200.3z M548.6,181.8c1.5,0.1,3-0.4,4.2-1.4c2-2.2,2-5.6,0-7.8
		c-1.1-1.1-2.7-1.6-4.2-1.5h-6.8c-0.1,0-0.3,0.1-0.3,0.2c0,0,0,0,0,0.1v10.1c0,0.1,0.1,0.3,0.2,0.3c0,0,0,0,0.1,0L548.6,181.8z"/>
	<path class="st1" d="M565.8,166.3c0-0.3,0.2-0.5,0.4-0.5c0,0,0,0,0.1,0h4.9c0.3,0,0.5,0.2,0.5,0.4c0,0,0,0,0,0.1v28.3
		c0,0.1,0.1,0.3,0.2,0.3c0,0,0,0,0.1,0h15.7c0.3,0,0.5,0.2,0.5,0.4c0,0,0,0,0,0.1v4.4c0,0.3-0.2,0.5-0.4,0.5c0,0,0,0-0.1,0h-21.5
		c-0.3,0-0.5-0.2-0.5-0.4c0,0,0,0,0-0.1L565.8,166.3L565.8,166.3z"/>
	<path class="st1" d="M602.1,166.3c0.1-0.3,0.4-0.5,0.7-0.5h4.6c0.3,0,0.6,0.2,0.7,0.5l11.6,33.5c0.1,0.3,0,0.5-0.4,0.5h-4.9
		c-0.3,0-0.6-0.2-0.7-0.5l-2.3-6.7h-12.9l-2.3,6.7c-0.1,0.3-0.4,0.5-0.7,0.5h-4.9c-0.3,0-0.5-0.2-0.4-0.5L602.1,166.3z M609.6,187.8
		l-4.5-13.4H605l-4.6,13.4H609.6z"/>
	<path class="st1" d="M628.9,200.3c-0.3,0-0.5-0.2-0.5-0.4c0,0,0,0,0-0.1v-28.3c0-0.1-0.1-0.3-0.2-0.3c0,0,0,0-0.1,0h-9
		c-0.3,0-0.5-0.2-0.5-0.4c0,0,0,0,0-0.1v-4.4c0-0.3,0.2-0.5,0.4-0.5c0,0,0,0,0.1,0h24.5c0.3,0,0.5,0.2,0.5,0.4c0,0,0,0,0,0.1v4.4
		c0,0.3-0.2,0.5-0.4,0.5c0,0,0,0-0.1,0h-9c-0.1,0-0.3,0.1-0.3,0.2c0,0,0,0,0,0.1v28.3c0,0.3-0.2,0.5-0.4,0.5c0,0,0,0-0.1,0H628.9z"
		/>
	<path class="st1" d="M649.1,166.2c0-0.3,0.2-0.5,0.4-0.5c0,0,0,0,0.1,0H671c0.3,0,0.5,0.2,0.5,0.4c0,0,0,0,0,0.1v4.4
		c0,0.3-0.2,0.5-0.4,0.5c0,0,0,0-0.1,0h-15.7c-0.1,0-0.3,0.1-0.3,0.2c0,0,0,0,0,0.1v8.7c0,0.1,0.1,0.3,0.2,0.3c0,0,0,0,0.1,0h13.3
		c0.3,0,0.5,0.2,0.5,0.4c0,0,0,0,0,0.1v4.4c0,0.3-0.2,0.5-0.4,0.5c0,0,0,0-0.1,0h-13.3c-0.1,0-0.3,0.1-0.3,0.2c0,0,0,0,0,0.1v13.6
		c0,0.3-0.2,0.5-0.4,0.5c0,0,0,0-0.1,0h-4.9c-0.3,0-0.5-0.2-0.5-0.4c0,0,0,0,0-0.1V166.2z"/>
	<path class="st1" d="M689.3,200.9c-2.7,0.1-5.3-0.6-7.6-2.1c-2.2-1.5-3.7-3.7-4.5-6.2c-0.2-0.5-0.3-1.1-0.4-1.6
		c-0.1-0.5-0.2-1.2-0.3-1.9s-0.1-1.6-0.2-2.5s-0.1-2.1-0.1-3.5s0-2.5,0.1-3.5c0-0.8,0.1-1.7,0.2-2.5c0.1-0.7,0.2-1.3,0.3-1.9
		s0.3-1.1,0.4-1.6c0.8-2.5,2.3-4.7,4.5-6.2c2.3-1.4,4.9-2.2,7.6-2.1c2.7-0.1,5.4,0.7,7.7,2.1c2.2,1.5,3.7,3.7,4.5,6.2
		c0.2,0.5,0.3,1.1,0.4,1.6c0.1,0.5,0.2,1.2,0.3,1.9s0.1,1.6,0.2,2.5s0.1,2.1,0.1,3.5s0,2.5-0.1,3.5c0,0.8-0.1,1.7-0.2,2.5
		c-0.1,0.7-0.2,1.3-0.3,1.9s-0.3,1.1-0.4,1.6c-0.8,2.5-2.3,4.7-4.5,6.2C694.7,200.3,692,201,689.3,200.9z M689.3,195.4
		c1.5,0.1,2.9-0.3,4.1-1.2c1.1-0.9,1.9-2,2.3-3.3c0.1-0.3,0.2-0.7,0.3-1.1s0.1-0.9,0.2-1.5c0.1-0.7,0.1-1.5,0.1-2.2
		c0-0.9,0.1-1.9,0.1-3.1c0-1,0-2.1-0.1-3.1c0-0.9-0.1-1.6-0.1-2.2s-0.1-1.1-0.2-1.5s-0.2-0.8-0.3-1.1c-0.4-1.3-1.2-2.5-2.3-3.3
		c-2.8-2.3-7-1.8-9.2,1c-0.5,0.7-0.9,1.4-1.2,2.3c-0.1,0.3-0.2,0.7-0.3,1.1c-0.1,0.5-0.2,1-0.2,1.5c-0.1,0.7-0.1,1.5-0.1,2.2v6.2
		c0,0.9,0.1,1.6,0.1,2.2s0.1,1.1,0.2,1.5s0.2,0.8,0.3,1.1c0.4,1.3,1.2,2.4,2.2,3.3C686.4,195.1,687.8,195.5,689.3,195.4z"/>
	<path class="st1" d="M728.4,200.3c-0.3,0-0.7-0.2-0.8-0.5l-6.6-13.5h-5.9c-0.1,0-0.3,0.1-0.3,0.2c0,0,0,0,0,0.1v13.2
		c0,0.3-0.2,0.5-0.4,0.5c0,0,0,0-0.1,0h-4.9c-0.3,0-0.5-0.2-0.5-0.4c0,0,0,0,0-0.1v-33.6c0-0.3,0.2-0.5,0.4-0.5c0,0,0,0,0.1,0h13.3
		c1.5,0,3,0.3,4.4,0.8c1.3,0.5,2.5,1.2,3.5,2.1c4.1,3.9,4.3,10.3,0.5,14.4c-1.1,1.1-2.4,2-3.9,2.6l7.2,14.1c0.1,0.2,0.1,0.3,0,0.5
		c-0.1,0.1-0.2,0.2-0.4,0.2h-5.6L728.4,200.3z M722.5,180.9c1.4,0.1,2.8-0.4,3.8-1.3c1-0.9,1.5-2.2,1.4-3.5c0-1.3-0.5-2.6-1.4-3.6
		c-1-0.9-2.4-1.4-3.8-1.3h-7.3c-0.1,0-0.3,0.1-0.3,0.2c0,0,0,0,0,0.1v9.1c0,0.1,0.1,0.3,0.2,0.3c0,0,0,0,0.1,0H722.5z"/>
	<path class="st1" d="M740.1,166.3c0-0.3,0.2-0.5,0.4-0.5c0,0,0,0,0.1,0h4.5c0.4,0,0.7,0.2,0.9,0.5l9.4,21.3h0.2l9.3-21.3
		c0.1-0.3,0.4-0.5,0.9-0.5h4.4c0.3,0,0.5,0.2,0.5,0.4c0,0,0,0,0,0.1v33.5c0,0.3-0.2,0.5-0.4,0.5c0,0,0,0-0.1,0h-4.4
		c-0.3,0-0.5-0.2-0.5-0.4c0,0,0,0,0-0.1v-21.1h-0.2l-7.3,16.3c-0.2,0.4-0.6,0.7-1,0.7h-2.9c-0.5,0-0.9-0.3-1-0.7l-7.3-16.3h-0.2
		v21.1c0,0.3-0.2,0.5-0.4,0.5c0,0,0,0-0.1,0h-4.4c-0.3,0-0.5-0.2-0.5-0.4c0,0,0,0,0-0.1v-33.5H740.1z"/>
</g>
</svg>
