<?xml version="1.0" encoding="UTF-8"?>
<svg id="Layer_2" data-name="Layer 2" xmlns="http://www.w3.org/2000/svg" xmlns:xlink="http://www.w3.org/1999/xlink" viewBox="0 0 38.55 38.66">
  <defs>
    <style>
      .cls-1 {
        fill: url(#linear-gradient-4);
      }

      .cls-2 {
        fill: url(#linear-gradient-3);
      }

      .cls-3 {
        fill: url(#linear-gradient-2);
      }

      .cls-4 {
        fill: url(#linear-gradient);
      }
    </style>
    <linearGradient id="linear-gradient" x1="0" y1="19.33" x2="38.55" y2="19.33" gradientUnits="userSpaceOnUse">
      <stop offset="0" stop-color="#6566f2"/>
      <stop offset=".61" stop-color="#8a5df5"/>
      <stop offset="1" stop-color="#a057f6"/>
    </linearGradient>
    <linearGradient id="linear-gradient-2" x1="9.19" y1="18.27" x2="29.36" y2="18.27" xlink:href="#linear-gradient"/>
    <linearGradient id="linear-gradient-3" x1="20.01" y1="19.41" x2="21.51" y2="19.41" xlink:href="#linear-gradient"/>
    <linearGradient id="linear-gradient-4" x1="15.72" y1="29.85" x2="21.51" y2="29.85" xlink:href="#linear-gradient"/>
  </defs>
  <g id="Layer_1-2" data-name="Layer 1">
    <g>
      <path class="cls-4" d="M30.48,3.68C26.91,1.01,22.14-.34,17.72.07c-4.14.39-8.03,2.01-11.11,4.79C3.62,7.55,1.5,11.02.54,14.92c-1.77,7.24.92,14.72,6.62,19.38,2.1,1.72,4.42,2.93,6.95,3.64,5.77,1.62,11.96.47,16.73-3.19,3.46-2.66,6.13-6.37,7.17-10.69.93-3.85.7-7.93-.79-11.62-1.44-3.56-3.68-6.48-6.72-8.76ZM33.03,28.34c-3.46,5.35-9.98,8.3-16.27,7.22-4.27-.73-7.72-2.76-10.36-6.1-2.18-2.76-3.5-6.29-3.52-9.83-.01-2.72.62-5.32,1.9-7.79,2.32-4.5,6.65-7.82,11.65-8.69,5.12-.89,10.16.71,13.96,4.21,1.85,1.71,3.26,3.8,4.21,6.26,1.87,4.81,1.22,10.38-1.57,14.71Z"/>
      <path class="cls-3" d="M23.35,13.12c-.38-.8-.71-1.44-.99-1.93-.88-1.54-2.9-1.88-4.47-1.37-.85.27-1.47.79-1.86,1.54-.39.75-.65,1.26-.78,1.53-1.58,3.29-3.49,7.33-5.72,12.14-.16.35-.42.87-.32,1.17.09.27.24.47.46.61.13.08.36.12.68.12,4.84,0,8.56,0,11.17,0,3.32,0,5.67,0,7.04,0,.39,0,.74-.5.79-.82.04-.3-.17-.76-.29-1.01-1.57-3.35-3.48-7.35-5.72-12ZM22.08,21.52c-.78,1.55-2.65,2.19-4.19,1.42-1.54-.77-2.15-2.65-1.37-4.2s2.65-2.19,4.19-1.42c1.54.77,2.15,2.65,1.37,4.2Z"/>
      <path class="cls-2" d="M20.41,18.7c-.37.18-.51.64-.32,1.04s.65.56,1.02.38c.37-.18.51-.64.32-1.04s-.65-.56-1.02-.38Z"/>
      <path class="cls-1" d="M21.23,29.39h-5.22c-.08,0-.15.03-.2.08-.11.11-.11.29,0,.41l.35.35c.05.05.13.08.2.08h4.53c.08,0,.15-.03.2-.08l.35-.35c.05-.05.08-.13.08-.2,0-.16-.13-.29-.29-.29Z"/>
    </g>
  </g>
</svg>