<?xml version="1.0" encoding="UTF-8"?>
<svg id="Layer_1" xmlns="http://www.w3.org/2000/svg" version="1.1" viewBox="0 0 91.7 40">
  <!-- Generator: Adobe Illustrator 29.1.0, SVG Export Plug-In . SVG Version: 2.1.0 Build 142)  -->
  <defs>
    <style>
      .st0 {
        fill: #fff;
      }
    </style>
  </defs>
  <g>
    <path class="st0" d="M32.3,4.5C28.7,1.8,23.9.5,19.5.9c-4.1.4-8,2-11.1,4.8-3,2.7-5.1,6.2-6.1,10.1-1.8,7.2.9,14.7,6.6,19.4,2.1,1.7,4.4,2.9,6.9,3.6,5.8,1.6,12,.5,16.7-3.2,3.5-2.7,6.1-6.4,7.2-10.7.9-3.8.7-7.9-.8-11.6-1.4-3.6-3.7-6.5-6.7-8.8ZM34.8,29.1c-3.5,5.4-10,8.3-16.3,7.2-4.3-.7-7.7-2.8-10.4-6.1-2.2-2.8-3.5-6.3-3.5-9.8,0-2.7.6-5.3,1.9-7.8,2.3-4.5,6.7-7.8,11.6-8.7,5.1-.9,10.2.7,14,4.2,1.9,1.7,3.3,3.8,4.2,6.3,1.9,4.8,1.2,10.4-1.6,14.7Z"/>
    <path class="st0" d="M25.1,13.9c-.4-.8-.7-1.4-1-1.9-.9-1.5-2.9-1.9-4.5-1.4-.8.3-1.5.8-1.9,1.5-.4.7-.6,1.3-.8,1.5-1.6,3.3-3.5,7.3-5.7,12.1-.2.3-.4.9-.3,1.2,0,.3.2.5.5.6.1,0,.4.1.7.1,4.8,0,8.6,0,11.2,0,3.3,0,5.7,0,7,0,.4,0,.7-.5.8-.8,0-.3-.2-.8-.3-1-1.6-3.3-3.5-7.3-5.7-12ZM23.9,22.3c-.8,1.6-2.7,2.2-4.2,1.4-1.5-.8-2.2-2.7-1.4-4.2s2.7-2.2,4.2-1.4c1.5.8,2.2,2.7,1.4,4.2Z"/>
    <path class="st0" d="M22.2,19.5c-.4.2-.5.6-.3,1s.6.6,1,.4c.4-.2.5-.6.3-1s-.6-.6-1-.4Z"/>
    <path class="st0" d="M23,30.2h-5.2c0,0-.1,0-.2,0-.1.1-.1.3,0,.4l.3.3c0,0,.1,0,.2,0h4.5c0,0,.1,0,.2,0l.3-.3c0,0,0-.1,0-.2,0-.2-.1-.3-.3-.3Z"/>
  </g>
  <g>
    <path class="st0" d="M50.3,18.5c.5.2,1.1.4,1.8.6s1.6.2,2.7.2c3.1,0,5.4-.4,7.1-1.3.3-.8.5-2.1.5-3.8s-.4-3.3-1.1-4.4c-.7-1-1.6-1.6-2.7-1.6s-1.8.4-2.5,1.3-1,1.8-1,3c0,2,1.1,2.9,3.2,2.9s1.4,0,1.9-.3c0,0,0,.1,0,.2,0,.1,0,.2,0,.2-1,.3-2.6.5-4.7.5s-2,0-2.6-.3c-.6-.2-1-.4-1.3-.7-.2-.3-.3-.8-.3-1.3s0-1,.2-1.8l-2.2-.5c-.4,1.3-.7,2.4-.7,3.4s0,1,.2,1.4c.1.4.3.8.6,1.2.3.4.6.7,1.1.9ZM59.2,13c-.7,0-1.2,0-1.5-.3-.3-.2-.4-.4-.4-.8s0-.6.3-.9c.2-.3.5-.4.9-.4s.7.2,1,.6c.3.4.4.9.6,1.6-.2,0-.5,0-.7,0Z"/>
    <polygon class="st0" points="60.2 5.9 58.3 4.3 56.8 6.1 58.6 7.6 60.2 5.9"/>
    <path class="st0" d="M67.8,19.1h9c.9,0,1.6-.2,2.3-.7.8.5,1.7.7,2.7.7s2.1-.3,2.7-.8c.6.5,1.3.7,2.4.7s2.1-.3,3.2-.9c.3-.8.4-1.9.4-3.3s-.1-1.7-.3-2.8l-2.5.5c.3,1.6.5,2.6.5,3.1-.5.1-.9.2-1.2.2-.8,0-1.1-.3-1.1-1v-2l-2.4.2v1.4c0,.8-.5,1.3-1.4,1.3s-.8,0-1.2-.3c0-.4.1-.8.1-1.1v-1.3c0,0-2.3.2-2.3.2v1.1c-.1.6-.3,1-.5,1.2-.2.2-.5.3-.9.3h-8.6c-1,0-1.5-.5-1.5-1.6v-7.9l-2.7.2v8.2c0,1.3.3,2.3.8,3.1s1.4,1.1,2.7,1.1Z"/>
    <polygon class="st0" points="85.5 8.3 84 7 82.8 8.5 84.3 9.7 85.5 8.3"/>
    <polygon class="st0" points="84.4 10.9 85.8 12 87.2 10.5 85.5 9.1 84.4 10.4 83 9.2 81.6 10.8 83.3 12.2 84.4 10.9"/>
    <path class="st0" d="M56.7,29.9c-.4-.3-.7-.5-1.1-.7-.4-.2-.9-.4-1.4-.6-.7-.2-1.1-.5-1.3-.6-.2-.2-.3-.4-.3-.8,0-.6.5-.9,1.4-.9s1.8.2,2.7.6l.6-2.5c-.9-.5-2.1-.7-3.4-.7s-2.5.3-3.2,1c-.7.6-1.1,1.5-1.1,2.7s.3,1.7.8,2.3c.6.6,1.4,1,2.4,1.4.8.3,1.3.5,1.6.7.3.2.4.5.4.8,0,.7-.5,1-1.6,1s-2.1-.2-3.1-.7l-.6,2.6c1.1.5,2.3.7,3.8.7s2.5-.3,3.3-1c.8-.7,1.2-1.6,1.2-2.7s0-1.1-.3-1.5c-.2-.4-.4-.8-.8-1.1Z"/>
    <polygon class="st0" points="66.2 28.5 62.2 28.5 62.2 23.8 59.1 23.8 59.1 36 62.2 36 62.2 31.1 66.2 31.1 66.2 36 69.2 36 69.2 23.8 66.2 23.8 66.2 28.5"/>
    <path class="st0" d="M77.7,23.8h-3.2c-.7,1.5-1.4,3.3-2.1,5.6-.7,2.2-1.4,4.4-1.9,6.6h3.2l.6-2.2h4l.6,2.2h3.2c-.5-2.1-1.2-4.3-1.9-6.6-.8-2.3-1.5-4.1-2.2-5.6ZM74.8,31.1c.5-2,1-3.3,1.3-4,.3.7.8,2.1,1.3,4h-2.6Z"/>
    <polygon class="st0" points="90.7 26.4 90.7 23.8 83 23.8 83 36 86.1 36 86.1 31.7 90 31.7 90 29.1 86.1 29.1 86.1 26.4 90.7 26.4"/>
  </g>
</svg>